<?xml version="1.0" encoding="utf-8"?>
<!-- Generator: Adobe Illustrator 19.2.1, SVG Export Plug-In . SVG Version: 6.00 Build 0)  -->
<svg version="1.1"
	 id="svg2" inkscape:export-xdpi="90" inkscape:export-ydpi="90" inkscape:output_extension="org.inkscape.output.svg.inkscape" inkscape:version="0.45.1" sodipodi:docname="SSA.svg" sodipodi:version="0.32" xmlns:cc="http://web.resource.org/cc/" xmlns:dc="http://purl.org/dc/elements/1.1/" xmlns:inkscape="http://www.inkscape.org/namespaces/inkscape" xmlns:rdf="http://www.w3.org/1999/02/22-rdf-syntax-ns#" xmlns:sodipodi="http://sodipodi.sourceforge.net/DTD/sodipodi-0.dtd" xmlns:svg="http://www.w3.org/2000/svg"
	 xmlns="http://www.w3.org/2000/svg" xmlns:xlink="http://www.w3.org/1999/xlink" x="0px" y="0px" viewBox="0 0 99.1 100"
	 style="enable-background:new 0 0 99.1 100;" xml:space="preserve">
<style type="text/css">
	.st0{fill:#FFFFFF;}
	.st1{fill:none;}
	.st2{fill:#333366;}
	.st3{fill:#CC3333;}
</style>
<circle class="st0" cx="49.5" cy="50" r="49"/>
<sodipodi:namedview  bordercolor="#666666" borderopacity="1.0" gridtolerance="10.0" guidetolerance="10.0" id="base" inkscape:current-layer="svg2" inkscape:cx="360" inkscape:cy="360" inkscape:pageopacity="0.0" inkscape:pageshadow="2" inkscape:showpageshadow="false" inkscape:window-height="581" inkscape:window-width="697" inkscape:window-x="396" inkscape:window-y="22" inkscape:zoom="0.525" objecttolerance="10.0" pagecolor="#ffffff">
	</sodipodi:namedview>
<title  id="title4">SVG drawing</title>
<desc  id="desc6">This was produced by version 4.1 of GNU libplot, a free library for exporting 2-D vector graphics.</desc>
<g>
	<line id="line274" class="st1" x1="59.8" y1="51.3" x2="59.8" y2="51.3"/>
	<path id="path276" class="st2" d="M7.2,49.8L7.2,49.8L7.2,49.8L7.2,49.8L7.2,49.8L7.2,49.8L7.2,49.8L7.2,49.8L7.2,49.8l0.2,0.1h0.1
		h0.1h0.1h0.1h0.1H8h0.1h0.1h0.1h0.1h0.1h0.1h0.1h0.1h0.1h0.1H9h0.1h0.2h0.1h0.1h0.1h0.1h0.1h0.1h0.1H10c1.9-1,2.8-1.6,4.9-6.2
		c2.3-4.8,4.6-10.6,8.3-14c3.7-3.3,7.8-5.7,13.8-4.2c0,0-0.1,0.5-2.5,0.7c-1.1,0.1-4.9,0.9-8.5,4c-4.1,3.6-6.6,10-8,12.8
		c-1,2.2-4,8.8-7.9,8.8C8.8,51.6,7.2,49.8,7.2,49.8z"/>
	<path id="path278" class="st2" d="M22.6,39.2l0.2-0.4l0.2-0.4l0.2-0.4l0.2-0.4l0.2-0.4l0.2-0.4l0.2-0.4l0.2-0.4l0.2-0.4l0.2-0.3
		l0.2-0.3l0.2-0.3l0.4-0.6l0.4-0.6l0.4-0.5l0.4-0.5l0.4-0.5l0.4-0.4l0.4-0.4l0.4-0.4l0.3-0.3l0.3-0.3l0.3-0.3l0.3-0.2l0.3-0.2
		l0.3-0.2l0.3-0.2l0.2-0.1l0.2-0.1l0.2-0.1l0.2-0.1l0.2-0.1l-0.1,0.1h0.1h0.1h0.1l0,0l0,0c0,0,0,1.9,0.2,2.4c0,0-3.5,0.8-7.2,10.7
		c-1.3,3.4-4,9.1-8.6,9.1C15.4,51.5,18,49.5,22.6,39.2z"/>
	<path id="path280" class="st2" d="M25,46L25,46L25,46L25,46L25,46L25,46L25,46v-0.2v-0.1v-0.1v-0.1v-0.1v-0.1l0.1-0.1l0.1-0.1
		l0.1-0.2l0.1-0.2l0.1-0.2l0.1-0.2l0.1-0.2l0.1-0.2l0.1-0.2l0.1-0.2l0.1-0.2l0.1-0.3l0.1-0.3l0.1-0.3l0.1-0.3l0.1-0.3l0.1-0.3
		l0.1-0.3l0.2-0.3l0.2-0.4c3.4-7.7,7.2-8.7,8.2-8.8c1.1-0.1,1.7,0.6,1.7,0.6s-5,1.4-8.3,11.6C28.9,44.2,26.3,45,25,46z"/>
	<path id="path282" class="st2" d="M31.9,43.2L31.9,43.2L31.9,43.2L31.9,43.2L31.9,43.2L31.9,43.2V43v-0.1v-0.1l0.1-0.2l0.1-0.2
		l0.1-0.2l0.1-0.3l0.1-0.3l0.1-0.3l0.1-0.3l0.2-0.3l0.2-0.4l0.2-0.4l0.2-0.4l0.2-0.4l0.2-0.4l0.2-0.4l0.3-0.4l0.3-0.4l0.3-0.4
		l0.3-0.4l0.3-0.4l0.3-0.4l0.4-0.4l0.4-0.4l0.4-0.4l0.4-0.4l0.4-0.3l0.4-0.3l0.4-0.3l0.5-0.3l1.3,1.4c0,0-3.8,3-5.3,7.3
		C34.7,42.8,32.7,42.9,31.9,43.2z"/>
	<path id="path284" class="st2" d="M40.4,43v-0.2v-0.2l0.1-0.2l0.1-0.2l0.1-0.2l0.1-0.2l0.1-0.2l0.1-0.2l0,0l0.1-0.2l0.1-0.2
		l0.1-0.2l0.1-0.2l0.1-0.2l0.1-0.2l0.1-0.2l0.1-0.1l0.1-0.1l0.1-0.1l0.1-0.1l0.1-0.1l0.1-0.1l0.1-0.1l0.1-0.1l0.1-0.1l0.1-0.1
		l0.1-0.1l0,0l0,0l0,0l0,0l0,0l0,0l0,0l0,0l0,0l0,0l-1.2-1.7c0,0-2.5,1.8-3.9,5.4c0,0,1,0,1.5,0.1C39.7,43,40.4,43,40.4,43z"/>
	<path id="path286" class="st2" d="M39.2,27.7L39.2,27.7L39.2,27.7L39.2,27.7L39.2,27.7L39.2,27.7L39.2,27.7L39.2,27.7L39.2,27.7
		L39.2,27.7L39.2,27.7L39.2,27.7L39.2,27.7L39.2,27.7L39.2,27.7L39.2,27.7L39.2,27.7L39.2,27.7L39.2,27.7L39.2,27.7L39.2,27.7
		L39.2,27.7L39.2,27.7L39.2,27.7l0.1,0.2l0,0l0,0V28l0,0v0.1v0.1v0.1v0.1v0.1v0.1v0.1v0.1v0.1c0,0,0.7-0.6,2.2-0.6
		C41.8,28.3,39.9,27.8,39.2,27.7z"/>
	<path id="path288" class="st2" d="M50.6,36.7L50.6,36.7L50.6,36.7L50.6,36.7L50.6,36.7L50.6,36.7L50.6,36.7L50.6,36.7L50.6,36.7
		L50.6,36.7L50.6,36.7L50.6,36.7L50.6,36.7h0.2h0.1H51h0.1h0.1h0.1h0.1h0.1h0.1h0.1h0.1h0.1h0.1H52h0.1h0.1l0.1-0.1l0.1-0.1l0.1-0.1
		l0.1-0.1l0.1-0.1l0.6-0.4l0.1-0.1l0.1-0.1l0.1-0.1l0,0l0,0c0,0,5.2,2.4,6.8,6.5c0,0-2.2,0-3.2,0.3C57.1,42.4,55.6,39.4,50.6,36.7z"
		/>
	<path id="path290" class="st2" d="M66.2,42.8L66.2,42.8L66.2,42.8L66.2,42.8L66.2,42.8L66.2,42.8L66.2,42.8L66.2,42.8L66.2,42.8
		L66.2,42.8L66.2,42.8L66.2,42.8L66.2,42.8H66h-0.1h-0.1h-0.1h-0.1h-0.1h-0.1h-0.1h-0.1h-0.1h-0.1H65l-0.3-0.1h-0.3h-0.1h-0.1h-0.1
		h-0.1H64h-0.1h-0.1h-0.1h-0.1h-0.1c0,0,0-4.6-7.6-8.1c0,0,1.2-1.6,1.6-2.3C56.9,31.9,65.1,34.7,66.2,42.8z"/>
	<path id="path292" class="st2" d="M73.8,46.2L73.8,46.2L73.8,46.2L73.8,46.2L73.8,46.2L73.8,46.2l-0.2-0.1h-0.1L73.5,46L73.4,46
		l-0.1-0.1l-0.1-0.1l-0.1-0.1L73,45.6l0,0l-0.1-0.1l-0.1-0.1l-0.2-0.1l-0.2-0.1l-0.2-0.1L72.1,45l-0.2-0.1l-0.2-0.1l-0.2-0.1
		l-0.2-0.1l-0.2-0.1L71,44.4l-0.2-0.1l-0.2-0.1l-0.2-0.1L70.3,44l-0.2-0.1l-0.2-0.1c0,0-2.1-12.4-12.2-12.9c0,0,0.7-1.3,1.1-2.2
		c0.1-0.2,0.5-0.4,0.6-0.5c0,0,6.1-1.6,11.2,2c2.4,1.6,5,6.2,7.2,11.9c1.9,4.7,4.2,8.5,4.8,9.2c0,0-2.4-0.3-3.8-1.7
		c-2-2-5.1-11.8-7.2-14.6c-2-2.7-3.9-5.2-9.6-4.9c0,0,4,1.2,6.6,4.6C71.5,38.4,73.8,46.2,73.8,46.2z"/>
	<path id="path294" class="st2" d="M55.9,25.6l-0.1,0.3l-0.1,0.3l-0.1,0.3l-0.1,0.3L55.4,27l-0.3,0.4L55,27.7L54.9,28l-0.1,0.3
		l-0.1,0.3l-0.1,0.2l-0.1,0.2l-0.1,0.2l-0.4,0.2L54,29.5l-0.1,0.2l-0.2,0.2l-0.2,0.2l-0.2,0.2l-0.1,0.1L53,30.4l-0.2,0.1l-0.2,0.1
		l-0.2,0.1l-0.2,0.1l-0.2,0.1L51.9,31h-0.2h-0.2h-0.2h-0.2h-0.3c-4.9-0.2-5.6-3.1-5.6-3.5c-0.1-0.6,0.9-1.1,0.9-1.1
		c-0.3,0-2.4,0.1-5-0.7c-3.7-1-3.7,1.4-3.7,1.4s-4.5-1.2-5.1,1.1c-0.3,1,0,2.6,0,2.6s3.3-1.7,5.7,0.3c2.2,1.8,2.6,3.3,5.6,6.8
		c1.6,1.8,5.6,7.7,10.6,5c0,0-0.7-1.3-4-3.6c-1.5-0.9-3.8-2-5.2-3.1c-1.3-1.1-1.9-1.5-4.6-4.6c-1.1-1.3-4.6-3-6.6-2.4
		c-0.2,0.1-0.2,0.2-0.4,0.4c0,0-0.1-0.8,0.1-1.2c0.2-0.5,2.2-0.7,4.6,0.1c0,0-0.5-1.9,1.4-1.6c1.9,0.4,3.8,1,4.4,0.8
		c0,0,0,4.4,7,4.9c3.4,0.2,4.8-3.5,5.6-4.9c0.3-0.4,0.8-1.2,1.5-1.4c4.5-1.2,12.8-1.1,17.8,7.4c2.1,3.6,5.4,11,6.7,13.4
		c3.4,5.8,5.9,4.8,8.1,2.8c0,0-3.2,1.8-6.1-4.8c-1.3-3-5.7-12.8-9.1-15.8c-1.7-1.5-4.1-3.9-8.6-4.8C58.3,22.5,55.9,25.6,55.9,25.6z"
		/>
	<path id="path296" class="st2" d="M5.8,38.3v0.4c-0.8,0-1.7,0.2-1.9,1.1c-0.2,0.8,0.2,1.5,1,1.8c2.2,0.5,2.4-3.4,4.7-2.9
		c1.4,0.3,2.3,1.5,1.9,3.1c-0.2,0.8-0.6,1.7-1.1,2.2l-1.9-0.3v-0.4c0.7,0,1.1,0,1.5-0.1c0.6-0.1,0.9-0.9,1-1.4
		c0.2-0.9-0.1-1.8-1.1-2c-1.9-0.5-2.2,3.5-5,2.8c-1.2-0.3-2-1.4-1.6-3c0.1-0.6,0.5-1,0.7-1.6L5.8,38.3z"/>
	<path id="path298" class="st2" d="M12.5,28.7l0.2,0.1l0.2,0.1l0.2,0.1l0.2,0.1l0.2,0.1l0.2,0.1l0.2,0.1l0.1,0.1l0.1,0.2l0.1,0.2
		l0.1,0.2l0.1,0.2l0.1,0.2l0.1,0.2l0.1,0.2l0.1,0.2l0.1,0.2v0.2v0.2v0.2v0.2v0.2v0.2v0.2v0.2v0.2v0.2l-0.1,0.2l-0.1,0.2l-0.1,0.2
		l-0.1,0.2L14.3,34c-1.2,2.6-3.4,3.2-5.6,2.3c-2.4-1.1-3.3-3.2-2.3-5.5C7.8,28.2,10,27.6,12.5,28.7z M13.9,33.8l0.1-0.2l0.1-0.2
		l0.1-0.2v-0.2v-0.2v-0.2v-0.2v-0.2v-0.2v-0.2v-0.2v-0.2l-0.1-0.2L14,31.3l-0.1-0.1l-0.1-0.1L13.7,31l0,0.1L13.6,31l-0.1-0.1
		l-0.1-0.1l-0.1-0.1l-0.1-0.1l-0.1-0.1l-0.1-0.1l-0.3-0.2l-0.2-0.1l-0.2-0.1L12.2,30L12,29.9l-0.2-0.1l0,0c-2.2-1-4.2-0.2-4.9,1.3
		c-0.8,1.6-0.1,3,1.9,4C11.1,36.1,13.1,35.7,13.9,33.8z"/>
	<path id="path302" class="st2" d="M16.8,19.6L16.5,20c-0.8-0.6-2-0.7-3.4,1c-1.3,1.6-1.3,3.2,0.4,4.5c1.9,1.5,4.3,1.5,5.6-0.2
		c0.8-0.9,0.9-2.1,0.5-3.2l0.4-0.1l0.7,1.6c-0.4,0.8-0.8,1.5-1.2,2.1c-1.6,2.1-3.9,2.9-6.2,1c-2.1-1.6-2.3-3.8-0.4-6.1
		c0.5-0.7,1.5-1.6,2.3-2.2L16.8,19.6z"/>
	<polygon id="polygon304" class="st2" points="18.8,15.6 23.3,20.7 24.3,20.1 24.6,20.4 22.1,22.6 21.8,22.3 22.5,21.5 17.9,16.3 
		16.9,17 16.7,16.7 19.2,14.4 19.5,14.7 	"/>
	<path id="polygon306" class="st2" d="M25.6,16l0.6,2.4l1-0.5l0.2,0.4l-2.4,1.5l-0.2-0.4l0.8-0.7L24,10.8l0.5-0.3l6.8,4.8l0.9-0.4
		l0.2,0.3L29.5,17l-0.2-0.4l0.8-0.8l-2.1-1.5L25.6,16z M25.4,15.5l2.1-1.3l-2.7-2L25.4,15.5z"/>
	<polygon id="polygon310" class="st2" points="33,14.7 33.9,14.1 31.6,7.7 30.6,7.8 30.4,7.5 33.6,6.3 33.7,6.7 32.7,7.3 35,13.7 
		37.8,12.6 37.9,10.9 38.2,10.9 38.5,13.1 33.1,15.1 	"/>
	<path id="path312" class="st2" d="M49.8,5.4l-0.4,0.1c-0.2-0.8-0.6-1.6-1.6-1.5c-0.8,0-1.4,0.6-1.4,1.4c0.1,2.2,4,1.5,4,3.9
		c0,1.5-0.9,2.5-2.5,2.5c-0.8,0-1.8-0.2-2.4-0.6l-0.2-1.9l0.4-0.1c0.1,0.6,0.3,1.1,0.5,1.4c0.2,0.5,1.1,0.8,1.6,0.8
		c0.9,0,1.7-0.5,1.6-1.5c-0.1-2-3.9-1.2-4-4.1c0-1.2,0.9-2.3,2.5-2.3c0.6,0,1.1,0.2,1.7,0.2L49.8,5.4z"/>
	<path id="path314" class="st2" d="M54.6,7.7l2.1,0.3L57,7.2h0.4C57.2,7.8,57,8.9,57,9.5l-0.4-0.1l-0.1-0.9l-2.1-0.3L54,11.3
		l3.2,0.5l0.7-1.1l0.4,0.1l-0.8,1.9l-5.8-0.8l0.1-0.4h1.1l1-6.8l-1.1-0.4l0.1-0.4l5.3,0.8L58,6.4l-0.4-0.1l-0.2-1.1l-2.5-0.4
		L54.6,7.7z"/>
	<path id="path316" class="st2" d="M68.2,10.1l-0.4-0.2c0.3-1,0-2.1-2.1-2.9c-2-0.8-3.4-0.3-4.1,1.7c-0.8,2.3-0.1,4.5,2,5.3
		c1.1,0.5,2.3,0.3,3.2-0.5l0.2,0.3l-1.3,1.1c-0.8-0.1-1.6-0.3-2.4-0.6c-2.4-0.9-4-2.7-2.8-5.6c0.9-2.4,2.9-3.3,5.6-2.3
		c0.8,0.3,2,0.9,2.8,1.5L68.2,10.1z"/>
	<path id="path318" class="st2" d="M77.6,14.1l-2.2,3.2c-1.2,1.9-2.9,2.6-5.1,1.2c-2-1.3-2.2-3-1.1-4.4l2.5-3.9l-0.8-0.8l0.2-0.4
		l2.8,1.9l-0.2,0.3l-1-0.5l-2.4,3.5c-1,1.4-1,2.7,0.4,3.7c0.5,0.3,1.3,0.7,2.2,0.4c0.7-0.2,1.2-1,1.6-1.6l2.3-3.3l-0.8-0.8l0.2-0.3
		l2.6,1.8l-0.1,0.5L77.6,14.1z"/>
	<path id="path320" class="st2" d="M76,21.9l5.1-4.7l-0.7-1l0.3-0.3l2.5,2.8c0.8,0.8,1.1,2.1,0.1,3c-0.8,0.7-1.8,0.8-2.7,0.6
		l-0.5,2.4c-0.1,0.7-0.3,1.6-0.1,2.4l-0.4,0.1l-0.5-0.8c-0.1-0.3-0.4-0.7-0.4-0.8c0.2-1.3,0.5-2.7,0.8-4c-0.3-0.3-0.6-0.6-0.8-0.8
		l-2,1.9l0.7,0.9l-0.3,0.3l-2.4-2.5l0.3-0.3L76,21.9z M79.2,20.5L79.2,20.5L79.2,20.5L79.2,20.5L79.2,20.5L79.2,20.5L79.2,20.5
		L79.2,20.5L79.2,20.5L79.2,20.5L79.2,20.5L79.2,20.5L79.2,20.5l0.1,0.2l0,0c0.9,1,1.5,1.5,2.6,0.4c0.9-0.8,1-1.9,0.2-2.8
		c-0.2-0.2-0.3-0.3-0.5-0.4L79.2,20.5z"/>
	<polygon id="polygon324" class="st2" points="87.7,25.3 81.9,29.1 82.4,30.2 82.1,30.4 80.2,27.6 80.5,27.3 81.4,28.2 87.1,24.4 
		86.6,23.4 86.9,23.2 88.8,26 88.5,26.2 	"/>
	<path id="path326" class="st2" d="M84.4,33.7l6.2-2.8L90,29.6c-0.2-0.4-0.4-0.8-0.6-1l-1.3,0.2L88,28.4l1.9-0.6l3.1,6.9l-1.8,0.9
		L91,35.2l1-0.8c-0.1-0.4-0.3-0.8-0.5-1.1L91,32l-6.2,2.8l0.4,1.2l-0.4,0.2l-1.4-3.5l0.4-0.2L84.4,33.7z"/>
	<polygon id="polygon328" class="st2" points="87,41.2 89.8,40.7 93.1,37.4 93.1,36.2 93.5,36.1 94.3,39.6 93.9,39.6 93.4,38.5 
		90.6,41.3 94.3,42.4 94.3,41.2 94.6,41.2 95.2,44 94.8,44.1 94.5,43.1 89.9,41.7 87.2,42.4 87.3,43.7 86.9,43.8 86.1,40 86.5,40 	
		"/>
	<path id="polygon330" class="st2" d="M6.5,59.3l-2.5-0.2L4,60.3l-0.4,0.1l-0.8-2.8l0.4-0.1l0.5,0.9l8.2,0.9l0.1,0.6l-6.6,5l0.1,1
		L5.1,66l-0.8-3.2l0.4-0.1l0.5,1l2.1-1.6L6.5,59.3z M7,59.4l0.6,2.4l2.7-2L7,59.4z"/>
	<path id="path334" class="st2" d="M6,66.8l0.7,0.9l6.1-3.1l-0.3-1.1l0.4-0.2l2,3.9c1.1,2.2,1.3,4.4-1.3,5.7
		c-2.7,1.4-4.8,0.1-5.9-2.3L5.7,67L6,66.8z M7.2,68.7L7.2,68.7v0.2V69v0.1v0.1v0.1l0.1,0.2v0.1v0.1v0.1l0.1,0.1L7.5,70L7.6,70
		l0.1,0.1L8,70.7c0.9,1.8,2.5,2.4,4.5,1.4c2.4-1.2,2.6-3.1,1.6-5.2c-0.2-0.5-0.5-0.8-0.7-1.2L7.2,68.7z"/>
	<polygon id="polygon338" class="st2" points="22.6,78.8 17.9,84 18.4,84.9 18.1,85.1 16,82.7 16.3,82.4 17.1,83.1 21.5,78.3 
		21.5,78.3 21.5,78.3 14.4,80.8 14.3,80.7 17.4,74 17.4,74 17.4,74 12.3,77.7 12.9,78.6 12.6,78.9 10.8,76.9 11.1,76.6 11.9,77.2 
		17.5,73.2 16.8,72.1 17.1,71.8 18.8,73.7 16.1,79.5 22.1,77.5 23.8,79.4 23.5,79.5 	"/>
	<polygon id="polygon340" class="st2" points="26,81.7 21.9,87.2 22.7,88 22.5,88.4 19.7,86.3 20,86 21.1,86.5 25.2,81.1 24.3,80.2 
		24.6,79.8 27.4,81.9 27.1,82.2 	"/>
	<path id="path342" class="st2" d="M25.8,89.7l3-6.2l-0.9-0.7l0.2-0.4l1.9,0.9l2.4,8.1l2.4-5.1l-0.9-0.7l0.2-0.4l2.6,1.3l-0.2,0.4
		l-1-0.4l-3.3,6.8l-0.5-0.2c-0.3-1.1-2-6.9-2.5-8.7l-2.6,5.5l0.9,0.7l-0.2,0.4l-2.6-1.3l0.2-0.4L25.8,89.7z"/>
	<polygon id="polygon344" class="st2" points="39.7,88 37.9,94.7 39,95.2 38.9,95.5 35.6,94.7 35.7,94.3 36.9,94.4 38.6,87.7 
		37.5,87.3 37.6,86.9 40.9,87.7 40.8,88.1 	"/>
	<path id="path346" class="st2" d="M46.3,90.5h-0.4c-0.1-0.8-0.4-1.6-1.3-1.8c-0.8-0.1-1.5,0.4-1.6,1.2c-0.3,2.2,3.7,2.1,3.4,4.4
		c-0.2,1.4-1.2,2.4-2.9,2.2c-0.8-0.1-1.8-0.4-2.3-0.8l0.1-1.9h0.4c0,0.6,0.1,1.1,0.2,1.4c0.2,0.5,1,0.8,1.6,0.9
		c0.9,0.1,1.7-0.3,1.9-1.3c0.2-2-3.7-1.8-3.3-4.7c0.2-1.2,1.2-2.1,2.8-1.9c0.6,0.1,1.1,0.3,1.7,0.5L46.3,90.5z"/>
	<path id="path348" class="st2" d="M51.8,95.8l-0.5-6.8l-1.4,0.1c-0.4,0-0.8,0.1-1.1,0.1l-0.3,1.3h-0.4l0.1-2l7.5-0.6l0.3,2h-0.5
		l-0.5-1.2c-0.4,0-0.8,0-1.2,0l-1.5,0.1l0.5,6.8l1.3,0.1v0.4l-3.7,0.3V96L51.8,95.8z"/>
	<path id="path350" class="st2" d="M59.6,94.7l-2-6.6l-1.2,0.2l-0.1-0.4l3.7-1c1.1-0.4,2.4-0.1,2.7,1.2c0.3,0.9-0.1,2-0.8,2.7l2,1.5
		c0.6,0.4,1.3,1,2.1,1v0.4h-0.9c-0.3,0-0.8,0-0.8,0C63.1,93,62,92.2,61,91.3c-0.4,0.2-0.8,0.3-1.1,0.4l0.8,2.7l1.1-0.1l0.1,0.4
		l-3.3,0.9l-0.1-0.4L59.6,94.7z M59.7,91.2L59.7,91.2L59.7,91.2L59.7,91.2L59.7,91.2L59.7,91.2L59.7,91.2L59.7,91.2L59.7,91.2
		L59.7,91.2L59.7,91.2L59.7,91.2L59.7,91.2L59.7,91.2h0.2l0,0l0,0l0,0l0,0c1.3-0.4,2-0.7,1.5-2.2c-0.4-1.2-1.2-1.8-2.4-1.4
		c-0.2,0.1-0.4,0.2-0.6,0.3L59.7,91.2z"/>
	<path id="polygon354" class="st2" d="M68,89.4l0.4,2.5l1.1-0.4l0.2,0.4l-2.6,1.3l-0.2-0.4l0.8-0.7l-0.9-8.2l0.6-0.3l6.4,5.3
		l0.9-0.3l0.2,0.4l-2.9,1.6l-0.2-0.4l0.9-0.8l-2-1.6L68,89.4z M67.9,88.8l2.2-1.1l-2.6-2.2L67.9,88.8z"/>
	<path id="path358" class="st2" d="M77.3,86l-4.2-5.3L72,81.7c-0.3,0.3-0.6,0.5-0.8,0.8l0.5,1.2L71.3,84l-1.1-1.7l5.8-4.8l1.3,1.5
		L77,79.3l-1-0.8c-0.3,0.2-0.7,0.5-0.9,0.8l-1.1,0.9l4.3,5.3l1.1-0.7l0.3,0.3l-2.8,2.4l-0.3-0.3L77.3,86z"/>
	<polygon id="polygon360" class="st2" points="78.7,75.4 83.9,79.9 84.9,79.2 85.1,79.5 82.9,82 82.6,81.8 83.2,80.8 78,76.3 
		77.1,77 76.9,76.7 79.1,74.2 79.4,74.4 	"/>
	<path id="path362" class="st2" d="M87.7,69.1l0.2,0.1l0.2,0.1l0.2,0.1l0.2,0.1l0.2,0.2l0.1,0.2l0.1,0.2l0.1,0.2l0.1,0.2l0.1,0.2
		l0.1,0.2l0.1,0.2l0.1,0.2l0.1,0.2l0.1,0.2v0.2v0.2v0.2v0.2v0.2v0.2v0.2v0.2v0.2v0.2l-0.2,0.1l-0.1,0.2l-0.1,0.2l-0.1,0.2L89,74.3
		l-0.1,0.2l-0.1,0.2c-1.6,2.5-3.8,2.7-5.7,1.5c-2.3-1.4-2.8-3.6-1.5-5.7C83.1,68,85.4,67.7,87.7,69.1z M88.4,74.4l0.1-0.2l0.1-0.2
		l0.1-0.2l0.1-0.2l0.1-0.2v-0.2v-0.2v-0.2v-0.2v-0.2v-0.2v-0.2v-0.2v-0.2l-0.1-0.1l-0.1-0.1l-0.1-0.1v0.2l-0.1-0.1l-0.1-0.1
		l-0.1-0.1l-0.1-0.1l-0.1-0.1l-0.1-0.1L88,71l-0.2-0.3l-0.1-0.1l-0.1-0.1l-0.1-0.1l-0.2-0.1l-0.2-0.1l-0.2-0.1
		c-2.1-1.3-4.1-0.8-5.1,0.7c-0.9,1.5-0.5,3,1.3,4.1C85.4,76.3,87.4,76.2,88.4,74.4z"/>
	<path id="path366" class="st2" d="M91.5,67.6L85,65.5l-0.6,1l-0.4-0.1l0.7-2l7.7-3.5L87,59.3l-0.6,1l-0.4-0.1l0.9-2.7l0.4,0.1
		l-0.2,0.8l7.2,2.3l-0.2,0.6c-1,0.5-6.5,2.9-8.3,3.8l5.7,1.9l0.6-1l0.4,0.1l-0.9,2.8l-0.4-0.1L91.5,67.6z"/>
	<polygon id="polygon368" class="st2" points="50.5,83.9 51.7,82.6 51.7,58.4 49.2,58.4 49.2,82.6 	"/>
	<path id="path370" class="st2" d="M36.8,79.2V58.4h-2.4c0,0,0,14.9,0,17.2C34.3,79.2,36.8,79.2,36.8,79.2z"/>
	<polygon id="polygon372" class="st2" points="41.9,80.8 41.9,58.4 39.5,58.4 39.5,80.2 	"/>
	<polygon id="polygon374" class="st2" points="46.8,82 46.8,58.4 44.4,58.4 44.4,81.4 	"/>
	<path id="path376" class="st2" d="M64.4,79.2V58.3h2.4c0,0,0,14.9,0,17.2C66.9,79.2,64.4,79.2,64.4,79.2z"/>
	<polygon id="polygon378" class="st2" points="59.3,80.8 59.3,58.3 61.7,58.3 61.8,80 	"/>
	<polygon id="polygon380" class="st2" points="54.4,82 54.4,58.3 56.8,58.3 56.8,81.3 	"/>
	<line id="line382" class="st1" x1="59.8" y1="51.4" x2="59.8" y2="51.4"/>
	<line id="line384" class="st1" x1="60" y1="51.3" x2="60" y2="51.3"/>
	<line id="line386" class="st1" x1="60.2" y1="51.4" x2="60.2" y2="51.4"/>
	<path id="path388" class="st3" d="M51.6,45.5L51.6,45.5L51.6,45.5L51.6,45.5L51.6,45.5L51.6,45.5L51.6,45.5L51.6,45.5L51.6,45.5
		L51.6,45.5L51.6,45.5L51.6,45.5L51.6,45.5L51.6,45.5h-0.2h-0.1h-0.1h-0.1h-0.1H51l0,0l0,0h-0.1l0,0l0,0l0,0l0,0l0,0
		c0,0-1.3-0.1-2.4,0.8c0,0-1.4,0.9-1.4,2.5c0,0,0.2,2,1.6,2.7c0,0,0.1,0.2,2.2,1.1c0,0,1.4,0.4,1.4,1.4c0,0,0.2,1.3-1.5,1.3
		c0,0-1.4,0.2-2.2-1c-0.7-1-0.5-1.9-0.6-2.1l-1.1,0.8v2.5c0,0,1.6,1,3.5,1c0,0,2.1,0,3.1-1c0,0,1.1-0.7,1.1-2.4
		c0-1.8-0.7-2.6-2.3-3.4c0,0-1.2-0.4-1.8-0.6c0,0-1.2-0.4-1.1-1.3c0-0.4,0.2-1.3,1.7-1.3c2,0,1.9,2.3,1.9,2.4l1.2-0.8l-0.2-2.4
		C53.3,45.8,52.7,45.9,51.6,45.5z"/>
	<path id="path390" class="st3" d="M38.1,45.8h-5V47l0,0c0,0,0.5,0.2,1.2,0.3c0,0.8,0,5.9,0.1,6.4c0.2,0.5,0.3,1.1,1,1.8
		c0,0,1.5,1.4,3.7,1.2c0,0,2.4,0.1,3.6-1.3c0,0,1-0.8,1.1-2.4v-5.6c0.8-0.1,1.2-0.3,1.2-0.3l0,0v-1.2h-4.3V47c0,0,0.4,0.1,1,0.2v5.7
		c0,0,0.2,2.4-2.4,2.5c0,0-2.3,0.1-2.3-2.5v-5.6c0.6-0.1,1-0.3,1-0.3l0,0C38.1,47,38.1,45.8,38.1,45.8z"/>
	<path id="polygon396" class="st3" d="M60.1,45.7l-3.8,9.4c-0.7,0.1-1.1,0.2-1.1,0.2l0,0v1.2h4.3v-1.2c0,0-0.4-0.1-1-0.2l0.6-1.3
		h3.4l0.5,1.3c-0.6,0.1-0.9,0.2-0.9,0.2l0,0l0,0v1.2h4.8v-1.2l0,0c0,0-0.6-0.2-1.3-0.3L62,45.6L60.1,45.7L60.1,45.7z M60.8,49.4
		l1.1,2.9h-2.3L60.8,49.4z"/>
</g>
</svg>
