<?xml version="1.0" encoding="utf-8"?>
<!-- Generator: Adobe Illustrator 19.2.0, SVG Export Plug-In . SVG Version: 6.00 Build 0)  -->
<svg version="1.1" id="Layer_1" xmlns="http://www.w3.org/2000/svg" xmlns:xlink="http://www.w3.org/1999/xlink" x="0px" y="0px"
	 viewBox="0 0 99 99" style="enable-background:new 0 0 99 99;" xml:space="preserve">
<style type="text/css">
	.st0{fill:#0052A2;}
	.st1{fill:#ABB6DB;}
	.st2{fill:#FFD90F;}
	.st3{fill:#FFFFFF;}
	.st4{fill:none;stroke:#FFD90F;stroke-width:2.909182e-03;stroke-miterlimit:10.433;}
	.st5{fill:#009D56;}
	.st6{fill:none;stroke:#FFD90F;stroke-width:7.954220e-04;stroke-miterlimit:10.433;}
	.st7{fill:none;stroke:#000000;stroke-width:5.346756e-04;stroke-miterlimit:10.433;}
	.st8{fill:none;stroke:#FFD90F;stroke-width:7.953997e-04;stroke-miterlimit:10.433;}
	.st9{fill:none;stroke:#FFD90F;stroke-width:2.139050e-03;stroke-miterlimit:10.433;}
</style>
<g id="g3510">
	<path id="path37945" class="st0" d="M49.5,99l2.5-0.1l2.5-0.2l2.5-0.3l2.4-0.4l2.4-0.5l2.3-0.7l2.3-0.8l2.3-0.9l2.2-1l2.1-1.1
		l2.1-1.2l2-1.3l1.9-1.4l1.9-1.5l1.8-1.6l1.7-1.6l1.6-1.7l1.5-1.8l1.5-1.9l1.4-1.9l1.3-2l1.2-2.1l1.1-2.1l1-2.2l0.9-2.2l0.8-2.3
		l0.7-2.4l0.5-2.4l0.4-2.4l0.3-2.5l0.2-2.5l0.1-2.5C99,22.2,76.8,0,49.5,0C22.2,0,0,22.2,0,49.5C0,76.8,22.2,99,49.5,99z"/>
	<path id="path37947" class="st1" d="M49.6,84.8l1.8,0l1.8-0.1l1.8-0.2l1.7-0.3l1.7-0.4l1.7-0.5l1.6-0.5l1.6-0.6l1.6-0.7l1.5-0.8
		l1.5-0.9l1.4-0.9l1.4-1l1.3-1.1l1.3-1.1l1.2-1.2l1.2-1.2l1.1-1.3l1-1.3l1-1.4l0.9-1.4l0.9-1.5l0.8-1.5l0.7-1.6l0.6-1.6l0.5-1.6
		l0.5-1.7l0.4-1.7l0.3-1.7l0.2-1.8l0.1-1.8l0-1.8c0-19.5-15.8-35.4-35.4-35.4c-19.5,0-35.4,15.8-35.4,35.4S30,84.8,49.6,84.8z"/>
	<path id="path37949" class="st2" d="M63.7,78.7l0-0.7l-0.1-0.7l-0.1-0.7l-0.1-0.6l-0.2-0.6L63,74.8l-0.2-0.6l-0.3-0.6l-0.3-0.6
		L62,72.5l-0.3-0.5l-0.4-0.5l-0.4-0.5l-0.4-0.5L60,69.9l-0.5-0.5L59.1,69l-0.5-0.4L58,68.2l-0.5-0.4l-0.6-0.3l-0.6-0.3l-0.6-0.3
		l-0.6-0.3l-0.6-0.2l-0.7-0.2l-0.7-0.2l-0.7-0.1l-0.7-0.1L51,65.7l-0.7,0l-0.7,0c-8.5,0-14.4,5.8-14.2,13.9L63.7,78.7z"/>
	<path id="path37951" class="st2" d="M45.7,58.8L45.7,58.8L45.7,58.8L45.7,58.8L45.7,58.8l0,0.1l0,0l0,0.1l0,0.1l0,0.1l0,0.1l0,0.1
		l0,0.1l0,0.1l0,0.1l0,0.1l0,0.1l0,0.3l0,0.3l0,0.3l0.1,0.3l0.1,0.3l0.1,0.3l0.1,0.7l0.1,0.7l0.1,0.3l0.1,0.3l0.1,0.3l0.1,0.3l0,0.3
		l0,0.3l0,0.1l0,0.1l0,0.1l0,0.1l0,0.1l0,0.1l0,0.1l0,0.1l0,0.1l0,0.1l0,0.1v0l0,0l0,0v0v0l0.8-0.1l-1-6.4L45.7,58.8z"/>
	<path id="path37953" class="st2" d="M60.9,71.3L60.9,71.3L60.9,71.3l0.2-0.1l0.1-0.1l0.1-0.1l0.2-0.1l0.2-0.1l0.2-0.2l0.3-0.2
		l0.3-0.2l0.3-0.2l0.3-0.2l0.4-0.2l0.4-0.3l0.4-0.3l0.4-0.3l0.9-0.6l0.9-0.6l1-0.7l1-0.7l1.1-0.7l1.1-0.8l2.2-1.5l2.2-1.5l1.1-0.8
		l1.1-0.7l1-0.7l1-0.7l0.9-0.7l0.9-0.6l0.4-0.3l0.4-0.3l0.4-0.3l0.3-0.2l0.3-0.2l0.3-0.2l0.3-0.2l0.3-0.2l0.2-0.2l0.2-0.1l0.2-0.1
		l0.1-0.1l0.1-0.1l0.1-0.1l0,0l0,0l-0.6,2.4L61.1,72L60.9,71.3z"/>
	<path id="path37955" class="st2" d="M59.1,69.3L59.1,69.3L59.1,69.3L59.1,69.3L59.1,69.3L59.1,69.3L59.1,69.3L59.1,69.3L59.1,69.3
		L59.1,69.3L59.1,69.3l0.1-0.1l0,0l0,0l0,0l0,0l0,0l0-0.1l0-0.1l0.1-0.1l0-0.1l0.1-0.1l0.1-0.1l0.1-0.1l0.1-0.1l0.1-0.1l0.1-0.1
		l0-0.1l0.1-0.1l0-0.1l0-0.1l0,0l0,0l0,0l0,0l0,0l0,0l0,0l0,0l0,0l0,0l0,0l0,0v0l0,0l0,0l0,0l0.5,0.6l-1.4,1.2L59.1,69.3z"/>
	<path id="path37957" class="st2" d="M57,67.5L57,67.5L57,67.5L57,67.5L57,67.5L57,67.5L57,67.5l0.1-0.1l0,0l0,0l0,0l0,0l0,0l0,0
		l0,0l0-0.1l0-0.1l0.1-0.1l0.1-0.1l0.1-0.1l0.1-0.1l0.1-0.1l0.1-0.1l0.2-0.3l0.2-0.3l0.1-0.1l0.1-0.1l0.1-0.1l0.1-0.1L59,65l0.1-0.1
		l0-0.1l0,0l0-0.1l0,0l0,0l0,0l0,0l0,0l0,0l0,0l0,0l0,0l0,0l0,0v0l0,0l0.1,0.9l-2,2.6L57,67.5z"/>
	<path id="path37959" class="st2" d="M80.7,47L80.7,47L80.7,47L80.7,47L80.7,47L80.7,47l0.1-0.1l0,0l0,0l0,0l0,0l0.1-0.1l0.1-0.1
		l0.1-0.1l0.1-0.1l0.1-0.1l0.1-0.1l0.2-0.2l0.2-0.2l0.2-0.2l0.2-0.2l0.2-0.2l0.2-0.2l0.4-0.4l0.4-0.4l0.2-0.2l0.2-0.2l0.2-0.2
		l0.2-0.2l0.2-0.2l0.1-0.2l0.1-0.1l0.1-0.1l0.1-0.1l0.1-0.1l0.1-0.1l0.1-0.1l0,0l0,0l0,0l0,0l0,0l0,0l0,0l0,0l0,0l0,0l0.3,2.1
		l-3.5,3.3L80.7,47z"/>
	<path id="path37961" class="st2" d="M77.4,38.7L77.4,38.7L77.4,38.7L77.4,38.7L77.4,38.7L77.4,38.7l0.1-0.1l0,0l0-0.1l0-0.1l0-0.1
		l0.1-0.1l0.1-0.1l0.1-0.1l0.1-0.1l0.1-0.1l0.1-0.1l0.1-0.2l0.2-0.2l0.2-0.2l0.2-0.2l0.2-0.2l0.2-0.3l0.4-0.5l0.4-0.5l0.2-0.2
		l0.2-0.2l0.2-0.2l0.2-0.2l0.2-0.2l0.1-0.2l0.1-0.1l0.1-0.1l0.1-0.1l0.1-0.1l0.1-0.1l0.1-0.1l0-0.1l0-0.1l0,0l0-0.1l0,0l0,0l0,0l0,0
		l0,0v0L80.3,31l-3.9,6.2L77.4,38.7z"/>
	<path id="path37963" class="st2" d="M44.5,66.4L44.5,66.4L44.5,66.4L44.5,66.4L44.5,66.4L44.5,66.4L44.5,66.4L44.5,66.4l-0.1-0.1
		l0,0l0,0l0,0l0,0l0,0l0,0l0,0l0,0l0-0.1l0-0.1l-0.1-0.1l-0.1-0.1L44,65.5L44,65.4l-0.1-0.2l-0.1-0.2l-0.1-0.1l-0.1-0.1l-0.1-0.1
		l-0.1-0.1l0-0.1l0-0.1l0,0l0,0l0,0l0,0l0,0l0,0l0,0l0,0l0,0l0,0l0,0l0,0l0,0v0v0l0,0l0.5-0.8l1.2,3.2L44.5,66.4L44.5,66.4z"/>
	<path id="path37965" class="st2" d="M41.9,66.3L41.9,66.3L41.9,66.3L41.9,66.3L41.9,66.3L41.9,66.3L41.9,66.3L41.9,66.3L41.9,66.3
		L41.9,66.3L41.9,66.3L41.9,66.3l0.1,0.1l0,0l0,0l0,0l0,0l0,0l0,0l0,0l0,0l0,0l0,0.1l0.1,0.1l0,0.1l0,0.1l0,0l0,0l0,0l0,0l0,0l0,0
		l0,0l0,0l0,0v0l0,0l0,0l0,0v0l0,0v0l0,0v0l0,0l0,0l0,0L42,67.7l-0.6-0.8L41.9,66.3z"/>
	<path id="path37967" class="st2" d="M39.4,67.8L39.4,67.8L39.4,67.8L39.4,67.8L39.4,67.8L39.4,67.8L39.4,67.8L39.4,67.8L39.4,67.8
		L39.4,67.8L39.4,67.8L39.4,67.8l0.1,0.1l0,0l0,0l0,0l0,0l0,0l0,0l0,0.1l0,0.1l0,0.1l0,0.1l0.1,0.1l0.1,0.1l0,0.1l0,0.1l0,0.1l0,0
		l0,0.1l0,0l0,0l0,0l0,0l0,0l0,0l0,0l0,0l0,0l0,0l0,0v0l0,0l0,0l0,0l0,0l0,0l-0.4,0.3l-1.3-1.2L39.4,67.8z"/>
	<path id="path37969" class="st2" d="M33.3,67.3L33.3,67.3L33.3,67.3L33.3,67.3L33.3,67.3L33.3,67.3l0.1,0.1l0,0l0,0l0.1,0l0.1,0
		l0.1,0l0.1,0.1l0.1,0l0.1,0.1l0.1,0.1l0.1,0.1l0.2,0.1l0.2,0.1l0.2,0.1l0.2,0.2l0.2,0.2l0.2,0.2l0.5,0.3l0.5,0.3l0.2,0.2l0.2,0.2
		l0.2,0.2l0.2,0.1l0.2,0.1l0.2,0.1l0.1,0.1l0.1,0.1l0.1,0.1l0.1,0l0.1,0.1l0.1,0l0.1,0l0.1,0l0,0l0,0l0,0l0,0l0,0l0,0l0,0h0L38,71.5
		L32.7,68L33.3,67.3z"/>
	<path id="path37971" class="st2" d="M26.2,62.5L26.2,62.5L26.2,62.5L26.2,62.5l-0.1-0.1l-0.1,0l-0.1-0.1l-0.1-0.1l-0.1-0.1
		l-0.1-0.1L25.4,62l-0.1-0.1l-0.2-0.1l-0.2-0.1l-0.2-0.1l-0.2-0.1l-0.2-0.1l-0.4-0.3l-0.5-0.3l-0.5-0.3l-0.5-0.4l-0.5-0.4l-0.5-0.4
		l-1.1-0.8l-1.1-0.8l-0.5-0.4l-0.5-0.4l-0.5-0.4L17,56.2l-0.5-0.3l-0.4-0.3l-0.2-0.1l-0.2-0.1l-0.2-0.1l-0.2-0.1L15.2,55l-0.2-0.1
		l-0.1-0.1l-0.1-0.1l-0.1-0.1l-0.1-0.1l-0.1-0.1l-0.1,0l-0.1,0l0,0l0,0l0,0l0.3,2.1l12.1,8L26.2,62.5z"/>
	<path id="path37973" class="st2" d="M14.6,42.6L14.6,42.6L14.6,42.6L14.6,42.6L14.6,42.6l0.1,0.1l0,0l0.1,0.1l0.1,0.1l0.1,0.1
		L15,43l0.1,0.1l0.1,0.1l0.1,0.1l0.1,0.1l0.1,0.1l0.1,0.1l0.2,0.2L16,44l0.2,0.2l0.3,0.3l0.3,0.3L17,45l0.6,0.5l0.5,0.5l0.3,0.3
		l0.3,0.3l0.3,0.3l0.2,0.2l0.2,0.2l0.2,0.2l0.1,0.1l0.1,0.1l0.1,0.1l0.1,0.1l0.1,0.1l0.1,0.1l0.1,0.1l0.1,0.1l0.1,0.1l0,0l0,0l0,0
		l0,0l0,0l0,0l0,0l-0.8,1.3l-5.6-5.1L14.6,42.6z"/>
	<path id="path37975" class="st2" d="M17.6,33.1L17.6,33.1L17.6,33.1L17.6,33.1L17.6,33.1L17.6,33.1l0.1,0.1l0,0l0,0l0,0l0,0.1
		l0,0.1l0,0.1l0.1,0.1l0.1,0.1l0.1,0.1l0.1,0.1l0.1,0.2l0.1,0.2l0.1,0.2l0.2,0.2l0.2,0.2l0.2,0.2l0.3,0.4l0.3,0.4l0.2,0.2l0.2,0.2
		l0.2,0.2l0.1,0.2l0.1,0.2l0.1,0.2l0.1,0.1l0.1,0.1l0.1,0.1l0.1,0.1l0,0.1l0,0.1l0,0.1l0,0l0,0l0,0l0,0l0,0l0,0l0,0l0,0l0,0l1.1-1.4
		L19,30.9L17.6,33.1z"/>
	<path id="path37977" class="st2" d="M69.9,28.5L69.9,28.5L69.9,28.5L69.9,28.5L69.9,28.5L69.9,28.5L69.9,28.5L69.9,28.5L69.9,28.5
		l0.1,0h0l0,0h0l0,0h0l0,0h0l0.1,0l0.1,0l0.1,0l0.1,0l0.1,0l0.1,0l0.2,0l0.2,0l0.1,0l0.1,0l0.1,0l0.1,0l0.1,0l0.1,0h0l0,0l0,0h0l0,0
		h0h0l0,0h0l0,0h0h0h0h0h0l0,0l2.3-5l-1.7-1.4L69.6,28L69.9,28.5z"/>
	<path id="path37979" class="st2" d="M63.2,16.2L63.2,16.2L63.2,16.2L63.2,16.2L63.2,16.2L63.2,16.2L63.2,16.2L63.2,16.2L63.2,16.2
		l-0.1,0l0,0l0,0l0,0l0,0l0,0l0,0l0,0l-0.1,0l-0.1,0l-0.1,0l-0.1,0l-0.1,0l-0.1,0l-0.2-0.1L62,15.8l-0.1,0l-0.1,0l-0.1,0l-0.1,0
		l-0.1,0l-0.1,0l0,0l0,0l0,0l0,0l0,0l0,0l0,0l0,0h0l0,0l0,0h0l0,0h0l0,0l0,0l-1,6.5l1.8,0.2L63.2,16.2z"/>
	<path id="path37981" class="st2" d="M25.3,23.2L25.3,23.2L25.3,23.2L25.3,23.2L25.3,23.2L25.3,23.2l0.1,0.1l0,0l0,0.1l0,0.1l0,0.1
		l0,0.1l0,0.1l0,0.1l0,0.1l0,0.1l0.1,0.1l0.1,0.2l0.1,0.2l0.1,0.2l0.1,0.2l0.1,0.2l0.1,0.2l0.3,0.5l0.3,0.5l0.1,0.2l0.1,0.2l0.1,0.2
		l0.1,0.2l0.1,0.2l0.1,0.2l0.1,0.1l0,0.1l0,0.1l0,0.1l0,0.1l0,0.1l0,0.1l0,0.1l0,0l0,0l0,0l0,0l0,0l0,0l0,0l0,0l1.8-0.5l-2.3-7
		L25.3,23.2z"/>
	<path id="path37983" class="st2" d="M38.4,22.8L38.4,22.8L38.4,22.8L38.4,22.8L38.4,22.8l0-0.1l0,0l0-0.1l0-0.1l0-0.1l0-0.1l0-0.1
		l0-0.1l0-0.1l0-0.1l0-0.1l0-0.1l-0.1-0.2l-0.1-0.3L38,20.9l-0.1-0.3l-0.1-0.3L37.8,20l-0.1-0.6l-0.1-0.6l-0.1-0.3l-0.1-0.3
		l-0.1-0.3l-0.1-0.3l-0.1-0.3l-0.1-0.2l0-0.1l0-0.1l0-0.1l0-0.1l0-0.1l0-0.1l0-0.1l0-0.1l0-0.1l0-0.1l0,0l0,0v0l0,0v0l0,0l2.7-0.9
		l0.6,7.2L38.4,22.8z"/>
	<path id="path37985" class="st2" d="M50.7,13.5L50.7,13.5L50.7,13.5L50.7,13.5L50.7,13.5v0.1v0v0.1v0.1v0.1v0.1v0.1l0,0.1v0.1v0.1
		v0.1v0.1l0,0.2v0.2l0,0.3v0.3l0,0.3v0.3l0,0.6l0,0.6l0,0.3v0.3l0,0.3v0.2v0.2l0,0.2v0.1v0.1v0.1V19l0,0.1v0.1v0.1v0.1v0.1v0v0v0v0
		v0v0l0,0L48.8,20v-6.5L50.7,13.5z"/>
	<path id="path37987" class="st2" d="M56.9,60.7L56.9,60.7L56.9,60.7L56.9,60.7L56.9,60.7L56.9,60.7L56.9,60.7L56.9,60.7L56.9,60.7
		L56.9,60.7L56.9,60.7l0,0.1l0,0v0l0,0l0,0l0,0l0,0.1l0,0.1l0,0.1l0,0.1l0,0.1l0,0.1l0,0.1l0,0.1l0,0.1l0,0.1l0,0.1l0,0.1l0,0.1
		l0,0.1l0,0l0,0v0l0,0l0,0v0l0,0v0l0,0v0v0l0,0v0l0,0l0,0v0l2.2-4h-0.7l-1.6,3L56.9,60.7z"/>
	<path id="path37989" d="M23.2,35.3L23.2,35.3L23.2,35.3v-0.1l0,0v0v0l0-0.1l0-0.1l0-0.1l0-0.1l0-0.1c-0.1-0.5,0.9-1,1.6-0.7
		c0.3,0.1,0.4-0.6,0.9-0.8c0.4-0.2-0.2-1,0.5-1.3c0.3-0.1,0.7,0.1,0.8-0.2c0-0.1-0.3-0.3-0.3-0.4c0-0.7-0.4-1.2-0.4-1.9
		c0-0.7,0.7-0.6,1.4-0.7c0.1,0,0.3-0.2,0.2-0.4c0.5,0,1.2-0.3,1.5,0.2c0.2-0.5,0.5-0.2,0.4-0.6c-0.2-0.7-0.1-0.3-0.2-0.4
		c-0.6-0.8,0-2.6,1-2.5c0.9,0.1,1.7,0.3,1.9,1.4c0.4-0.8,1.3-0.2,1.8,0.2c0.5,0.4,0.4,1,0.4,1.6c0,0.5,0.2-0.2,0.5-0.2
		c0-0.7,0-1.2,0.6-1.4c0.5-0.2,0.1-1.1,0.3-1.5c0.2-0.7,0.4-1,1.2-1.4c0.5-0.3,1,0.2,0.1-0.1c1,0.3,0.3-0.1,0.8-0.8
		c0.4-0.7,1.4-0.6,2.3-0.6c-0.1,0.2,0.1,0.1,0.3,0.2c0.1,0,0.3,1,0.5,1c-0.1,1.6-0.4,1.2,0.7,1.1c0.3,0,0.7-0.3,0.6-0.4
		c-0.4-0.4-0.4-0.9-0.3-1.5c0.1-0.5,0.5-0.6,1-0.7c0.6-0.2-0.3-0.8,0.1-1.1c0.5-0.5,0.7-1.2,1.2-1.6c0.2-0.2,0.6-0.4,1-0.2
		c0.8,0.5,0.9,1.6,1.6,2.1c0.8,0.7,1.1-0.8,2-1.1c0.4-0.1,0.8-0.3,1,0.1c0.8-0.8,1.8-0.5,2.8-0.4c1,0.2,0.2,1.3,0.3,2.1
		c0.1,0.6,0.8-0.3,1.1,0.4c0.5-0.3,0.7-0.9,1.2-1.2c0.4-0.2,0.8,0.3,1,0.3c0.8-0.3,0.9-1.6,1.7-1.8c1.3-0.3,2,1.2,2.2,2.3
		c0.1-0.1,0.3-0.3,0.4-0.2c0.6,0.9,1,0.5,1.9,0.7c0.2,0,0.4,0.3,0.6,0.5c0.6-1.1,2.2-0.7,2.7-0.1c0.7,1,0.4,2.2-0.4,2.3
		c0.3,0.3,0.2,0.5,0.4,0.8c0.1-0.1,0.2-0.2,0.4-0.2c0.5,0.1,0.7,0.7,1.2,0.8c0.1-1.2,1.8-1.6,2.3-0.9c0.4,0.5,0.9,1.8,0,2.6
		c0,0,0.2,0.3,0.4,0.1c0.1-0.1,0.3-0.3,0.4-0.2c0.1,0.3,0.5-0.1,0.6,0.1c0.7-0.6,1.4-0.7,2,0c0.6,0.6,1.2,2,0.1,2.6
		c0.1,0.1,0.3,0.3,0.4,0.4c0.1,0.7-0.4,1.3,0.4,1.4c0.1,0,0.3-0.3,0.4-0.3c0.8-0.1,1.8,0.1,2,1c0.1,0.6-0.6,1-0.4,1.6
		c-0.4,0-0.7,0.2-1,0.4c0,0,0,0,0.1,0.1H23.2z M74.8,35.3L74.8,35.3L74.8,35.3l0.1,0.1l0,0l0,0l0,0l0,0l0,0l0,0l0,0l0,0l0,0l0,0l0,0
		l0,0l0,0l0,0l0,0l0,0l0,0l0,0v0v0v0l0,0v0l0,0l0,0l0,0l0,0l0,0l0,0l0,0l0,0l0,0l0,0l0,0l0,0l0,0l0,0l0,0c0.9,0.4,2.4,0.2,2,1.6
		c-0.1,0.3,0.5,0.6,0.5,0.9c0,1.2,1,0.9,1.5,1.6c0.3,0.4,0.1,0.8,0,1.2c-0.3,0.9,0.8,2.2-0.1,3c0.8,0.4,0.1,1.7,0.6,1.7
		c0.6,0,1.4,0.3,1.8,0.7c0.4,0.4,0,1.5-0.3,1.8c-0.6,0.7-0.1,1.4-0.7,2.1c-0.1,0.1-0.3,0.2-0.4,0.3H18.7c0-0.2,0.4-1.2,0.9-1.6
		c0.3-0.3-0.4-1.3,1.4-1.8c0.4-0.1,0.5-0.3,0.3-0.5c-0.3-0.5-1.1-0.5-1.1-1.3c0,0.3,0.1,0,0.2-0.1c0.1-0.1-0.7-0.2-1-0.5
		c-1.2-0.7-1.3-1.5-1-2.2c0.2-0.5,0.7-1,1.4-1.1c0.6-0.1,0.8,0.2,1.2,0.2c0.2,0,0.2-0.3,0.3-0.6c0.2-0.5,0.9,0.2,1.4-0.2
		c-0.4-0.4-0.9-0.8-1.2-1.3c-0.3-0.5-0.1-0.7,0.4-1.1c-0.6-0.4-1-1.3-0.6-1.9c0.3-0.5,0.5-1.1,0.8-1.4c0.4-0.2,1-0.1,1.1-0.8
		c0-0.1,0-0.2,0-0.3H74.8z M80,51.7L80,51.7l-0.1,0.1l0,0l-0.1,0l0,0l0,0l0,0l0,0l0,0l0,0l-0.1,0l-0.1,0l-0.1,0l0,0l0,0l0,0l0,0l0,0
		l0,0l0,0l0,0l0,0l0,0l0,0l0,0.1l0,0l0,0.1l0,0.1l0,0.1c1.1,0.5,1.2,2.5,0.7,3.3c-0.5,0.7,0.1,0.1,0,1.3c-0.1,0.9-1,1.6-1.9,0.7
		c-0.3,0.9-0.5,2.2-1.6,2.5c-0.5,0.1-1.1,0.3-1.6-0.1c-0.3,0.4-1,0.6-0.9,0.8c0.5,0.9,0,1.4-0.6,1.9c-0.4,0.3-1.1-0.3-1.3-0.1
		c-0.7,0.7-1.4,0.7-1.2,1.7c0.1,0.4,0.3,1,0,1.5c-0.2,0.4,0,1.2-0.4,1c-0.5-0.2-1.3,0.3-1.6,0C68,67,67.7,67,67.5,66.7
		c-0.5,0.2-0.3-0.1-0.2,0.1c-0.4,0-0.9-0.1-1.3-0.3c-0.5-0.2-0.6-0.4-0.6-1c0-0.1-0.2-0.3-0.4-0.2c-0.2,0.1-0.4,0.3-0.4,0.4
		c0.1,1-0.8,1.2-1.1,1.8c-0.4,0.7-1.2,1.5-2,1.5c-0.8,0-0.8-0.7-1.3-1.3c-0.1-0.1-0.5-0.6-0.5-0.7c-0.6-1.8-0.9-2.8,0.1-4.2
		c0.2,0,0.7-0.7,0.5-1c-0.6-0.8,0.4-1.6,1-2.3c0.1-0.2,0.1-0.6,0-0.7c-1.4-1.2-3.7-0.9-4.1,0.8c-0.4,1.5,0.8,3.4,0.2,4.9
		c-0.8,2.4-2.6,4.1-3.6,6.4c-0.4,0.9,0.2,1.8,1,2.2c0.6,0.3,1.5,0.2,1.9,0.7c1.2,1.5,3.1,1.6,4.3,2.9c0.3,0.3,0.5,0.9,0.9,1.1
		c2.1,0.8,4.2,2.2,6.5,1.9c-0.6,1.1-1.8,1.3-2.7,1.7c-2.3,1-4.4,2-6.9,2.6c-5.6,1.3-10.8,1.6-16.4,0.5c-4.1-0.8-7.8-2.4-11.3-4.4
		c0.1-0.1,0.1-0.2,0.2-0.2c0.8,0,1.6,0,2.2-0.1c2-0.6,4-1.6,5.9-2.4c1.5-0.6,2.1-2.7,2.8-4.4c0.2-0.6,0.7-1,1.2-1.4
		c2.1-1.7,3.5-4.1,4.7-6.5c0.5-1,0.7-2.4,0.1-3.6c-1.1-2.3-3.6-3.2-5.9-3.9c-0.2,1.1,0.5,2.1,0.5,3.3c0,0.2,0.6,0.3,0.7,0.6
		c0.1,0.9,0.2,2.1-0.8,2.5c0.3,0.2,0.2,0.6,0.2,0.8c-0.7,1.6-2.1,2.8-3.8,3.2c-0.5,0.1-1.1,1.5-2.1,1.5c-0.5,0-1.2-0.7-1.3-1.1
		c-0.2-0.7,0.4-1.4-0.5-1.4c-0.6,0-1.5-0.2-2,0.5c0,0,0.1,0.1,0.2,0.2c-0.6,0.3-0.8,1.1-1.4,1.2c-0.7,0-1.2-0.5-1.8-0.8
		c-0.3-0.1,0.2-0.9-0.3-1.1c-0.6-0.3-1.1-0.5-1.8-0.6c-0.4-0.1-1.1-0.4-1.2-0.9c-0.1-0.8-0.5-1.2-0.9-1.9c-0.1-0.3,0.1-0.8-0.1-0.9
		c-0.7-0.7-0.9-1.4-0.7-2.3c0-0.2,0.2-0.3,0.4-0.4c-0.4-0.4-0.4-0.8-0.9-1.1c-0.7,1-2.5,1.2-3,0.4c-0.5-0.8-0.9-2.2,0.6-2.5
		c-0.6-0.4-0.3-0.9-0.7-1.4c-1.2-1.4,0-1.8-0.6-2.6c-0.1-0.2-0.6,0.3-0.8,0.4c-0.4,0.3-1.2,0.2-1.4,0c-0.2-0.3-0.3-0.6-0.2-1.1H80z"
		/>
	<path id="path37995" class="st3" d="M90.2,60.8L90.2,60.8L90.2,60.8L90.2,60.8L90.2,60.8L90.2,60.8L90.2,60.8L90.2,60.8L90.2,60.8
		L90.2,60.8h0.1h0h0h0h0h0h0h0.1h0.1h0.1h0.1h0.1h0.1h0.2h0.2h0.1h0.1h0.1h0.1h0.1h0.1h0h0h0h0h0h0h0h0h0h0h0h0h0h0l0,0l0,0v0
		l-1.5,1.1l0.6,1.7l0,0l-1.4-1.1l-1.4,1.1l0,0l0.6-1.7l-1.5-1.1v0h1.8l0.5-1.7h0L90.2,60.8z"/>
	<path id="path37997" class="st3" d="M10,60.8L10,60.8L10,60.8L10,60.8L10,60.8L10,60.8L10,60.8L10,60.8L10,60.8h0.1h0h0h0h0h0h0h0
		h0.1h0.1h0.1h0.1h0.1h0.1h0.2H11h0.1h0.1h0.1h0.1h0.1h0.1h0h0h0h0h0h0h0h0h0h0h0h0h0h0l0,0h0v0l-1.5,1.1l0.6,1.7l0,0l-1.4-1.1
		L8,63.6l0,0l0.6-1.7l-1.5-1.1v0h1.8l0.5-1.7h0L10,60.8z"/>
	<path id="path37999" class="st4" d="M49.5,97.7l2.5-0.1l2.5-0.2l2.4-0.3l2.4-0.4l2.3-0.5l2.3-0.7l2.2-0.8l2.2-0.9l2.1-1l2.1-1.1
		l2-1.2l2-1.3l1.9-1.3l1.8-1.4l1.8-1.5l1.7-1.6l1.6-1.7l1.5-1.8l1.4-1.8l1.3-1.9l1.3-2l1.2-2l1.1-2.1l1-2.1l0.9-2.2l0.8-2.2l0.7-2.3
		l0.5-2.3l0.4-2.4l0.3-2.4l0.2-2.4l0.1-2.5c0-26.7-21.6-48.3-48.3-48.3S1.2,22.8,1.2,49.4C1.2,76.1,22.8,97.7,49.5,97.7z"/>
	<path id="path38001" class="st2" d="M62.2,73.8L62.2,73.8L62.2,73.8l0.1-0.1l0.1,0l0.1-0.1l0.1-0.1l0.2-0.1l0.2-0.1l0.2-0.1
		l0.2-0.1l0.3-0.1l0.3-0.1l0.3-0.1l0.3-0.1l0.3-0.2l0.3-0.2L66,72l0.8-0.4l0.8-0.4l0.9-0.4l0.9-0.4l0.9-0.4l1.8-0.9l1.8-0.9l0.9-0.4
		l0.9-0.4l0.9-0.4l0.8-0.4l0.8-0.4l0.7-0.3l0.3-0.2l0.3-0.2l0.3-0.1l0.3-0.1l0.3-0.1l0.2-0.1l0.2-0.1l0.2-0.1l0.2-0.1l0.2-0.1
		l0.1-0.1l0.1-0.1l0.1,0l0.1,0l0,0l0,0l-0.7,1.8l-18.9,8L62.2,73.8z"/>
	<path id="path38003" class="st2" d="M62.8,76.1L62.8,76.1L62.8,76.1L62.8,76.1l0.2,0l0.1,0l0.1,0l0.1,0l0.1,0l0.1,0l0.2,0l0.2,0
		l0.2,0l0.2,0l0.2,0l0.2-0.1l0.2,0l0.5-0.1l0.5-0.1l0.5-0.1l0.6-0.1l0.6-0.1l0.6-0.1l1.3-0.3l1.3-0.3l0.6-0.1l0.6-0.1l0.6-0.1
		l0.5-0.1l0.5-0.1l0.5-0.1l0.2,0l0.2,0l0.2,0l0.2,0l0.2,0l0.2,0l0.2,0l0.1,0l0.1,0l0.1,0l0.1,0l0.1,0l0.1,0l0,0h0l0,0L75,74.5
		l-12.1,2.1L62.8,76.1z"/>
	<path id="path38005" class="st2" d="M17.8,65.6L17.8,65.6L17.8,65.6L17.8,65.6L17.8,65.6L17.8,65.6L17.8,65.6L17.8,65.6L17.8,65.6
		L17.8,65.6l0.1,0.1l0,0l0,0l0,0l0,0l0,0l0,0l0,0.1l0,0.1l0,0.1l0,0.1l0,0.1l0,0.1l0.1,0.1l0.1,0.1l0,0.1l0,0.1l0,0.1l0,0.1l0,0.1
		l0,0.1l0,0l0,0l0,0l0,0l0,0l0,0l0,0l0,0l0,0v0l0,0l0,0l0,0l0,0l0,0l0,0L36.8,74l0.2-0.7L17.8,65.6z"/>
	<path id="path38007" class="st2" d="M22.9,73.4L22.9,73.4L22.9,73.4L22.9,73.4l0.1,0l0.1,0l0.1,0l0.1,0l0.1,0l0.1,0l0.2,0l0.2,0
		l0.2,0l0.2,0l0.2,0l0.2,0l0.2,0l0.5,0.1L26,74l0.5,0.1l0.6,0.1l0.6,0.1l0.6,0.1l1.2,0.2l1.2,0.3l0.6,0.1l0.6,0.1l0.6,0.1l0.5,0.1
		l0.5,0.1l0.5,0.1l0.2,0.1l0.2,0l0.2,0l0.2,0l0.2,0l0.2,0l0.2,0l0.1,0l0.1,0l0.1,0l0.1,0l0.1,0l0.1,0l0,0l0,0h0L36,76.8l-12.2-2.3
		L22.9,73.4z"/>
	<path id="path38009" class="st3" d="M42.1,48.9L42.1,48.9L42.1,48.9L42.1,48.9L42.1,48.9L42.1,48.9L42.1,48.9L42.1,48.9l0.1,0.1v0
		l0,0h0v0l0,0h0v0l0,0h0v0h0h0l0,0l0,0h0h0v0h0c0.1,0,0.1-0.1,0.2-0.2C42.4,48.9,42.2,48.9,42.1,48.9z"/>
	<path id="path38011" class="st3" d="M31.8,45.8L31.8,45.8L31.8,45.8L31.8,45.8L31.8,45.8L31.8,45.8L31.8,45.8L31.8,45.8L31.8,45.8
		l-0.1,0.1l0,0l0,0h0v0l0,0l0,0l0,0l0,0v0h0v0l0,0v0l0,0v0v0l0,0c0,0.1,0.1,0.1,0.2,0.2C31.8,46.1,31.8,45.9,31.8,45.8z"/>
	<path id="path38013" class="st5" d="M63,51.5L63,51.5L63,51.5L63,51.5l0.1,0l0,0l0,0l0,0l0,0l0,0l0,0l0,0l0,0l0.1,0l0.1,0l0,0l0,0
		l0,0l0,0l0,0l0,0l0,0l0,0l0,0l0,0l0,0l0,0l0,0l0,0l0,0l0,0c0.1-0.1-0.3-0.7-1-1.2c-0.5,0.4-1.5,2.6-0.9,2.5
		C62.7,52,62.7,51.5,63,51.5z"/>
	<path id="path38015" class="st5" d="M24,34.7L24,34.7L24,34.7L24,34.7L24,34.7L24,34.7l0.1,0h0h0l0,0h0l0,0h0l0,0l0,0h0l0,0l0,0
		l0,0l0,0l0,0l0,0l0,0l0,0l0,0l0,0l0,0l0,0l0,0c0.2,0.1,0.3,0,0.2-0.1c-0.3-0.2-0.5-0.3-0.9-0.1c-1.2,0.7,3.9,3.2,3.2,2.6
		c0.1-0.3-0.6-0.6-0.8-0.8C24.8,35.7,24.5,35,24,34.7z"/>
	<path id="path38017" class="st6" d="M38.9,55.9L38.9,55.9l0.1-0.1l0.1,0l0.1,0l0.1,0l0.1,0l0.1,0l0.1,0l0.1,0h0.1h0.1h0.1h0.1
		l0.1,0l0.1,0l0.1,0c1.2,0.3,2.1,0.9,3.2,1.2c1.6,0.4,3.1,1.2,4.4,2.3c1.7,1.3,2.5,3.8,1.6,5.9c-1,2.2-2.1,3.9-3.9,5.6
		c-0.6,0.5-1.5,1.4-1.9,2c-0.6,0.7-0.8,1.6-1.3,2.5c-0.1,0.1-0.2,0.3-0.2,0.5c-0.3,1.6-1.8,2.5-3.1,2.9"/>
	<path id="path38019" class="st6" d="M42.6,56.8l0.1,0l0.1,0l0.1,0l0.1,0l0.1,0l0.1,0h0.1l0.1,0h0.1l0.1,0h0.1l0.1,0l0.1,0l0.1,0
		l0.1,0l0.1,0l0.1,0l0.1,0l0.1,0l0.1,0l0.2,0.1l0.1,0.1L45,57l0.1,0l0.1,0l0.1,0l0.1,0l0.1,0l0.1,0c2.8,1,4.2,2.1,5.1,5.1
		c0.3,1.1-0.2,2.6-0.5,3.5c-0.4,0.9-1.1,2.1-1.8,3c-1.1,1.3-2.2,2.4-3.3,3.6c-1,1.1-1.6,2.5-1.8,2.8c-0.3,0.7-1,1.2-1.3,1.9"/>
	<path id="path38021" class="st2" d="M42,77.2L42,77.2L42,77.2L42,77.2l0.1-0.1l0,0l0,0l0,0l0,0l0,0l0,0l0,0l0,0l0,0l0,0l0,0l0,0
		l0,0l0,0l0,0l0,0l0,0l0,0h0l0,0h0h0l0,0h0l0,0l0,0l0,0l0,0l0,0l0,0l0,0l0,0l0,0c0,0,0.7-1.5,1.7-0.2c0,0,1.3-1.3,1.9,0.4
		c0,0,1.3-1.1,1.9,1.5c0,0-3.5-3-6.2-1.1L42,77.2z"/>
	<path id="path38023" class="st2" d="M42.9,77.6L42.9,77.6L42.9,77.6L42.9,77.6L42.9,77.6l0.1-0.1l0.1,0l0.1,0l0.1,0l0.1,0l0.1,0
		l0.1,0l0.1,0l0.1,0l0.1,0l0.2,0l0.2,0h0.2l0.2,0l0.2,0l0.2,0l0.1,0l0.1,0l0.1,0l0.1,0l0.1,0l0.1,0l0.1,0l0.1,0l0.1,0.1l0.1,0.1
		l0.1,0.1l0.2,0.1l0.2,0.1l0.2,0.1l0.2,0.1l0.2,0.1l0.2,0.1l0.2,0.1l0.2,0.1l0.2,0.1l0.2,0.1l0.2,0.1l0.2,0.1l0.2,0.1
		c0,0-0.7,0.6-1-0.1c0,0-1.4,1-1.6-0.3c0,0-1.5,0.7-1.9-0.6C44.3,78,43.8,79,42.9,77.6z"/>
	<path id="path38025" class="st2" d="M47.9,72.4l0-0.1l0-0.1l0-0.1l0-0.1l0-0.1l0-0.1l0-0.1l0-0.1l0-0.1l0-0.1l0-0.1l0-0.1l0-0.1
		l0,0l0,0l0,0l0,0l0,0l0,0l0.1,0l0.1,0l0.1,0l0.1,0l0.1,0l0.1,0l0.1,0l0.1,0l0.1,0l0.1,0l0.1,0l0.1,0h0.1c1.3,0,1.4,1.7,1.4,1.7
		C51,73,47.8,73,47.9,72.4z"/>
	<path id="path38027" class="st2" d="M47.8,72.9L47.8,72.9L47.8,72.9L47.8,72.9L47.8,72.9L47.8,72.9L47.8,72.9L47.8,72.9L47.8,72.9
		L47.8,72.9l-0.1,0.1l0,0l0,0l0,0l0,0l0,0l0,0l0,0l0,0l0,0l0,0l0,0l0,0l0,0l0,0l0,0.1l0,0l0,0.1l0,0.1l0,0.1l0,0.1l0,0l0,0l0,0l0,0
		v0l0,0l0,0v0c-0.1,1.2,0.7,2.1,2.5,2.1c1.8,0,2.3-1,2.3-1.9c0-0.9-0.7-1.2-0.7-1.2s-0.5,0.2-1.5,0.2C48.5,73.2,47.8,72.9,47.8,72.9
		z"/>
	<path id="path38029" class="st7" d="M48.2,72.9c0,0-0.4,0.4-1.2,0.7"/>
	<path id="path38031" class="st7" d="M48.9,73.2c0,0-1,1.1-2.2,1.3"/>
	<path id="path38033" class="st7" d="M50,73.2c0,0-1.1,2.2-2.8,2.2"/>
	<path id="path38035" class="st7" d="M50.8,73.1c0,0-0.2,2.5-2.4,2.9"/>
	<path id="path38037" class="st7" d="M51.5,73.2c0,0,0.5,1.7-1.5,2.9"/>
	<path id="path38039" class="st7" d="M50.8,73.1c0,0,0.3,0.4,1.1,0.7"/>
	<path id="path38041" class="st7" d="M50,73.2c0,0,0.7,1.2,1.9,1.3"/>
	<path id="path38043" class="st7" d="M49,73.2c0,0,0.9,2.1,2.6,2.1"/>
	<path id="path38045" class="st7" d="M48.3,73c0,0,0.2,2.7,2.4,3"/>
	<path id="path38047" class="st6" d="M54.9,57.8l0,0.2l0,0.2l0,0.3l0,0.3l0,0.3l0,0.3l0,0.3l0.1,0.3l0.1,0.3l0.1,0.3l0.1,0.3
		l0.1,0.3l0.1,0.3l0.1,0.3l0.1,0.3l0.1,0.1l0,0.1l0.1,0.1l0.1,0.2c0.3,0.7,0.3,1.3,0.1,2c0-0.1,0-0.1,0-0.2"/>
	<path id="path38049" class="st6" d="M54.9,66.5L54.9,66.5l0,0.1l0,0l0,0l0,0l0,0l0,0l0,0l0,0.1l0,0.1l0,0.1l0,0.1l0,0.1l0,0.1l0,0
		l0,0.1l0,0l0,0l0,0l0,0l0,0l0,0l-0.1,0.1l-0.1,0.1l-0.1,0.1l0,0l0,0l0,0l0,0l0,0l0,0l0,0l0,0.1c-1.4,2.4-2.5,4.6-0.5,5.6
		c1.8,0.9,3.3,1.5,5.5,3.2c1.2,0.6,1.6,1.9,2.9,2.5c0.3,0.1,1.5,0.3,1.8,0.3"/>
	<path id="path38051" class="st6" d="M55.6,57.3L55.6,57.3l0,0.2l0,0.1l0,0.1l0,0.1v0.1v0.1V58V58l0,0.1l0,0.1l0,0.1l0,0.1l0,0.1
		l0,0.1l0,0.1l0,0.1l0,0.1l0,0.1l0,0.1l0,0.1l0,0.1l0,0.1l0,0.1c0,0.2,0.1,0.5,0.2,0.7c0.2,0.6,0.3,1.1,0.6,1.7
		c0.2,0.6,0.4,1.1,0.3,1.7c-0.1,0.6-0.2,1.1-0.4,1.6c-0.2,0.4-0.5,0.8-0.9,1c-0.4,0.3-1,0.1-1.3-0.3"/>
	<path id="path38053" class="st6" d="M55.5,64L55.5,64L55.5,64L55.5,64L55.5,64L55.5,64L55.5,64L55.5,64l0.1,0.1l0,0l0,0l0,0l0,0
		l0,0l0,0l0,0l0,0l0,0l0,0l0,0l0,0l0,0l0,0l0,0l0,0l0,0v0l0,0c0.1,0.3-0.1,0.6-0.3,0.8c-0.1,0.1-0.2,0.3-0.4,0.2
		c-0.1,0-0.2-0.1-0.3-0.1"/>
	<path id="path38055" class="st6" d="M56,66L56,66L56,66L56,66l-0.1,0.1l0,0l0,0l0,0l0,0l0,0l0,0l0,0l0,0l0,0l0,0l0,0l0,0l0,0v0l0,0
		l0,0v0l0,0c0,0.2-0.3,0.4-0.3,0.6c0-0.1,0,0,0-0.1c-0.3,0.6-0.2,0.2-0.6,0.9c-0.4,0.9-1.2,1.8-1.3,2.3c-0.2,0.8-0.6,1.9,0,2.6
		c0.7,0.7,1.6,0.9,2.5,1.4c0.2,0.1,0.4,0.3,0.6,0.5c0.6,0.5,1.4,0.8,2.6,1.7c0.8,0.5,1.5,1,2.1,1.7c0.2,0.2,0.4,0.5,0.7,0.6
		c0.3,0.2,0.5,0.3,0.8,0.3c0,0,0,0,0,0c0.4,0.1,0.8,0.2,1.1,0.3c0.2,0.1,0.4,0,0.7,0"/>
	<path id="path38057" class="st2" d="M57.1,77.2L57.1,77.2L57.1,77.2L57.1,77.2L57.1,77.2L57.1,77.2L57.1,77.2L57.1,77.2L57.1,77.2
		L57.1,77.2l0-0.1l0,0v0v0l0,0v0l0,0l0-0.1l0-0.1l0-0.1l0-0.1l0-0.1l0-0.1l0-0.1l0,0l0,0l0,0l0,0l0,0l0,0l0,0l0,0l0,0l0,0l0,0l0,0
		l0,0l0,0l0,0h0l0,0h0h0h0l0,0l0,0l0,0l0,0l0,0l0,0l0,0l0,0l0,0l0,0l-0.1,0l0,0l0,0l0,0l0,0l0,0l0,0c0,0-0.7-2-1.6-0.3
		c0,0-2.2-1.5-2.5,0.5c0,0-1.7-0.5-1.6,1.8C50.1,78.6,53,75.5,57.1,77.2z"/>
	<path id="path38059" class="st2" d="M57.5,77.6L57.5,77.6L57.5,77.6L57.5,77.6L57.5,77.6L57.5,77.6l-0.1,0l-0.1,0l-0.1,0l-0.1,0
		l-0.1,0l-0.2,0l-0.2,0l-0.2,0l-0.2,0l-0.2,0l-0.2,0l-0.2,0l-0.3,0l-0.3,0h-0.3l-0.3,0l-0.3,0l-0.3,0l-0.3,0.1l-0.3,0.1L53,77.4
		l-0.3,0.1l-0.3,0.1l-0.3,0.1l-0.2,0.1l-0.2,0.1L51.6,78l-0.2,0.1l-0.2,0.1l-0.2,0.1l-0.2,0.1l-0.2,0.1l-0.2,0.1l-0.2,0.1L50.3,79
		l-0.2,0.1c0,0,2.5,0.6,2.4-0.8c0,0,1.7,1.2,1.8-0.1c0,0,1,0.9,1.7-0.2C56,78,58.6,78.4,57.5,77.6z"/>
	<path id="path38061" class="st2" d="M49.5,80.8l0.1,0.1l0.1,0.1l0.1,0.1l0.1,0.1l0.1,0.1l0.1,0.1l0.1,0.1l0.1,0.1l0.1,0.1l0.1,0.1
		l0.1,0.1l0.1,0.1l0.1,0.1l0.1,0.1l0.1,0l0.1,0l0.1,0l0.1,0l0.1,0l0.1,0l0.2,0l0.2,0l0.2,0h0.2l0.2,0l0.2,0l0.2,0l0.2,0l0.2,0l0.2,0
		l0.2,0l0.2-0.1l0.2-0.1l0.2-0.1l0.1-0.1l0.1,0l0.1,0l0.1,0l0,0l0,0l0,0l0,0l0,0l0,0l0,0l0,0h0v0l-0.3-0.5c-6.6,2.8-5.1-4.9-5.1-4.9
		H49C49,76.3,48.6,79.1,49.5,80.8z"/>
	<path id="path38063" class="st7" d="M47.4,72.7c0,0-0.1,2.5,1.5,3.5"/>
	<path id="path38065" class="st5" d="M23,36.9L23,36.9L23,36.9L23,36.9L23,36.9L23,36.9l0.1,0.1l0,0l0,0l0,0.1l0,0.1l0.1,0.1
		l0.1,0.2l0.1,0.2l0.1,0.2l0.1,0.2l0.1,0.2l0.1,0.2l0.2,0.3l0.2,0.3l0.2,0.3l0.2,0.3l0.2,0.3l0.2,0.3l0.2,0.3l0.2,0.3l0.4,0.6
		l0.2,0.3l0.2,0.3l0.2,0.3l0.2,0.3l0.2,0.3l0.2,0.3l0.2,0.2l0.2,0.2l0.2,0.2l0.2,0.2c0,0-0.1-3.4-1.1-2c0,0,0.6-4-0.9-2.8
		c0,0,0.1-3.5-1.4-1.4C24.8,37.8,24.4,35.2,23,36.9z"/>
	<path id="path38067" class="st5" d="M22.2,36.9L22.2,36.9L22.2,36.9L22.2,36.9L22.2,36.9L22.2,36.9l0.1,0.1l0,0l0,0l0,0.1l0,0.1
		l0.1,0.1l0.1,0.1l0.1,0.2l0.1,0.2l0.1,0.2l0.1,0.2l0.1,0.2l0.2,0.2l0.2,0.2l0.2,0.3l0.2,0.3l0.2,0.3l0.2,0.3l0.4,0.5l0.4,0.5
		l0.4,0.5l0.2,0.3l0.2,0.3l0.2,0.2l0.2,0.2l0.2,0.2l0.2,0.2l0.2,0.2l0.2,0.2c0,0-1.5-2-3.1-0.9c0,0-2.6-2.9-0.9-3.2
		C22.8,39.4,20.8,38.6,22.2,36.9z"/>
	<path id="path38069" class="st5" d="M29.5,44.9L29.5,44.9L29.5,44.9L29.5,44.9L29.5,44.9l0-0.1l0,0l0-0.1l0-0.1l0-0.1l0-0.1l0-0.1
		l0-0.1l0-0.2l0-0.2l0-0.3l0-0.3l0-0.3l0-0.3l0-0.3l0-0.4l0-0.4l0-0.4l0-0.4v-0.4l0-0.4l0-0.4l0-0.4l0.1-0.4l0.1-0.4l0.1-0.4
		l0.1-0.4l0.1-0.4l0.1-0.3l0.1-0.2l0.1-0.2l0.1-0.2l0.1-0.1l0.1-0.2l0.1-0.1l0.1-0.1l0.1-0.1l0.1-0.1l0.1-0.1c0,0-0.8-1.1-1.4,0.1
		c0,0-2.3,0.6-0.9,3.2c0,0-1.4,1.4,0.2,3.2C28.5,42.1,29.1,43.5,29.5,44.9z"/>
	<path id="path38071" class="st5" d="M29.9,44.4L29.9,44.4L29.9,44.4L29.9,44.4L29.9,44.4l0-0.1l0,0l0-0.1l0-0.1l0-0.1l0-0.1l0-0.1
		l0-0.1l0-0.2l0-0.2l0-0.2l0-0.3l0-0.3l0-0.3l0-0.3l0-0.3l0-0.3v-0.3v-0.4l0-0.4l0-0.4l0-0.4l0-0.4l0.1-0.4l0.1-0.4l0.1-0.3l0.1-0.3
		l0.1-0.3l0.1-0.3l0.1-0.3l0.1-0.1l0.1-0.1l0.1-0.1l0.1-0.1l0.1-0.1l0.1-0.1l0.1-0.1l0.1-0.1c0,0,1.2,0.2,0.2,2.5
		c0,0,1.7,1.5-0.3,2.6C31,40.9,32.5,41.2,29.9,44.4z"/>
	<path id="path38073" class="st5" d="M18.9,43.8L18.9,43.8L18.9,43.8L18.9,43.8L18.9,43.8l0.1,0l0,0l0,0l0.1,0l0.1,0l0.1,0l0.1,0
		l0.1,0l0.2,0.1l0.2,0.1l0.2,0.1l0.3,0.1l0.3,0.1l0.3,0.1l0.3,0.1l0.3,0.1l0.3,0.1l0.3,0.1l0.3,0.1l0.3,0.1l0.7,0.2l0.7,0.2l0.3,0.1
		l0.3,0.1l0.3,0.1l0.3,0.1l0.3,0.1l0.3,0.1l0.3,0.1l0.3,0l0.3,0l0.2,0c0,0,0.1-1.8-1.1-1.8c0,0-1.1-2.3-2.9-1.5c0,0-1.5-1.7-2.2,0
		C21.3,43.2,18.9,42.5,18.9,43.8z"/>
	<path id="path38075" class="st5" d="M18.9,44.1L18.9,44.1L18.9,44.1L18.9,44.1L18.9,44.1l0.1,0.1l0.1,0l0.1,0l0.1,0.1l0.1,0.1
		l0.1,0.1l0.1,0.1l0.1,0.1l0.2,0.1l0.2,0.1l0.2,0.1l0.2,0.1l0.2,0.1l0.2,0.1l0.3,0.1l0.3,0.1l0.3,0.1l0.3,0.1l0.3,0.1l0.4,0.1
		l0.4,0.1l0.4,0.1l0.4,0.1l0.5,0.1l0.2,0.1l0.2,0.1l0.2,0.1l0.3,0.1l0.3,0.1l0.3,0.1l0.3,0.1l0.3,0.1c0,0-4,2.2-3.5,0.2
		c0,0-3.2,0.2-2.2-1.2C20.8,46,18.1,45.4,18.9,44.1z"/>
	<path id="path38077" class="st5" d="M23,48.4L23,48.4L23,48.4L23,48.4L23,48.4l-0.1,0l-0.1,0l-0.1,0l-0.1,0l-0.1,0l-0.1,0l-0.1,0
		l-0.1,0.1l-0.1,0.1l-0.1,0.1L21.9,49l-0.1,0.1l-0.1,0.1l-0.1,0.1l-0.1,0.1l-0.1,0.1l-0.1,0.1L21,49.9L20.8,50l-0.1,0.2l-0.1,0.2
		l-0.1,0.2l-0.1,0.2L20.1,51l-0.1,0.2l-0.1,0.3l-0.1,0.1l-0.1,0.1L19.6,52l-0.1,0.1c0,0,2.8-3.2,4.8-3.4l1-0.1c0,0-1.5,1,0.3,0.3
		c0,0,0.1-0.2,0.3-0.2c0.2,0-2.2,0.9-2.3,1.9c0,0,0,0.8-1,0.8c0,0-0.9,1-2.2,0.3c0,0-0.8,1.1-1.3,0.7c0,0-0.8-0.7,0.6-2.1
		c0,0,0-1.9,2.2-2.1C22.1,48.3,22.8,47.9,23,48.4z"/>
	<path id="path38079" class="st5" d="M23.4,52.5L23.4,52.5L23.4,52.5L23.4,52.5L23.4,52.5L23.4,52.5L23.4,52.5L23.4,52.5L23.4,52.5
		L23.4,52.5l-0.1,0.1l0,0l0,0l0,0l0,0l0,0l0,0l0,0.1l0,0.1l0,0.1l0,0.1L23,53l0,0.1l-0.1,0.1l-0.1,0.1l-0.1,0.1l0,0.1l0,0.1l0,0.1
		l0,0.1l0,0.1l0,0l0,0l0,0l0,0l0,0l0,0l0,0l0,0l0,0l0,0l0,0v0h0v0h0l0,0c0,0-0.3,0.5,0.1,0.3c0,0,3.6-4.9,6.1-5.5
		c0,0,0.8-0.5,0.7,0.1c0,0,0.2,1-0.7,0.8c0,0,0.7,2-1.8,2.1c0,0,0.8,2.1-1.9,2c0,0-0.7,1.2-1.4,0.5c0,0-1.2,1.3-1.6,0
		c0,0-0.3-1.6,0.8-1.9c0,0,0.7-0.5,0.9-0.3C23.5,52.3,23.4,52.5,23.4,52.5z"/>
	<path id="path38081" class="st5" d="M22.5,55.5L22.5,55.5L22.5,55.5L22.5,55.5L22.5,55.5L22.5,55.5L22.5,55.5L22.5,55.5L22.5,55.5
		L22.5,55.5L22.5,55.5L22.5,55.5L22.5,55.5l0.1,0.1l0,0l0,0l0,0l0,0l0,0l0,0l0,0l0,0l0,0l0,0l0,0l0.1,0.1l0.1,0l0.1,0l0.1,0.1l0,0
		l0,0c0,0,0.7-0.1-0.2,0.8c0,0-0.7,0.9-0.6,1.3l0.2,0.2c0,0,0.9-1.6,1.5-1.9c0,0-0.2,0.5,1.2,0.6c0,0,0,0.8-0.3,1.1
		c0,0-0.4-0.4-0.5-0.1c0,0-0.5,1.3-2.2,1c0,0-1.1-1.4,0.1-2.1c0,0,0.6-0.7,0.2-0.7c-0.4-0.1-0.3-0.5-0.3-0.5L22.5,55.5z"/>
	<path id="path38083" class="st5" d="M25.6,54.6L25.6,54.6L25.6,54.6L25.6,54.6L25.6,54.6L25.6,54.6L25.6,54.6L25.6,54.6L25.6,54.6
		L25.6,54.6L25.6,54.6h-0.1l0,0h0h0h0h0h-0.1l-0.1,0h-0.1l-0.1,0l-0.1,0l-0.1,0l-0.1,0l-0.1,0l-0.1,0l-0.1,0l-0.1,0l-0.1,0l0,0l0,0
		l0,0l0,0l0,0l0,0l0,0l0,0l0,0l0,0l0,0l0,0l0,0l0,0l0,0l0,0l0,0v0l0,0v0v0l0,0v0l0,0l0.3,0.1c0,0-0.6,0.5-0.1,1c0,0,1.4,0.7,2.5-0.2
		c0,0,0.5-0.7,0-0.9c0,0,1.9,0.9,2,0.1c0,0,0.1-0.4-0.2-1c0,0,1.3-0.7,1.2-2c0,0,1.1-1.7,0.8-1.8c0,0-4.7,4.3-5.1,5.3h-0.3
		c0,0,0.4-1,1.2-1.5C26.6,54.4,25.7,54.6,25.6,54.6z"/>
	<path id="path38085" class="st5" d="M27.3,59.4L27.3,59.4L27.3,59.4l0.1,0l0,0l0,0l0,0l0,0l0,0l0,0l0,0l0,0l0,0l0,0l0,0l0,0l0,0
		l0,0l0,0l0,0v0v0v0V60v0v0.1l0,0.1l0,0.1l0,0.1l0,0.1l0,0.1l0,0.1l0,0.1l0,0.1l0,0.1l0,0.1l0,0l0,0l0,0l0,0l0,0l0,0l0,0l0,0l0,0
		l0,0l0,0l0,0v0l0,0v0l0,0v0l0,0c0.3-0.3,0.6,0.2,0.6,0.2c-0.2,0.9-1,1-1,1c-1-0.3-0.5-1.3-0.5-1.3c-0.6-0.2-0.6-0.7-0.6-1.1
		c0,0,0.3-0.7,0.5-0.8c0,0-1-0.7-0.9-1c0,0-0.1-1.4,0.8-1.5c0,0,1.4,0.3,0.9,2.2L27.3,59.4z"/>
	<path id="path38087" class="st5" d="M36.6,65.4L36.6,65.4L36.6,65.4L36.6,65.4L36.6,65.4L36.6,65.4L36.6,65.4L36.6,65.4L36.6,65.4
		L36.6,65.4l-0.1,0l0,0l0,0l0,0l0,0l0,0l0,0l0,0l0,0l0,0l-0.1,0l0,0l0,0l0,0l0,0l0,0l0,0l0,0l0,0l0,0l0,0l0,0l0,0l0,0l0,0l0,0l0,0v0
		v0v0v0l0,0v0l0,0l0,0l0,0l0,0l0,0l0,0l0,0l0,0l0,0l0,0l0,0l0,0l0,0l0.1,0c0,0-0.6,1.8,0.5,1.6c0,0,0.1,0.7,0.5,0.6
		c0,0,0.1-0.4-0.4-0.7c0,0,0.3-0.7-0.4-1.5C36.5,66.9,37.1,65.9,36.6,65.4z"/>
	<path id="path38089" class="st5" d="M39.4,56.9L39.4,56.9L39.4,56.9L39.4,56.9L39.4,56.9L39.4,56.9L39.3,57l0,0l0,0l0,0l0,0l0,0.1
		l0,0.1l0,0.1l0,0.1l0,0.1l0,0.1l-0.1,0.2l-0.1,0.2l-0.1,0.2l-0.1,0.2l-0.1,0.2l-0.1,0.2l-0.1,0.2L38.4,59l-0.1,0.2l-0.1,0.2
		l-0.1,0.2l-0.1,0.2l0,0.2l0,0.2l0,0.2l0,0.2v0.1l0,0.1l0,0.1V61l0,0.1l0,0.1l0,0.1l0,0.1l0,0.1l0,0.1l0,0.1l0,0.1l0,0.1l0,0.1l0,0
		l0.1,0c0,0,0,2.6-1.6,1.8c0,0-0.5,1.8-1.6,1.8c0,0-0.2,1.2-0.9,1.1c0,0,0-3.9,4.6-9.8C38.9,56.7,39.4,56.3,39.4,56.9z"/>
	<path id="path38091" class="st5" d="M36.8,56.5L36.8,56.5L36.8,56.5L36.8,56.5L36.8,56.5L36.8,56.5L36.8,56.5L36.8,56.5L36.8,56.5
		L36.8,56.5L36.8,56.5L36.8,56.5l0.1-0.1l0,0l0,0l0,0l0,0l0,0l0.1,0l0.1,0l0,0l0.1,0l0.1,0l0,0l0,0h0l0,0l0,0h0l0,0h0h0h0l0,0h0l0,0
		l0,0l0,0l0,0l0,0l0,0l0,0l0,0l0,0l0,0l0,0l0,0l0,0l0,0l0,0l0,0l0,0.1l0,0.1l0,0.1v0l0,0v0v0l0,0v0v0v0v0v0c0,0-1.5,1.3-2.1,3.1
		c0,0-1.7-1.1-0.8-1.9c0,0,0.6-0.5,1.3-0.2c0,0-0.2-0.5,0-1.1C36.8,56.4,36.8,56.5,36.8,56.5z"/>
	<path id="path38093" class="st5" d="M32.1,58L32.1,58L32.1,58l0,0.1l0,0.1l0,0.1l0,0.1l0,0.2l0,0.2l0,0.2l0,0.2l0,0.2l0,0.2l0,0.3
		l0,0.3l0,0.3l0,0.3l0,0.3l0,0.3l0,0.4l0,0.4l0,0.4l0,0.4l0,0.4l0,0.4v0.4v0.4l0,0.4l0,0.4l0,0.4l0,0.4l0,0.4l0,0.5L31.4,67
		c0,0-0.5-1-0.5-1.8c0,0,0.3-3.8-1.3-2.5c0,0,0.8,0.1,0.6,1c0,0-0.2,1.1-0.6,1.6c0,0-0.6,0.9,0.8,0.9c0,0,0.3,2,1.3,2
		c0,0,0.7-0.3,0.7-1.1c0,0,1.8-0.7,0.7-3.2c0,0,1.7,0,1-0.9c0,0-1.6-2.5-1.4-3.6C32.7,59.4,33.2,59,32.1,58z"/>
	<path id="path38095" class="st5" d="M40.4,53.8L40.4,53.8L40.4,53.8L40.4,53.8L40.4,53.8l-0.1-0.1l-0.1,0l-0.1,0l-0.1,0l-0.1,0
		l-0.1,0l-0.1,0l-0.1-0.1l-0.1-0.1l-0.1-0.1l-0.1-0.1l-0.1-0.1L39,53.2l-0.2-0.1L38.7,53L38.5,53l-0.3-0.1l-0.3-0.1l-0.3-0.1
		l-0.3-0.1l-0.3-0.1l-0.3-0.1L36.2,52L36,51.9l-0.2-0.1l-0.2-0.1l-0.2,0l-0.1,0l-0.1,0l-0.1,0l-0.1,0l-0.1,0l-0.1,0l-0.1,0l-0.1,0
		l-0.1,0l-0.1,0l-0.1,0l-0.1,0l-0.1,0l0,0l0,0l0,0l0,0v0.1l0,0.1l0,0.1l0,0.1l0.1,0.1l0.1,0.1l0,0.1l0,0.1l0,0.1l0.1,0.1l0.1,0.1
		l0.1,0.1c0,0-0.3,1.1,1.4,0.8C35.9,53.2,34.4,54.8,40.4,53.8z"/>
	<path id="path38097" class="st5" d="M32.9,51.5L32.9,51.5L32.9,51.5L32.9,51.5L32.9,51.5L32.9,51.5L32.9,51.5l-0.1,0.1l0,0.1l0,0.1
		l-0.1,0.1L32.6,52l-0.1,0.1l-0.1,0.1l-0.1,0.1l-0.1,0.2l-0.1,0.2L32.2,53l-0.1,0.2l-0.1,0.2L32,53.6l-0.1,0.2l0,0.2l0,0.2l0,0.2
		l0,0.2l0,0.3l0,0.3v0.3l0,0.3l0,0.3l0,0.3l0,0.3l0.1,0.3l0.1,0.3l0.1,0.3c0,0,1.1-0.3,0.6-1.2c0,0,2.3,0,0.3-2c0,0,0.9-0.6,0.1-1.7
		L32.9,51.5z"/>
	<path id="path38099" class="st5" d="M31.3,53.7L31.3,53.7L31.3,53.7L31.3,53.7L31.3,53.7L31.3,53.7L31.3,53.7L31.3,53.7l0,0.1l0,0
		v0l0,0.1l0,0.1l0,0.1l0,0.1l0,0.1l0,0.1l0,0.1l0,0.1l0,0.1l0,0.2l0,0.2l0,0.2v0.2v0.2v0.2V56l0,0.2l0,0.2l0,0.2l0,0.2l0,0.2l0,0.2
		l0,0.2l0,0.2l0,0.2l0.1,0.1l0.1,0.1c0,0-1.4,0.9-1.1-0.6c0,0-1.7,0.2-0.2-1.8L31.3,53.7z"/>
	<path id="path38101" class="st5" d="M28.8,56.3L28.8,56.3L28.8,56.3L28.8,56.3L28.8,56.3L28.8,56.3L28.8,56.3L28.8,56.3L28.8,56.3
		l-0.1,0.1l0,0l0,0.1l-0.1,0.1l-0.1,0.1l-0.1,0.1l-0.1,0.1l-0.1,0.1L28.3,57l-0.1,0.1l-0.1,0.1l-0.1,0.1L28,57.4l0,0.1l0,0.1l0,0.1
		l0,0.2l0,0.1l0,0.1l0,0.1v0.1v0.1v0.1l0,0.1l0,0.1l0,0.1l0,0.1l0,0.1l0,0.1l0,0.1l0,0.1l0,0.1l0,0.1l0,0.1l0,0.1l0,0.1l0.1,0.1
		l0.1,0.1l0.1,0.1c0,0,1.7-0.8,0.9-1.7C29.3,58.3,29.9,58,28.8,56.3z"/>
	<path id="path38103" class="st5" d="M28.1,63.4L28.1,63.4L28.1,63.4L28.1,63.4L28.1,63.4L28.1,63.4L28.1,63.4L28.1,63.4L28.1,63.4
		L28.1,63.4L28.1,63.4l-0.1,0l0,0l0,0l0,0l0,0l0,0l0,0l0,0l0,0l0,0l0,0l0,0l0,0l0,0l0,0l0,0l0,0l0,0l0,0l0,0l0,0l0,0l0,0v0l0,0v0v0
		l0,0v0l0,0l0,0l0,0l0,0l0,0l0,0l0,0l0,0l0,0l0,0l0,0l0,0l0,0l0,0l0,0l0.1,0l0.1,0c0,0,0.2,1.5,1.2,0.8c0,0-0.9-2.8,0.5-4.6h-0.8
		c0,0-0.8,2.3-0.2,3.4L28.1,63.4z"/>
	<path id="path38105" class="st6" d="M33.5,49.1l0.1,0l0.2,0l0.2,0l0.2,0l0.3,0.1l0.4,0.1l0.4,0.1l0.4,0.1l0.4,0.1l0.4,0.1l0.4,0.1
		l0.4,0.1l0.4,0.1l0.3,0.2l0.3,0.1l0.2,0.1l0.2,0.1l0.1,0.1l0.2,0.1l0.1,0.1l0.1,0.1c2.3,1.3,3.7,3.2,4.4,4.2"/>
	<path id="path38107" class="st6" d="M33.5,48.2l0.4,0.2l0.4,0.2l0.4,0.1l0.4,0.1l0.8,0.3l0.4,0.1l0.4,0.1l0.4,0.1l0.4,0.1l0.4,0.2
		l0.4,0.2l0.4,0.2l0.2,0.1l0.2,0.1l0.2,0.1l0.2,0.1l0.2,0.1l0.2,0.1c1.3,0.9,2.4,1.9,3.4,3.1c0.4,0.5,0.6,1,1.1,1.9"/>
	<path id="path38109" class="st5" d="M30.2,45.5L30.2,45.5L30.2,45.5L30.2,45.5L30.2,45.5L30.2,45.5L30.2,45.5L30.2,45.5l0,0.1l0,0
		l0,0l0,0l0,0l0,0l0,0l0,0l0,0l0,0.1l0,0.1l0,0.1l0.1,0.1l0,0.1l0,0l0,0l0,0l0,0l0,0l0,0l0,0l0,0l0,0l0,0l0,0l0,0l0,0h0h0h0l0,0l0,0
		l0,0l0,0l0,0l0,0l0,0l0,0l0,0l0.1-0.1l0,0l0,0l0,0l0,0l0,0l0,0l0,0l0,0l0,0l0,0l0,0l0-0.1l0,0l0-0.1l0,0l0-0.1l0-0.1l0-0.1l0-0.1
		l0-0.1l0-0.1l0-0.1l0-0.1l0-0.1c0,0,2.3,0.6,1.5-2.5c0,0,1.1-1.2,2-1.2C35.8,41.4,33,40.7,30.2,45.5z"/>
	<path id="path38111" class="st5" d="M39.8,46.6L39.8,46.6L39.8,46.6L39.8,46.6L39.8,46.6v-0.1v0v-0.1v-0.1l0-0.1v-0.1v-0.1l0-0.1
		l0-0.1v-0.1l0-0.2l0-0.2l0-0.2l0-0.2l0-0.2l0.1-0.2l0.1-0.3l0.1-0.3l0.1-0.2l0.1-0.3l0.1-0.2l0.1-0.2l0.1-0.1l0.1-0.1l0.1-0.1
		l0.1-0.1l0.1-0.1l0.1-0.1l0.1-0.1l0.1-0.1l0.1-0.1l0.1-0.1l0.1-0.1l0.1-0.1l0.1-0.1l0.1-0.1l0.1-0.1l0.1,0l0.2,0l0.2,0l0.2,0l0.2,0
		l0.2,0h0.2l0.2,0l0.2,0l0.2,0l0.2,0c0,0-5.1-2.3-5.4,4.6c0,0-1.8-2.8-0.3-3.1c0,0,0.3-3.8,2-2c0,0,1.5-2.6,2.9-0.5
		c0,0,2.8-0.2,2.5,1.5c0,0-0.3,1.1-3.1,0.8c0,0,1.9,1.4-1.7,1.7C41.2,44.8,42.2,45.7,39.8,46.6z"/>
	<path id="path38113" class="st5" d="M43.9,44.3L43.9,44.3L43.9,44.3L43.9,44.3L43.9,44.3L43.9,44.3L43.9,44.3l0.1,0l0.1,0h0.1
		l0.1,0l0.1,0l0.1,0l0.1,0l0.1,0l0.1,0l0.1,0l0.1,0l0.1,0l0.1,0.1l0.1,0.1l0.1,0.1l0.1,0.1l0.1,0.1L46,45l0.1,0.1l0.1,0.1l0.1,0.1
		l0.1,0.1l0.1,0.1l0.1,0.1l0.1,0.1l0.1,0.1l0.1,0.1l0.1,0.1l0.1,0.1l0.1,0.1l0.1,0.1l0.1,0.1l0.1,0.1l0.1,0.1l0,0.1
		c1.1,2.5-1.5-2.9-5.2-1.2c0,0,0.9,0.5-0.9,1.5c0,0,3.7,0.9,3.1-0.3c0,0,1.2,3.2,2.6,1.4c0,0,3.4,0.9,2.2-1.4c0,0,1.9-2-2.8-2.5
		c0,0,0.8-1.2-0.5-0.9C45.9,43.4,45.5,44.4,43.9,44.3z"/>
	<path id="path38115" class="st6" d="M35.5,33.3l0.2,0l0.2,0.1l0.2,0.1l0.2,0.1l0.2,0.1l0.2,0.1l0.1,0.1l0.1,0.1L37,34l0.1,0.1
		l0.1,0.1l0.1,0.1l0.1,0.1l0.1,0.1l0.2,0.3l0.2,0.3l0.2,0.3l0.2,0.3l0.2,0.3l0.2,0.3l0.2,0.3l0.2,0.3l0.1,0.1l0.1,0.1
		c0.9,0.8,2,1.3,2.8,2.1c0.2,0.2,0.1-0.1,0.2,0.2"/>
	<path id="path38117" class="st6" d="M40.9,37c1.5,1.1,2.4,1.6,2.9,3.1"/>
	<path id="path38119" class="st6" d="M32.3,38.3L32.3,38.3L32.3,38.3l0.1,0h0l0.1,0l0,0h0l0,0l0,0h0l0,0l0,0h0l0,0l0,0l0,0l0,0l0,0
		l0,0l0,0l0,0c2.1,1.3,4.4,1.4,6.7,1c0.5-0.1,1,0,1.5,0.2"/>
	<path id="path38121" class="st6" d="M34.1,40l0.2,0.1l0.2,0.1l0.2,0.1l0.2,0.1l0.2,0.1l0.2,0.1l0.2,0l0.2,0l0.2,0l0.2,0l0.2,0
		l0.2,0l0.2,0h0.1l0.1,0h0.1h0.1h0.1l0.1,0c1.1,0,2.1-0.3,3-0.2"/>
	<path id="path38123" class="st6" d="M54.8,34.4L54.8,34.4l0,0.1l0,0l0,0l0,0.1l0.1,0.1l0.1,0.1l0.1,0.1l0.1,0.1l0.1,0.1l0.1,0.1
		l0.1,0.1l0.1,0.1l0.1,0.1l0,0.1l0.1,0.1l0,0l0,0l0,0l0,0.1c0.1,0.2,0.2,0.4,0.2,0.7c0,0.3,0.3,0.5,0.4,0.8c0.2,0.6,0.4,1.2,0.4,1.8
		c0,1.9,0,4-1.6,5.3c-1.3,1-2.4,2-3.3,3.3c0.2-0.4,0-0.8,0.1-1.1c0.1-0.3,0.2-0.5,0.3-0.8c0.5-0.7,1-1.1,1.7-1.6
		c0.7-0.5,1.4-0.9,1.5-1.7"/>
	<path id="path38125" class="st6" d="M49.7,27.4L49.7,27.4l0,0.2l0,0.1l0,0.1v0.1l0,0.1V28l0,0.1v0.1l0,0.1l0,0.1l0,0.1l0,0.1l0,0.1
		l0,0.2l0,0.2l0,0.2l0,0.2l0.1,0.2l0,0.2l0.1,0.2l0,0.2l0,0.2c0.2,0.8,0.8,1.3,1.3,2.1c0.2,0.3,0.4,0.5,0.7,0.8
		c0.4,0.3,0.7,0.7,1.1,1.1c0.5,0.6,1,1.2,1.4,1.9c0.2,0.4,0.4,0.8,0.4,1.2"/>
	<path id="path38127" class="st6" d="M52.8,35.6L52.8,35.6L52.8,35.6l-0.1,0l-0.1,0l-0.1,0l-0.1,0l-0.1,0l-0.1,0l-0.1,0l-0.1,0
		l-0.1,0l-0.1,0l-0.2,0.1l-0.2,0.1L51.5,36l-0.2,0.1l-0.1,0l-0.1,0l-0.1,0l-0.1,0l-0.1,0l-0.1,0l-0.1,0l-0.1,0l-0.1,0l0,0l0,0l0,0
		c-0.2,0.1-0.4,0.3-0.7,0.3c-0.5,0.1-0.8,0.4-1.1,0.7c-0.9,0.8-1.6,1.9-1.6,3.2c0,0.7,0.2,1.4,0.5,2c0.3,0.5,0.5,1,0.9,1.3"/>
	<path id="path38129" class="st6" d="M46.9,38.1L46.9,38.1L46.9,38.1L46.9,38.1L46.9,38.1L46.9,38.1L46.9,38.1L46.9,38.1L46.9,38.1
		l0,0.1v0v0v0l0,0v0l0,0v0v0l0,0l0,0v0l0,0v0l0,0l0,0l0,0v0l0,0l0,0l0,0c-0.1,0.1,0,0.3,0,0.4c-0.1,0.2-0.2,0.4-0.3,0.6
		c-0.3,1-0.2,2,0.3,2.8c0.3,0.5,1,0.8,1.5,1.3"/>
	<path id="path38131" class="st8" d="M66.4,40.8l-0.1,0l-0.1,0l-0.1,0l-0.1,0l-0.1,0l-0.1,0l-0.1,0.1l0,0l0,0l0,0l0,0l0,0l0,0l0,0
		l0,0l0,0l0,0l0,0l0,0l0,0l0,0l0,0l0,0l0,0l0,0.1c-0.1,0.4-0.3,0.7-0.5,1c-0.2,0.4-0.5,0.7-0.7,1.1c-0.2,0.3-0.3,0.7-0.5,0.9
		c-0.3,0.4-0.8,0.8-1.1,1.2c0,0-0.5,1.1-0.5,1c-0.4,2.1-0.2,4.1-1.3,5.9c-0.1,0.1-0.5,0.2-0.9,0.2c0.2-0.2,0.2-0.2,0.2-0.2
		c0.1-0.2,0.1-0.3,0.1-0.5c0.7-1.3,0.9-2.6,0.8-3.9"/>
	<path id="path38133" class="st6" d="M69.9,50.6L69.9,50.6h-0.1h0l0,0l0,0l0,0l0,0l0,0l0,0l0,0l0,0l0,0l0,0l0,0l0,0l0,0l-0.1,0.1
		L69.2,51l-0.1,0.1l-0.1,0.1l0,0l0,0l0,0l0,0l0,0l0,0l0,0l0,0c-1,0.7-2.7,2.8-3.7,3.5c-1.7,1.2-2.8,0.5-4.6,0.6
		c-1.3,0.1-1.9,0.3-3.4,1.6c-0.1,0.1-0.6,0.6-0.5,0.8c0.1,0.2,0.1,0.2,0.3,0.4c0.2-0.2,0.2-0.1,0.4-0.3c0.9-0.9,1.6-1.1,2.7-1.5
		c1.2-0.4,2.8,0.3,4.7-0.4c1.5-0.5,3-2.6,4.1-3.7c1.2-1.2,3.2-1.7,4.5-0.6"/>
	<path id="path38135" class="st5" d="M61.7,60L61.7,60L61.7,60L61.7,60L61.7,60L61.7,60L61.7,60L61.7,60L61.7,60L61.7,60L61.7,60
		l-0.1,0.1l0,0l0,0l0,0l0,0l0,0l0,0l0,0.1l0,0.1l0,0.1l0,0.1l0,0.1l0,0.1l0,0.1l0,0.1l0,0.1l0,0.1l0,0.1l0,0.1l0,0.1l0,0l0,0l0,0
		l0,0l0,0v0l0,0v0v0v0l0,0v0l0,0l0,0l0,0l0,0l0,0l0,0l0,0l0,0l0.3,0.4c0,0-2.4,2.2-1.2,2.6c0,0-0.7,2.3,0.5,1.9c0,0-0.4,1.7,0.8,1.5
		C61.4,68.2,61,63.1,61.7,60z"/>
	<path id="path38137" class="st5" d="M62.3,59L62.3,59L62.3,59L62.3,59L62.3,59l0,0.1v0l0,0.1v0.1l0,0.1v0.1l0,0.2l0,0.2l0,0.2
		l0,0.2l0,0.3l0,0.3l0,0.3l0,0.3l0,0.3l0,0.3l0,0.3l0,0.4l0,0.4l0,0.4l0,0.4l0,0.8l0,0.8v0.8v0.4l0,0.4v0.4l0,0.4l0,0.3l0,0.3
		c0,0,1.3-1.2,0.8-1.8c0,0,2-0.3,0.4-2.6c0,0,1.9-0.8-0.5-2.7C62.8,61.4,64.2,60.9,62.3,59z"/>
	<path id="path38139" class="st5" d="M63.5,59.1L63.5,59.1L63.5,59.1L63.5,59.1L63.5,59.1l0.1,0.1l0,0l0,0l0,0.1l0.1,0.1l0.1,0.1
		l0.1,0.1l0.1,0.1l0.1,0.1l0.1,0.1l0.2,0.2l0.2,0.2l0.2,0.2l0.2,0.2l0.2,0.3l0.2,0.3l0.2,0.3l0.2,0.3l0.3,0.3l0.5,0.6l0.5,0.6
		l0.3,0.3l0.2,0.3l0.2,0.3l0.2,0.3l0.2,0.3l0.2,0.3l0.2,0.3l0.2,0.2l0.2,0.2l0.1,0.2l0.1,0.1l0.1,0.1l0.1,0.1l0,0.1
		c0,0-0.5,0.8-1.3-0.3c0,0-2.5,0.5-1.8-1.5c0,0-1.8,1-2-0.3c0,0,1.2-1-0.4-2.8C64,61.5,64.7,61,63.5,59.1z"/>
	<path id="path38141" class="st5" d="M62.7,57.6L62.7,57.6L62.7,57.6L62.7,57.6l0.1,0.1l0.1,0.1l0.1,0.1l0.1,0.1l0.1,0.1l0.2,0.1
		l0.2,0.2l0.2,0.2l0.2,0.2l0.2,0.2l0.2,0.2l0.3,0.2l0.3,0.2l0.3,0.3l0.3,0.3l0.3,0.3l0.3,0.3l0.3,0.3l0.3,0.3l0.3,0.4l0.3,0.4
		l0.3,0.4l0.3,0.4l0.3,0.4l0.3,0.4l0.3,0.4l0.3,0.4l0.2,0.4l0.2,0.5l0.2,0.5c0,0,0.5-0.2-0.2-1.5c0,0,1.2-1.5-0.7-2.2
		c0,0,0.5-2.9-2.6-2.8C66.1,59.4,66.8,57.5,62.7,57.6z"/>
	<path id="path38143" class="st5" d="M70.3,54.8L70.3,54.8L70.3,54.8L70.3,54.8L70.3,54.8L70.3,54.8l0,0.1v0l0,0V55v0.1l0,0.1v0.1
		l0,0.1l0,0.1l0,0.2l0,0.2l0,0.2l0,0.2l0,0.2l0,0.2l0,0.3l0,0.3l0,0.3l0,0.3l0,0.3l0.1,0.6l0,0.3l0.1,0.3l0.1,0.3l0.1,0.3l0.1,0.3
		l0.1,0.2l0.1,0.2l0.1,0.2l0.1,0.2l0.1,0.2l0.1,0.2l0,0.1l0,0.1c0.7,1,0.3,0.1,0.3,0.1s-0.7-4.8-0.7-7.1c0,0-0.3-1.3-0.5-1.9
		c-0.1-0.4,1.4,1,1.5,1.6c0.1,0.6-0.2,0.6-0.2,0.6s2.3,2.8,0.7,3c0,0,1.6,2.2,0.2,2.8c0,0,0.1,3-1,1.9c-0.5-0.5-0.7-1-0.7-1
		s0.1,1.6-0.8,1.2c0,0-1.4-1.6-0.6-3.5c0,0-2.3,0.6-0.5-3.4c0,0-1.5-0.5-0.5-2.2c0,0,0.5-0.3,0.9-0.9C70,52.1,70.3,54.8,70.3,54.8z"
		/>
	<path id="path38145" class="st5" d="M72.9,53.4L72.9,53.4L72.9,53.4L72.9,53.4L72.9,53.4L72.9,53.4l0.1,0.1l0.1,0.1l0.1,0.1
		l0.1,0.1l0.1,0.1l0.1,0.1l0.1,0.1l0.1,0.1l0.1,0.1l0.1,0.2l0.1,0.2l0.1,0.2l0.1,0.2l0.1,0.2l0.1,0.2l0.1,0.2l0.1,0.2l0.1,0.2
		l0.1,0.3l0.1,0.3l0.1,0.3l0.1,0.3l0.1,0.3l0.1,0.3l0.1,0.3l0.1,0.3l0.1,0.3l0.1,0.3l0,0.3l0.2-0.3c0,0,0.5-2.8-2.6-5.8
		c0,0,0.5-1.4,1.5-0.2c0,0,0.5,0.5,0.3,1.2c0,0,1.8,0.2,1.3,1.9c0,0,0.3,3.5-0.8,3.7c0,0-1,0-0.9-1.2c0,0-1.2,0.9-0.8-1.3
		C74.2,57.5,74,59,72.9,53.4z"/>
	<path id="path38147" class="st5" d="M74.8,52.2L74.8,52.2L74.8,52.2L74.8,52.2L74.8,52.2L74.8,52.2l0.1,0.1l0.1,0l0.1,0l0.1,0
		l0.1,0.1l0.1,0.1l0.1,0.1l0.1,0.1l0.1,0.1l0.1,0.1l0.1,0.1l0.2,0.1l0.2,0.1l0.2,0.1l0.2,0.1l0.2,0.1l0.2,0.2l0.2,0.2l0.2,0.2
		l0.2,0.2l0.2,0.2l0.1,0.2l0.1,0.2l0.1,0.2l0.1,0.2l0.1,0.3l0.1,0.3l0.1,0.3l0.1,0.3c0,0,0.4,1.3-0.4,1.2c0,0-1.2,0.3-0.8-2.6
		c0,0-1.1,0.1-1.3-1.5C76.2,53.5,76,54.1,74.8,52.2z"/>
	<path id="path38149" class="st5" d="M77,52.8L77,52.8L77,52.8L77,52.8L77,52.8L77,52.8L77,52.8L77,52.8L77,52.8L77,52.8h0.1h0h0h0
		h0.1h0.1l0.1,0l0.1,0l0.1,0l0.1,0l0.1,0l0.1,0l0.1,0l0.1,0l0.1,0l0.1,0l0.1,0l0.1,0l0.1,0.1l0,0l0,0l0,0l0,0l0,0l0,0l0,0l0,0l0,0
		l0,0l0,0l0,0l0,0.1l0,0l0,0.1l0,0.1l0,0.1l0,0.1l0,0.1l0,0.1l-0.2,0.6c0,0,0.6-0.3,0.5,0.6L79,55.5L77,52.8z"/>
	<path id="path38151" class="st5" d="M80.7,49.1L80.7,49.1l0,0.1l0,0.1l0,0.1l0,0.1l0,0.1l0,0.1l0,0.1l0,0.1l0,0.1l0,0.1l0,0.1
		l0,0.1l0,0.1l0,0.1l0,0.1l0,0l0,0.1l0,0l0,0l0,0l0,0l0,0l0,0l0,0l0,0l0,0l0,0l0,0l0,0l0,0l0,0h0v0l0,0h0l0,0
		c0.8,1.2-2.6,1.3-2.6,1.3c0.1,1.7-3.9-1-3.9-1s4,0.8,7-2l-1.4,0.3c0,0-1.3,1.2-4.3,1c0,0,0.5-1.9,2.2-1.1c0,0,1.6-3,2.6-1.4
		c0,0,1.6-0.6,1.8,0.4L81,48.7L80.7,49.1z"/>
	<path id="path38153" class="st5" d="M73.7,50.1L73.7,50.1L73.7,50.1L73.7,50.1L73.7,50.1L73.7,50.1L73.7,50.1L73.7,50.1L73.7,50.1
		h-0.1l0,0h0h0h0h0h0h0l-0.1,0h-0.1h-0.1l-0.1,0h-0.1H73l-0.1,0h-0.1l-0.2,0h-0.1l-0.1,0h-0.1h-0.1l-0.1,0h-0.1h-0.1H72l0,0h0h0h0h0
		h0h0h0h0h0h0h0c-0.2,0,4.4-1.6,5.8-6.2l-0.3-0.2c0,0-1.8,2.7-2.8,3.5c-1,0.8-1.2-1.4-0.4-1.6c0,0-0.2-2.5,1-2.1c0,0,2.2-4,3.2-2
		c0,0,0.6,1.8,0.4,2.5C78.4,45,77.3,46,77.3,46s0.8,0.2-0.1,1.2c0,0-0.7,0.7-0.7,1.1C76.5,48.3,74.7,47.6,73.7,50.1z"/>
	<path id="path38155" class="st5" d="M74.7,40.9L74.7,40.9L74.7,40.9L74.7,40.9L74.7,40.9L74.7,40.9L74.7,40.9L74.7,40.9L74.7,40.9
		L74.7,40.9L74.7,40.9L74.7,40.9L74.7,40.9L74.7,40.9L74.7,40.9L74.7,40.9L74.7,40.9L74.7,40.9L74.7,40.9L74.7,40.9L74.7,40.9
		L74.7,40.9L74.7,40.9L74.7,40.9L74.7,40.9L74.7,40.9L74.7,40.9L74.7,40.9L74.7,40.9L74.7,40.9L74.7,40.9L74.6,41v0v0v0v0v0v0l0,0v0
		v0v0v0v0v0.1v0v0.1v0.1v0.1v0.1v0.1l0,0.1c0,0,1.1,0.4-0.3,1.5l-1.2,1c0,0,1.2,0.4-0.3,1.7c0,0,0.6,0.4-1.4,2c0,0-0.5,1.3-0.5,1.6
		l-0.2-0.9c0,0,3.1-5.5,3-7.3h-0.5c0,0-1.3,3.6-1.9,4.5c0,0-1.5-0.6-0.6-1.9c0,0-2.2-2.1,0.1-2.9c0,0,0.5-0.2,0.9,0.5
		C71.6,41.6,73.5,39.8,74.7,40.9z"/>
	<path id="path38157" class="st5" d="M68.3,39.7L68.3,39.7L68.3,39.7L68.3,39.7L68.3,39.7L68.3,39.7l0.1-0.1l0,0l0,0l0.1,0l0.1,0
		l0.1,0l0.1,0l0.2-0.1l0.2-0.1l0.2-0.1l0.2-0.1l0.2-0.1L70,39l0.3-0.1l0.3-0.1l0.3-0.1l0.3-0.1l0.3-0.1l0.3-0.1l0.3-0.1l0.3,0l0.3,0
		l0.3,0l0.3,0l0.3,0l0.3,0l0.3,0l0.3,0l0.3,0.1l0.3,0.1l0.1,0l0.1,0.1l0.1,0.1l0.1,0.1l0.1,0.1l0.1,0.1l0.1-0.4c0,0-1.8-1.2-5.5-0.2
		c0,0,1.2-2.8,1.9-1.3c0,0,2.5-1.5,2.2,0.2c0,0,2.6-0.2,1.7,1c0,0,1.9,2.2,1.2,2.2c0,0-2.5,0.7-2-0.5c0,0-1.6,0.5-3.3-0.2
		C72,39.8,72,41.5,68.3,39.7z"/>
	<path id="path38159" class="st5" d="M66.9,40.4L66.9,40.4L66.9,40.4L66.9,40.4L66.9,40.4L66.9,40.4l0.1,0.1l0.1,0.1l0.1,0.1
		l0.1,0.1l0.1,0.2l0.1,0.2l0.1,0.2l0.1,0.2l0.1,0.2l0.1,0.2l0.1,0.3l0.1,0.3l0.1,0.3l0.1,0.3l0.1,0.3l0.1,0.3l0.1,0.3l0.1,0.4
		l0.1,0.4l0.1,0.4l0.1,0.4L69,46l0,0.4l0,0.4l0,0.4v0.4l0,0.4l0,0.4L69,48.9l-0.1,0.4c0,0,2.2-2.6,1.2-3.3c-0.9-0.7-0.2,0-0.2,0
		s0.6-2.5-0.9-2.5c0,0,0.6-3.1-0.6-2.2C68.4,41.2,66.9,40.6,66.9,40.4z"/>
	<path id="path38161" class="st5" d="M66.6,40.5L66.6,40.5L66.6,40.5L66.6,40.5L66.6,40.5L66.6,40.5l0.1,0.1l0,0l0,0l0,0.1l0,0.1
		l0,0.1l0,0.1l0,0.1l0,0.1l0.1,0.2l0.1,0.2l0.1,0.2l0.1,0.2l0.1,0.2l0.1,0.2l0.1,0.3l0.1,0.3l0.1,0.3l0.2,0.6l0.1,0.3l0.1,0.3
		l0.1,0.3l0.1,0.3l0.1,0.3l0.1,0.3l0,0.2l0,0.2l0,0.2l0,0.2v0.1v0.1v0.1l0,0.1l0,0.1l0,0.1l0,0.1l0,0.1c0,0-2.9-2.2-0.8-2.2
		c0,0-3.8-2.2-1.1-3C66.3,41.8,65.6,39.6,66.6,40.5z"/>
	<path id="path38163" class="st5" d="M63.6,45.9L63.6,45.9L63.6,45.9L63.6,45.9l0.1,0.1l0,0l0.1,0.1l0.1,0.1l0.1,0.1l0.1,0.1
		l0.1,0.1l0.1,0.1l0.1,0.1l0.1,0.1l0.1,0.1l0.1,0.2l0.1,0.2l0.1,0.2l0.1,0.2l0.1,0.2l0.1,0.2l0.1,0.2l0.1,0.2l0.1,0.3l0.1,0.3
		l0.1,0.3l0.1,0.3l0,0.3l0,0.3l0,0.2l0,0.2v0.2V51l0,0.2l0,0.2l0,0.2l0,0.2c0,0-1.7-1.5-0.8-1.8c0,0-2.7-1.2-1.3-2
		c0,0-1.8-0.9-0.8-1.8L63.6,45.9z"/>
	<path id="path38165" class="st5" d="M64.6,44.1L64.6,44.1L64.6,44.1L64.6,44.1L64.6,44.1L64.6,44.1L64.6,44.1L64.6,44.1L64.6,44.1
		l0,0.1l0,0l0,0l0,0l0,0l0,0l0,0.1l0,0.1l0,0.1l0,0.1l0,0.1l0,0.1l0,0.1l0,0.1l0,0.1l0,0.1v0.1v0.1l0,0.1l0,0.1l0,0l0,0l0,0l0,0l0,0
		l0,0l0,0l0,0l0,0l0,0l0,0l0,0l0,0l0,0l0,0l0,0l0,0l0,0l0,0l0,0l0.1,0l0.1,0l0.6,0.2c0,0-1.2,1.3,1.2,2.4c0,0-1.2,0.9,0.6,1.7
		c0,0,0.4-3.1-2.6-7L64.6,44.1z"/>
	<path id="path38167" class="st5" d="M64.4,52L64.4,52L64.4,52L64.4,52L64.4,52L64.4,52L64.4,52L64.4,52L64.4,52l-0.1,0.1l0,0l0,0
		l0,0l-0.1,0.1l-0.1,0.1L64,52.3l-0.1,0.1l-0.1,0.1l-0.1,0.1l-0.1,0.1l-0.1,0.1l-0.1,0.1l-0.1,0.1l-0.1,0.1L63,53L62.9,53l-0.1,0.1
		l-0.1,0.1l-0.2,0.1l-0.1,0l-0.2,0l-0.1,0l-0.2,0l-0.2,0l-0.2,0h-0.2l-0.2,0h-0.1l-0.1,0l-0.1,0l-0.1,0c-1.6-0.4,3.8,2.8,3.4-0.2
		C64.3,53.1,66,53.1,64.4,52z"/>
	<path id="path38169" class="st5" d="M59,49.6L59,49.6L59,49.6L59,49.6L59,49.6L59,49.6l-0.1-0.1l0,0l0,0l-0.1,0l-0.1-0.1l-0.2-0.1
		l-0.2-0.1L58,49.2l-0.2-0.1l-0.2-0.1L57.4,49l-0.3,0l-0.3,0l-0.3,0l-0.3,0h-0.3l-0.3,0l-0.3,0L54.9,49l-0.3,0.1l-0.2,0l-0.2,0.1
		l-0.2,0.1l-0.2,0.1l-0.2,0.1l-0.2,0.1l-0.2,0.1l-0.2,0.1L53,49.7l-0.2,0.1L52.6,50l-0.2,0.1l-0.2,0.1l-0.2,0.2l-0.2,0.2l-0.2,0.2
		l-0.2,0.2l-0.2,0.2l-0.2,0.2l-0.2,0.2l-0.2,0.2L50.7,52l-0.1-0.4c0,0,2.4-4.8,7.2-3.2c0,0-1.1-2.7-1.8-1.2c0,0-3-1.7-2.8,0.4
		c0,0-3-0.2-2.2,1.8c0,0-2.5,1.2-0.8,2.5c0,0-0.5,1.5,1.2,0.7c0,0,1.9,0.8,2.3-1.2c0,0,1.8,0.5,2.2-1.1C55.9,50.3,56,51.4,59,49.6z"
		/>
	<path id="path38171" class="st6" d="M45.4,50.4L45.4,50.4L45.4,50.4L45.4,50.4L45.4,50.4l0.1,0.1l0,0l0,0l0,0l0,0l0,0l0,0l0,0l0,0
		l0,0l0,0.1l0,0.1l0,0.1l0,0.1l0,0l0,0l0,0l0,0l0,0l0,0l0,0l0,0l0,0l0,0c0.7,1,0.7,1.3,0.8,1.6c0,0,0.1,0.1,0.2,0.2
		c0.6,1.1,1.4,2,2,2.5c0.1,0.1,0.4,0.7,0.4,0.7c0.2,0.6,0.1,0.8,0.3,1.4c0.1,0.5,0.7,0.7,1,1.1c0.5,0.7,0.9,1.2,1.1,2.1
		c0.3-0.2,0.2-0.6,0.5-0.8c-0.2-0.2-0.4-0.8-0.5-1c-0.6-0.9-1.4-1-1.6-2c-0.2-1.1-0.1-1.4-0.5-2c-0.3-0.5-1.2-1-1.6-1.5
		c-0.2-0.2-0.4-0.5-0.5-0.8c-0.3-0.7-0.6-1.4-1-2c-0.4-0.5-0.8-1-1-1.7"/>
	<path id="path38173" class="st5" d="M54.9,52.1L54.9,52.1L54.9,52.1L54.9,52.1L54.9,52.1L54.9,52.1L54.9,52.1l-0.1,0.1l0,0l0,0l0,0
		l0,0l0,0l0,0l0,0l-0.1,0l-0.1,0l-0.1,0.1l-0.1,0.1L54,52.6l-0.1,0.1l-0.1,0.1l-0.1,0.1L53.5,53l-0.1,0.1l-0.1,0.1L53,53.3l-0.1,0.1
		l-0.1,0.1l-0.1,0.1l-0.1,0.1l-0.1,0.1l0,0.1l0,0.1l0,0.1l0,0.1l0,0l0,0.1l0,0l0,0.1l0,0.1l0,0l0,0l0,0.1v0v0l0,0l0,0l0,0l0,0
		c0,0,1.5-0.5,1.6,1.4c0,0,0.9-1.2,0.9-2.1c0,0,1,1,1.6-0.8c0,0,2.9,0.2,2-1.5c0,0,1.2-0.8,1.2-1.7C59.4,50.1,57.6,51.7,54.9,52.1z"
		/>
	<path id="path38175" class="st5" d="M58.1,40.7L58.1,40.7L58.1,40.7l0.1-0.1l0.1-0.1l0.1-0.1l0.1-0.1l0.1-0.1l0.1-0.1l0.1-0.1
		l0.2-0.1l0.2-0.2l0.2-0.2l0.2-0.2l0.2-0.2l0.3-0.2l0.3-0.2l0.3-0.1l0.3-0.1l0.3-0.1l0.4-0.1l0.4-0.1l0.4-0.1l0.4-0.1l0.5-0.1l0.2,0
		l0.2,0l0.2,0l0.3,0h0.3l0.3,0l0.3,0l0.3,0l0.3,0l0.3,0l0.3,0l0.3,0l0.3,0.1l0.3,0.1l0.3,0.1l0.3,0.1c0,0,1,1.1-1.5,0.9
		c0,0,0.5,1.2-2.3,0.4c0,0,0.2,1.5-3.3,0.1C61,39.8,62.4,40.5,58.1,40.7z"/>
	<path id="path38177" class="st5" d="M60.1,38.6L60.1,38.6L60.1,38.6L60.1,38.6l0.1-0.1l0.1,0l0.1,0l0.1-0.1l0.1-0.1l0.1-0.1
		l0.1-0.1l0.2-0.1l0.2-0.1l0.2-0.1l0.2-0.1l0.2-0.1l0.2-0.1l0.2-0.1l0.3-0.1l0.3-0.1l0.3-0.1l0.3,0l0.3,0l0.3,0l0.3,0h0.3l0.4,0
		l0.4,0l0.4,0l0.4,0.1l0.4,0.1l0.2,0l0.2,0l0.2,0l0.2,0.1c0,0-0.5-1.5-1.9-0.7c0,0-0.7-2.7-2.5,0.1c0,0.1-0.2,0.1-0.2,0.1
		S61.4,35.3,60.1,38.6z"/>
	<path id="path38179" class="st5" d="M59.4,41.8L59.4,41.8L59.4,41.8L59.4,41.8L59.4,41.8L59.4,42l0,0.1l0,0.1l0,0.1l-0.1,0.1l0,0.1
		l0,0.2L59,42.9L59,43.1l0,0.2l0,0.2l0,0.2l0,0.2l0,0.2l0,0.3l0,0.3l0,0.3v0.3l0,0.3l0,0.3l0,0.3l0,0.3l0.1,0.3l0.1,0.3l0.1,0.3
		l0.1,0.3l0.1,0.3l0.1,0.3l0.2,0.3c0.1,0.2,0.2,0.2,0.2,0.2s2.6-5.2,0.7-4.7c0,0,3.5-2.8,0.6-3.2L59.4,41.8z"/>
	<path id="path38181" class="st5" d="M58.3,42.3L58.3,42.3L58.3,42.3L58.3,42.3L58.3,42.3L58.3,42.3L58.3,42.3l0,0.1l0,0v0l0,0
		l0,0.1l0,0.1l0,0.1l0,0.1l0,0.1l0,0.1l0,0.2l0,0.2l0,0.2l0,0.2l0,0.2l0,0.2l0,0.2l0,0.2v0.2v0.2l0,0.2l0,0.2l0,0.2l0,0.2l0,0.2
		l0,0.2l0,0.2l0.1,0.2l0.1,0.2l0.1,0.2l0.1,0.2c0,0-3.3-1.6-1.5-2.5C56.9,44.8,56.6,40.2,58.3,42.3z"/>
	<path id="path38183" class="st5" d="M50,44.7L50,44.7L50,44.7L50,44.7L50,44.7L50,44.7L50,44.7l-0.1-0.1l0,0l0,0l0,0l0,0l0,0l0,0
		l0,0l0,0l0-0.1l0,0l-0.1-0.1L49.4,44l-0.1-0.1l-0.1-0.1l-0.1-0.1L49,43.5l-0.1-0.1l-0.1-0.1L48.7,43l0-0.1l0-0.1l0-0.1l0-0.1l0-0.1
		l0-0.1l0-0.1l0-0.1l0-0.1l0-0.1v-0.1l0-0.1v-0.1v-0.1l0-0.1l0-0.1l0,0l0-0.1l0,0l0,0l0,0l0,0l0.1,0l0.1,0l0.1,0l0.1,0l0.1,0l0.1,0
		l0.1,0l0.1,0c0,0-2.2-3.2,0.8-3.2c0,0,2-2.8,2.8-0.9c0,0,1.4-1.8,1.8-0.2c0,0-4.2,1.2-4.5,4.2c0,0-1.2,1.5,0,2.8L50,44.7z"/>
	<path id="path38185" class="st5" d="M51.3,39.9L51.3,39.9L51.3,39.9L51.3,39.9L51.3,39.9L51.3,39.9L51.3,39.9L51.3,39.9L51.3,39.9
		l0.1-0.1l0.1-0.1l0.1-0.1l0.1-0.1l0.1-0.1l0.1-0.1l0.1-0.1l0.1-0.1l0.1-0.1l0.1-0.1l0.1-0.1l0.1-0.1l0.1-0.1l0.1-0.1l0.1-0.1
		l0.1-0.1l0.1-0.1l0.1-0.1l0.2-0.1l0.2-0.1l0.2-0.1l0.2-0.1l0.2-0.1l0.2-0.1l0.2-0.1l0.2-0.1l0.2,0l0.2,0l0.3,1.5
		c0,0-1.1,0.7-1.5,0.1c0,0-1.4-0.5-1.4,1c0,0-0.5,1-1.5,0.9L51.3,39.9z"/>
	<path id="path38187" class="st5" d="M50.6,44.1L50.6,44.1L50.6,44.1L50.6,44.1L50.6,44.1L50.6,44.1L50.6,44.1l0.1-0.1l0-0.1l0-0.1
		l0-0.1l0.1-0.1l0.1-0.1l0.1-0.1l0.1-0.1l0.1-0.1l0.1-0.1l0.1-0.1l0.1-0.1l0.1-0.1l0.1-0.1l0.1-0.1l0.1-0.1l0.2-0.1l0.2-0.1l0.2-0.1
		l0.2-0.1l0.2-0.1l0.2-0.1l0.2-0.1l0.2-0.1l0.2-0.1l0.1,0l0.1,0l0.1,0l0.1,0l0.1,0l0.1,0l0.1,0l0.1,0v-0.5c0,0-2.9,0.5-3.8,1.9
		c0,0-0.1-1.5,1.3-1.6c0,0,0.5-2.2,2.2-1.1c0,0,0.4-0.5,0.7-0.3c0,0,0.2,1.5-0.4,2.6C54.7,42.4,54.2,44.8,50.6,44.1z"/>
	<path id="path38189" class="st5" d="M43.8,49.6L43.8,49.6L43.8,49.6L43.8,49.6L43.8,49.6L43.8,49.6L43.8,49.6L43.8,49.6L43.8,49.6
		l0.1,0h0l0.1,0l0,0l0.1,0l0.1,0l0.1,0l0.1,0l0.1,0l0.1,0l0.1,0l0.1,0l0.1,0.1l0.1,0.1l0,0l0,0l0,0l0,0l0,0l0,0l0,0l0,0l0,0l0,0.1
		l0,0.1l0,0l0,0.1l0,0.1l0,0.1l0,0.1l0,0.1l0,0.1l0,0.1l0,0.1l0,0.1v0.1l0,0.1v0.1v0.1l0,0.1l0,0.1l0,0.1c0,0,1.7,1.5,2,4.2
		c0,0-2.5-2.3-2.5-4.2l-0.4,0.1c0,0-0.2,1.5,1.1,3c0,0-2.8-2.1-1.9-3.1c0,0-3.2-0.4-2.6-2.2c0.6-1.8-0.1-0.3-0.1-0.3l1.5-0.5
		C42.2,48.6,42.9,49.7,43.8,49.6z"/>
	<path id="path38191" class="st5" d="M38.3,41.3L38.3,41.3L38.3,41.3L38.3,41.3L38.3,41.3L38.3,41.3L38.3,41.3L38.3,41.3L38.3,41.3
		L38.3,41.3L38.3,41.3L38.3,41.3l-0.1,0l0,0l0,0l0,0l0,0l0,0l0,0l0,0l0,0l0,0l0,0l0,0l0,0l0,0l0,0l0,0l0,0l0,0l0,0l0,0l0,0l0,0v0
		l0,0v0v0v0l0,0v0l0,0l0,0l0,0l0,0l0,0l0,0.1l0,0l0,0l0,0.1l0,0.1l0,0.1c0,0-1.9,1.8,0.9,4.8c0,0-4.2-1.2-2.8-3.8
		c0,0,0.5-0.7,0.7-0.6C36.6,43.1,35.7,41.1,38.3,41.3z"/>
	<path id="path38193" class="st5" d="M35.9,41.9L35.9,41.9L35.9,41.9L35.9,41.9L35.9,41.9L35.9,41.9L35.9,41.9L35.9,41.9L35.9,41.9
		L35.9,41.9L35.9,41.9L35.9,41.9L35.9,41.9L35.9,41.9L35.8,42l0,0l0,0l0,0l0,0l0,0l0,0l0,0l0,0l0,0v0l0,0v0l0,0v0l0,0v0l0,0l0,0v0
		l0,0l0,0l0,0l0,0l0,0l0,0l0,0l0,0l0,0l0,0l0,0l0,0l0,0l0,0l0,0l0,0c0,0-2.5,1.3,0.2,4c0,0-2.1-0.6-2.5-1.4l0.5-0.2
		c0,0,1.1-1.8,0.5-2.5C34.6,42.8,35.2,41.9,35.9,41.9z"/>
	<path id="path38195" class="st5" d="M36.8,38.8L36.8,38.8L36.8,38.8L36.8,38.8L36.8,38.8h0.1h0l0,0h0h0h0h0.1l0.1,0h0.1l0.1,0h0.1
		l0.1,0h0.1H38l0.1,0h0.3h0.3h0.1h0.1h0.1h0.1l0.1,0l0.1,0h0.1l0.1,0l0.1,0l0.1,0l0,0l0,0h0l0,0l0,0l0,0l0,0l0,0
		c0,0-0.9-1.6-2.5-1.4c0,0,0.7-2.6-1.9-1.2c0,0-0.7-3.8-2.3-1.5c0,0-0.9,1.4-0.2,2.2c0.7,0.9,1.8,1.9,2.3,2.2
		C36.2,39.2,36.2,38.8,36.8,38.8z"/>
	<path id="path38197" class="st5" d="M33.7,33.6L33.7,33.6L33.7,33.6L33.7,33.6L33.7,33.6L33.7,33.6l-0.1,0h-0.1h-0.1l-0.1,0h-0.1
		H33l-0.2,0l-0.2,0l-0.2,0l-0.2,0l-0.2,0l-0.3,0l-0.3,0l-0.3,0l-0.3,0l-0.3,0l-0.3,0l-0.3,0l-0.3,0l-0.3,0L28.9,34l-0.3,0.1
		l-0.3,0.1l-0.3,0.1l-0.3,0.1l-0.3,0.1l-0.3,0.1l-0.3,0.1l-0.3,0.1l-0.3,0.1v-0.5c0,0,3.7-1.3,5.5-1.2c0,0-0.1-2-1.1-2.1
		c0,0-0.8-0.3-0.8,1.1c0,0-1.8-1.4-2,0.7c0,0-1.6-0.5-1.4,1c0,0-2.2,0.8-0.4,1.9c0,0,1.1,0.2,1.6-0.5c0,0,1.2,1.4,2.6-0.8
		c0,0,1.5,1.1,2.5,0.1C32.5,34.6,32.9,34.1,33.7,33.6z"/>
	<path id="path38199" class="st5" d="M36.5,30L36.5,30L36.5,30L36.5,30L36.5,30L36.5,30l0-0.1v0l0-0.1l0-0.1v-0.1l0-0.1l0-0.1l0-0.2
		l0-0.2l0-0.2l0-0.2l0-0.2l0-0.2l0.1-0.3l0.1-0.3l0.1-0.3l0.1-0.3l0.1-0.3l0.1-0.3l0.1-0.3l0.1-0.3l0.1-0.3l0.1-0.3l0.1-0.3l0.1-0.3
		l0.1-0.3l0.1-0.2l0.1-0.2l0.2-0.2l0.2-0.2l0.2-0.2l0.2-0.2l0.1-0.1l0.1-0.1l0.5-0.2c0,0-4.2,6.5-0.8,10.8c0,0,0.4-1.5-0.2-2.6
		c0,0,1.2-0.9,0.5-2.8c0,0,1.7-0.9,0.5-2.6c-0.2-0.2-0.2-0.2-0.2-0.2s1.5-1.4,0.2-2.8c0,0-1.5-0.4-1.7,0.5c0,0-0.5,0.6-0.2,1.2
		c0,0-2-1.2-1.5,2.3C36.3,26.7,34.7,27.5,36.5,30z"/>
	<path id="path38201" class="st5" d="M35.7,32.7L35.7,32.7L35.7,32.7L35.7,32.7L35.7,32.7l-0.1-0.1l-0.1,0l-0.1,0l-0.1,0l-0.1-0.1
		l-0.1-0.1l-0.1-0.1l-0.1-0.1l-0.1-0.1L34.7,32l-0.1-0.1l-0.2-0.2l-0.2-0.2L34,31.4l-0.2-0.2l-0.2-0.2l-0.2-0.3l-0.1-0.1l-0.1-0.1
		l-0.1-0.1L33,30.1l-0.1-0.2l-0.1-0.2l-0.1-0.2l-0.1-0.2l-0.1-0.2L32.2,29l-0.1-0.2L32,28.6l-0.1-0.2l-0.1-0.2l-0.1-0.2l-0.1-0.2
		l-0.1-0.2l-0.1-0.2L31,26.9l-0.2-0.3l-0.1-0.3l-0.2-0.3c0-0.1-0.2,0.4-0.2,0.4s1.4,3.7,3.1,5.2c0,0-1.6-1.6-1.9-1.6
		c-0.3,0-1.4,0-0.3-0.8c0,0-2.2-0.1-0.7-1.3c0,0-1.1-2.2-0.4-2.6c0,0,1.7,0.1,1.8,1.5c0,0,1.2-1,1.5-0.2c0,0,0.6,1.1-0.5,1.6
		c0,0,1.1-0.1,0.6,1.1C33.6,29.3,33.9,27.9,35.7,32.7z"/>
	<path id="path38203" class="st5" d="M27.5,29.7L27.5,29.7L27.5,29.7L27.5,29.7L27.5,29.7L27.5,29.7L27.5,29.7l0.1,0.1l0,0l0,0l0,0
		l0,0l0.1,0l0.1,0l0.1,0l0.1,0l0.1,0l0.1,0l0.1,0l0.1,0l0.1,0l0.1,0l0.1,0l0.1,0l0.1,0l0.1,0l0.1,0l0.1,0l0.1,0l0.1,0l0.1,0l0.1,0
		l0.1,0c0,0-0.2-1.6-0.8-1.2c0,0-0.8-1.2-1.3-0.5c0,0-1.7,0-0.6,1.5c0,0-0.5,1.1,1.3,0.5c0,0,0.2,0.1,0.2,0L27.3,30L27.5,29.7z"/>
	<path id="path38205" class="st5" d="M42.2,31.5L42.2,31.5L42.2,31.5L42.2,31.5L42.2,31.5L42.2,31.5L42.2,31.5L42.2,31.5l-0.1,0.1
		l0,0.1l0,0.1l0,0.1l0,0.1l0,0.1l-0.1,0.1l0,0.1l0,0.1l-0.1,0.1l-0.1,0.1l0,0.1l-0.1,0.1l0,0.1l0,0.1l0,0.2l0,0.2l0,0.2l0,0.2l0,0.2
		l0,0.2l0,0.2l0,0.2v0.2v0.2l0,0.2l0,0.2l0,0.2l0.2-0.2c0,0,1.4-5.6,4.1-6c0,0,1.2-0.3,1.4-0.2c0.2,0.2-0.4,4.5-1.2,1.9
		c0,0-0.9,3.8-1.8,1.6c0,0-1,3.5-1.8,2.2c0,0-0.3,2.6-1.1,1.5c0,0-1.2-1.5-0.2-2.4C41,33.8,39.5,33.2,42.2,31.5z"/>
	<path id="path38207" class="st5" d="M45.6,24.1L45.6,24.1L45.6,24.1L45.6,24.1L45.6,24.1l-0.1,0.1l0,0l0,0l-0.1,0l-0.1,0l-0.1,0
		l-0.1,0.1L45,24.6l-0.2,0.1l-0.2,0.1L44.4,25l-0.2,0.2l-0.2,0.2l-0.2,0.2l-0.2,0.2l-0.3,0.2l-0.3,0.3l-0.2,0.3l-0.3,0.3l-0.3,0.3
		l-0.2,0.3l-0.2,0.3l-0.2,0.3l-0.2,0.3L41,28.8l-0.2,0.4l-0.2,0.4l-0.2,0.4l-0.1,0.4l-0.1,0.4l-0.1,0.4l0,0.2l0,0.2l0,0.2l0,0.2
		c0,0,4.9-2.9,2.3-3.6c0,0,4.2-1.1,2.2-2.2c0,0,3.9-4.1-0.2-2.5c0,0-1.2-0.7-2,1.3c0,0-1.9,0.1-1.6,2.3c0,0,3.1-2.8,4.4-3.3
		C46.5,23.4,45.6,24.1,45.6,24.1z"/>
	<path id="path38209" class="st5" d="M44.3,39.1L44.3,39.1L44.3,39.1L44.3,39.1L44.3,39.1v-0.1v-0.1l0-0.1v-0.1l0-0.1l0-0.1v-0.1
		l0-0.1l0-0.1l0-0.1l0-0.2l0-0.3l0-0.3l0.1-0.3l0.1-0.3l0.1-0.3l0.1-0.3l0.1-0.3l0.1-0.3l0.1-0.3l0.2-0.3l0.1-0.1l0.1-0.1l0.1-0.1
		l0.1-0.1l0.1-0.1l0.1-0.1l0.1-0.1l0.1-0.1l0.1-0.1l0.1-0.1l0.1-0.1l0.1-0.1l0.2-0.1l0.2-0.1l0.2-0.1l0.2-0.1l0.2,0l0.2,0l0.2,0
		l0.2,0l0.2,0l0.2,0l0.2,0l0.2,0l0.2,0l0.3,0l0.3,0.1l0.3,0.1c0.2,0-0.3,0-0.3,0l0.4-0.3c0,0-1.8-0.8-3.5-0.3c0,0,2.2-3.2,3.2-1.2
		c0,0,0.1,0.3-0.2,0.7c0,0,2.2-0.4,2,1.2c0,0,1.5,0.9-0.3,1c0,0,0.1,1.2-1.6-0.2c0,0,0.1,1.4-2.2,0.2c0,0,1.3,0.6-2.5,2.8
		C45.1,37.5,44.6,37.7,44.3,39.1z"/>
	<path id="path38211" class="st5" d="M42.8,23.4L42.8,23.4L42.8,23.4L42.8,23.4L42.8,23.4L42.8,23.4L42.8,23.4L42.8,23.4L42.8,23.4
		L42.8,23.4L42.8,23.4l-0.1-0.1l0,0l0,0l0,0l0,0l0,0l0,0l0-0.1l0-0.1l0-0.1l0-0.1l0-0.1l0-0.1l0-0.1v0v0v0v0v0v0l0,0l0,0v0l0,0l0,0
		l0,0l0,0l0,0l0,0l0,0l0,0l0,0l0,0l0,0l0,0l0,0l0,0l0,0l0,0l0,0l0.1,0h0h0.1h0.1l0.1,0h0.1c0,0-0.7-1.9,0.5-1.6c0,0,0.6-2.4,1.5-0.3
		l0.1,1.1c0,0,0.8,0.1,1.4,0.4c0,0-1,0.1-1.1,1.2c0,0-0.7-0.3-1,0.1c0,0-0.2-2.2,0.1-2.3h-0.4c0,0-0.5,2-0.3,2.5
		C44.1,23,43.2,22.7,42.8,23.4z"/>
	<path id="path38213" class="st5" d="M46.4,22.9L46.4,22.9L46.4,22.9L46.4,22.9L46.4,22.9L46.4,22.9L46.4,22.9L46.4,22.9L46.4,22.9
		L46.4,22.9L46.4,22.9l0.1,0l0,0l0,0l0,0l0,0l0,0l0,0l0,0l0,0l0,0l0,0l0,0l0,0l0,0l0,0l0,0l0,0l0,0l0,0l0,0l0,0l0,0v0l0,0v0l0,0v0v0
		v0v0v0l0,0v0l0,0l0,0l0,0l0,0l0,0l0,0.1c0,0,1.5-2.9,3.8-3.2l0.4,0.2c0,0-5.1,2.2-3.3,7.3l0.5,1.1c0,0,1-1.5,0.5-1.9
		c-0.5-0.4,1.6-2.5,0-2.6c0,0,2.9-0.6,1.6-2.3c0,0,2.2-0.9,1.9-2.4c0,0-0.9-0.8-1.5-0.3c0,0-1,0.1-1.4,0.7c0,0-0.9-0.7-1.7,1.2
		C47.6,21.9,46.6,22.1,46.4,22.9z"/>
	<path id="path38215" class="st5" d="M51.4,30L51.4,30L51.4,30L51.4,30L51.4,30L51.4,30l-0.1-0.1l0,0l0,0l0-0.1l0-0.1l0-0.1l0-0.1
		l0-0.1l0-0.1l0-0.1l0-0.1l-0.1-0.1L50.8,29l-0.1-0.1l0-0.1l-0.1-0.1l-0.1-0.1l-0.1-0.1l-0.1-0.1l-0.1-0.1l-0.1-0.2l-0.1-0.2l0-0.2
		l-0.1-0.2l0-0.2l0-0.2l0-0.2c0,0,0.8-1.2,0.2-1.6c0,0,2.1-1.2,1.2-2.3c0,0,1.9-1.2,2.2,0.2c0,0,1.2-2.6,1.9-1.7
		c0,0,1.2-0.1,0.5,1.5c0,0,0.9,1.2-1.1,2.2c0,0,2.1,1.1-1.7,3.1c0,0,1.1,1.2-1.3,3.6c0,0-0.8-4.9,3.2-9.3H55
		C55,22.5,51.6,24.6,51.4,30z"/>
	<path id="path38217" class="st5" d="M57.7,36.7L57.7,36.7L57.7,36.7L57.7,36.7L57.7,36.7L57.7,36.7l0-0.1v0v-0.1v-0.1v-0.1l0-0.1
		V36v-0.2v-0.2v-0.2v-0.2v-0.2l0-0.3l0-0.3l0-0.3l0-0.3l0-0.3l0-0.3l0-0.3l0-0.3l-0.1-0.7l0-0.3l-0.1-0.3l-0.1-0.3l-0.1-0.3
		l-0.1-0.3l-0.1-0.3l-0.1-0.3L57,29.3L56.9,29l-0.1-0.3h0.3c0,0,2.5,3.9,1,10.3c0,0,3.2-5.2,1.2-4.7c0,0,2.5-4.5-0.3-2.8
		c0,0,1-3.6-0.5-2.4c0,0-1.4-3.4-2.1-2c0,0-0.5,0.5,0,1.5c0,0-0.8-0.2-0.4,1.2c0,0-2.2-0.3-0.6,2.2c0,0,0.3,0.5,0.8,1
		C56.1,33.1,54.1,33.8,57.7,36.7z"/>
	<path id="path38219" class="st5" d="M56.9,23.3L56.9,23.3L56.9,23.3L56.9,23.3L56.9,23.3L56.9,23.3L56.9,23.3L56.9,23.3L56.9,23.3
		L56.9,23.3L56.9,23.3l0-0.1l0,0l0,0l0,0l0,0l0-0.1l0-0.1l0-0.1l0-0.1l0-0.1l0-0.1l0-0.1l0-0.1l0-0.1v-0.1v-0.1l0-0.1v-0.1l0-0.1
		l0-0.1l0-0.1l0-0.1l0,0l0,0l0,0l0,0l0,0l0,0l0,0l0,0l0,0l0,0c0,0,0-0.9,0.5-0.9c0,0,1.1-1.9,1.9,1.3c0,0,1,1,0.2,1.5
		c0,0,0.6,1.7-0.5,3.2c0,0,1.1,0.4,0.2,1.5c0,0-0.8-0.8-1.2-1.1c0,0,1.2-4.1,0.2-6.1H58c0,0,0.5,2.9-0.5,5.8c0,0-0.6-1-1.4-0.2
		c0,0,0.8-0.8,0-1.4C56.2,25.1,57.7,23.9,56.9,23.3z"/>
	<path id="path38221" class="st5" d="M60.6,26.4L60.6,26.4L60.6,26.4L60.6,26.4L60.6,26.4L60.6,26.4L60.6,26.4L60.6,26.4l0-0.1v0
		l0,0l0,0l0,0l0,0l0,0l0,0l0,0l0-0.1l0-0.1l0-0.1l0-0.1l0-0.1l0-0.1l0-0.1l0-0.1l0-0.1l0-0.1l0-0.1l0-0.1l0-0.1l0-0.1l0-0.1v0v-0.1
		v0v0v0v0l0,0v0l0,0l0,0l0,0l0,0l0,0l0,0l0,0l0,0l0,0l0,0c0,0,1-2.2,2.4-0.4c0,0,0.2-0.9,0.9-0.8c0.6,0.1,1.2-0.2,1.5,0.3
		c0.3,0.5,0.3,1.7-0.6,1.9c0,0,1.2,1-1.5,1.7c0,0,2.3,1.4-2.3,3.5c0,0-0.5-0.5-0.7-1.2c0,0,3.2-4.8,4.4-5.3L64,23.2
		C64,23.2,62.4,24.1,60.6,26.4z"/>
	<path id="path38223" class="st5" d="M66.9,27.9L66.9,27.9L66.9,27.9L66.9,27.9L66.9,27.9L66.9,27.9L66.9,27.9L66.9,27.9l0-0.1l0,0
		l0,0l0,0l0,0l0,0l0,0l0,0l0,0l0,0l0,0l0-0.1l0-0.1l0-0.1l0-0.1l-0.1-0.1l0,0l0,0l0,0l0,0l0,0l0,0l0,0l0,0l0,0l0,0l0,0l0,0l0,0l0,0
		l0,0h0l0,0l0,0h0l0,0l0,0l0,0l0,0l0,0l0,0l0,0l0,0l0,0l0,0.1l0,0l0,0l0,0l0,0l0,0l0,0l0,0l0,0l0,0l0,0l0,0l0,0l0,0l0,0
		c0,0-0.4,0.4,0,1.3c0,0-2.2-0.9-1.7,1.9c0,0,1.5,1.2,1.8,1.4c0,0,0.6-2.8,0.5-3.8H66c0,0,0.3,3.5-0.8,6.6c0,0,2.9-2.7,1.5-3.8
		c0,0,2.1-2.3,0.2-2.3L66.9,27.9z"/>
	<path id="path38225" class="st5" d="M67.6,27.2L67.6,27.2L67.6,27.2L67.6,27.2L67.6,27.2L67.6,27.2L67.6,27.2L67.6,27.2L67.6,27.2
		L67.6,27.2L67.6,27.2l0-0.1l0,0l0,0l0,0l0,0l0,0l0-0.1l0-0.1l0-0.1l0-0.1l0-0.1l0-0.1l0-0.1l0-0.1l0-0.1l0-0.1l0-0.1l0-0.1l0,0
		l0-0.1l0,0l0,0l0,0l0,0l0,0l0,0l0,0l0,0l0,0l0,0l0,0l0,0l0,0h0h0h0h0c0.6,0.1,0.8,0.8,0.5,2l-0.2,0.8h0.5l-1.2,1.1
		c0,0,0.2-1.3-0.2-1.5l0.5-0.9l-0.2-0.2l-0.7,0.8V27.2z"/>
	<path id="path38227" class="st5" d="M66.7,35.5L66.7,35.5L66.7,35.5L66.7,35.5L66.7,35.5L66.7,35.5L66.7,35.5L66.7,35.5l0-0.1l0,0
		l0,0l0,0l0,0l0,0l0,0l0,0l0,0l0,0l0,0l0-0.1l0-0.1l0-0.1l0-0.1l0-0.1l0-0.1v-0.1v-0.1v-0.1v0v0l0,0l0,0v0l0,0l0,0l0,0l0,0l0,0l0,0
		l0,0l0,0l0,0l0,0l0,0l0,0l0,0l0,0l0,0h0l0,0h0l0,0l0,0l0.1,0l0.1,0l0.1,0l0,0l0,0c0,0-0.3-4.7,1.5-2.8c0,0,0.4-3,1.9-1.8
		c0,0,2.4-1.2,1.5,1.4c0,0,1.4,2.2-1.2,2.3c0,0,1.5,1.8-1.4,2.5c0,0,1,1.3-1.2,2.3c0,0-0.6-1.5-0.4-2c0.2-0.5,1.9-5.1,3.8-5.9
		l-0.3-0.3c0,0-3,2.4-4.3,6.9L66.7,35.5z"/>
	<path id="path38229" class="st5" d="M72,34.4L72,34.4L72,34.4L72,34.4L72,34.4L72,34.4L72,34.4L72,34.4L72,34.4L72,34.4L72,34.4
		L72,34.4L72,34.4l-0.1-0.1l0,0l0,0l0,0l0,0l0,0l0,0l0,0l0,0l0,0l0-0.1l0,0l0-0.1l0-0.1v0v-0.1v0v0l0,0v0l0,0l0,0v0l0,0l0,0l0,0l0,0
		l0,0l0,0l0,0l0,0l0,0l0,0l0,0l0,0l0,0l0,0l0,0c0.6-0.3,1.9,0.1,2.2-0.1c0,0,2.1-1,0.5,1.5c0,0-0.5,0.4-0.6,1.3c0,0-1.2,0.2-2.8,0.5
		c0,0,1.8-2.5,2.8-2.6l-0.3-0.2C73.8,33.5,72,34,72,34.4z"/>
	<path id="path38231" class="st5" d="M62.1,31.3L62.1,31.3L62.1,31.3L62.1,31.3L62.1,31.3L62.1,31.3L62.1,31.3l0,0.1l0,0l0,0l0,0
		l0,0.1l0,0.1l0,0.1l0,0.1l0,0.1l0,0.1l0,0.1l0,0.1l0,0.2l0,0.2l0,0.2l0,0.2l0,0.2l0,0.2l0,0.2l0,0.2l0,0.2v0.2v0.2l0,0.2l0,0.2
		l0,0.2l0,0.2l0,0.2l-0.1,0.2l-0.1,0.2l-0.1,0.2c0,0,2.4-1.4,1.4-2.3c0,0,1.2-1.5-2-3.2c0,0-0.8-0.3-0.9,0.5c0,0-0.3,1.1,0.4,1.1
		c0,0-1.6,1.7,0,2.6c0,0-1,0.8,0.3,1.5c0,0,1.2-1,0.3-4.8L62.1,31.3z"/>
	<path id="path38233" class="st5" d="M41.8,58.2L41.8,58.2L41.8,58.2L41.8,58.2L41.8,58.2L41.8,58.2L41.8,58.2L41.8,58.2l0.1,0.1
		l0,0l0,0l0,0l0,0l0,0l0,0l0,0l0,0l0,0l0,0l0,0.1l0,0.1l0,0.1l0,0.1l0,0.1l0,0.1l0,0.1l0,0.1l0,0.1l0,0.1l0,0.1l0,0.1v0l0,0v0v0v0
		l0,0v0l0,0l0,0l0,0l0,0l0,0l0,0l0,0l0,0l0,0l0,0l0,0l0,0l0,0l0,0h0h0c0,0,2.6,3,0.3,2.9c0,0,0.2,3.5-1.7,2.3c0,0,0.4,1.6-1.2,1.6
		c0,0,1.4-1.5,0.8-3.2c0,0,1.6-1.4,0.9-3.9C41.1,60.1,41.9,59.8,41.8,58.2z"/>
	<path id="path38235" class="st5" d="M40.5,57.9L40.5,57.9L40.5,57.9L40.5,57.9L40.5,57.9L40.5,57.9L40.5,57.9L40.5,57.9L40.5,57.9
		L40.5,57.9l0,0.1l0,0l0,0l0,0l0,0l0,0.1l0,0.1l0,0.1l0,0.1l0,0.1l0,0.1l0,0.1l0,0.1l0,0.1l0,0.1v0.1l0,0.1l0,0.1v0l0,0l0,0l0,0l0,0
		l0,0l0,0l0,0l0,0l0,0l0,0l0,0l0,0l0,0l0,0l0,0l0,0l0,0l0,0l0,0l0,0l-0.1,0l0,0l-0.1,0c0,0,1.6,2.9-0.6,3.8c0,0,0.5,2.6-0.5,3
		c0,0,0.1,1.7-1.2,1.7c0,0-1.2-3-0.2-3.9c0,0,2.2-0.2,1.2-3.9c0,0,0.1-2.4,1.2-3.5L40.5,57.9z"/>
	<path id="path38239" class="st3" d="M4.5,54.2L4.5,54.2L4.5,54.2L4.5,54.2L4.5,54.2L4.5,54.2L4.5,54.2L4.5,54.2L4.5,54.2L4.5,54.2
		L4.5,54.2L4.5,54.2L4.5,54.2L4.5,54.2L4.5,54.2L4.5,54.2L4.5,54.2l0,0.1v0v0v0l0,0v0v0.1l0,0.1v0l0,0v0v0v0l0,0v0v0v0v0v0v0l0,0v0
		v0l0,0v0h0l0,0v0l0,0l0,0l-0.3,0L4,51.9c-0.1-2.4,1.9-3.4,3.5-3.5c1.7-0.1,3.7,0.7,3.8,3.1l0.1,2.8l-0.3,0L11,53.9L4.5,54.2z
		 M10.9,52.6L10.9,52.6L10.9,52.6L10.9,52.6L10.9,52.6L10.9,52.6L10.9,52.6l0-0.1l0,0v0v0l0,0v0v0v0l0,0v0v0v0v0v0v0l0,0v-0.1V52
		v-0.1l0-0.1v-0.1c-0.1-1.2-0.7-2.1-3.4-2c-2.7,0.1-3.3,1-3.2,2.2c0,0.4,0.1,0.6,0.1,0.8L10.9,52.6z"/>
	<path id="path38241" class="st3" d="M11.9,43L11.9,43L11.9,43L11.9,43L11.9,43L11.9,43l-0.1,0.1l0,0l0,0l0,0l0,0l0,0l0,0l0,0l0,0
		l0,0l0,0l0,0.1l0,0.1l0,0.1l0,0.1l0,0.1l0,0.1l0,0.1l0,0.1l-0.5,4l-0.3,0l0-0.6l-6.5-0.8l-0.1,0.6l-0.3,0l0.5-3.9c0-0.4,0-0.8,0-1
		l2.2-0.2l0,0.4c-1.3,0.4-1.8,0.9-2,2.4c0,0.2,0,0.3,0,0.5l2.8,0.3l0-0.4c0.1-0.7-0.2-1-1-1.3l0-0.3l2.7,0.3l0,0.3
		c-0.9,0.1-1.2,0.3-1.3,1l0,0.4L11,46c0.1-0.2,0.1-0.3,0.1-0.5c0.2-1.5-0.4-2.2-1.6-3l0.1-0.4L11.9,43z"/>
	<path id="path38245" class="st3" d="M5.4,39.6L5.4,39.6L5.4,39.6L5.4,39.6L5.4,39.6L5.4,39.6L5.4,39.6L5.4,39.6L5.4,39.6L5.4,39.6
		L5.4,39.6L5.4,39.6L5.4,39.6L5.4,39.6L5.4,39.6L5.4,39.6L5.4,39.6l0,0.1l0,0l0,0l0,0l0,0l0,0l0,0l0,0l0,0l0,0l0,0l0,0l0,0l0,0v0
		l0,0v0l0,0v0l0,0l0,0v0l0,0v0l0,0h0v0l0,0l0,0l0,0L4.9,40l0.7-2.6C6,36,6.8,34.7,8.2,35.1c1.7,0.5,1.6,2.2,1.1,3.7l-0.1,0.5
		l2.8,0.8l0.2-0.5l0.3,0.1L11.9,42l-0.3-0.1l0.1-0.6L5.4,39.6z M8.8,39.2L8.8,39.2L8.8,39.2L8.8,39.2L8.8,39.2L8.8,39.2L8.8,39.2
		L8.8,39.2L8.8,39.2L8.8,39l0,0l0,0l0,0l0,0l0,0l0,0l0,0l0,0l0,0l0,0l0,0c0.3-1,0-1.9-1.1-2.2c-0.9-0.3-1.7,0.1-2,1.2
		c-0.1,0.2-0.1,0.5-0.1,0.7L8.8,39.2z"/>
	<path id="path38249" class="st3" d="M13,37.7L13,37.7L13,37.7L13,37.7L13,37.7L13,37.7L13,37.7L13,37.7L13,37.7L13,37.7L13,37.7
		L13,37.7L13,37.7L13,37.7L13,37.7L13,37.7L13,37.7L13,37.7L13,37.7L13,37.7L13,37.7l-0.1,0l0,0l0,0l0,0h0l0,0l0,0h0l0,0h0l0,0l0,0
		h0l0,0h0v0h0l0,0l0,0h0l0,0l0,0v0l0,0l0,0l0,0c0.1-0.6-0.1-0.9-0.5-1.3l-4.3-3.7l-0.7,0l0.5-1.3l7.3,0.7l0.3-0.5l0.3,0.1l-1,2.3
		l-0.3-0.1l0.1-0.6l-2-0.2l-1,2.3l0.8,0.7c0.1,0.1,0.2,0.2,0.4,0.2c0.3,0.1,0.5-0.2,0.8-0.4l0.3,0.1L13,37.7z M12.1,32.8L12.1,32.8
		L12.1,32.8L12.1,32.8L12.1,32.8L12.1,32.8L12.1,32.8l-0.1,0l0,0h0h0l0,0h-0.1l0,0l-0.1,0h-0.1l-0.1,0l-0.1,0l-0.1,0l-0.1,0l-0.2,0
		l-0.2,0l-0.2,0l-0.3,0l-0.3,0l-0.2,0l-0.2,0l-0.2,0l-0.1,0l-0.1,0l-0.1,0l-0.1,0l-0.1,0H8.9l0,0H8.8l0,0h0l0,0h0h0h0l0,0h0h0h0l0,0
		l0,0l2.7,2.4L12.1,32.8z"/>
	<path id="path38253" class="st3" d="M10.2,27.2L10.2,27.2L10.2,27.2L10.2,27.2L10.2,27.2L10.2,27.2L10.2,27.2L10.2,27.2L10.2,27.2
		L10.2,27.2L10.2,27.2L10.2,27.2L10.2,27.2L10.2,27.2L10.2,27.2L10.2,27.2L10.2,27.2L10.2,27.2l-0.1,0.1l0,0l0,0l0,0l0,0l0,0l0,0
		l0,0l0,0l0,0l0,0l0,0l0,0v0l0,0h0v0l0,0l0,0l0,0l0,0l0,0l0,0v0h0l0,0l0,0l0,0l0,0l-0.3-0.2l1.4-2.2c0.7-1.2,1.8-2.3,3.2-1.4
		c0.8,0.5,0.8,1.6,0.5,2.3l3.7,0.3l0.4-0.4l0.3,0.2l-1,1.5l-4.1-0.4l-0.4,0.6l2.7,1.7l0.4-0.4l0.3,0.2l-1.3,2l-0.3-0.2l0.2-0.5
		L10.2,27.2z M13.4,27.7L13.4,27.7L13.4,27.7L13.4,27.7L13.4,27.7L13.4,27.7L13.4,27.7L13.4,27.7L13.4,27.7L13.4,27.7L13.4,27.7
		L13.4,27.7L13.4,27.7L13.4,27.7L13.4,27.7L13.4,27.7L13.4,27.7L13.4,27.7L13.4,27.7l0.1-0.1l0,0l0,0l0,0l0,0l0,0l0,0l0,0l0,0l0,0
		l0,0l0,0v0l0,0l0,0v0l0,0l0,0v0h0v0l0,0l0,0l0,0l0,0l0,0l0,0l0,0c0.7-1.2,0.6-1.9-0.3-2.4c-0.9-0.6-1.7-0.2-2.2,0.6
		c-0.1,0.2-0.2,0.4-0.3,0.6L13.4,27.7z"/>
	<path id="path38255" class="st3" d="M16.4,18.2L16.4,18.2l0.1-0.1l0-0.1l0-0.1l0-0.1l0-0.1l0-0.1l0-0.1l0,0l0,0l0,0l0,0l0,0l0,0
		l0,0l0,0l0,0l0,0l0,0l0,0l0,0v0l0,0l0,0l2,1.1l-0.2,0.3c-1-0.3-2-0.5-2.7,0.4l4.9,4.4l0.4-0.4l0.2,0.2L20,25.2L19.8,25l0.3-0.5
		l-4.9-4.4c-0.8,0.9-0.5,1.8,0,2.8l-0.3,0.2l-1.4-1.8c0.2-0.1,0.5-0.3,0.8-0.6L16.4,18.2z"/>
	<path id="path38257" class="st3" d="M22.7,22L22.7,22L22.7,22L22.7,22L22.7,22L22.7,22L22.7,22L22.7,22L22.7,22L22.7,22L22.7,22
		L22.7,22L22.7,22L22.7,22L22.7,22L22.7,22L22.7,22L22.7,22L22.7,22L22.7,22L22.7,22L22.7,22l-0.1-0.1l0,0l0,0l0,0l0,0l0,0l0,0l0,0
		l0,0v0h0v0h0v0l0,0l0,0l0,0l0,0l0,0l0,0l0,0l0,0l0,0l0,0l0,0c0.3-0.4,0.5-0.7,0-1.3L19.2,16l-0.5,0.3l-0.2-0.3l1.5-1.2l3.7,2.2
		l-1.3-4.1l1.5-1.2l0.2,0.3l-0.4,0.4l4.2,4.9l0.5-0.3l0.2,0.3l-1.9,1.5l-0.2-0.3l0.4-0.4l-3.8-4.5l0,0l1.5,5l-0.2,0.2L20,16.3l0,0
		l3,3.9c0.4,0.5,0.8,0.5,1.3,0.2l0.2,0.3L22.7,22z"/>
	<path id="path38259" class="st3" d="M33.5,14.9L33.5,14.9L33.5,14.9L33.5,14.9L33.5,14.9l-0.1,0h0l0,0h0l0,0l0,0h0l0,0l0,0l0,0l0,0
		l0,0l0,0l0,0l-0.1,0l-0.1,0l-0.1,0l-0.1,0l-0.1,0l-0.1,0l-0.1,0l-3.6,1.9l-0.2-0.3l0.5-0.3l-3.1-5.7L25.7,11l-0.2-0.3l3.5-1.9
		c0.4-0.2,0.7-0.4,0.8-0.6l1.4,1.6L31,10.1c-1.1-0.8-1.8-1-3.1-0.3c-0.2,0.1-0.3,0.2-0.4,0.3l1.3,2.5l0.4-0.2
		c0.6-0.3,0.7-0.8,0.5-1.6l0.3-0.2l1.3,2.4l-0.3,0.2c-0.5-0.7-0.9-0.8-1.6-0.5l-0.4,0.2l1.6,3c0.2,0,0.4-0.1,0.5-0.2
		c1.3-0.7,1.6-1.6,1.5-3l0.4-0.1L33.5,14.9z"/>
	<path id="path38261" class="st3" d="M38.6,10.7L38.6,10.7L38.6,10.7L38.6,10.7L38.6,10.7L38.6,10.7L38.6,10.7L38.6,10.7L38.6,10.7
		L38.6,10.7L38.6,10.7L38.6,10.7L38.6,10.7L38.6,10.7L38.6,10.7L38.6,10.7L38.6,10.7L38.6,10.7L38.6,10.7L38.6,10.7L38.6,10.7
		L38.6,10.7L38.6,10.7L38.6,10.7L38.6,10.7L38.6,10.7L38.6,10.7L38.6,10.7L38.6,10.7L38.6,10.7L38.6,10.7L38.6,10.7L38.6,10.7
		L38.6,10.7L38.6,10.7L38.6,10.7L38.6,10.7L38.6,10.7L38.6,10.7L38.6,10.7L38.6,10.7L38.6,10.7L38.6,10.7L38.6,10.7L38.6,10.7
		L38.6,10.7L38.6,10.7l-1.3-3.9c-0.2-0.6-0.5-0.6-1-0.5L36.2,6l2-0.7l0.1,0.3c-0.5,0.2-0.6,0.6-0.5,1.1l2,5.9l-0.5,0.2l-5.7-4.4h0
		l1.5,4.4c0.2,0.5,0.7,0.7,1.1,0.6l0.1,0.3l-2.1,0.7L34.1,14c0.4-0.2,0.7-0.7,0.5-1.2l-1.5-4.4c-0.2-0.6-0.7-0.8-1.2-0.7l-0.1-0.3
		l1.8-0.6L38.6,10.7z"/>
	<path id="path38263" class="st3" d="M43.7,4.3L43.7,4.3l0.1,0l0.1,0l0.1,0l0.1,0l0.1,0l0.1,0l0.1,0l0,0l0,0l0,0l0,0l0,0l0,0l0,0
		l0,0l0,0l0,0l0,0l0,0l0,0l0,0l0,0l0,0l0.8,2.1l-0.3,0.1c-0.6-0.9-1.2-1.6-2.4-1.4l1.1,6.5l0.6,0l0.1,0.3L42.1,12l-0.1-0.3l0.6-0.2
		L41.5,5c-1.2,0.2-1.5,1.1-1.8,2.1l-0.3,0l0.1-2.3c0.2,0.1,0.6,0.1,1,0L43.7,4.3z"/>
	<path id="path38267" class="st3" d="M48.9,7.5l0-0.2l0-0.2l0-0.2l0-0.2l0-0.2l0-0.2l0.1-0.2l0.1-0.2l0.1-0.2l0.1-0.2l0.1-0.2
		l0.1-0.1l0.1-0.2l0.1-0.1l0.1-0.1L49.9,5L50,4.9l0.1-0.1l0.1-0.1l0.1-0.1l0.1-0.1l0.1-0.1l0.1-0.1l0.1-0.1l0.1-0.1L51.2,4L51.4,4
		l0.2,0l0.2,0l0.2,0l0.2,0h0.2c2,0.1,3,2,2.9,4c-0.1,1.7-1.5,3.7-3.3,3.6C49.8,11.4,48.8,9.6,48.9,7.5z M53.7,7.8l0-0.2l0-0.2V7.1
		V6.9V6.7l0-0.2l0-0.2l0-0.2l0-0.2l0-0.2l0-0.1l0-0.1l0-0.1l0-0.1l0-0.1l0-0.1L53.3,5l-0.1-0.1l-0.1-0.1l-0.1-0.1l-0.1-0.1L53,4.6
		l-0.1-0.1l-0.1-0.1l-0.1,0l-0.1,0l-0.1,0l-0.1,0l-0.1,0l-0.1,0l-0.1,0l-0.1,0c-0.9,0-1.8,0.9-1.9,3.3c-0.1,2.6,0.5,3.4,1.5,3.5
		C52.7,11.2,53.5,10.2,53.7,7.8z"/>
	<path id="path38269" class="st3" d="M55.1,11.6L55.1,11.6L55.1,11.6L55.1,11.6L55.1,11.6L55.1,11.6L55.1,11.6L55.1,11.6L55.1,11.6
		L55.1,11.6L55.1,11.6L55.1,11.6L55.1,11.6L55.1,11.6L55.1,11.6L55.1,11.6L55.1,11.6L55.1,11.6L55.1,11.6L55.1,11.6l0-0.1l0,0v0l0,0
		v0l0,0v0v0l0,0v0v0v0l0,0l0,0v0l0,0v0l0,0v0l0,0l0,0l0,0v0l0,0l0,0l0,0h0l0.6,0L57.1,5l-0.5-0.2l0.1-0.3l3.7,0.8
		c0.4,0.1,0.8,0.1,1,0l0.1,2.3l-0.4,0c-0.4-1.3-0.7-2-2.1-2.3c-0.2,0-0.4,0-0.5,0l-0.6,2.8l0.6,0.1c0.7,0.1,1-0.3,1.2-0.9l0.3,0.1
		L59.3,10L59,9.9c0.1-0.7-0.1-1.2-0.7-1.4l-0.6-0.1L57,11.6l0.5,0.2l-0.1,0.3L55.1,11.6z"/>
	<path id="path38271" class="st3" d="M67,15.6L67,15.6L67,15.6L67,15.6L67,15.6L67,15.6l-0.1-0.1l0,0l0,0l0,0l0,0l0,0l0,0l0,0l0,0
		l0,0l0,0l0,0l0,0l-0.1,0l-0.1,0l-0.1,0l-0.1,0l-0.1,0l-0.1,0l-0.1,0l-3.7-1.6l0.1-0.3l0.6,0.2l2.6-5.9L65.3,7l0.1-0.3l3.6,1.6
		c0.4,0.2,0.7,0.3,1,0.2l-0.4,2.1l-0.4-0.1c0-1.3-0.3-2-1.7-2.6c-0.2-0.1-0.3-0.1-0.5-0.1l-1.1,2.6l0.4,0.2c0.7,0.3,1,0.1,1.5-0.6
		l0.3,0.1L67,12.6l-0.3-0.1c0.2-0.8,0.1-1.2-0.6-1.5l-0.4-0.2l-1.4,3.1c0.1,0.1,0.3,0.2,0.5,0.3c1.4,0.6,2.3,0.3,3.3-0.7l0.3,0.2
		L67,15.6z"/>
	<path id="path38275" class="st3" d="M72.1,10.3L72.1,10.3L72.1,10.3L72.1,10.3L72.1,10.3L72.1,10.3L72.1,10.3L72.1,10.3L72.1,10.3
		L72.1,10.3L72.1,10.3L72.1,10.3L72.1,10.3L72.1,10.3L72.1,10.3L72.1,10.3L72.1,10.3L72.1,10.3L72,10.2l0,0l0,0l0,0l0,0l0,0l0,0l0,0
		l0,0l0,0l0,0l0,0l0,0l0,0l0,0l0,0h0v0h0l0,0l0,0l0,0l0,0l0,0l0,0l0,0l0,0l0,0l0,0l0.2-0.3l2.4,1.5c2,1.3,1.7,3.5,0.8,4.9
		c-0.9,1.4-2.7,2.6-4.8,1.3l-2.4-1.5l0.2-0.3l0.5,0.2L72.1,10.3z M69.7,16.5L69.7,16.5L69.7,16.5L69.7,16.5L69.7,16.5L69.7,16.5
		L69.7,16.5L69.7,16.5l0.1,0.1l0,0l0,0l0,0l0,0l0,0l0,0l0,0l0,0l0,0l0,0l0,0l0,0l0,0l0,0l0,0l0,0l0,0l0,0l0,0l0.1,0l0.1,0
		c1,0.7,2.1,0.6,3.6-1.6c1.5-2.2,1.1-3.3,0.1-3.9c-0.3-0.2-0.5-0.3-0.7-0.4L69.7,16.5z"/>
	<path id="path38277" class="st3" d="M79.9,15.5L79.9,15.5L79.9,15.5L79.9,15.5L79.9,15.5L79.9,15.5L79.9,15.5L79.9,15.5L79.9,15.5
		L79.9,15.5L79.9,15.5L79.9,15.5L79.9,15.5L79.9,15.5L79.9,15.5L79.9,15.5L79.9,15.5L79.9,15.5L79.9,15.5L79.9,15.5L79.9,15.5
		L79.9,15.5l-0.1,0.1l0,0l0,0l0,0l0,0l0,0l0,0l0,0l0,0v0h0v0h0v0l0,0h0v0l0,0l0,0l0,0h0v0l0,0l0,0l0,0l-0.5-0.3L75.9,19
		c-0.7,0.7-0.5,1.8,0.1,2.4c0.7,0.7,1.7,0.7,2.5-0.1l2.7-3c0.4-0.4,0.3-0.9-0.1-1.3l0.2-0.2l1.6,1.5l-0.2,0.2
		c-0.4-0.3-0.9-0.4-1.3,0.1L79,21.4c-0.9,0.9-2.1,1.5-3.5,0.1c-1.2-1.1-1.6-2.2-0.5-3.4l3.3-3.6l-0.4-0.4l0.2-0.2L79.9,15.5z"/>
	<path id="path38279" class="st3" d="M82.9,26.7l-0.1,0l-0.1,0l-0.1,0l-0.1,0l-0.1,0l-0.1,0l-0.1,0l-0.1,0l-0.1,0l-0.1,0h-0.1
		l-0.1,0l-0.1,0l-0.1,0l-0.1,0l-0.1,0l-0.1,0l-0.1,0l-0.1,0l-0.1,0l-0.1,0l-0.1,0l-0.1,0l-0.1-0.1l-0.1-0.1L80,26.4L80,26.4
		l-0.1-0.1l-0.1-0.1l-0.1-0.1l-0.1-0.1L79.5,26c-1.2-1.5-0.6-3.3,1-4.6c1.4-1.1,3.8-1.7,5-0.2c0.2,0.2,0.3,0.4,0.4,0.7
		c0.1,0.2,0.2,0.4,0.3,0.5c0.1,0.1,0.4,0.3,0.7,0.5l-1.5,1.8l-0.3-0.2c0.4-0.9,0.8-2.1,0.2-2.9c-0.8-1-2.3-0.5-3.3,0.3
		c-1.3,1-2.5,2.7-1.5,4c0.5,0.7,1.5,0.8,2.2,0.5L82.9,26.7z"/>
	<path id="path38283" class="st3" d="M81.2,27.6L81.2,27.6L81.2,27.6L81.2,27.6L81.2,27.6L81.2,27.6L81.2,27.6L81.2,27.6L81.2,27.6
		L81.2,27.6L81.2,27.6L81.2,27.6L81.2,27.6L81.2,27.6L81.2,27.6L81.2,27.6L81.2,27.6L81.2,27.6L81.2,27.6L81.2,27.6L81.2,27.6
		l0.1-0.1l0,0l0,0l0,0l0,0l0,0l0,0l0,0h0l0,0h0v0h0l0,0h0v0l0,0h0l0,0l0,0h0v0l0,0l0,0l0,0l0,0c0.4,0.4,0.8,0.5,1.3,0.4l5.6-1.2
		l0.4-0.5l0.8,1.2l-4.9,5.4l0.2,0.6l-0.3,0.2l-1.2-2.2l0.3-0.2l0.4,0.4l1.3-1.4L84,28l-1,0.2c-0.2,0-0.3,0.1-0.4,0.2
		c-0.3,0.2-0.2,0.5-0.1,0.9l-0.3,0.2L81.2,27.6z M85.6,29.8L85.6,29.8L85.6,29.8L85.6,29.8L85.6,29.8L85.6,29.8L85.6,29.8L85.6,29.8
		l0.1-0.1l0,0l0,0l0,0l0,0l0,0l0,0l0,0l0,0l0.1-0.1l0.1-0.1l0.1-0.1l0.1-0.1l0.1-0.1l0.1-0.1l0.2-0.2l0.2-0.2l0.1-0.1l0.1-0.1
		l0.1-0.1l0.1-0.1l0.1-0.1l0.1-0.1l0,0l0,0l0,0l0,0l0,0l0,0l0,0l0,0l0,0l0,0l0,0l0,0l0,0l0,0l0,0l0,0l0,0l-3.5,0.8L85.6,29.8z"/>
	<path id="path38285" class="st3" d="M92.8,34.8L92.8,34.8l0.1,0.1l0,0.1l0,0.1l0,0.1l0,0.1l0,0.1l0,0l0,0l0,0l0,0l0,0l0,0l0,0l0,0
		l0,0l0,0l0,0l0,0l0,0l0,0l0,0l0,0l0,0l0,0l-1.9,1.2l-0.2-0.3c0.8-0.7,1.4-1.5,0.9-2.6L86,36.4l0.1,0.6l-0.3,0.1L85,34.8l0.3-0.1
		l0.3,0.5l6.1-2.4c-0.4-1.1-1.4-1.3-2.4-1.3l0-0.3l2.2-0.4c0,0.2,0.1,0.6,0.2,1L92.8,34.8z"/>
	<path id="path38287" class="st3" d="M86.5,39L86.5,39L86.5,39L86.5,39L86.5,39L86.5,39L86.5,39L86.5,39L86.5,39L86.5,39L86.5,39
		L86.5,39L86.5,39L86.5,39L86.5,39L86.5,39L86.5,39L86.5,39L86.5,39L86.5,39l0.1,0l0,0h0l0,0l0,0h0h0l0,0h0l0,0h0l0,0h0l0,0h0v0h0
		l0,0h0l0,0l0,0l0,0h0l0,0l0,0l0,0l0,0l0.2,0.5l6.3-1.6l-0.1-0.6l0.3-0.1l0.6,2.4l-0.3,0.1l-0.2-0.5l-6.3,1.6l0.1,0.6l-0.3,0.1
		L86.5,39z"/>
	<path id="path38291" class="st3" d="M90.9,41.4l0.2,0l0.2,0h0.2h0.2l0.2,0l0.2,0l0.2,0l0.2,0l0.2,0l0.2,0l0.2,0.1l0.2,0.1l0.2,0.1
		l0.2,0.1l0.2,0.1l0.2,0.1l0.1,0.1l0.1,0.1l0.1,0.1l0.1,0.1l0.1,0.1l0.1,0.1l0.1,0.1l0.1,0.1l0.1,0.1l0.1,0.1l0.1,0.1l0.1,0.1
		l0.1,0.1l0,0.2l0,0.2l0,0.2c0.2,1.9-1.4,3.3-3.4,3.5c-1.7,0.2-3.9-0.8-4.2-2.6C87.2,43,88.9,41.7,90.9,41.4z M91.5,46.2l0.2,0
		l0.2,0l0.2,0l0.2,0l0.2,0l0.2,0l0.2,0l0.2,0l0.2,0l0.1-0.1l0.1-0.1l0.1-0.1l0.1-0.1l0.1-0.1l0.1-0.1l0.1-0.1l0.1-0.1l0.1-0.1
		l0.1-0.1l0.1-0.1l0.1-0.1l0-0.1l0-0.1l0-0.1l0-0.1l0-0.1l0-0.1l0-0.1v-0.1l0-0.1l0-0.1l0-0.1c-0.1-0.9-1.2-1.6-3.6-1.3
		c-2.6,0.3-3.3,1.1-3.2,2.1C88,45.8,89.1,46.5,91.5,46.2z"/>
	<path id="path38293" class="st3" d="M89.9,53.5L89.9,53.5L89.9,53.5L89.9,53.5L89.9,53.5L89.9,53.5L89.9,53.5L89.9,53.5L89.9,53.5
		L89.9,53.5L89.9,53.5L89.9,53.5L89.9,53.5L89.9,53.5L89.9,53.5L89.9,53.5L89.9,53.5L89.9,53.5L89.9,53.5L89.9,53.5L89.9,53.5
		L89.9,53.5L89.9,53.5L89.9,53.5L89.9,53.5L89.9,53.5L89.9,53.5L89.9,53.5L89.9,53.5L89.9,53.5L89.9,53.5L89.9,53.5L89.9,53.5
		L89.9,53.5L89.9,53.5L89.9,53.5L89.9,53.5L89.9,53.5L89.9,53.5L89.9,53.5L89.9,53.5L89.9,53.5L89.9,53.5L89.9,53.5L89.9,53.5
		L89.9,53.5L89.9,53.5l4.1,0.2c0.6,0,0.7-0.3,0.8-0.8l0.3,0L95.1,55l-0.3,0c0-0.5-0.4-0.8-0.9-0.8l-6.2-0.3l0-0.5l6.2-3.7v0
		l-4.6-0.2c-0.6,0-0.9,0.4-0.9,0.9l-0.3,0l0.1-2.2l0.3,0c0,0.5,0.4,0.9,1,0.9l4.6,0.2c0.6,0,1-0.4,1.1-0.8l0.3,0l-0.1,1.9L89.9,53.5
		z"/>
	<path id="path38295" class="st3" d="M15.6,69.8L15.6,69.8L15.6,69.8L15.6,69.8L15.6,69.8L15.6,69.8L15.6,69.8L15.6,69.8L15.6,69.8
		L15.6,69.8L15.6,69.8L15.6,69.8L15.6,69.8L15.6,69.8L15.6,69.8L15.6,69.8L15.6,69.8L15.6,69.8L15.6,69.8L15.6,69.8L15.6,69.8
		L15.6,69.8L15.6,69.8L15.6,69.8l-0.1,0.1h0l0,0h0l0,0l0,0h0l0,0l0,0l0,0l0,0l0,0l0,0h0l0,0v0l0,0l0,0h0l0,0l0,0l0,0l0,0l-0.3-0.3
		l-2.8,1.7c-0.6,0.3-0.7,1.1-0.4,1.5c0.3,0.6,1,0.8,1.6,0.4l2.3-1.4c0.3-0.2,0.3-0.5,0.2-0.8l0.2-0.1l0.8,1.3l-0.2,0.1
		c-0.2-0.3-0.5-0.4-0.8-0.2l-2.2,1.3c-0.7,0.4-1.6,0.6-2.3-0.6c-0.5-0.9-0.6-1.7,0.3-2.3l2.8-1.7l-0.2-0.4l0.2-0.1L15.6,69.8z"/>
	<path id="path38297" class="st3" d="M16.5,77.1L16.5,77.1L16.5,77.1L16.5,77.1L16.5,77.1L16.5,77.1L16.5,77.1L16.5,77.1L16.5,77.1
		L16.5,77.1L16.5,77.1L16.5,77.1L16.5,77.1L16.5,77.1L16.5,77.1L16.5,77.1L16.5,77.1L16.5,77.1L16.5,77.1L16.5,77.1L16.5,77.1
		L16.5,77.1L16.5,77.1L16.5,77.1L16.5,77.1L16.5,77.1L16.5,77.1L16.5,77.1L16.5,77.1L16.5,77.1L16.5,77.1L16.5,77.1L16.5,77.1
		L16.5,77.1L16.5,77.1L16.5,77.1L16.5,77.1L16.5,77.1L16.5,77.1L16.5,77.1L16.5,77.1L16.5,77.1L16.5,77.1L16.5,77.1L16.5,77.1
		L16.5,77.1L16.5,77.1l2.2-1.7c0.3-0.2,0.3-0.4,0.1-0.8l0.2-0.1l0.9,1.1l-0.2,0.1c-0.3-0.2-0.5-0.3-0.8-0.1l-3.3,2.6l-0.2-0.3
		l1.5-4.6l0,0l-2.5,1.9c-0.3,0.2-0.3,0.6-0.1,0.8l-0.2,0.1l-0.9-1.2l0.2-0.1c0.2,0.2,0.6,0.3,0.9,0.1l2.5-1.9
		c0.3-0.3,0.4-0.6,0.2-0.9l0.2-0.1l0.8,1L16.5,77.1z"/>
	<path id="path38299" class="st3" d="M16.4,79.2L16.4,79.2L16.4,79.2L16.4,79.2L16.4,79.2L16.4,79.2L16.4,79.2L16.4,79.2L16.4,79.2
		L16.4,79.2L16.4,79.2L16.4,79.2L16.4,79.2L16.4,79.2L16.4,79.2L16.4,79.2L16.4,79.2L16.4,79.2L16.4,79.2L16.4,79.2L16.4,79.2
		L16.4,79.2L16.4,79.2L16.4,79.2l0.1-0.1l0,0h0v0l0,0h0l0,0l0,0v0h0l0,0l0,0v0h0l0,0l0,0l0,0l0,0v0l0,0l0,0l0,0l0,0l0.3,0.2l3.2-3
		L19.9,76l0.2-0.2l1.1,1.2L21,77.2l-0.3-0.2l-3.2,3l0.2,0.3l-0.2,0.2L16.4,79.2z"/>
	<path id="path38301" class="st3" d="M23.6,79.4L23.6,79.4L23.6,79.4l0.1,0.1l0,0l0,0l0,0l0,0l0,0l0,0l0,0l0,0l0,0l0,0l0,0l0,0l0,0
		l0,0l0,0l0,0h0l0,0h0l0,0h0L23.3,81l-0.2-0.1c0.2-0.7,0.4-1.3-0.2-1.9l-3,3.3l0.2,0.3L20,82.8l-1.2-1.1l0.2-0.2l0.3,0.2l3-3.3
		c-0.6-0.5-1.2-0.4-1.9-0.1l-0.1-0.2l1.2-0.9c0.1,0.1,0.2,0.3,0.4,0.5L23.6,79.4z"/>
	<path id="path38303" class="st3" d="M24,86.1L24,86.1L24,86.1L24,86.1L24,86.1L24,86.1L24,86.1L24,86.1L23.9,86l0,0l0,0l0,0l0,0
		l0,0l0,0l0,0l0,0l0,0l0,0l0,0l0,0l0,0l0,0l0,0l0,0l0,0L21.4,84l0.1-0.2l0.3,0.2l2.6-3.5l-0.3-0.3l0.1-0.2l2.1,1.6
		c0.2,0.2,0.4,0.3,0.6,0.3l-0.6,1.3l-0.2-0.1c0.2-0.9,0.1-1.4-0.7-2c-0.1-0.1-0.2-0.1-0.3-0.2L24,82.5l0.2,0.2
		c0.4,0.3,0.7,0.2,1.1-0.2l0.2,0.1l-1.1,1.4L24.3,84c0.3-0.5,0.2-0.8-0.1-1.1l-0.2-0.2l-1.4,1.8c0.1,0.1,0.2,0.2,0.3,0.3
		c0.8,0.6,1.4,0.5,2.3,0.1l0.2,0.2L24,86.1z"/>
	<path id="path38307" class="st3" d="M27.7,82.9L27.7,82.9L27.7,82.9L27.7,82.9L27.7,82.9L27.7,82.9L27.7,82.9L27.7,82.9L27.7,82.9
		L27.7,82.9L27.7,82.9L27.7,82.9L27.7,82.9L27.7,82.9L27.7,82.9L27.7,82.9L27.7,82.9L27.7,82.9L27.7,82.9L27.7,82.9l-0.1-0.1l0,0
		l0,0l0,0l0,0l0,0l0,0l0,0l0,0l0,0l0,0h0v0h0v0h0l0,0l0,0l0,0l0,0l0,0l0,0l0,0l0,0l0,0l0,0l0,0l0.1-0.2l1.6,1
		c1.4,0.8,1.2,2.3,0.6,3.3c-0.6,1-1.8,1.8-3.2,1l-1.6-1l0.1-0.2l0.4,0.2L27.7,82.9z M26.2,87.1L26.2,87.1L26.2,87.1L26.2,87.1
		L26.2,87.1L26.2,87.1L26.2,87.1L26.2,87.1L26.2,87.1L26.2,87.1L26.2,87.1l0.1,0.1l0,0l0,0l0,0l0,0l0,0l0,0l0,0l0,0l0,0l0,0l0,0l0,0
		l0,0l0,0l0,0l0,0c0.7,0.4,1.4,0.4,2.4-1.2c0.9-1.5,0.6-2.2-0.1-2.7c-0.2-0.1-0.4-0.2-0.5-0.2L26.2,87.1z"/>
	<path id="path38309" class="st3" d="M35.1,87.9L35.1,87.9L35.1,87.9L35.1,87.9L35.1,87.9L35.1,87.9L35.1,87.9L35.1,87.9L35.1,87.9
		L35.1,87.9L35.1,87.9L35.1,87.9L35.1,87.9L35.1,87.9L35.1,87.9L35.1,87.9L35.1,87.9L35.1,87.9L35.1,87.9L35.1,87.9L35.1,87.9
		L35.1,87.9l-0.1,0l0,0h0h0l0,0h0h0h0h0l0,0h0v0l0,0h0l0,0h0l0,0l0,0l0,0h0l0,0l0,0l0,0l0,0l0,0c0-0.6-0.1-1.4-0.8-1.7
		c-0.5-0.2-0.9-0.1-1,0.3c-0.5,1.3,2.2,1.7,1.4,3.5c-0.3,0.8-1.2,1.1-2,0.8c-0.5-0.2-0.8-0.6-1-0.7C31.3,90,31.1,90,31,90l0.3-1.5
		l0.3,0.1c0,0.8,0.3,1.6,1,1.9c0.4,0.2,1,0,1.2-0.4c0.5-1.2-2.1-1.7-1.3-3.5c0.3-0.6,1-1,1.8-0.7c0.2,0.1,0.3,0.2,0.4,0.3
		c0.1,0.1,0.2,0.2,0.3,0.2c0.1,0.1,0.3,0.1,0.5,0.1L35.1,87.9z"/>
	<path id="path38311" class="st3" d="M38.9,87.7L38.9,87.7l0.1,0l0.1,0l0,0l0,0l0,0l0,0h0h0l0,0h0h0h0l0,0h0h0h0h0h0h0h0h0l0,0h0h0
		l-0.1,1.5l-0.2,0c-0.1-0.7-0.2-1.4-1-1.6l-1.3,4.2l0.4,0.2l-0.1,0.2l-1.6-0.5l0.1-0.2l0.4,0.1l1.3-4.3c-0.8-0.2-1.3,0.2-1.7,0.8
		l-0.2-0.1l0.7-1.3c0.1,0.1,0.3,0.2,0.6,0.3L38.9,87.7z"/>
	<path id="path38315" class="st3" d="M38.2,92.7L38.2,92.7L38.2,92.7L38.2,92.7L38.2,92.7L38.2,92.7L38.2,92.7L38.2,92.7L38.2,92.7
		L38.2,92.7L38.2,92.7L38.2,92.7L38.2,92.7L38.2,92.7L38.2,92.7L38.2,92.7L38.2,92.7L38.2,92.7L38.2,92.7L38.2,92.7L38.2,92.7
		L38.2,92.7L38.2,92.7l0-0.1v0v0v0l0,0v0v0v0l0,0v0h0v0l0,0l0,0l0,0v0l0,0l0,0l0,0v0l0,0l0,0l0,0l0,0c0.4,0,0.6-0.2,0.8-0.5l1.9-3.3
		l-0.1-0.4l0.9,0.1l0.6,4.9l0.4,0.2l0,0.2L41,93.3l0-0.2l0.4,0l-0.1-1.3l-1.6-0.3L39.3,92c-0.1,0.1-0.1,0.2-0.1,0.3
		c-0.1,0.2,0.2,0.3,0.4,0.4l0,0.2L38.2,92.7z M41.3,91.4L41.3,91.4L41.3,91.4L41.3,91.4L41.3,91.4L41.3,91.4L41.3,91.4L41.3,91.4
		l0-0.1l0,0v0v0l0,0v0v0l0,0v0l0-0.1l0-0.1l0-0.1l0-0.1l0-0.1l0-0.1l0-0.2l0-0.2l0-0.1l0-0.1l0-0.1l0-0.1l0-0.1l0-0.1l0,0v0l0,0v0
		l0,0v0v0l0,0v0v0v0v0l0,0v0l0,0l0,0h0l-1.2,2.1L41.3,91.4z"/>
	<path id="path38317" class="st3" d="M46.3,89L46.3,89l0.1,0h0.1l0,0h0h0h0h0h0h0l0,0h0h0h0h0l0,0h0h0l0,0h0l0,0h0l0,0h0l0,0
		l0.1,1.5l-0.2,0c-0.2-0.7-0.5-1.3-1.3-1.4l-0.5,4.4l0.4,0.1l0,0.2l-1.6-0.2l0-0.2l0.4,0l0.5-4.4c-0.8-0.1-1.2,0.4-1.5,1.1L43,90
		l0.5-1.5c0.1,0.1,0.4,0.1,0.6,0.2L46.3,89z"/>
	<path id="path38319" class="st3" d="M50.8,94.2L50.8,94.2L50.8,94.2L50.8,94.2L50.8,94.2L50.8,94.2L50.8,94.2l-0.1,0l0,0h0l0,0h0
		l0,0h0l0,0h0l0,0h0h0l0,0h0l0,0h-0.1l0,0h-0.1h0l-2.7,0v-0.2l0.4-0.1l0-4.4l-0.4-0.1v-0.2l2.7,0c0.3,0,0.5,0,0.7-0.1l0.3,1.4
		l-0.3,0c-0.4-0.8-0.7-1.2-1.8-1.2c-0.1,0-0.2,0-0.4,0.1l0,1.9l0.3,0c0.5,0,0.7-0.2,0.8-0.8h0.2l0,1.8l-0.2,0
		c-0.1-0.6-0.3-0.8-0.8-0.8h-0.3l0,2.3c0.1,0,0.2,0.1,0.4,0.1c1,0,1.5-0.5,1.9-1.3l0.3,0.1L50.8,94.2z"/>
	<path id="path38321" class="st3" d="M54.7,90.2L54.7,90.2L54.7,90.2L54.7,90.2L54.7,90.2L54.7,90.2L54.7,90.2L54.7,90.2L54.7,90.2
		L54.7,90.2L54.7,90.2L54.7,90.2L54.7,90.2L54.7,90.2L54.7,90.2L54.7,90.2L54.7,90.2L54.7,90.2L54.7,90.2L54.7,90.2L54.7,90.2
		L54.7,90.2l-0.1,0l0,0l0,0l0,0h0h0l0,0h0l0,0h0l0,0h0l0,0l0,0h0l0,0v0l0,0h0l0,0l0,0l0,0l0,0l0,0l0,0c-0.3-0.5-0.8-1.2-1.5-1.1
		c-0.5,0-0.8,0.4-0.8,0.8c0.1,1.4,2.7,0.5,2.9,2.4c0.1,0.9-0.6,1.5-1.4,1.6c-0.5,0-0.9-0.1-1.2-0.1c-0.1,0-0.3,0.1-0.4,0.2l-0.4-1.5
		l0.3-0.1c0.4,0.7,1,1.3,1.8,1.2c0.5,0,0.9-0.5,0.8-0.9c-0.1-1.3-2.6-0.5-2.8-2.5c-0.1-0.7,0.4-1.3,1.2-1.4c0.2,0,0.4,0,0.5,0
		c0.1,0,0.3,0.1,0.4,0c0.1,0,0.3-0.1,0.5-0.2L54.7,90.2z"/>
	<path id="path38325" class="st3" d="M57.1,91l0-0.1l0-0.1l0-0.1l0-0.1v-0.1v-0.1l0-0.1l0-0.1l0-0.1l0-0.1l0-0.1l0-0.1l0-0.1l0-0.1
		l0-0.1l0-0.1l0-0.1l0.1-0.1l0.1-0.1l0.1-0.1l0.1-0.1l0.1-0.1l0.1-0.1l0.1-0.1l0.1-0.1l0.1-0.1l0.1-0.1l0.1-0.1l0.1-0.1l0.1,0l0.1,0
		l0.1,0c1.3-0.3,2.3,0.7,2.6,2c0.3,1.2-0.3,2.7-1.4,3C58.5,93.3,57.4,92.3,57.1,91z M60.3,90.2l0-0.2l0-0.1l0-0.1l0-0.1l0-0.1l0-0.1
		l0-0.1l0-0.1l0-0.1l0-0.1l0-0.1l0-0.1l0-0.1l-0.1-0.1l0-0.1l-0.1-0.1l0-0.1l-0.1,0l-0.1,0l-0.1,0l-0.1,0l-0.1,0l-0.1,0l-0.1,0
		l-0.1,0l-0.1,0l-0.1,0h-0.1h-0.1l-0.1,0l-0.1,0l-0.1,0c-0.6,0.1-1,0.9-0.6,2.5c0.4,1.7,1,2.1,1.6,2C60.3,92.6,60.7,91.8,60.3,90.2z
		"/>
	<path id="path38327" class="st3" d="M62.5,92.2L62.5,92.2L62.5,92.2L62.5,92.2L62.5,92.2L62.5,92.2L62.5,92.2L62.5,92.2L62.5,92.2
		L62.5,92.2L62.5,92.2L62.5,92.2L62.5,92.2L62.5,92.2L62.5,92.2L62.5,92.2L62.5,92.2L62.5,92.2L62.5,92.2L62.5,92.2L62.5,92.2
		L62.5,92.2L62.5,92.2l0-0.1l0,0v0l0,0v0v0l0,0v0l0,0v0l0,0v0h0l0,0l0,0v0l0,0l0,0l0,0l0,0v0l0,0l0,0l0,0l0.3-0.2l-1.4-4.1L61,87.7
		l-0.1-0.2l2.4-0.8c0.3-0.1,0.5-0.2,0.6-0.3l0.9,1.3l-0.2,0.1c-0.7-0.6-1.1-0.9-2-0.6c-0.1,0-0.2,0.1-0.3,0.2l0.6,1.9l0.4-0.1
		c0.4-0.1,0.5-0.5,0.4-0.9l0.2-0.1l0.6,1.7l-0.2,0.1c-0.2-0.4-0.5-0.7-0.9-0.5l-0.4,0.1l0.7,2.1l0.4-0.1l0.1,0.2L62.5,92.2z"/>
	<path id="path38331" class="st3" d="M67.6,90.4L67.6,90.4L67.6,90.4L67.6,90.4L67.6,90.4L67.6,90.4L67.6,90.4L67.6,90.4L67.6,90.4
		L67.6,90.4L67.6,90.4L67.6,90.4L67.6,90.4L67.6,90.4L67.6,90.4L67.6,90.4L67.6,90.4L67.6,90.4L67.6,90.4L67.6,90.4L67.6,90.4
		L67.6,90.4L67.6,90.4l0-0.1l0,0l0,0v0l0,0v0l0,0v0l0,0l0,0l0,0l0,0l0,0v0l0,0l0,0l0,0h0v0l0,0l0,0l0,0l0,0l0,0
		c0.3-0.3,0.4-0.5,0.3-0.9l-0.6-3.8l-0.3-0.3l0.8-0.5l3.5,3.5l0.4-0.1l0.1,0.2l-1.5,0.8L70,88.9l0.3-0.3l-0.9-0.9l-1.5,0.8l0.1,0.7
		c0,0.1,0,0.2,0.1,0.3c0.1,0.2,0.4,0.1,0.6,0.1l0.1,0.2L67.6,90.4z M69.2,87.4L69.2,87.4L69.2,87.4L69.2,87.4L69.2,87.4L69.2,87.4
		L69.2,87.4L69.2,87.4L69.2,87.4L69.2,87.4l-0.1-0.1l0,0l0,0l0,0l0,0l0,0l0,0l-0.1-0.1L68.8,87L68.7,87l-0.1-0.1l-0.1-0.1l-0.1-0.1
		l-0.2-0.2l-0.2-0.2l-0.1-0.1L68,86.3L68,86.2l-0.1-0.1L67.8,86L67.8,86l0,0l0,0l0,0l0,0l0,0l0,0l0,0l0,0l0,0l0,0l0,0l0,0l0,0l0,0
		l0,0l0,0l0,0l0.4,2.4L69.2,87.4z"/>
	<path id="path38333" class="st3" d="M71.9,88.1L71.9,88.1L71.9,88.1L71.9,88.1L71.9,88.1L71.9,88.1L71.9,88.1L71.9,88.1L71.9,88.1
		L71.9,88.1L71.9,88.1L71.9,88.1L71.9,88.1L71.9,88.1L71.9,88.1L71.9,88.1L71.9,88.1L71.9,88.1L71.9,88.1L71.9,88.1L71.9,88.1
		L71.9,88.1L71.9,88.1L71.9,88.1L71.9,88v0h0v0l0,0l0,0v0l0,0h0v0l0,0l0,0v0l0,0h0l0,0l0,0v0l0,0l0,0l0,0l0,0l0,0
		c0.2-0.3,0.3-0.4,0.1-0.9l-2-3.2l-0.4,0.2l-0.1-0.2l1.1-0.7l2.4,1.7L72.3,82l1.1-0.7l0.1,0.2l-0.3,0.3l2.6,3.6l0.4-0.2l0.1,0.2
		l-1.4,0.9l-0.1-0.2l0.3-0.3l-2.3-3.2l0,0l0.7,3.4l-0.2,0.1l-2.8-2l0,0l1.8,2.8c0.2,0.4,0.5,0.4,0.8,0.2l0.1,0.2L71.9,88.1z"/>
	<path id="path38335" class="st3" d="M79.5,82.7L79.5,82.7L79.5,82.7L79.5,82.7L79.5,82.7L79.5,82.7L79.5,82.7l-0.1,0h0l0,0l0,0l0,0
		l0,0l0,0l0,0l0,0l0,0l0,0l0,0l0,0l0,0l0,0l0,0l0,0l0,0l0,0l-2.1,1.8l-0.1-0.2l0.3-0.3L74.1,81l-0.3,0.2L73.7,81l2-1.7
		c0.2-0.2,0.4-0.4,0.4-0.5l1.2,0.9l-0.2,0.2c-0.8-0.4-1.3-0.4-2.1,0.3c-0.1,0.1-0.2,0.2-0.2,0.3l1.2,1.4l0.2-0.2
		c0.4-0.3,0.4-0.6,0.1-1.1l0.2-0.1l1.2,1.4l-0.2,0.1c-0.4-0.4-0.7-0.4-1.1-0.1L76.2,82l1.5,1.7c0.1,0,0.2-0.1,0.3-0.2
		c0.8-0.7,0.8-1.3,0.6-2.2l0.2-0.1L79.5,82.7z"/>
	<path id="path38339" class="st3" d="M77.2,78.3L77.2,78.3L77.2,78.3L77.2,78.3L77.2,78.3L77.2,78.3L77.2,78.3L77.2,78.3L77.2,78.3
		L77.2,78.3L77.2,78.3L77.2,78.3L77.2,78.3L77.2,78.3L77.2,78.3L77.2,78.3L77.2,78.3L77.2,78.3L77.2,78.3L77.2,78.3l-0.1,0.1l0,0
		l0,0l0,0l0,0l0,0l0,0l0,0l0,0l0,0l0,0l0,0l0,0h0v0h0l0,0l0,0l0,0l0,0l0,0l0,0l0,0l0,0l0,0l0,0l0,0l-0.2-0.2l1.2-1.3
		c0.6-0.7,1.5-1.3,2.3-0.5c0.4,0.4,0.4,1.1,0,1.6l2.4,0.7l0.3-0.2l0.2,0.2l-0.8,0.9l-2.6-0.8l-0.3,0.3l1.6,1.5l0.3-0.2l0.2,0.2
		l-1.1,1.2l-0.2-0.2l0.2-0.3L77.2,78.3z M79.3,79L79.3,79L79.3,79L79.3,79L79.3,79L79.3,79L79.3,79L79.3,79L79.3,79L79.3,79L79.3,79
		L79.3,79L79.3,79L79.3,79L79.3,79L79.3,79L79.3,79L79.3,79L79.3,79L79.3,79L79.3,79L79.3,79L79.3,79l0.1-0.1l0,0l0,0l0,0l0,0l0,0
		l0,0l0,0h0v0l0,0l0,0l0,0l0,0l0,0l0,0l0,0l0,0h0v0l0,0l0,0l0,0l0,0c0.6-0.7,0.6-1.2,0.1-1.6c-0.5-0.5-1.1-0.3-1.5,0.1
		c-0.1,0.1-0.2,0.2-0.3,0.4L79.3,79z"/>
	<path id="path38341" class="st3" d="M83.5,78.3L83.5,78.3L83.5,78.3L83.5,78.3L83.5,78.3L83.5,78.3L83.5,78.3L83.5,78.3L83.5,78.3
		L83.5,78.3L83.5,78.3L83.5,78.3L83.5,78.3L83.5,78.3L83.5,78.3L83.5,78.3L83.5,78.3L83.5,78.3L83.5,78.3L83.5,78.3L83.5,78.3
		L83.5,78.3L83.5,78.3L83.5,78.3l-0.1-0.1l0,0v0h0l0,0h0v0h0v0l0,0h0l0,0l0,0v0h0l0,0l0,0l0,0l0,0l0,0l0,0l0,0v0l0.2-0.3l-3.4-2.8
		l-0.3,0.3l-0.2-0.1l1-1.3l0.2,0.1l-0.2,0.3l3.4,2.8l0.3-0.3l0.2,0.1L83.5,78.3z"/>
	<path id="path38343" class="st3" d="M86.1,72.6L86.1,72.6l0.1,0.1l0,0.1l0,0.1l0,0.1l0,0.1l0,0.1l0,0.1l0,0.1l0,0.1l0,0.1l0,0.1
		l0,0.1l0,0.1l0,0.1l0,0.1v0.1l0,0.1V74l0,0.1l0,0.1l0,0.1l0,0.1l0,0.1l0,0.1l0,0.1l0,0.1l0,0.1l0,0.1l0,0.1l0,0.1l0,0.1
		c-0.7,1-2.1,1-3.2,0.2c-1-0.7-1.8-2.1-1.1-3.2c0.1-0.2,0.2-0.3,0.3-0.4c0.1-0.1,0.2-0.2,0.3-0.3c0.1-0.1,0.1-0.3,0.2-0.5l1.5,0.6
		l-0.1,0.3c-0.7-0.1-1.5-0.1-1.9,0.4c-0.5,0.7,0.1,1.6,0.8,2.1c0.9,0.6,2.3,1.1,2.9,0.2c0.3-0.5,0.2-1.1-0.1-1.5L86.1,72.6z"/>
	<path id="path38347" class="st3" d="M87.4,73.2L87.4,73.2L87.4,73.2L87.4,73.2L87.4,73.2L87.4,73.2L87.4,73.2L87.4,73.2L87.4,73.2
		L87.4,73.2L87.4,73.2L87.4,73.2L87.4,73.2L87.4,73.2L87.4,73.2L87.4,73.2L87.4,73.2L87.4,73.2L87.4,73.2L87.4,73.2L87.4,73.2
		L87.4,73.2L87.4,73.2l-0.1-0.1l0,0l0,0h0l0,0h0l0,0h0l0,0l0,0l0,0l0,0h0l0,0l0,0l0,0l0,0l0,0l0,0l0,0l0,0l0,0l0,0l0,0
		c0.1-0.4,0-0.6-0.3-0.9l-2.6-2.8l-0.4,0l0.4-0.9l4.9,0.9l0.3-0.3l0.2,0.1l-0.8,1.5l-0.2-0.1l0.1-0.4l-1.3-0.2l-0.8,1.5l0.5,0.5
		c0.1,0.1,0.2,0.1,0.3,0.2c0.2,0.1,0.4-0.1,0.5-0.3l0.2,0.1L87.4,73.2z M87.1,69.8L87.1,69.8L87.1,69.8L87.1,69.8L87.1,69.8
		L87.1,69.8L87.1,69.8L87.1,69.8l-0.1,0h0l0,0l0,0h0l0,0l0,0l0,0l0,0l-0.1,0l-0.1,0l-0.1,0l-0.1,0l-0.1,0l-0.1,0l-0.2,0l-0.2,0
		l-0.1,0l-0.1,0l-0.1,0l-0.1,0l-0.1,0l-0.1,0l0,0l0,0l0,0l0,0h0l0,0l0,0h0l0,0h0l0,0h0h0l0,0h0l0,0l0,0l1.7,1.8L87.1,69.8z"/>
	<path id="path38349" class="st9" d="M49.6,85.4l1.9,0l1.8-0.1l1.8-0.2l1.8-0.3l1.7-0.4l1.7-0.5l1.7-0.6l1.6-0.7l1.6-0.7l1.6-0.8
		l1.5-0.9l1.5-0.9l1.4-1l1.4-1.1l1.3-1.1l1.3-1.2l1.2-1.3l1.1-1.3l1.1-1.4l1-1.4l0.9-1.5l0.9-1.5L82,65l0.7-1.6l0.6-1.6l0.6-1.7
		l0.5-1.7l0.4-1.7l0.3-1.8l0.2-1.8l0.1-1.8l0-1.9c0-19.9-16.1-36-36-36c-19.9,0-36,16.1-36,36C13.6,69.3,29.7,85.4,49.6,85.4z"/>
</g>
</svg>
