<?xml version="1.0" encoding="utf-8"?>
<!-- Generator: Adobe Illustrator 19.2.1, SVG Export Plug-In . SVG Version: 6.00 Build 0)  -->
<svg version="1.1"
	 id="svg1923" inkscape:version="0.48.1 " sodipodi:docname="AJAX.svg" xmlns:cc="http://creativecommons.org/ns#" xmlns:dc="http://purl.org/dc/elements/1.1/" xmlns:inkscape="http://www.inkscape.org/namespaces/inkscape" xmlns:rdf="http://www.w3.org/1999/02/22-rdf-syntax-ns#" xmlns:sodipodi="http://sodipodi.sourceforge.net/DTD/sodipodi-0.dtd" xmlns:svg="http://www.w3.org/2000/svg"
	 xmlns="http://www.w3.org/2000/svg" xmlns:xlink="http://www.w3.org/1999/xlink" x="0px" y="0px" viewBox="0 0 804 804"
	 style="enable-background:new 0 0 804 804;" xml:space="preserve">
<style type="text/css">
	.st0{fill:#FFFFFF;}
	.st1{fill:#00ABE8;}
	.st2{fill:#034DCD;}
	.st3{fill:#01972E;}
</style>
<circle class="st0" cx="402" cy="402" r="402"/>
<sodipodi:namedview  bordercolor="#666666" borderopacity="1" fit-margin-bottom="0" fit-margin-left="0" fit-margin-right="0" fit-margin-top="0" gridtolerance="10" guidetolerance="10" id="namedview7" inkscape:current-layer="svg1923" inkscape:cx="405.5" inkscape:cy="406.5" inkscape:pageopacity="0" inkscape:pageshadow="2" inkscape:window-height="1004" inkscape:window-maximized="1" inkscape:window-width="1280" inkscape:window-x="-8" inkscape:window-y="-8" inkscape:zoom="0.29032258" objecttolerance="10" pagecolor="#ffffff" showgrid="false">
	</sodipodi:namedview>
<path id="path1994" inkscape:connector-curvature="0" class="st1" d="M398,160c-38.2,0.4-74.2,15.9-101,44.2
	c-17.5,18.6-28.5,39.1-34.5,64.3c-2.8,11.6-3.5,40.1-1.4,52.3c3.3,19.1,11.8,40,22.4,55.1c7.7,10.9,7.3,10.5,17.8,21
	c21,21,47.8,34.3,78.6,39.1c16.3,2.5,38.3,1.4,55-2.9c51.4-13.2,90.3-53,102.2-104.4c6.1-26.6,3.2-58.5-7.8-83.9
	c-7.9-18.2-16.7-30.6-32.6-46.1c-19.9-19.3-44.5-31.7-71.9-36.5C415.8,160.6,406.8,159.9,398,160L398,160z M400.4,224.7
	c4.4,0,8.8,0.5,11.7,1.5c8.1,2.7,16.5,9.7,21.3,17.7c2.9,4.8,5.1,16.2,4.3,21.7c-2.4,16.2-13.8,28.9-28.8,32.1
	c-16.8,3.6-31.6-2-40.1-15.1c-5.6-8.6-7.2-14.5-6.6-23.5c1-15.3,11.7-28.6,26.3-33.1C391.5,225.1,396,224.6,400.4,224.7z
	 M164.4,358.3c-1.6,0-0.3,9.2,3.3,23.6c7.2,28.5,18.2,53.9,34.3,79c9.2,14.4,16.2,22.9,31,37.8c12.3,12.4,21.8,20.4,32.2,27.1
	c3.3,2.1,6,4.1,6,4.4c0,0.3-6.1,0.8-13.6,1.1c-21.8,0.9-44.3,5.1-66.6,12.4c-13.7,4.5-29.7,11.4-29.3,12.6c0.9,3.2,29,19.4,46,26.6
	c19.3,8.1,44.1,14.7,67.8,17.9c12.8,1.8,46.4,1.5,59.2-0.5c15.5-2.4,36-6.9,46.5-10.2c5.1-1.6,9.7-2.7,10.3-2.3
	c0.6,0.4,1,6.3,1,15.3v14.7h8.6h8.6v-15.3c0-12.1,0.3-15.3,1.3-15.3c0.7,0,5.2,1.3,10.1,2.8c9.2,3,36.3,8.7,49.4,10.5
	c12.2,1.7,46.8,1.4,58.9-0.4c27.3-4.1,48.2-10,71.3-20.3c12.1-5.4,27.2-14,35.6-20.2l4.6-3.4l-3.1-1.6
	c-11.1-5.6-34.7-13.8-51.2-17.6c-12.8-3-29.7-5.3-42.8-5.9c-7.5-0.3-13.6-0.8-13.6-1.1c0-0.3,2.4-2.1,5.4-3.8
	c10.4-6.3,26.5-20.1,39.5-34.1c24.1-25.8,44.2-61.6,54.8-97.5c3.4-11.6,8.5-35.5,7.7-36.3c-0.5-0.5-31.6,6-38.2,8.1
	c-26.1,8.2-41,14.2-59.8,24.5c-42.4,23-76.5,55.9-101.7,98c-9.1,15.1-19.7,38-25.2,53.9l-2.3,6.7l-0.5-50.6l-0.5-50.6h-8.6H392
	l-0.2,49.6c-0.1,27.3-0.2,50.1-0.3,50.6c-0.1,0.5-1.8-3.6-3.8-9.1c-8.1-22.2-17.8-41.5-31.1-61.6c-33.8-51.2-81-86.7-142.7-107.6
	C200.4,365.8,169.6,358.3,164.4,358.3L164.4,358.3z M612.7,382.1c1.2,0-0.6,7.3-4.8,18.7c-20.5,56.7-57.7,99.8-107.2,124
	c-17.8,8.7-39.4,16-56.2,19c-4.7,0.8-9.6,1.7-10.7,2c-1.2,0.3-2.1,0.1-2.1-0.4c0-2.9,13-31.6,18.9-41.7
	c34.9-60.1,82.2-97.1,151.6-118.7C607.3,383.5,612.1,382.1,612.7,382.1z M187.6,382.4c0.2-0.2,5.7,1.2,12.2,3.1
	c62.2,18.9,108.8,53.3,143.1,105.6c8.8,13.4,23,41.7,26.2,52.1c0.6,2,0.3,2.2-3,2.1c-2,0-7.7-1.1-12.7-2.2
	c-39.9-9.5-70.6-24.6-97.3-48.2c-27-23.9-46.1-51.4-60.2-86.9C191.4,396.7,187,383,187.6,382.4z"/>
<path id="path1992" inkscape:connector-curvature="0" class="st2" d="M392.5,769.3c0-7-0.3-18-0.6-24.3l-0.6-11.6h14.6
	c16.2,0,20,1,22.5,5.8c1.8,3.6,1.8,9.5-0.2,12.2c-0.9,1.2-3.1,2.9-5,3.7l-3.4,1.4l2.8,1.2c4.2,1.8,4.9,3.1,6.5,12
	c0.8,4.5,1.7,8.9,2.1,9.8c0.6,1.5,0,1.7-4.6,1.7c-5.9,0-5.8,0.2-7-10c-1-8.2-3.2-10.2-11.1-9.8l-6,0.3l0.3,10.3L403,782h-5.3h-5.3
	L392.5,769.3L392.5,769.3z M414.7,753.4c5.9-2.2,7.4-8,2.9-11.5c-2-1.6-3.9-2-9.1-2H402v7.2v7.2h5.2
	C410,754.3,413.4,753.9,414.7,753.4z M343.2,777.5c-1.9-0.4-1.9-0.6-0.8-9.2c0.6-4.8,1.9-15.8,2.9-24.3l1.7-15.5l2.9,0.5
	c1.6,0.3,6.8,0.9,11.5,1.5c10.1,1.2,14.4,3,17.5,7.6c1.9,2.8,2.2,4.2,1.8,8.7c-0.9,9.8-5.7,13.6-17.2,13.4c-3.6-0.1-7.4-0.4-8.3-0.6
	c-1.4-0.4-1.7,0.4-2.3,5.9c-1.2,12.4-1.3,12.7-4.7,12.5C346.6,778,344.3,777.7,343.2,777.5L343.2,777.5z M368.6,751.5
	c3.2-2.5,3.4-9,0.2-11.5c-2-1.6-11.3-3.6-12.3-2.6c-0.8,0.8-2.4,13.4-1.8,14.7C355.5,754.2,365.7,753.7,368.6,751.5z M457.8,776.1
	c-3.6-1.3-8.7-6.1-10.7-9.9c-3.8-7.2-5.2-19.7-3-26.3c2.6-7.9,11.5-13.2,22.1-13.3c8.1,0,11.8,1.5,16.1,6.6
	c6.5,7.6,9.1,24.2,4.9,32.1c-2.5,4.8-5.5,7.6-10.2,9.6C472.4,776.8,461.6,777.5,457.8,776.1L457.8,776.1z M473.6,768.1
	c4.1-2.1,6-6.6,5.9-13.3c-0.1-6.3-2-12.4-5-16.7c-4.3-6-14.9-5.8-19.3,0.3c-4.9,6.9-1.6,25.2,5.4,29.4
	C464.2,770,469.8,770.1,473.6,768.1z M287.5,764.2c-7.6-2.4-14.2-4.6-14.6-5c-0.6-0.6,13-44.3,14.2-45.8c0.2-0.2,2.3,0.2,4.7,0.9
	c5.2,1.5,5.3-0.1-1,19.1c-6.5,20-7.1,21.9-6.4,22.3c0.3,0.2,4.6,1.5,9.5,3c7.5,2.3,8.8,3,8.8,4.7
	C302.5,768.8,302.3,768.8,287.5,764.2L287.5,764.2z M515.7,755c-1.7-4.8-4.6-13.5-6.5-19.3s-3.6-10.7-3.7-10.8
	c-0.1-0.2-3,0.6-6.2,1.7c-3.3,1.1-6.5,2-7.1,2c-1.1,0-3.9-5.4-3.2-6.1c0.2-0.2,4.7-1.7,9.9-3.4c5.2-1.7,13.3-4.3,17.8-5.8
	c4.6-1.5,8.7-2.7,9.2-2.7c0.8,0,3.1,4.1,3.1,5.6c0,0.4-3,1.7-6.7,2.9c-4.7,1.5-6.7,2.7-6.7,3.8c0,0.9,2.4,8.4,5.3,16.8
	c7.5,21.8,7.4,21.4,4.9,22.3C518.7,764.5,519,764.6,515.7,755z M252.4,752.3c-3.6-1.7-4-2.1-3.6-4.7c1.5-9.2,2.4-7.9-8.7-12.9
	l-10-4.6l-3.2,3.5c-1.8,1.9-3.8,3.5-4.4,3.5c-1.7,0-8.5-3.1-8.5-3.9c0-0.5,9.7-9.9,31.4-30.2l6.1-5.7l3.7,1.8c2,1,4.8,2.2,6.1,2.7
	c1.3,0.5,2.2,1.3,1.9,1.7c-0.3,0.4-1.2,8.9-2,18.9c-0.8,9.9-1.7,18.7-1.9,19.5c-0.2,0.8-0.5,3.9-0.6,6.9c-0.1,3.2-0.6,5.5-1.2,5.4
	C256.9,754.2,254.6,753.3,252.4,752.3z M252.1,722.1c0.6-5.1,1.3-10.5,1.6-11.9s0.1-2.6-0.3-2.6c-0.4,0-4.6,3.8-9.3,8.5l-8.5,8.5
	l7.1,3.3c3.9,1.8,7.3,3.4,7.7,3.4C250.7,731.4,251.5,727.2,252.1,722.1L252.1,722.1z M546.7,727.8L535.8,706l13.9-6.6
	c7.6-3.7,14.2-6.8,14.5-6.9c0.3-0.1,1.4,1.1,2.4,2.7c1.5,2.5,1.5,3.1,0.4,3.8c-0.7,0.5-1.6,0.8-1.9,0.8c-0.3,0-4.3,2-8.8,4.4
	l-8.2,4.4l2.5,5.2c1.4,2.9,3,5.2,3.5,5.1c0.5,0,4.9-1.9,9.6-4.2l8.6-4.1l1.7,2.5c0.9,1.4,1.7,2.8,1.7,3.2c0,0.4-4.1,2.7-9.1,5.2
	c-5,2.5-9.1,4.8-9.1,5.3c0,0.4,1.2,3.4,2.6,6.6c1.8,4,3.1,5.6,4.1,5.4c0.8-0.2,5.6-2.4,10.7-4.8l9.3-4.4l1.5,2.9
	c0.8,1.6,1.3,3.1,1.1,3.4c-0.8,0.8-27.5,13.7-28.4,13.7C558,749.5,552.7,739.8,546.7,727.8L546.7,727.8z M596,721.1
	c-5-2.7-11.2-9.3-14.6-15.7c-7-13.1-2.8-25.1,11-31.3c6.6-3,14.8-2.3,18.8,1.5c1.5,1.5,2.8,2.9,2.8,3.2c0,0.3-1.7,1.5-3.7,2.7
	l-3.7,2.1l-3.7-2.1c-4.7-2.6-8-1.9-12.5,2.6c-3.1,3.1-3.3,3.6-2.9,8.3c0.3,3.7,1.4,6.6,4,10.8c7.4,12,16.6,14.7,24,7
	c2.3-2.5,2.6-3.3,2.2-7.2c-0.5-4.1-0.3-4.6,2.6-6.7c4.2-3.2,5-3,6.4,1.6c2.4,7.9-2.2,16.3-12.1,22
	C608.6,723.4,600.9,723.8,596,721.1L596,721.1z M191.4,719.2l-3.9-2.5l11.8-17.5l11.8-17.5l-6.2-3.9c-3.4-2.1-6.2-4.2-6.2-4.6
	c0-0.4,0.8-1.7,1.7-2.9c1.7-2.1,1.8-2.1,4.8-0.6c2.9,1.5,25.5,16.2,29,18.9c1.5,1.2,1.5,1.4-0.5,3.9l-2.1,2.6l-5.7-3.8
	c-3.1-2.1-6-3.8-6.4-3.8c-0.4,0-5.6,7.5-11.7,16.6c-6.1,9.2-11.4,16.9-11.8,17.1C195.6,721.5,193.5,720.6,191.4,719.2L191.4,719.2z
	 M160.9,697.7c-0.6-0.7-2.7-2.6-4.7-4.2c-4.2-3.4-4.2-2.5,1.5-21.2c5.9-19.2,6.6-23.9,3.1-19.4c-4.2,5.4-21.8,24.1-22.6,24.1
	c-0.5,0-2.2-1.1-3.6-2.4l-2.7-2.4l3.6-4.1c9.4-10.7,19.4-21.6,24.2-26.6l5.3-5.5l5.1,4.5l5.1,4.5l-3,10c-5.7,18.7-6.7,22.4-7.3,25.7
	l-0.6,3.3l2.3-2.5c6-6.4,19-20.7,20.6-22.6l1.8-2.1l3.3,2.7l3.3,2.7l-2.8,3.4c-1.5,1.9-6.2,7.2-10.4,11.8
	c-4.2,4.6-10.2,11.3-13.3,14.9s-5.9,6.4-6.2,6.4C162.2,698.9,161.5,698.3,160.9,697.7z M647.3,684.3c-8-9.4-21.2-23.9-22.1-24.3
	c-0.4-0.2-3.3,1.9-6.4,4.6l-5.6,4.9l-2.2-3c-2-2.9-2.1-3.1-0.5-4.3c0.9-0.7,3.3-2.7,5.2-4.4c1.9-1.7,7.9-6.9,13.3-11.6l9.8-8.4
	l2.4,2.7c2.2,2.5,2.3,2.8,0.7,4.1c-0.9,0.8-3.5,3-5.7,4.9l-4,3.4l10.2,11.4c5.6,6.2,11.9,13.2,14,15.5l3.7,4.1l-3.2,3.3
	c-1.7,1.8-3.4,3.3-3.7,3.3S650.1,687.6,647.3,684.3L647.3,684.3z M675.5,660.1c-2.6-2.4-9.8-9.1-16-14.8
	c-6.2-5.7-12.2-11.2-13.4-12.2l-2.2-1.8l3.5-3.6l3.5-3.6l6.5,6.2c3.6,3.4,11.6,10.9,17.7,16.5c6.2,5.7,11.2,10.6,11.2,10.9
	s-1.4,2-3.1,3.6l-3.1,3L675.5,660.1z M115.7,655.1c-2.6-3.1-6.2-7.3-8-9.3c-1.8-2-4.4-4.9-5.7-6.5l-2.4-2.9l14.3-11.9
	c21.5-18,23-19.2,23.7-18.9c1.1,0.5,20.1,22.5,20.1,23.4c0,1.1-3.8,4.3-4.7,3.9c-0.4-0.2-3.8-3.8-7.6-8.2l-6.9-7.9l-4.6,3.6
	c-2.6,2-4.7,4-4.7,4.4c0,0.5,2.9,4.4,6.6,8.7l6.6,7.9l-2.9,2.1l-2.9,2.1l-3-3.7c-1.6-2-4.8-5.6-7-7.9l-4-4.3l-5.3,4.6
	c-2.9,2.5-5.3,4.9-5.3,5.2c0,0.4,2.2,3,4.9,5.9c2.7,2.9,5.9,6.6,7.2,8.3l2.4,3.1l-2.3,1.9c-1.2,1-2.6,1.9-2.9,1.9
	C120.8,660.8,118.4,658.2,115.7,655.1L115.7,655.1z M684.8,636c-11.3-5.3-19.3-15.2-19.3-23.8c0-7.1,7.6-18.1,14.8-21.5
	c1.7-0.8,5.4-1.5,8-1.5c10.4,0,24.6,10.6,28.2,21.2c1.7,4.9,1.7,5.5,0.2,9.8c-3.6,10.6-13.1,18.7-21.8,18.7
	C692.3,638.8,688.5,637.8,684.8,636L684.8,636z M705,625.9c2.9-2.9,3.4-4,3.4-8c0-3.8-0.6-5.3-3.1-8.5c-3.9-4.8-10.7-9.4-16.1-10.8
	c-5.3-1.4-10.4,0.5-13.2,5.1c-3.6,6-1.9,12.5,4.9,18.3c6.2,5.4,10.2,7.2,15.8,7.2C701.1,629.3,702,628.9,705,625.9z M85.6,618.3
	c-1-1.8-1.6-3.5-1.4-3.7c0.2-0.2,8.3-5.2,18.1-11c20.6-12.4,22.2-13.6,15.7-11.5c-1.5,0.5-5.3,1.6-8.5,2.5c-3.1,0.9-9.2,2.7-13.4,4
	c-7.2,2.2-17.3,4.9-18.8,5c-0.9,0-5.5-6.8-5.5-8.1c0-1.1,5.2-6.8,20.3-22.2c5.8-5.9,10.2-11,9.9-11.4c-0.3-0.3-1.3,0-2.1,0.7
	c-0.9,0.7-2.4,1.7-3.3,2.3s-8.6,5.1-16.8,10.1L64.6,584l-2.2-3.3c-1.2-1.8-2.1-3.6-1.9-4.1c0.2-0.5,9.5-6.4,20.7-13.1
	c23.3-14,20.3-13.6,26.5-3.4l2.9,4.8L97,579.2c-7.5,7.8-13.5,14.4-13.3,14.6c0.2,0.2,4.8-1,10.2-2.7c12.3-3.8,25.8-7.6,27.1-7.6
	c1.2,0,9.2,12.4,8.6,13.3c-0.9,1.4-39.6,24.8-41.1,24.8C87.9,621.6,86.6,620.1,85.6,618.3L85.6,618.3z M392.5,603.1
	c0-9.1-0.4-15-1-15.3c-0.5-0.3-5.2,0.7-10.3,2.3c-10.5,3.3-31,7.8-46.5,10.2c-12.8,2-46.3,2.2-59.2,0.5
	c-23.7-3.2-48.5-9.8-67.8-17.9c-17-7.2-45.1-23.4-46-26.6c-0.4-1.2,15.6-8,29.3-12.6c22.3-7.3,44.8-11.5,66.6-12.4
	c7.5-0.3,13.6-0.8,13.6-1.1c0-0.3-2.7-2.3-6-4.4c-10.4-6.7-20-14.7-32.2-27.1c-14.8-14.9-21.8-23.4-31-37.8
	c-16.1-25.1-27.1-50.5-34.3-79c-3.7-14.5-5-23.6-3.3-23.6c5.2,0,36,7.5,49.6,12.1c61.7,20.9,108.9,56.4,142.7,107.6
	c13.3,20.1,23,39.4,31.1,61.6c2,5.5,3.7,9.6,3.8,9.1c0.1-0.5,0.2-23.3,0.3-50.6l0.2-49.6h8.6h8.6l0.5,50.6l0.5,50.6l2.3-6.7
	c13.7-39.9,37.1-77.6,66.4-106.8c38.4-38.2,84.1-62.2,142-74.7c8.8-1.9,16.2-3.2,16.5-3c0.8,0.8-4.3,24.7-7.7,36.3
	c-10.6,35.9-30.7,71.7-54.8,97.5c-13,13.9-29,27.7-39.5,34.1c-3,1.8-5.4,3.5-5.4,3.8c0,0.3,6.1,0.8,13.6,1.2
	c13.1,0.6,30,2.9,42.8,5.9c16.5,3.8,40.2,12,51.2,17.6l3.1,1.6l-4.5,3.4c-8.3,6.2-23.5,14.8-35.6,20.2c-23.1,10.3-44,16.2-71.3,20.3
	c-12.1,1.8-46.8,2-58.9,0.4c-13.1-1.8-40.1-7.5-49.4-10.5c-4.8-1.6-9.3-2.8-10-2.8c-1,0-1.3,3.2-1.3,15.3v15.3H401h-8.6L392.5,603.1
	L392.5,603.1z M444.5,543.8c22.8-4.1,52-15.3,72.8-28c32.5-19.9,60.1-50.2,77.9-85.6c10.2-20.3,20.3-48.2,17.6-48.2
	c-0.6,0-5.4,1.3-10.7,3c-69.4,21.6-116.6,58.6-151.5,118.7c-5.9,10.1-18.9,38.8-18.9,41.7c0,0.5,1,0.6,2.1,0.4
	C434.9,545.5,439.8,544.6,444.5,543.8z M369,543.1c-3.1-10.3-17.3-38.6-26.1-52.1c-34.3-52.3-80.9-86.7-143.1-105.6
	c-6.5-2-12-3.4-12.2-3.1c-0.6,0.6,3.9,14.3,8.3,25.5c14,35.5,33.1,63,60.2,86.9c26.7,23.6,57.3,38.8,97.3,48.2
	c5,1.2,10.7,2.2,12.7,2.2C369.4,545.3,369.6,545.1,369,543.1L369,543.1z M729.4,593.5c-20.1-10-39.1-19.9-39.1-20.3
	c0-0.3,1.4-3.3,3.1-6.7l3.1-6.1l4.8,0.5c10.7,1.1,36.2,1.6,35.3,0.7c-0.5-0.5-7.9-4.5-16.4-8.9l-15.4-8l2-3.6c1.1-2,2.4-3.6,2.8-3.6
	c1.7,0,42.8,21.7,42.8,22.6c0,0.3-1.4,3.1-3,6.2l-3,5.7l-9.2-0.5c-22.3-1.2-31.6-1.5-31.6-0.8c0,0.4,7.3,4.4,16.1,8.9l16.1,8.2
	l-2,3.9l-2,3.9L729.4,593.5L729.4,593.5z M51.4,557.9c-0.7-1.4-1.9-4.3-2.5-6.3l-1.2-3.6l7-7.3c3.8-4,10.2-10.7,14.1-14.7
	c3.9-4.1,6.5-7.4,5.8-7.4s-8.4,2.8-17.1,6.2s-16,6.2-16.3,6.2c-0.6,0-3.8-6.3-3.8-7.5c0-0.4,2-1.5,4.5-2.3
	c2.5-0.8,12.7-4.8,22.7-8.7c10-4,18.4-7.2,18.6-7.2c0.3,0,1.5,3,2.8,6.6c2.2,6.4,2.2,6.6,0.5,8.4c-7.1,7.3-24.7,26.4-25,27.1
	c-0.2,0.5,1.8,0,4.3-1c2.5-1,9.8-3.9,16.1-6.3s11.9-4.6,12.5-4.9c0.9-0.4,4.8,7.2,4,7.8c-0.2,0.1-7.6,3.1-16.5,6.7
	c-8.9,3.5-17.5,7-19.1,7.6C52.6,561.4,53.1,561.3,51.4,557.9L51.4,557.9z M764.7,521.5c-1.3-0.8-10.9-7.5-21.3-14.8
	c-21-14.8-19.4-12.7-16.8-22.5l0.9-3.5l8.8-0.6c4.9-0.4,14.6-1.2,21.7-2c20.5-2.1,21-2.2,21-0.5c0,0.8-0.4,3-1,4.9
	c-0.9,3.4-1.1,3.5-6.2,3.9c-2.9,0.2-5.5,0.7-5.7,0.9c-0.5,0.5-5.2,17.9-5.2,19.4c0,0.5,1.9,2.2,4.3,3.7c4.7,3,4.8,3.2,3.1,8.8
	C767.1,523,767.1,523,764.7,521.5L764.7,521.5z M756.2,495.5c1-3.9,1.8-7.4,1.8-7.9c0-0.8-15.4-0.1-21.8,1c-3.1,0.6-3.1,0.6,7.2,7.5
	c5.7,3.8,10.5,6.8,10.6,6.7C754.2,502.6,755.2,499.3,756.2,495.5L756.2,495.5z M40.1,503.7c-10.7-3.3-17.3-19.7-12.3-30.5
	c3.9-8.7,14.5-14.1,27.6-14.2c10.4,0,14.6,2.4,19.5,11.3c1.7,3.1,2.1,5.4,2.1,12.1c0,7.8-0.1,8.5-2.9,11.9
	c-3.8,4.7-8.9,7.6-16.8,9.4C49.5,505.5,45.9,505.5,40.1,503.7L40.1,503.7z M54.9,494.6c5.9-1.6,8.4-2.9,11.8-6
	c2.7-2.5,3.1-3.4,3.1-7.9c0-4.2-0.5-5.6-2.6-8c-3.4-3.8-9.1-5.1-16.1-3.8c-14.7,2.7-20.7,10.4-15.8,20.1
	C38.2,494.9,45.8,497,54.9,494.6z M753.1,466.2c-10.2-2.2-18.1-9.9-19.2-18.9c-1.8-14,4.9-25.1,15.2-25.1c3.2,0,3.4,0.2,2.9,2.1
	c-0.3,1.2-0.6,3.3-0.6,4.8c0,2.2-0.4,2.6-2.6,2.7c-4.9,0.1-7.9,4-7.9,10.6c0,9.1,6.9,14.2,19.4,14.5c7.9,0.2,12.3-1.8,15.2-6.7
	c1.7-2.9,2.8-12.8,1.5-14.1c-0.3-0.3-3-0.9-5.9-1.2l-5.3-0.5l-0.7,4.4c-0.6,4.3-0.8,4.4-4,4.4h-3.4l0.6-6.4c0.3-3.5,0.9-7.9,1.2-9.6
	l0.6-3.2l7.3,0.6c4,0.3,9.6,1.1,12.4,1.6l5.1,1l-0.3,11.2c-0.3,10.2-0.6,11.7-3.2,16.8c-3.9,7.6-8.9,10.7-18.1,11.3
	C759.6,466.7,755,466.6,753.1,466.2L753.1,466.2z M20.6,450.5c-1.1-6.1-0.6-6.7,7.2-8.4c11.8-2.5,12.5-3.2,11.7-12.6L39,424
	l-7.8,0.5c-4.3,0.3-8.7,0.7-9.8,1c-2.4,0.5-3.2-1.1-3.2-6.3v-3.7l5,0c2.8,0,8-0.4,11.7-0.9s12.5-1.1,19.7-1.5l13-0.7l0.7,12.9
	c0.8,15.4,0,19.3-4.8,22.6c-4.5,3.1-11.5,2.5-15.1-1.4c-1.4-1.5-2.5-3-2.5-3.5c0-0.4-0.4-0.8-1-0.8c-0.5,0-1,0.8-1,1.8
	c0,2.9-2.9,4.6-11,6.7c-4.2,1.1-8.6,2.2-9.7,2.6C21.6,453.8,21.2,453.4,20.6,450.5z M59.6,438.2c1.3-1.5,1.7-3.6,1.7-9V422l-6.9,0.7
	c-3.8,0.4-7.2,0.8-7.5,1c-0.9,0.5,0.9,13,2.2,14.5C51.9,441.6,56.6,441.6,59.6,438.2L59.6,438.2z M385.5,436.5
	c-18.3-2.3-33-6.6-47.7-13.9c-12.8-6.3-21.5-12.3-32.9-22.6c-25.8-23.2-42.8-57.7-44.8-91l-0.6-9.8l64.8-0.2
	c35.6-0.1,70-0.2,76.3-0.2c6.3,0,40.3,0.1,75.6,0.2l64.2,0.2l0,4.5c0,10-3.9,29.4-8.2,41.2c-1.3,3.6-4.5,10.8-7.1,15.9
	c-4.3,8.4-5.6,10.8-7.8,14.1c-2.1,3-13.9,17.6-16,19.6c-19.4,19.1-40.9,31.7-64.2,37.7C421.4,436.3,398.8,438.2,385.5,436.5
	L385.5,436.5z M736.7,405c-0.3-3.3-0.6-10.7-0.6-16.4v-10.4h3.2c3.1,0,3.2,0.2,3.8,4.4c0.3,2.4,0.6,7.4,0.6,11v6.5h6.5h6.5
	l-0.4-10.5l-0.4-10.5h3.9h3.9l0.3,10.3l0.3,10.3l6.9,0.1l6.9,0.1v-11.7v-11.7h3.2c3,0,3.3,0.3,3.8,3.6c0.3,2,0.6,9.5,0.6,16.7
	l0,13.1H773c-7,0-17.9,0.3-24.2,0.6l-11.5,0.6L736.7,405L736.7,405z M34.3,398.5l-16-0.3v-4.7v-4.7l11.2,0c6.2,0,17.3,0.3,24.8,0.6
	l13.6,0.6v4.6v4.6l-8.8-0.2C54.2,398.9,43.1,398.7,34.3,398.5z M57.4,377.7c-4.5-2.4-13.5-7.2-20-10.7c-17-9-17.2-9.1-16.8-10.7
	c0.2-0.8,0.7-3,1-4.9c0.7-3.9-1.2-3.2,27.7-9.9c5.8-1.3,13.4-3.1,17-3.9c3.6-0.8,6.7-1.4,6.8-1.2c0.2,0.2,0.1,2.5-0.2,5.2
	c-0.5,4.8-0.6,4.9-4,5.5c-1.9,0.3-9.3,1.8-16.4,3.3s-14.6,3-16.6,3.4c-3.4,0.6-3.5,0.7-1.9,1.9c1,0.7,9.1,4.9,18,9.4l16.2,8.2
	l-0.3,4.4c-0.2,2.5-0.8,4.3-1.4,4.3C66,382,61.9,380.1,57.4,377.7z M734.8,366.2c-0.3-1-0.8-4.1-1.1-7l-0.6-5.2l11-7.6
	c19.3-13.3,21.6-15,21.2-15.4c-0.3-0.3-18.1,2.4-33.3,5.1c-2.3,0.4-2.6,0.1-3.2-3.4c-0.8-4.8-0.2-5.9,3.3-5.9c1.5,0,5.9-0.6,9.7-1.4
	c8.5-1.7,31.5-5.3,33.5-5.3c1.5,0,2.1,1.5,3.1,8.6l0.6,4.4l-6.5,4.5c-21.2,14.6-26.8,18.7-26.4,19.1c0.2,0.2,2,0.1,4-0.4
	c6.1-1.4,31.7-5,32.1-4.6c0.2,0.2,0.7,2.2,1,4.3l0.6,3.9l-3.7,0.6c-2,0.3-7.8,1.3-12.7,2c-13.3,2-25.8,4.1-29.3,4.8
	C735.9,367.8,735.2,367.6,734.8,366.2L734.8,366.2z M72.6,327.2c-0.3-0.3-7.3-2.5-15.7-4.9c-26.2-7.6-28.1-8.2-28.1-9.6
	c0-0.7,0.7-3.7,1.6-6.6c1.5-4.9,1.9-5.3,5-5.8c1.9-0.3,5.3-0.9,7.7-1.4c2.4-0.4,9.7-1.6,16.2-2.5c6.6-0.9,12.3-2,12.7-2.3
	c0.4-0.4-3.4-1.8-8.6-3.3c-10.7-3-25.4-7.4-25.9-7.8c-0.7-0.6,2.1-8.1,3.1-8.1c1,0,21.2,5.9,38.6,11.2c4.6,1.4,7.8,2.9,7.5,3.5
	c-0.2,0.6-1,3.4-1.7,6.2c-0.9,3.7-1.9,5.3-3.4,5.9c-1.9,0.7-8.4,1.8-30.1,5.1c-4,0.6-7.6,1.4-7.9,1.7c-0.3,0.3,2.1,1.3,5.4,2.2
	s10.1,2.9,15.1,4.3c5,1.5,10.2,2.9,11.6,3.3c2.5,0.6,2.5,0.6,1.3,4.6C76,326.7,74,328.6,72.6,327.2L72.6,327.2z M732.6,313.9
	c-6-1.9-9.5-4.8-12.2-10.3c-4.9-10-4.1-19.2,2-24.6c4.1-3.6,5.6-3.6,6.9,0.2c1.5,4.3,1.3,5.2-1.3,7.8c-3.3,3.3-3.9,6.6-2,11.5
	c2.6,6.9,9,8.8,19.5,5.7c10.3-3,15.4-7.6,15.4-14c0-6.6-3.9-11.2-9.5-11.2c-3.3,0-3.6-0.2-5-4.8l-1.5-4.8h5
	c6.3,0,11.5,3.5,15.5,10.2c2.3,4,2.7,5.6,2.7,12.4c0,7.3-0.2,8-2.9,11.5c-3.5,4.4-11.8,8.7-19.9,10.5
	C738.2,315.4,737.6,315.4,732.6,313.9L732.6,313.9z M87.2,278c-1.2-0.5-2.1-1.4-2.1-2c0-0.6,1.9-5.2,4.3-10.2c2.4-5,4.3-9.2,4.3-9.3
	c0-0.2-2.4-1.4-5.4-2.8c-6.5-3-6.3-3.2-11.2,8.2l-3.6,8.2l-3-1.5c-1.7-0.8-3.1-1.6-3.3-1.7s1.7-4.4,4.1-9.6c2.4-5.1,4.2-9.4,4.1-9.5
	c-0.1-0.1-3.2-1.5-6.7-3.2l-6.5-2.9l-4.8,10.4l-4.8,10.4l-2.7-1c-1.5-0.5-2.9-1.3-3.2-1.7c-0.2-0.4,0.8-3.3,2.2-6.3
	c1.5-3.1,4.3-9.3,6.4-13.7s4-8.5,4.4-8.9c0.6-0.7,41.9,17.5,44.1,19.4c0.4,0.4-1.5,5.6-4.4,11.6c-2.8,6-5.7,12.3-6.4,14
	C91.5,279.1,90.8,279.4,87.2,278L87.2,278z M709.2,272l-2.4-5.2l7-9.4c3.8-5.2,7-9.7,7-10.1c0-0.4-5.5-0.7-12.3-0.7h-12.3l-2-4.8
	l-2-4.8l3.1,0.5c1.7,0.3,9.4,0.9,17.1,1.5l14.1,1l8.7-4.3c4.8-2.4,8.8-4.2,8.8-4.1c0.1,0.1,1.1,2.1,2.3,4.3l2.2,4l-6,3.1
	c-3.3,1.7-7.3,3.7-8.8,4.4c-2,0.9-5.1,4.8-10.8,13.4c-4.3,6.7-8.7,13.1-9.6,14.3l-1.7,2.2L709.2,272L709.2,272z M108.6,206.3
	c-3.2-0.9-6.9-4.1-8.8-7.7c-4.4-8.4,2.8-19.2,12.9-19.3c3.9-0.1,5.3,0.4,8.4,2.9c7,5.6,7.7,13.8,1.9,20.1
	C119.5,206,113.6,207.7,108.6,206.3z M680.1,203.2c-6.5-2.8-9.7-14.1-5.8-20c3.8-5.8,12.6-8,18.8-4.8c3.6,1.9,7.6,8.1,7.6,11.9
	c0,4.2-3.4,10.2-7,12.4C690.3,204.8,684.4,205,680.1,203.2z M629.1,160.3c-4.8-1.8-8.8-4.8-12.4-9.3c-4.8-6.1-5.3-13.5-1.1-18.7
	l1.7-2.1l3.6,3.1c3.6,3.1,3.6,3.1,2.1,6.1c-2,4-1.1,7.2,3,10.8c2.4,2.1,4.2,2.9,6.9,2.9c7.2,0,7.7-4,1.8-13.7
	c-7-11.6-7.8-15.9-3.9-20.6c3.4-4.1,7.1-5.8,12.6-5.8c3.9,0,5.5,0.6,10.1,3.9c3.2,2.3,6.2,5.4,7.3,7.6c2.4,4.8,2.4,11.2,0,14.1
	l-1.9,2.2l-3.5-3.3c-3-2.9-3.3-3.5-2.4-5.3c1.6-2.9,0.3-6.6-3.2-9.3c-3.6-2.7-5.9-2.9-9-0.8c-3.1,2.1-2.3,5.5,3.2,15.1
	c5.4,9.4,6.1,12.8,3.8,16.8C643.9,160.4,636.3,163,629.1,160.3z M161.5,157.6c-3.2-0.9-16.9-14-25.6-24.5l-3.4-4.1l3.3-3.3l3.3-3.3
	l10.3,11.6c13.3,14.9,15,16.2,19.6,16.2c7.6,0,13.5-8.7,10.1-14.9c-0.8-1.5-6.4-8.1-12.5-14.6c-6.1-6.5-11-12.1-10.9-12.4
	c0-0.3,1.6-1.8,3.4-3.3l3.4-2.8l4.4,4.7c18.7,20.1,22.1,24.7,22.1,30.8c0,7-9.4,18-17.3,20.2C168,158.9,165.9,158.8,161.5,157.6z
	 M589.5,129.5c-7.3-5.1-13.5-9.4-13.7-9.5c-0.2-0.1,2-3.4,4.8-7.2c2.8-3.8,9-12.3,13.6-18.9c4.6-6.6,8.8-12.3,9.2-12.8
	c0.9-1,25.6,15.3,26.4,17.4c0.3,0.7-0.4,2.2-1.5,3.2l-2,2l-3.7-2.2c-2-1.2-5.9-3.9-8.6-5.9c-2.7-2-5.3-3.6-5.7-3.6
	c-0.4,0-2.4,2.2-4.3,4.9l-3.6,4.9l8.6,5.8c4.7,3.2,8.5,6.2,8.5,6.8c0,0.5-0.9,2-1.9,3.2l-1.8,2.2l-8.5-5.8c-4.7-3.2-8.7-5.8-9-5.8
	c-0.6,0-8.6,11.7-8.1,11.8c0.1,0.1,1.5,1,3.1,2.1c1.6,1.1,5.5,3.8,8.8,6c3.3,2.2,6,4.6,5.9,5.2c0,0.6-0.8,2.1-1.7,3.3l-1.7,2.2
	L589.5,129.5L589.5,129.5z M190.1,113.1c-7.1-10.7-13-20-13.2-20.6c-0.2-1,4.2-4.3,10-7.6c0.6-0.4,8.9,4,18.4,9.8
	c9.5,5.7,17.2,10,17.2,9.5s-0.8-2.1-1.8-3.5c-1-1.4-5.3-7.9-9.6-14.4c-7.2-11-7.6-11.9-6.1-13.1c2.6-2,6-3.7,6.3-3.2
	c0.4,0.5,11.9,18.2,20.5,31.3l5.8,9l-2.1,1.6c-1.1,0.9-3.7,2.5-5.6,3.7c-3.4,2.1-3.6,2.1-6.7,0.5c-1.7-0.9-4.3-2.4-5.7-3.4
	c-1.4-1-5-3.2-8.1-5c-3.1-1.8-8.5-5-12-7.2c-3.5-2.2-6.6-4-6.9-4s0.8,1.8,2.2,4.1c10.1,15.2,17.3,26.5,17.3,27.1
	c0,0.4-1.6,1.6-3.6,2.7l-3.6,1.9L190.1,113.1L190.1,113.1z M556.8,109.3l-4.1-2.3l2.1-3.5c6.4-10.8,18.1-32.8,17.7-33.4
	c-0.2-0.4-3.1-2-6.3-3.5c-5.3-2.6-5.8-3-5.3-5.2c1-4.2,2.1-4.5,6.9-2c4.9,2.5,30.1,16.3,30.5,16.7c0.3,0.3-2.7,6.3-3.1,6.3
	c-0.2,0-3.2-1.6-6.7-3.5c-3.6-2-6.6-3.1-7.1-2.6c-0.4,0.5-4.9,8.4-10,17.5s-9.5,17-9.9,17.3C561.2,111.4,559.1,110.6,556.8,109.3
	L556.8,109.3z M241.4,96.4c-7.6-14.3-17-32.9-17-33.6c0-1.1,7.9-4.5,8.6-3.7c0.8,0.8,22,42.2,22,42.8c0,0.4-7.2,4.2-8,4.2
	C246.8,106.2,244.3,101.8,241.4,96.4L241.4,96.4z M539.5,99.8c-7.2-2.4-7.6-3-7.6-8.8v-5.5l-9-3.5c-4.9-1.9-9.6-3.5-10.4-3.5
	c-0.8,0-2.4,1.5-3.7,3.3c-2.9,4.3-3.9,4.6-8.7,2.7c-4.9-1.9-5.2-2.1-4-3c0.5-0.4,6.5-6.9,13.3-14.5s14-15.5,16-17.6
	c2-2.1,3.7-4.1,3.7-4.5c0-1.3,3-0.9,8.1,1l4.8,1.8l0.3,26.3c0.1,14.5-0.1,26.3-0.5,26.3C541.2,100.4,540.2,100.1,539.5,99.8
	L539.5,99.8z M533.2,66c0.4-6.3,0.5-11.8,0.2-12c-0.5-0.5-2.7,1.8-11,11.8l-4.9,5.9l2.9,1.5c3.2,1.7,9.5,4,11.1,4.2
	C532.2,77.5,532.8,73.6,533.2,66L533.2,66z M268.1,75.1c-4-10.1-7.3-18.8-7.3-19.4c0-1.4-0.3-1.3-7.8,1.4c-3.7,1.3-7,2.2-7.4,1.9
	c-0.4-0.3-1.2-1.7-1.7-3.1l-0.9-2.7l18.7-7.2l18.7-7.2l1.6,2.9c0.9,1.6,1.4,3.2,1.2,3.5c-0.2,0.3-3.1,1.5-6.4,2.7s-6.3,2.5-6.7,2.8
	c-0.4,0.4,2.5,8.8,6.5,18.7s7.3,18.6,7.4,19.3c0.1,0.7-1.8,2-4.2,2.9l-4.3,1.7C275.4,93.5,268.1,75.1,268.1,75.1z M304.1,79.7
	c-0.3-1.4-2.9-11.8-5.7-22.9s-5.1-20.7-5.1-21.2s0.7-1,1.5-1s7.7-1.6,15.3-3.5c7.6-1.9,14-3.2,14.3-2.9c0.3,0.3,0.6,1.9,0.7,3.6
	l0.1,3.1l-10.3,2.5c-5.6,1.3-10.3,2.9-10.3,3.5c0,2.8,3.1,10.9,4.1,10.9c0.6,0,5.2-1,10.2-2.3c5-1.2,9.1-2.2,9.2-2.1
	c0.1,0.1,0.4,1.7,0.8,3.6l0.6,3.4l-9.9,2.4c-11.1,2.7-10.5,1.8-8.3,11.6c0.7,3.2,1.5,4.5,2.6,4.5c0.9,0,5.9-1.1,11.1-2.4
	c5.2-1.3,9.8-2,10.1-1.7c0.3,0.4,0.9,2,1.2,3.6l0.5,2.9l-10.2,2.2c-5.6,1.2-11.9,2.8-13.9,3.5C307,83.1,304.8,82.8,304.1,79.7z
	 M476.9,78.8c-3.4-0.8-3.5-1.8-1.5-9.5c4.6-17.6,8-32,7.6-32.2c-0.2-0.2-3.3-1-7-1.9c-3.6-0.9-6.8-1.8-7-2c-0.7-0.7,0.9-6.3,1.8-6.3
	c0.5,0,8.8,1.9,18.3,4.3s18.2,4.3,19.2,4.3c1.2,0,1.5,0.5,1.1,1.5c-0.3,0.8-0.8,2.5-1.1,3.7c-0.5,2.2-0.6,2.2-6.4,0.8
	c-3.2-0.7-6.6-1.6-7.4-1.8c-1.2-0.4-2.3,2.8-6,17.9c-2.5,10.1-4.8,19.1-5,20.1C483,79.4,480.9,79.8,476.9,78.8L476.9,78.8z
	 M341.5,49.8c-1.4-13.2-2.4-24.2-2.2-24.4c0.8-0.8,14.2-2.2,21.1-2.3c4.3-0.1,8.1,0.5,10.8,1.6c13.1,5.3,18,26.8,8.6,38.1
	c-4.4,5.3-10.3,7.8-22.7,9.5c-6,0.8-11.4,1.5-12,1.5C344.5,73.7,343.2,65.1,341.5,49.8L341.5,49.8z M367.8,62.2
	c3.9-2,7.5-8.2,7.5-12.9c0-4.9-2.7-12.2-5.5-14.9c-3.5-3.3-9-4.7-15.4-3.9l-5.1,0.6l0.5,3.9c0.3,2.2,1,8.4,1.5,13.9
	c0.5,5.5,1.2,11.5,1.5,13.2l0.5,3.2l5.4-0.7C361.8,64.3,365.8,63.2,367.8,62.2L367.8,62.2z M430.3,71.4c-8.2-2.2-12.1-6.4-12.1-13.2
	l0-3.6l4.5,0.3c4,0.3,4.6,0.6,4.8,2.7c0.6,4.7,3.3,6.9,8.9,7.4c4.2,0.3,5.6,0.1,7.8-1.7c3-2.4,3.4-5.7,1-7.8c-0.9-0.8-5.3-3-9.8-5
	c-4.5-2-9.1-4.5-10.2-5.6c-6.4-6-4.1-16.8,4.5-21.3c6.2-3.2,18.7-1.5,24.3,3.4c3,2.6,5.2,8.3,4,10.3c-0.3,0.4-2.5,0.5-5,0.2
	c-3.6-0.4-4.7-0.9-4.9-2.4c-1.1-6-10.4-8.3-14.9-3.7c-2,2-1.8,5.4,0.3,7.4c1,0.9,5.1,3.1,9.3,4.9s8.9,4.4,10.6,5.7
	c5.5,4.4,5.4,12.6-0.2,18.1C447.6,72.6,439.9,74,430.3,71.4z"/>
<path id="path1990" inkscape:connector-curvature="0" class="st3" d="M392.5,603.1c0-9.1-0.4-15-1-15.3c-0.5-0.3-5.2,0.7-10.3,2.3
	c-10.5,3.3-31,7.8-46.5,10.2c-12.8,2-46.3,2.2-59.2,0.5c-23.7-3.2-48.5-9.8-67.8-17.9c-17-7.2-45.1-23.4-46-26.6
	c-0.4-1.2,15.6-8,29.3-12.6c22.3-7.3,44.8-11.5,66.6-12.4c7.5-0.3,13.6-0.8,13.6-1.1c0-0.3-2.7-2.3-6-4.4
	c-10.4-6.7-20-14.7-32.2-27.1c-14.8-14.9-21.8-23.4-31-37.8c-16.1-25.1-27.1-50.5-34.3-79c-3.7-14.5-5-23.6-3.3-23.6
	c5.2,0,36,7.5,49.6,12.1c61.7,20.9,108.9,56.4,142.7,107.6c13.3,20.1,23,39.4,31.1,61.6c2,5.5,3.7,9.6,3.8,9.1
	c0.1-0.5,0.2-23.3,0.3-50.6l0.2-49.6h8.6h8.6l0.5,50.6l0.5,50.6l2.3-6.7c13.7-39.9,37.1-77.6,66.4-106.8
	c38.4-38.2,84.1-62.2,142-74.7c8.8-1.9,16.2-3.2,16.5-3c0.8,0.8-4.3,24.7-7.7,36.3c-10.6,35.9-30.7,71.7-54.8,97.5
	c-13,13.9-29,27.7-39.5,34.1c-3,1.8-5.4,3.5-5.4,3.8c0,0.3,6.1,0.8,13.6,1.2c13.1,0.6,30,2.9,42.8,5.9c16.5,3.8,40.2,12,51.2,17.6
	l3.1,1.6l-4.5,3.4c-8.3,6.2-23.5,14.8-35.6,20.2c-23.1,10.3-44,16.2-71.3,20.3c-12.1,1.8-46.8,2-58.9,0.4
	c-13.1-1.8-40.1-7.5-49.4-10.5c-4.8-1.6-9.3-2.8-10-2.8c-1,0-1.3,3.2-1.3,15.3v15.3H401h-8.6L392.5,603.1L392.5,603.1z M444.5,543.8
	c22.8-4.1,52-15.3,72.8-28c32.5-19.9,60.1-50.2,77.9-85.6c10.2-20.3,20.3-48.2,17.6-48.2c-0.6,0-5.4,1.3-10.7,3
	c-69.4,21.6-116.6,58.6-151.5,118.7c-5.9,10.1-18.9,38.8-18.9,41.7c0,0.5,1,0.6,2.1,0.4C434.9,545.5,439.8,544.6,444.5,543.8z
	 M369,543.1c-3.1-10.3-17.3-38.6-26.1-52.1c-34.3-52.3-80.9-86.7-143.1-105.6c-6.5-2-12-3.4-12.2-3.1c-0.6,0.6,3.9,14.3,8.3,25.5
	c14,35.5,33.1,63,60.2,86.9c26.7,23.6,57.3,38.8,97.3,48.2c5,1.2,10.7,2.2,12.7,2.2C369.4,545.3,369.6,545.1,369,543.1L369,543.1z
	 M290.8,344.9c-4.2-0.8-7.3-2.5-14.5-8.2c-4.6-3.7-10.8-11.4-10.8-13.6c0-1.6-2.6-6.2-3.9-7c-0.7-0.5-1.3-3.8-1.6-8.8l-0.4-8.1
	l64.8-0.2c35.6-0.1,69.9-0.2,76.2-0.2c6.3,0,40.3,0.1,75.6,0.2l64.2,0.2v3.6c0,6.5-1.2,15.5-1.9,14.3c-0.5-0.8-1-0.5-1.8,0.9
	c-0.6,1.1-0.9,2-0.6,2c0.5,0-2.3,5.5-4.8,9.4c-1.5,2.4-6.5,7-11.1,10.2c-8.1,5.7-20,7.7-27.3,4.7c-1.9-0.8-4.4-1.4-5.5-1.4
	c-2.1,0-15.5-12.1-14.5-13c0.3-0.3-0.3-1.2-1.2-2.2c-0.9-0.9-2-2.3-2.2-3c-0.4-1-0.9-0.9-2,0.6c-0.8,1-1.8,2.3-2.2,2.9
	c-0.4,0.5-1.8,2.4-3,4.1c-1.2,1.7-2.8,3.1-3.6,3.1s-1.4,0.6-1.4,1.3c0,1.4-6,4.9-12.4,7.1c-2.6,0.9-7.4,1.5-11.9,1.5
	c-6.6,0-8.4-0.4-13.4-2.9c-6.1-3.1-14.2-10.7-18.3-17c-1.1-1.7-1.2-1.7-2.9,0.3c-0.9,1.1-3,3.9-4.5,6.1c-1.6,2.3-5.8,5.9-9.7,8.5
	c-6.3,4.1-7.6,4.6-14.5,5.2c-6.4,0.6-8.6,0.3-14.2-1.5c-3.6-1.2-7.9-3.1-9.5-4.2c-4.5-3.3-10-8.8-10-10c0-0.6-0.6-1.3-1.4-1.6
	c-0.8-0.3-1.7-1.4-2-2.4c-0.8-2.6-1.5-2.3-5.2,2.7c-5.4,7.4-9,10.6-15.1,13.6C306.2,345,297.5,346.2,290.8,344.9L290.8,344.9z"/>
</svg>
