<?xml version="1.0" encoding="utf-8"?>
<!-- Generator: Adobe Illustrator 13.0.1, SVG Export Plug-In . SVG Version: 6.00 Build 14948)  -->
<!DOCTYPE svg PUBLIC "-//W3C//DTD SVG 1.1//EN" "http://www.w3.org/Graphics/SVG/1.1/DTD/svg11.dtd">
<svg version="1.1" id="Layer_1" xmlns="http://www.w3.org/2000/svg" xmlns:xlink="http://www.w3.org/1999/xlink" x="0px" y="0px"
	 viewBox="0 0 301.459 301.459" enable-background="new 0 0 301.459 301.459"
	 xml:space="preserve">
<circle fill="#FFFFFF" stroke="#000000" stroke-width="5" cx="150.729" cy="150.73" r="148.23"/>
<circle fill="none" stroke="#000000" stroke-width="2" cx="150.729" cy="150.729" r="140.407"/>
<line fill="none" stroke="#000000" stroke-width="2" x1="37.629" y1="182.729" x2="263.629" y2="182.729"/>
<line fill="none" stroke="#000000" stroke-width="2" x1="34.129" y1="158.729" x2="268.129" y2="158.729"/>
<line fill="none" stroke="#000000" stroke-width="2" x1="34.129" y1="137.729" x2="267.129" y2="137.729"/>
<line fill="none" stroke="#000000" stroke-width="2" x1="37.629" y1="119.729" x2="263.129" y2="119.729"/>
<line fill="none" stroke="#000000" stroke-width="2" x1="43.629" y1="104.229" x2="257.629" y2="104.229"/>
<line fill="none" stroke="#000000" stroke-width="2" x1="52.129" y1="88.729" x2="250.129" y2="88.729"/>
<line fill="none" stroke="#000000" stroke-width="2" x1="60.129" y1="76.229" x2="240.629" y2="76.229"/>
<line fill="none" stroke="#000000" stroke-width="2" x1="71.629" y1="64.229" x2="229.629" y2="64.229"/>
<line fill="none" stroke="#000000" stroke-width="2" x1="84.129" y1="53.729" x2="217.129" y2="53.729"/>
<line fill="none" stroke="#000000" stroke-width="2" x1="98.629" y1="46.729" x2="203.129" y2="46.729"/>
<line fill="none" stroke="#000000" stroke-width="2" x1="113.129" y1="40.229" x2="189.629" y2="40.229"/>
<line fill="none" stroke="#000000" stroke-width="2" x1="129.129" y1="35.729" x2="174.629" y2="35.729"/>
<polyline fill="#0D0D0D" points="54.129,217.229 54.129,207.229 59.629,207.229 132.629,115.229 186.629,210.229 245.129,207.729 
	245.129,217.729 54.129,217.229 "/>
<polyline fill="#FFFFFF" points="78.129,208.229 132.379,117.479 182.129,210.229 "/>
<path fill="#808080" d="M122.129,205.729l1.5-5.5l2-4l2-6l2.5-5c0,0,0-6,1.5-6s1-5.5,1-5.5l-3-5.5v-4.5l2.5-7l3.5-6.5l2.5-7.5
	l-0.5-5c0,0-2-5-3.5-6s-3.5-6-3.5-6l1.75-8.25l49.75,92.75l-58,0.4L122.129,205.729"/>
<polyline fill="#404040" points="140.629,210.329 138.129,206.229 137.629,200.729 140.629,196.229 145.629,189.729 
	146.629,186.229 143.129,181.729 139.629,177.229 137.629,170.729 140.629,164.229 145.129,158.729 148.129,155.229 
	151.129,152.729 182.629,210.329 140.629,210.329 "/>
<line fill="none" stroke="#000000" stroke-width="2" x1="94.129" y1="179.229" x2="165.629" y2="179.229"/>
<line fill="none" stroke="#000000" stroke-width="2" x1="100.129" y1="166.729" x2="159.629" y2="166.729"/>
<line fill="none" stroke="#000000" stroke-width="2" x1="108.129" y1="153.729" x2="152.129" y2="153.729"/>
<line fill="none" stroke="#000000" stroke-width="2" x1="114.129" y1="143.729" x2="147.129" y2="143.729"/>
<line fill="none" stroke="#000000" stroke-width="2" x1="118.129" y1="135.729" x2="142.629" y2="135.729"/>
<line fill="none" stroke="#000000" stroke-width="2" x1="123.529" y1="129.729" x2="139.129" y2="129.729"/>
<line fill="none" stroke="#000000" stroke-width="2" x1="127.53" y1="123.329" x2="136.129" y2="123.229"/>
<line fill="none" stroke="#000000" stroke-width="2" x1="132.129" y1="123.229" x2="132.129" y2="129.729"/>
<line fill="none" stroke="#000000" stroke-width="2" x1="132.129" y1="135.729" x2="132.129" y2="143.729"/>
<line fill="none" stroke="#000000" stroke-width="2" x1="121.129" y1="144.229" x2="121.129" y2="153.229"/>
<line fill="none" stroke="#000000" stroke-width="2" x1="118.629" y1="166.729" x2="118.629" y2="179.229"/>
<line fill="none" stroke="#000000" stroke-width="2" x1="104.129" y1="179.229" x2="104.129" y2="193.229"/>
<line fill="none" stroke="#000000" stroke-width="2" x1="91.129" y1="193.729" x2="91.129" y2="209.729"/>
<line fill="none" stroke="#000000" stroke-width="2" x1="116.129" y1="193.229" x2="116.129" y2="209.729"/>
<line fill="none" stroke="#000000" stroke-width="2" x1="144.129" y1="143.729" x2="144.129" y2="153.229"/>
<line fill="none" stroke="#000000" stroke-width="2" x1="132.129" y1="153.729" x2="132.129" y2="166.729"/>
<line fill="none" stroke="#000000" stroke-width="2" x1="144.629" y1="166.729" x2="144.629" y2="179.354"/>
<line fill="none" stroke="#000000" stroke-width="2" x1="131.379" y1="179.229" x2="131.629" y2="193.229"/>
<line fill="none" stroke="#000000" stroke-width="2" x1="145.129" y1="193.229" x2="145.129" y2="209.729"/>
<line fill="none" stroke="#000000" stroke-width="2" x1="84.129" y1="193.229" x2="171.629" y2="193.229"/>
<polyline points="143.934,32.257 146.3,24.973 140.105,20.472 147.763,20.472 150.13,13.189 152.496,20.472 160.154,20.472 
	153.959,24.974 156.325,32.257 150.129,27.756 143.934,32.257 "/>
<polyline points="103.825,41.725 103.558,34.072 96.196,31.961 103.393,29.341 103.126,21.688 107.841,27.723 115.037,25.104 
	110.754,31.453 115.469,37.488 108.107,35.377 103.825,41.725 "/>
<polyline points="69.373,64.34 66.504,57.24 58.864,57.774 64.731,52.851 61.863,45.751 68.357,49.809 74.224,44.887 72.371,52.317 
	78.865,56.376 71.226,56.91 69.373,64.34 "/>
<polyline points="44.733,97.375 39.609,91.683 32.612,94.798 36.442,88.166 31.318,82.474 38.809,84.067 42.638,77.435 
	43.438,85.051 50.929,86.644 43.933,89.759 44.733,97.375 "/>
<polyline points="32.877,136.844 26.115,133.249 20.606,138.568 21.936,131.026 15.175,127.43 22.759,126.365 24.089,118.823 
	27.446,125.706 35.03,124.642 29.52,129.961 32.877,136.844 "/>
<polyline points="35.235,177.988 27.651,176.922 24.293,183.805 22.964,176.263 15.381,175.197 22.143,171.602 20.813,164.06 
	26.322,169.38 33.084,165.785 29.727,172.668 35.235,177.988 "/>
<polyline points="51.522,215.845 44.031,217.437 43.23,225.053 39.401,218.42 31.91,220.012 37.035,214.321 33.207,207.689 
	40.203,210.804 45.328,205.113 44.527,212.729 51.522,215.845 "/>
<polyline points="79.775,245.848 73.28,249.906 75.132,257.337 69.265,252.414 62.771,256.471 65.64,249.371 59.774,244.448 
	67.414,244.982 70.284,237.882 72.136,245.313 79.775,245.848 "/>
<polyline points="116.585,264.379 111.87,270.414 116.152,276.763 108.955,274.143 104.24,280.177 104.508,272.524 97.312,269.904 
	104.673,267.794 104.942,260.14 109.224,266.489 116.585,264.379 "/>
<polyline points="157.514,269.204 155.146,276.487 161.342,280.989 153.683,280.989 151.316,288.271 148.95,280.988 
	141.292,280.987 147.488,276.486 145.123,269.202 151.318,273.704 157.514,269.204 "/>
<polyline points="197.624,259.739 197.891,267.393 205.252,269.505 198.055,272.123 198.321,279.777 193.606,273.741 186.41,276.36 
	190.693,270.011 185.979,263.975 193.341,266.087 197.624,259.739 "/>
<polyline points="232.079,237.127 234.947,244.228 242.586,243.695 236.719,248.617 239.587,255.718 233.093,251.659 
	227.226,256.581 229.079,249.15 222.585,245.09 230.225,244.557 232.079,237.127 "/>
<polyline points="184.863,37.077 189.577,31.042 185.295,24.693 192.492,27.312 197.206,21.278 196.938,28.932 204.135,31.551 
	196.773,33.662 196.506,41.315 192.224,34.966 184.863,37.077 "/>
<g>
	<path d="M79.35,226.802c-0.171-0.737-0.588-1.253-1.252-1.546c-0.371-0.16-0.784-0.241-1.238-0.241
		c-0.869,0-1.583,0.328-2.142,0.983c-0.56,0.655-0.839,1.641-0.839,2.957c0,1.325,0.303,2.264,0.908,2.814s1.294,0.826,2.065,0.826
		c0.757,0,1.377-0.218,1.86-0.652c0.483-0.434,0.781-1.003,0.894-1.707h-2.498v-1.801h4.497v5.793h-1.494l-0.227-1.348
		c-0.435,0.511-0.825,0.87-1.172,1.079c-0.596,0.364-1.328,0.547-2.197,0.547c-1.431,0-2.603-0.495-3.516-1.486
		c-0.952-0.995-1.428-2.356-1.428-4.084c0-1.747,0.481-3.147,1.443-4.201s2.234-1.581,3.816-1.581c1.372,0,2.474,0.348,3.307,1.044
		c0.832,0.695,1.31,1.563,1.432,2.604H79.35z"/>
	<path d="M91.742,225.344h-5.713v2.293h5.244v1.875h-5.244v2.775h5.977v1.941h-8.181v-10.796h7.917V225.344z"/>
	<path d="M93.727,223.433h2.365l4.286,7.527v-7.527h2.102v10.796h-2.255l-4.395-7.66v7.66h-2.102V223.433z"/>
	<path d="M112.58,225.344h-5.713v2.293h5.244v1.875h-5.244v2.775h5.977v1.941h-8.181v-10.796h7.917V225.344z"/>
	<path d="M121.52,223.711c0.397,0.171,0.734,0.423,1.011,0.754c0.229,0.274,0.409,0.577,0.542,0.908
		c0.133,0.333,0.2,0.711,0.2,1.136c0,0.513-0.129,1.017-0.388,1.513c-0.259,0.495-0.686,0.846-1.282,1.051
		c0.498,0.2,0.851,0.484,1.059,0.854c0.207,0.368,0.311,0.932,0.311,1.688v0.726c0,0.493,0.02,0.827,0.06,1.003
		c0.06,0.279,0.198,0.484,0.417,0.615v0.271h-2.49c-0.068-0.239-0.117-0.432-0.146-0.578c-0.059-0.303-0.09-0.613-0.095-0.931
		l-0.015-1.003c-0.009-0.689-0.128-1.147-0.357-1.377s-0.657-0.345-1.285-0.345h-2.203v4.233h-2.205v-10.796h5.164
		C120.554,223.448,121.122,223.541,121.52,223.711z M116.857,225.308v2.9h2.428c0.482,0,0.844-0.059,1.085-0.176
		c0.427-0.205,0.64-0.61,0.64-1.216c0-0.654-0.207-1.094-0.619-1.318c-0.232-0.127-0.58-0.19-1.043-0.19H116.857z"/>
	<path d="M128.521,223.433h2.553l3.819,10.796h-2.446l-0.712-2.219h-3.976l-0.732,2.219h-2.359L128.521,223.433z M128.372,230.149
		h2.765l-1.364-4.248L128.372,230.149z"/>
	<path d="M136.266,223.433h2.256v8.854h5.39v1.941h-7.646V223.433z"/>
	<path d="M151.222,230.897c0.069,0.493,0.207,0.861,0.411,1.105c0.374,0.444,1.015,0.666,1.922,0.666
		c0.544,0,0.984-0.059,1.324-0.176c0.643-0.224,0.965-0.642,0.965-1.252c0-0.356-0.158-0.632-0.473-0.828
		c-0.315-0.189-0.815-0.358-1.499-0.505l-1.169-0.257c-1.148-0.253-1.938-0.529-2.367-0.827c-0.729-0.498-1.092-1.276-1.092-2.337
		c0-0.967,0.355-1.77,1.067-2.409s1.758-0.96,3.137-0.96c1.151,0,2.134,0.302,2.947,0.905c0.812,0.603,1.239,1.479,1.278,2.626
		h-2.168c-0.04-0.649-0.33-1.111-0.87-1.385c-0.361-0.181-0.809-0.271-1.345-0.271c-0.596,0-1.071,0.117-1.427,0.352
		s-0.532,0.562-0.532,0.982c0,0.386,0.175,0.674,0.525,0.863c0.225,0.128,0.703,0.276,1.434,0.447l1.895,0.447
		c0.831,0.195,1.453,0.456,1.868,0.783c0.643,0.508,0.965,1.243,0.965,2.205c0,0.986-0.381,1.805-1.144,2.457
		c-0.763,0.651-1.84,0.978-3.231,0.978c-1.422,0-2.539-0.321-3.354-0.963c-0.814-0.643-1.222-1.524-1.222-2.647H151.222z"/>
	<path d="M167.585,225.344h-5.713v2.293h5.244v1.875h-5.244v2.775h5.977v1.941h-8.181v-10.796h7.917V225.344z"/>
	<path d="M176.523,223.711c0.398,0.171,0.735,0.423,1.011,0.754c0.229,0.274,0.41,0.577,0.543,0.908
		c0.134,0.333,0.2,0.711,0.2,1.136c0,0.513-0.13,1.017-0.389,1.513c-0.259,0.495-0.686,0.846-1.281,1.051
		c0.498,0.2,0.851,0.484,1.059,0.854c0.207,0.368,0.311,0.932,0.311,1.688v0.726c0,0.493,0.021,0.827,0.06,1.003
		c0.06,0.279,0.199,0.484,0.417,0.615v0.271h-2.49c-0.068-0.239-0.117-0.432-0.146-0.578c-0.059-0.303-0.091-0.613-0.096-0.931
		l-0.014-1.003c-0.01-0.689-0.129-1.147-0.357-1.377s-0.657-0.345-1.285-0.345h-2.203v4.233h-2.205v-10.796h5.164
		C175.559,223.448,176.126,223.541,176.523,223.711z M171.861,225.308v2.9h2.428c0.482,0,0.844-0.059,1.085-0.176
		c0.427-0.205,0.64-0.61,0.64-1.216c0-0.654-0.206-1.094-0.618-1.318c-0.232-0.127-0.58-0.19-1.044-0.19H171.861z"/>
	<path d="M186.756,223.433h2.344l-3.681,10.796h-2.132l-3.65-10.796h2.409l2.344,8.196L186.756,223.433z"/>
	<path d="M192.502,234.229h-2.242v-10.796h2.242V234.229z"/>
	<path d="M195.643,224.561c0.869-0.889,1.976-1.333,3.318-1.333c1.797,0,3.111,0.596,3.942,1.787
		c0.459,0.669,0.705,1.341,0.739,2.015h-2.256c-0.144-0.518-0.328-0.908-0.553-1.172c-0.402-0.469-0.998-0.703-1.787-0.703
		c-0.804,0-1.438,0.33-1.901,0.992c-0.464,0.661-0.696,1.598-0.696,2.809s0.245,2.118,0.734,2.721
		c0.49,0.604,1.112,0.904,1.867,0.904c0.773,0,1.363-0.258,1.77-0.775c0.225-0.279,0.41-0.696,0.559-1.253h2.241
		c-0.193,1.177-0.688,2.134-1.481,2.871c-0.795,0.737-1.812,1.106-3.055,1.106c-1.536,0-2.743-0.498-3.623-1.494
		c-0.879-1.001-1.318-2.373-1.318-4.117C194.143,227.035,194.643,225.582,195.643,224.561z"/>
	<path d="M213.427,225.344h-5.713v2.293h5.244v1.875h-5.244v2.775h5.977v1.941h-8.181v-10.796h7.917V225.344z"/>
	<path d="M217.074,230.897c0.069,0.493,0.207,0.861,0.411,1.105c0.374,0.444,1.015,0.666,1.922,0.666
		c0.544,0,0.984-0.059,1.324-0.176c0.643-0.224,0.965-0.642,0.965-1.252c0-0.356-0.158-0.632-0.473-0.828
		c-0.315-0.189-0.815-0.358-1.499-0.505l-1.169-0.257c-1.148-0.253-1.938-0.529-2.367-0.827c-0.729-0.498-1.092-1.276-1.092-2.337
		c0-0.967,0.355-1.77,1.067-2.409s1.758-0.96,3.137-0.96c1.151,0,2.134,0.302,2.947,0.905c0.812,0.603,1.239,1.479,1.278,2.626
		h-2.168c-0.04-0.649-0.33-1.111-0.87-1.385c-0.361-0.181-0.809-0.271-1.345-0.271c-0.596,0-1.071,0.117-1.427,0.352
		s-0.532,0.562-0.532,0.982c0,0.386,0.175,0.674,0.525,0.863c0.225,0.128,0.703,0.276,1.434,0.447l1.895,0.447
		c0.831,0.195,1.453,0.456,1.868,0.783c0.643,0.508,0.965,1.243,0.965,2.205c0,0.986-0.381,1.805-1.144,2.457
		c-0.763,0.651-1.84,0.978-3.231,0.978c-1.422,0-2.539-0.321-3.354-0.963c-0.814-0.643-1.222-1.524-1.222-2.647H217.074z"/>
</g>
<g>
	<path d="M86.863,238.433h2.553l3.819,10.796h-2.446l-0.712-2.219h-3.976l-0.732,2.219H83.01L86.863,238.433z M86.715,245.149h2.765
		l-1.364-4.248L86.715,245.149z"/>
	<path d="M100.935,238.667c0.757,0.249,1.371,0.706,1.84,1.37c0.376,0.537,0.633,1.118,0.77,1.742
		c0.137,0.626,0.205,1.222,0.205,1.787c0,1.436-0.289,2.652-0.865,3.648c-0.782,1.343-1.989,2.014-3.621,2.014h-4.655v-10.796h4.655
		C99.933,238.443,100.49,238.521,100.935,238.667z M96.799,240.308v7.046h2.083c1.066,0,1.81-0.524,2.23-1.574
		c0.229-0.576,0.345-1.263,0.345-2.059c0-1.099-0.172-1.942-0.517-2.53c-0.345-0.589-1.031-0.883-2.058-0.883H96.799z"/>
	<path d="M112.603,238.433h3.246v10.796h-2.102v-7.303c0-0.209,0.002-0.504,0.007-0.882c0.005-0.379,0.007-0.671,0.007-0.876
		l-2.046,9.061h-2.192l-2.031-9.061c0,0.205,0.002,0.497,0.007,0.876c0.005,0.378,0.007,0.673,0.007,0.882v7.303h-2.102v-10.796
		h3.283l1.965,8.489L112.603,238.433z"/>
	<path d="M119.995,249.229h-2.241v-10.796h2.241V249.229z"/>
	<path d="M122.067,238.433h2.365l4.286,7.527v-7.527h2.102v10.796h-2.255l-4.395-7.66v7.66h-2.102V238.433z"/>
	<path d="M134.995,249.229h-2.241v-10.796h2.241V249.229z"/>
	<path d="M138.73,245.897c0.07,0.493,0.207,0.861,0.411,1.105c0.374,0.444,1.015,0.666,1.922,0.666c0.543,0,0.985-0.059,1.324-0.176
		c0.643-0.224,0.965-0.642,0.965-1.252c0-0.356-0.158-0.632-0.473-0.828c-0.315-0.189-0.814-0.358-1.499-0.505l-1.168-0.257
		c-1.149-0.253-1.938-0.529-2.368-0.827c-0.728-0.498-1.091-1.276-1.091-2.337c0-0.967,0.356-1.77,1.067-2.409
		c0.712-0.64,1.757-0.96,3.137-0.96c1.151,0,2.134,0.302,2.948,0.905c0.812,0.603,1.238,1.479,1.277,2.626h-2.167
		c-0.04-0.649-0.331-1.111-0.871-1.385c-0.36-0.181-0.808-0.271-1.344-0.271c-0.596,0-1.071,0.117-1.427,0.352
		s-0.533,0.562-0.533,0.982c0,0.386,0.175,0.674,0.525,0.863c0.226,0.128,0.704,0.276,1.435,0.447l1.895,0.447
		c0.831,0.195,1.452,0.456,1.868,0.783c0.643,0.508,0.965,1.243,0.965,2.205c0,0.986-0.381,1.805-1.145,2.457
		c-0.762,0.651-1.839,0.978-3.231,0.978c-1.421,0-2.54-0.321-3.354-0.963c-0.814-0.643-1.221-1.524-1.221-2.647H138.73z"/>
	<path d="M154.953,238.433v1.911h-3.229v8.885h-2.271v-8.885h-3.244v-1.911H154.953z"/>
	<path d="M163.189,238.711c0.398,0.171,0.735,0.423,1.011,0.754c0.229,0.274,0.41,0.577,0.543,0.908
		c0.134,0.333,0.2,0.711,0.2,1.136c0,0.513-0.13,1.017-0.389,1.513c-0.259,0.495-0.686,0.846-1.281,1.051
		c0.498,0.2,0.851,0.484,1.059,0.854c0.207,0.368,0.311,0.932,0.311,1.688v0.726c0,0.493,0.021,0.827,0.06,1.003
		c0.06,0.279,0.199,0.484,0.417,0.615v0.271h-2.49c-0.068-0.239-0.117-0.432-0.146-0.578c-0.059-0.303-0.091-0.613-0.096-0.931
		l-0.014-1.003c-0.01-0.689-0.129-1.147-0.357-1.377s-0.657-0.345-1.285-0.345h-2.203v4.233h-2.205v-10.796h5.164
		C162.225,238.448,162.792,238.541,163.189,238.711z M158.527,240.308v2.9h2.428c0.482,0,0.844-0.059,1.085-0.176
		c0.427-0.205,0.64-0.61,0.64-1.216c0-0.654-0.206-1.094-0.618-1.318c-0.232-0.127-0.58-0.19-1.044-0.19H158.527z"/>
	<path d="M170.19,238.433h2.553l3.819,10.796h-2.446l-0.712-2.219h-3.976l-0.732,2.219h-2.359L170.19,238.433z M170.042,245.149
		h2.765l-1.363-4.248L170.042,245.149z"/>
	<path d="M185.78,238.433v1.911h-3.229v8.885h-2.271v-8.885h-3.244v-1.911H185.78z"/>
	<path d="M189.158,249.229h-2.242v-10.796h2.242V249.229z"/>
	<path d="M199.579,248.27c-0.815,0.84-1.994,1.26-3.537,1.26s-2.723-0.42-3.537-1.26c-1.095-1.03-1.641-2.515-1.641-4.453
		c0-1.979,0.546-3.462,1.641-4.453c0.814-0.84,1.994-1.26,3.537-1.26s2.722,0.42,3.537,1.26c1.089,0.991,1.634,2.475,1.634,4.453
		C201.213,245.755,200.668,247.24,199.579,248.27z M198.17,246.629c0.524-0.66,0.787-1.598,0.787-2.812
		c0-1.211-0.263-2.147-0.787-2.81c-0.525-0.661-1.234-0.992-2.128-0.992s-1.606,0.329-2.139,0.989
		c-0.532,0.658-0.799,1.596-0.799,2.812c0,1.215,0.267,2.152,0.799,2.812c0.532,0.658,1.245,0.988,2.139,0.988
		S197.645,247.288,198.17,246.629z"/>
	<path d="M202.896,238.433h2.365l4.285,7.527v-7.527h2.103v10.796h-2.256l-4.395-7.66v7.66h-2.103V238.433z"/>
</g>
<line fill="none" stroke="#FFFFFF" stroke-width="3" x1="56.129" y1="212.729" x2="243.129" y2="212.729"/>
<line fill="none" stroke="#000000" stroke-width="2" x1="76.129" y1="209.529" x2="182.629" y2="209.929"/>
<path fill="#1A1A1A" d="M136.129,84.729l-2.5-2.5l-1-4l0.5-4l4.5-3h2.5l2-3l3-3l4-1l4.5,1l4,1l2.5-1.5l3.5-3.5l4-2l6,1l6.5,1l5,2
	l4-4.5l4-3.5h4.5l6,2l6,2.5l7.5,4l7,4.5l7,8.5l9,9.5l5,9l0.5,4l-3.5-2c0,0-4-3-3-1.5s1,5,1,5l3.5,4.5l4.5,6.5c0,0,2.5,3.5,3.5,5.5
	s5,10,5,10s0.5,2.5,0.5,4s0.5,5.5,0.5,5.5l-2-1.5l-2-1l0.5,4l1,4.5l-0.5,4l-2-3.5l-1,2.5l1.5,5.5l1,4.5v5.5l-1,4.5l-0.5-3l-2.5-4
	l-1-4l-2-2v4.5l1.5,4v3.5l-2-2.5l-1.5-2.5l-0.5,4l-0.5,4.5l1,4.5l4.5-0.5l0.5,6.5v5l-1.5,3l-3,2.5l-2.5,1l-3.5,3l1.5,3l2.5,1l-2,2
	l-0.25,11.15h-75.5l0.25-13.15h-2.5l0.5-3.5l4-2l-8.5-5.5l-1.5-5.5l-3-3l-2-5l0.5-5.5l5-2l8.5-1l-1.5-2.5l-1-5.5v-6.5v-7l-1.5-3.5
	l-3.5-5l-4.5-5l-5-6l-4-5.5l-1-6l0.5-5v-2l-2.5-0.5l-0.5-2l1.5-4v-4l0.5-4.5l1-4.5l-1-2.5l-2-0.5l-2-1h-1.5l-1.5,0.5L136.129,84.729
	"/>
<path fill="#FFFFFF" d="M154.158,85.738c-1.071,3.735-4.835,5.767-5.504,9.097c-0.381,1.893,2.975,3.339,3.475,5.894
	c1.755-1.782,0.06-5.925,3.998-4.991c1.624,0.386,0.456,2.962,1.983,2.804c2.511-0.258-0.899-5.248,2.989-4.626
	c0.773,0.124,1.337,1.564,2.041,1.604c2.072,0.118-0.41-4.579,2.946-3.639c0.807,0.226,1.313,1.556,2.068,1.656
	c0.636,0.084,1.414-0.9,0.896-1.76c-0.902-1.494-1.27-3.804-3.922-3.048c-0.272-6.237-7.323-9.501-7-16
	c5.559,4.022,11.747,6.762,16.334,12.745c0.417,0.544,3.621,0.22,3.171-0.36c-8.117-10.468-18.822-21.476-33.48-18.275
	c-0.798,0.175-1.525,1.085-0.914,1.795c3.084,3.576,7.024,0.861,10.889,1.095c-0.272,0.971,0.446,1.37,0.909,2.061
	c0.56,0.837-0.182,1.738-0.92,1.797c-2.536,0.199-5.1,0.163-6.989,2.142c1.425,1.001,1.426,1.999,0,3
	C150.573,80.285,155.591,80.742,154.158,85.738"/>
<path fill="#FFFFFF" d="M140.199,76.872c2.718-1.323,7.921-0.722,7.161-3.962c-0.783-3.337-4.904-1.642-6.23,1.819
	c0.273-0.97-0.231-1.696-1.025-1.903c-1.999-0.521-3.813,0.483-4.786,2.022c-0.49,0.774-0.69,2.412,0.835,2.787
	C137.557,77.98,138.829,77.538,140.199,76.872"/>
<path fill="#FFFFFF" d="M170.226,63.453c1.394,0.485,3.542,1.137,4.903-0.724c-3.2-1.677-6.395-3.366-10-1
	c0.337,0.337,0.889,0.666,0.889,1c-0.001,0.338-0.822,0.775-0.753,0.944C166.537,66.755,168.253,62.767,170.226,63.453"/>
<path fill="#FFFFFF" d="M173.132,68.739c1.718-0.383,4.825,0.465,4.396-0.806c-0.892-2.637-5.07-3.429-8.385-3.067
	c-0.753,0.082-1.435,0.948-0.943,1.824C169.25,68.563,170.893,69.238,173.132,68.739"/>
<path fill="#FFFFFF" d="M178.106,73.659c0.409-0.129,0.951-0.662,0.888-0.892c-0.485-1.763-2.488-1.959-3.93-2.944
	c-0.83-0.568-1.717,0.167-1.8,0.921C172.967,73.462,176.098,74.295,178.106,73.659"/>
<path fill="#FFFFFF" d="M197.128,59.824c-0.967-0.012-1.368-0.541-2.06-1.003c-0.837-0.56-1.708,0.161-1.809,0.926
	c-0.175,1.336-0.712,3.798,0.805,3.563c8.518-1.317,14.999,5.455,23.064,3.419C211.351,62.11,204.147,59.91,197.128,59.824"/>
<path fill="#FFFFFF" d="M205.29,74.285c1.431,0.517,2.482,4.561,4.839,1.444c-0.7-0.485-1.537-1.319-0.873-1.837
	c3.667-2.858,7.341,1.729,10.761,0.52c2.865-1.012-0.639-2.128-1.064-2.372c-7.093-4.06-14.478-6.977-22.765-5.059
	c-1.209,0.28-2.057,1.747-3.059,2.748C197.215,71.197,201.236,72.822,205.29,74.285"/>
<path fill="#FFFFFF" d="M219.127,81.079c4.57,0.027,8.341,4.921,12.916,4.143c2.835-0.481-0.808-2.062-1.021-2.124
	c-6.883-1.985-13.047-10.156-20.894-6.369C213.133,78.567,215.261,81.055,219.127,81.079"/>
<path fill="#FFFFFF" d="M197.08,72.837c-1.78-0.813-2.878,0.704-3.951,1.892c3.668,0.673,6.812,4.196,11,2
	C201.911,75.194,199.528,73.955,197.08,72.837"/>
<path fill="#FFFFFF" d="M199.122,80.625c0.36-0.025,0.672-0.561,1.007-0.896c-1.905-1.308-4.791-3.427-7-1
	C194.965,79.889,196.964,80.779,199.122,80.625"/>
<path fill="#FFFFFF" d="M211.129,83.729c0.337-0.336,0.889-0.665,0.889-0.999c-0.001-0.338-0.554-0.666-0.889-1.001
	C211.129,82.398,211.129,83.063,211.129,83.729"/>
<path fill="#FFFFFF" d="M195.964,85.326c0.899-0.369,3.45-0.451,2.813-1.346c-2.266-3.184-7.611-4.629-10.648-1.251
	C190.749,83.858,193.466,86.349,195.964,85.326"/>
<path fill="#FFFFFF" d="M209.789,86.734c-0.022-1.529-3.281-3.425-4.531-0.94c-0.877,1.743,0.66,3.552,1.882,3.59
	C208.112,89.415,209.804,87.725,209.789,86.734"/>
<path fill="#FFFFFF" d="M228.169,89.659c0.874,0.491,1.904-0.358,1.743-0.86c-0.652-2.041-2.939-2.907-4.825-3.996
	c-0.869-0.501-1.756,0.198-1.815,0.938C223.015,88.933,226.273,88.592,228.169,89.659"/>
<path fill="#FFFFFF" d="M186.197,81.775c1.498-2.237,1.552-4.046-0.068-6.046c-1.697,2.486-2.337,5.422-3.773,8.121
	c-0.186,0.351,0.85,1.277,1.742,0.819C185.242,84.083,185.494,82.824,186.197,81.775"/>
<path fill="#FFFFFF" d="M177.016,87.847c-0.65-0.63-1.726,0.182-1.725,0.882c0.001,0.701,1.074,1.514,1.725,0.883
	C177.356,89.282,177.355,88.176,177.016,87.847"/>
<path fill="#FFFFFF" d="M173.914,90.669c0.149-0.533-0.848-1.309-1.763-0.893c-0.771,0.35-1.484,1.053-0.934,1.896
	C172.935,94.301,173.662,91.568,173.914,90.669"/>
<path fill="#FFFFFF" d="M184.104,69.72c0.353-0.95-0.437-1.944-0.89-1.77c-1.786,0.683-1.604,2.446-0.085,3.779
	C183.466,71.061,183.843,70.421,184.104,69.72"/>
<path fill="#FFFFFF" d="M216.881,96.828c-0.906-2.283-5.256-5.206-6.156-1.935c-0.487,1.774,1.906,4.164,2.646,6.768
	c0.742,2.609,4.331-0.315,5.759,2.068C221.753,100.456,217.757,99.038,216.881,96.828"/>
<path fill="#FFFFFF" d="M223.168,99.524c0.609,0.114,1.45-0.943,0.859-1.716c-1.77-2.313-3.898-4.079-5.898-6.079
	c-0.666,0.667-1.333,1.334-2,2C218.456,95.74,219.915,98.91,223.168,99.524"/>
<path fill="#FFFFFF" d="M227.154,94.708c-0.571-0.653-1.088-1.348-2.003-0.932c-0.771,0.35-1.386,1.013-0.979,1.934
	c0.747,1.688,2.58,1.941,4.021,2.926c0.831,0.568,1.876-0.326,1.719-0.841C229.543,96.579,228.111,95.803,227.154,94.708"/>
<path fill="#FFFFFF" d="M204.993,94.744c-0.083-0.753-0.927-1.384-1.842-0.968c-0.771,0.35-1.392,1.016-0.976,1.932
	c0.351,0.77,1.077,1.504,1.883,0.923C204.623,96.225,205.062,95.374,204.993,94.744"/>
<path fill="#FFFFFF" d="M195.129,92.729c-0.336-0.336-0.665-0.888-0.999-0.888c-0.338,0.001-0.666,0.553-1.001,0.888
	C193.798,92.729,194.463,92.729,195.129,92.729"/>
<path fill="#FFFFFF" d="M206.129,100.729c0.273-0.97-0.252-1.769-1.017-1.869c-1.336-0.175-3.746-0.744-3.598,0.833
	C201.712,101.778,204.497,100.225,206.129,100.729"/>
<path fill="#FFFFFF" d="M194.063,97.824c-0.825-0.572-1.895,0.42-1.709,0.793c1.013,2.027,2.889,3.571,4.849,5.013
	c0.793,0.583,1.835-0.251,1.722-0.863C198.465,100.279,196.089,99.227,194.063,97.824"/>
<path fill="#FFFFFF" d="M189.129,95.729c0.337,0.337,0.666,0.889,1,0.889c0.338-0.001,0.665-0.554,1-0.889
	C190.461,95.729,189.796,95.729,189.129,95.729"/>
<path fill="#FFFFFF" d="M188.129,101.729c1.175,2.686,2.841,5.059,5.15,6.803c0.683,0.517,2.944,0.159,2.466-0.537
	C193.906,105.328,192.341,101.669,188.129,101.729"/>
<path fill="#FFFFFF" d="M184.21,101.695c-0.241-0.569,0.094-1.375-0.168-1.924c-0.75-1.565-2.726-1.355-2.486-0.125
	c0.321,1.644,0.343,4.807,2.567,4.761C185.852,104.371,184.681,102.811,184.21,101.695"/>
<path fill="#FFFFFF" d="M189.128,107.731c-1.221-1.212-1.33-3.211-3.018-3.957c-0.921-0.408-1.874,0.294-1.787,0.929
	c0.404,2.966,2.409,5.298,4.92,6.841c0.784,0.482,2.8,0.546,2.602-0.772C191.672,109.618,190.158,108.753,189.128,107.731"/>
<path fill="#FFFFFF" d="M181.88,108.329c1.252-0.78-0.41-2.945-1.818-3.383c-0.508-0.158-1.438,1.24-0.817,1.562
	C180.895,107.361,178.906,110.181,181.88,108.329"/>
<path fill="#FFFFFF" d="M176.064,115.761c1.597,3.245,4.864,3.71,7.971,4.396c2.011,0.445,3.208,3.031,5.168,4.474
	c0.793,0.583,1.854-0.556,1.715-0.714c-2.635-2.992-4.779-5.714-8.427-7.123c-6.052-2.336-5.752-11.119-9.362-17.065
	c-0.399,1.569-3.284,0.894-2.65,1.737C173.943,106.074,173.787,111.13,176.064,115.761"/>
<path fill="#FFFFFF" d="M189.201,114.254c-2.528-0.383-4.762-3.039-7.235-4.167c-0.937-0.427-1.104,1.715-0.666,2.554
	c1.146,2.194,3.155,3.716,5.829,3.088c0.578,5.331,7.954,9.764,12,8C194.735,121.55,194.238,115.016,189.201,114.254"/>
<path fill="#FFFFFF" d="M198.38,114.594c-1.297-2.397-3.405-2.966-5.328-3.645c-0.474-0.168-1.372,0.876-0.839,1.728
	c2.612,4.18,7.354,10.263,12.916,8.052C202.367,119.23,199.822,117.257,198.38,114.594"/>
<path fill="#FFFFFF" d="M205.129,114.729c-0.97,0.273-1.369-0.446-2.061-0.908c-0.837-0.56-1.454,0.207-1.939,0.908
	c2.29,1.393,6.069,6.226,7.548,2.805C209.092,116.574,205.542,116.96,205.129,114.729"/>
<path fill="#FFFFFF" d="M162.97,109.733c-0.055-2.318,1.136-6.455-0.745-6.224c-2.996,0.369-7.567,5.497-7.014,6.737
	c6.319,14.133,20.661,21.986,33.202,32.132c0.866,0.7,4.09,1.332,4.339-0.695c0.129-1.051-1.98-2.822-1.309-3.719
	c0.793-1.061,3.324,0.626,4.686-1.235C182.949,131.748,163.378,127.008,162.97,109.733"/>
<path fill="#FFFFFF" d="M199.191,155.613c1.411,0.757,1.032,3.371,1.59,2.785c5.03-5.287-3.949-10.052-7.838-13.456
	c-0.159-0.14-1.341,1.071-0.69,1.649C195.289,149.289,195.614,153.693,199.191,155.613"/>
<path fill="#FFFFFF" d="M204.088,138.985c-2.271-0.365-6.114-3.108-6.213-0.229c-0.078,2.289,8.536,7.156,11.254,6.224
	C211.84,144.049,204.934,139.121,204.088,138.985"/>
<path fill="#FFFFFF" d="M207.085,133.797c-2.222-1.438-4.707-3.021-6.859-2.587c-2.896,0.583,0.659,1.97,1.08,2.206
	c2.22,1.254,3.872,2.699,5.899,4.213c0.785,0.586,1.588-0.141,1.848-0.926C209.578,135.121,208.147,134.484,207.085,133.797"/>
<path fill="#FFFFFF" d="M210.166,130.702c-1.379-1.837-5.334-3.191-5.427-0.946c-0.067,1.624,3.683,1.983,5.513,3.854
	c0.623,0.637,1.77-0.219,1.685-0.854C211.835,131.997,210.75,131.479,210.166,130.702"/>
<path fill="#FFFFFF" d="M183.198,125.398c1.441,0.3,3.215,1.83,3.556,1.146c1.7-3.421-3.239-4.279-4.625-6.814
	c-2.889,2.074-5.159-0.572-8.015-0.818c-0.658-0.056-1.398,0.9-0.917,1.782C175.273,124.506,179.35,124.597,183.198,125.398"/>
<path fill="#FFFFFF" d="M200.129,129.729c0.337-0.336,0.889-0.665,0.889-0.999c-0.001-0.338-0.554-0.666-0.889-1.001
	C200.129,128.398,200.129,129.063,200.129,129.729"/>
<path fill="#FFFFFF" d="M211.129,126.729c2.071-2.702-1.811-2.427-2-4c-0.666,0.667-1.807,1.366-1.761,1.983
	C207.497,126.429,210.167,125.318,211.129,126.729"/>
<path fill="#FFFFFF" d="M247.156,116.707c-1.594-1.893-7.857-6.285-9.277-8.228c-0.666,0.667,3.394,3.875,3.52,4.096
	c2.854,4.992,5.828,9.817,10.872,12.925c0.302,0.185,1.29-0.86,0.783-1.728C251.458,121.042,249.189,119.123,247.156,116.707"/>
<path fill="#FFFFFF" d="M244.087,126.766c2.252,2.566,3.1,6.464,6.172,7.619c1.037,0.389,1.177-1.768,0.68-2.532
	c-4.972-7.66-8.706-14.64-16.846-19.057c-0.881-0.478-4.607-2.233-4.464-2.067C233.571,115.288,240.102,122.223,244.087,126.766"/>
<path fill="#FFFFFF" d="M245.107,133.733c-0.306-1.691-2.759-0.865-2.746-2.001c0.005-0.493,1.277-1.452,0.652-1.783
	c-4.642-2.456-13.539-16.896-18.385-18.72c4.123,11.186,19.375,29.413,25.5,39.5C252.863,144.991,246.171,139.618,245.107,133.733"
	/>
<path fill="#FFFFFF" d="M232.262,136.704c1.407,7.362,7.193,10.831,11.867,16.025c2.061-5.911-5.239-10.938-7.25-16.25
	c-0.728-1.924-2.198-3.971-3-5.75c-1.508-3.347-3.297-7.476-6.815-9.905c-0.826-0.57-6.847-10.094-6.685-9.595
	C222.088,116.507,231.135,130.806,232.262,136.704"/>
<path fill="#FFFFFF" d="M230.629,148.479c1.75,5.25,8.917,11.045,11.5,16.25c2.203-6.828-5.812-13.58-8.319-19.298
	c-1.31-2.989-3.029-6.349-4.268-9.469c-2.2-5.546-8.324-21.167-12.913-25.233c-0.486-0.43,3.314,11.048,3.691,11.876
	C225.379,133.729,227.114,137.932,230.629,148.479"/>
<path fill="#FFFFFF" d="M226.548,149.495c-2.449-4.38-0.879-10.07-3.419-14.766c-2.866,4.834-1.334,10.743,0.018,14.648
	c1.497,4.325,6.064,8.579,9.982,12.352C235.204,156.724,228.591,153.15,226.548,149.495"/>
<path fill="#FFFFFF" d="M240.405,167.68c-0.325-1.823-1.087-2.878-2.276-3.951c-1.878,2.334,0.242,4.709,0.394,6.974
	c0.163,2.446,4.068,2.432,4.247,0C242.839,169.774,240.616,168.865,240.405,167.68"/>
<path fill="#FFFFFF" d="M243.141,179.887c1.657-0.117,2.577-1.506,2.654-2.195c0.318-2.818-4.79-6.052-6.293-2.791
	c-0.686,1.489-1.615,4.312,0.704,5.701C241.193,181.193,242.171,179.956,243.141,179.887"/>
<path fill="#FFFFFF" d="M237.13,178.73c0.735-0.513,1.531-1.302,0.874-1.85c-1.162-0.972-0.482-3.986-2.806-2.99
	c-2.08,0.891-1.159,3.198-0.847,4.796C234.726,180.591,236.07,179.472,237.13,178.73"/>
<path fill="#FFFFFF" d="M230.971,171.748c-0.173-1.488-1.767-1.155-2.816-0.912c-0.798,0.185-1.524,1.081-0.915,1.802
	c0.918,1.087,2.197,1.784,2.89,3.092C231.865,174.745,231.122,173.049,230.971,171.748"/>
<path fill="#FFFFFF" d="M230.057,162.78c-0.837-1.207-1.778-2.466-2.993-2.834c-0.515-0.156-1.317,0.853-0.881,1.758
	c0.944,1.959,2.076,3.776,3.995,4.945c0.857,0.523,1.904-0.379,1.731-0.836C231.527,164.801,230.776,163.818,230.057,162.78"/>
<path fill="#FFFFFF" d="M223.259,157.663c0.628,1.218,1.722,2.482,2.937,2.851c0.514,0.156,1.3-0.844,0.889-1.763
	c-1.097-2.453-2.811-4.334-5.025-5.924c-0.806-0.579-1.88,0.354-1.71,0.824C220.872,155.105,222.438,156.069,223.259,157.663"/>
<path fill="#FFFFFF" d="M216.129,147.729c-1.368,1.828-4.829-1.657-4.482,0.931c0.224,1.668,3.324,2.838,5.382,1.857
	C219.707,149.239,216.834,148.609,216.129,147.729"/>
<path fill="#FFFFFF" d="M216.038,153.989c-2.452-0.861-4.954-3.219-7.909-1.26c3.165,3.102,6.896,8.743,12,5
	C218.795,156.395,217.659,154.558,216.038,153.989"/>
<path fill="#FFFFFF" d="M217.112,169.596c1.945-0.254,3.184,1.882,4.994,1.084c0.772-0.34,1.556-1.255,0.897-1.798
	c-3.655-3.015-7.048-7.147-11.837-6.726c-1.455,0.129-2.057,3.22-1.633,4.432C210.508,169.372,214.072,169.991,217.112,169.596"/>
<path fill="#FFFFFF" d="M218.135,180.753c2.021-0.511,5.693,0.603,5.272-0.808c-1.042-3.484-6.223-4.799-10.288-4.983
	c-0.637-0.029-1.858,1.309-1.719,1.66C212.538,179.511,214.39,181.698,218.135,180.753"/>
<path fill="#FFFFFF" d="M193.081,163.753c-0.195-0.41-0.647-0.938-0.934-0.896c-0.771,0.113-1.292,0.901-1.019,1.872
	c-1.001-1.001-2.111-2.755-2.926-2.604c-1.764,0.326-4.82,3.395-2.074,5.604c2.995-3.738,7.438,3.635,9.797-1.101
	C197.03,164.411,193.757,165.175,193.081,163.753"/>
<path fill="#FFFFFF" d="M201.039,174.713c0.196-1.074,0.564-2.461-0.929-2.92c-0.618-0.19-1.358-0.205-1.955,0.007
	c-0.782,0.277-1.562,1.248-0.899,1.767c1.577,1.235-0.017,3.939,1.87,3.915C200.17,177.469,200.818,175.928,201.039,174.713"/>
<path fill="#FFFFFF" d="M190.129,175.729c0.344,0.344,0.701,0.918,0.978,0.869c1.525-0.266,1.232-1.877,0.883-2.816
	c-0.629-1.685-3.985-3.54-4.463-0.978C187.374,173.619,189.103,174.703,190.129,175.729"/>
<path fill="#FFFFFF" d="M182.138,180.622c1.348,0.107,2.992,0.779,3.991-0.893c-6.532-2.955-13.955-3.727-20,0
	C171.331,182.206,176.769,180.198,182.138,180.622"/>
<path fill="#FFFFFF" d="M179.248,166.694c-1.206-3.978-3.577-1.207-6.119-2.965c-1.181,2.256-3.058,4.935-2.478,6.842
	c0.883,2.903,5.177-2.106,7.478,1.158c1.075-2.147,4.688,0.126,4.619-1.987C182.707,168.503,179.778,168.443,179.248,166.694"/>
<path fill="#FFFFFF" d="M181.003,156.575c0.66-0.537-2.567-7.557-2.874-8.346c-3.229-8.297,0.179,8.102,0.25,8.75
	C178.525,158.3,180.159,157.261,181.003,156.575"/>
<path fill="#FFFFFF" d="M166.021,134.46c2.85-1.153-0.596-1.791-1.094-2.607c-0.396-0.652-1.698,0.22-1.6,0.845
	C163.508,133.851,165.21,134.788,166.021,134.46"/>
<path fill="#FFFFFF" d="M160.129,127.729c-1.36-1.36-2.462-2.786-4.066-3.904c-0.821-0.572-1.891,0.459-1.705,0.766
	c1.728,2.832,4.192,4.935,6.854,7.035c0.756,0.596,1.858-0.315,1.701-0.83C162.543,129.579,161.156,128.756,160.129,127.729"/>
<path fill="#FFFFFF" d="M169.129,136.729c0.337,0.337,0.666,0.889,1,0.889c0.338-0.001,0.665-0.554,1-0.889
	C170.461,136.729,169.796,136.729,169.129,136.729"/>
<path fill="#FFFFFF" d="M178.129,141.729c0.337,0.337,0.666,0.889,1,0.889c0.338-0.001,0.665-0.554,1-0.889
	C179.461,141.729,178.796,141.729,178.129,141.729"/>
<path fill="#FFFFFF" d="M168.968,145.77c-0.2-0.806,1.666-6.191,0.911-6.291c-0.636-0.084-4.176,5.338-3.676,6.209
	c0.464,0.809,1.26,1.375,1.926,2.041C168.466,147.061,169.107,146.334,168.968,145.77"/>
<path fill="#FFFFFF" d="M173.129,150.729c-0.336,0.337-0.888,0.666-0.888,1c0.001,0.338,0.553,0.665,0.888,1
	C173.129,152.061,173.129,151.396,173.129,150.729"/>
<path fill="#FFFFFF" d="M189.012,154.616c0.63-0.65-0.182-1.726-0.882-1.725c-0.701,0.001-1.514,1.074-0.883,1.725
	C187.577,154.957,188.683,154.956,189.012,154.616"/>
<path fill="#FFFFFF" d="M204.129,183.987c-7.984-0.013-27.837,0.49-35.75,2.992c2.241,2.192,16.819-0.718,19.75-1.25
	c-2.689,1.938-6.373,1.627-9,3.75c15.34,1.743,30.661,0.994,46-0.75c-2.735-2.997-7.688,1.412-10-3
	c4.002-0.083,8.274-0.64,11.837,0.508c1.222,0.394,3.445-0.404,4.163,1.492c1.822-2.46,9.942,2.755,11.75,0.25
	C231.732,184.061,215.461,184.005,204.129,183.987"/>
<path fill="#FFFFFF" d="M209.12,110.755c-0.95-0.352-1.944,0.437-1.771,0.89c0.684,1.786,2.446,1.604,3.779,0.084
	C210.461,111.393,209.821,111.015,209.12,110.755"/>
<path fill="#FFFFFF" d="M187.129,93.729c0.337,0.337,0.666,0.889,1,0.889c0.338-0.001,0.665-0.554,1-0.889
	C188.461,93.729,187.796,93.729,187.129,93.729"/>
<path fill="#FFFFFF" d="M191.028,89.954c-0.401-0.183-1.325,0.863-0.825,1.734c0.464,0.809,1.488,1.91,1.81,1.771
	C194.914,92.204,192.211,90.492,191.028,89.954"/>
<path fill="#FFFFFF" d="M181.129,96.064c-1.422-0.003-1.425,2.332,0,2.331C182.838,98.394,181.838,96.066,181.129,96.064"/>
<path fill="#FFFFFF" d="M186.247,98.843c-0.63,0.65,0.182,1.726,0.882,1.725c0.701-0.001,1.514-1.074,0.883-1.725
	C187.682,98.502,186.576,98.503,186.247,98.843"/>
<path fill="#FFFFFF" d="M206.129,79.729c0.337,0.337,0.666,0.889,1,0.889c0.338-0.001,0.665-0.554,1-0.889
	C207.461,79.729,206.796,79.729,206.129,79.729"/>
<path fill="#FFFFFF" d="M241.021,112.46c2.85-1.153-0.596-1.791-1.094-2.607c-0.396-0.652-3.896-2.249-3.798-1.624
	C236.31,109.382,240.21,112.788,241.021,112.46"/>
<path fill="#FFFFFF" d="M212.129,144.729c0.337,0.337,0.666,0.889,1,0.889c0.338-0.001,0.665-0.554,1-0.889
	C213.461,144.729,212.796,144.729,212.129,144.729"/>
<path fill="#FFFFFF" d="M207.129,151.729c0.337-0.336,0.889-0.665,0.889-0.999c-0.001-0.338-0.554-0.666-0.889-1.001
	C207.129,150.398,207.129,151.063,207.129,151.729"/>
<path fill="#FFFFFF" d="M205.129,167.729c0.337,0.337,0.666,0.889,1,0.889c0.338-0.001,0.665-0.554,1-0.889
	C206.461,167.729,205.796,167.729,205.129,167.729"/>
<path fill="#FFFFFF" d="M209.017,174.73c0-0.338-0.652-0.934-0.836-0.865c-1.59,0.603-1.477,1.863-0.052,2.864
	C208.466,176.061,209.019,175.396,209.017,174.73"/>
<path fill="#FFFFFF" d="M187.629,196.479c8.475,2.153,20.334,0.997,25.5,0.997c8.988,0,18.077,1.756,27-0.747
	c-19.008-1.742-50.742-10.493-69.75-8.75C175.174,189.187,179.718,194.47,187.629,196.479"/>
<path fill="#FFFFFF" d="M220.879,193.229c-10.324,0.013-39.482-2.252-49.75,0.25c18.869,2.098,52.815-1.422,67-3
	C232.928,188.003,226.188,193.223,220.879,193.229"/>
<path fill="#FFFFFF" d="M239.004,204.667c0.067-1.588-2.724-4.631-2.625-3.438c0.188,2.25,0.125,3.5,0.073,5.388
	C236.372,209.486,238.974,205.408,239.004,204.667"/>
<path fill="#FFFFFF" d="M231.754,202.854c-0.321-0.723-3.523-2.523-4.125-3.125c-0.188,3.938,0.048,5.312-0.125,8.312
	c-0.038,0.673,1.043,0.383,1.875-0.188c1.441-0.985,3.611-0.588,3.373-2.064C232.607,204.892,232.162,203.772,231.754,202.854"/>
<path fill="#FFFFFF" d="M223.918,203.822c-0.71-1.622-2.955-2.259-4.289-3.593c0.25,3.562-0.25,5.312-0.188,8.312
	C221.095,207.13,225.243,206.853,223.918,203.822"/>
<path fill="#FFFFFF" d="M213.143,201.714c-0.724-0.637-1.246-1.447-2.055-1.911c-0.87-0.499-1.874,0.159-1.834,0.945
	c0.125,2.48,0.125,4.73,0.113,6.901c-0.019,3.063,3.199-0.124,4.687-0.372C215.67,207.009,216.362,204.54,213.143,201.714"/>
<path fill="#FFFFFF" d="M202.091,207.668c0.808-0.509,1.689-1.173,1.868-1.978c0.678-3.037-1.94-5.853-4.647-5.515
	c-1.779,0.222-0.433,5.303-0.854,7.497C198.026,209.924,200.82,208.467,202.091,207.668"/>
<path fill="#FFFFFF" d="M192.066,207.167c2.599-1.248,0.722-5.317,0.713-5.353c-0.393-1.625-5.155-3.015-5.213-1.835
	c-0.184,3.83-0.125,5.125-0.057,7.658C187.575,210.046,191.731,207.328,192.066,207.167"/>
<path fill="#FFFFFF" d="M183.223,203.722c-0.906-1.993-2.012-2.742-3.204-3.876c-0.658-0.627-1.462-0.436-1.452,0.258
	c0.039,2.651-0.188,5.25-0.188,8.375c1.343-1.542,5.106-0.353,5.593-2.781C184.093,205.097,183.511,204.356,183.223,203.722"/>
<path fill="#FFFFFF" d="M175.933,205.661c1.002-2.865-4.179-7.316-4.366-5.494c-0.25,2.438-0.234,4.914-0.271,7.565
	c-0.01,0.693,0.927,0.919,1.771,0.372C174.283,207.319,175.506,206.882,175.933,205.661"/>
<path fill="#FFFFFF" d="M169.958,205.66c0.742-1.831-1.192-3.452-2.329-4.931c-0.125,2.938,0.134,4.363-0.062,6.125
	C167.379,208.542,169.586,206.578,169.958,205.66"/>
<path fill="#FFFFFF" d="M161.993,178.749c0.131,0.933,0.631,1.939,1.035,1.758c1.521-0.688,2.624-4.688,0.086-5.739
	c-0.933-0.387-1.633,0.206-1.917,0.987C160.79,176.869,161.852,177.742,161.993,178.749"/>
<path fill="#FFFFFF" d="M158.131,167.722c-1.001-0.257-1.956,0.575-1.771,0.856c1.4,2.146,4.674,2.079,5.301,0.01
	C162.066,167.25,159.499,168.073,158.131,167.722"/>
<path fill="#FFFFFF" d="M163.129,172.729c1.334,1.522,3.556,1.52,3.556,0.001C166.685,170.699,164.464,172.138,163.129,172.729"/>
<path fill="#FFFFFF" d="M162.13,170.841c-0.338,0.001-0.934,0.653-0.865,0.837c0.603,1.59,1.863,1.477,2.864,0.051
	C163.461,171.393,162.796,170.84,162.13,170.841"/>
<path fill="#FFFFFF" d="M193.139,180.704c0.95,0.353,1.812-0.261,1.838-0.979c0.059-1.554-2.447-0.426-2.848-1.995
	c-0.7,0.486-1.482,1.124-0.902,1.93C191.634,180.223,192.438,180.443,193.139,180.704"/>
<path fill="#FFFFFF" d="M196.129,128.729c1.088-0.071,2.787,0.415,2.787-1c0-1.414-1.699-0.928-2.787-1
	C196.129,127.398,196.129,128.063,196.129,128.729"/>
<path fill="#FFFFFF" d="M194.243,127.612c0.649,0.63,1.726-0.182,1.725-0.882c-0.001-0.701-1.074-1.514-1.725-0.883
	C193.902,126.177,193.903,127.283,194.243,127.612"/>
<path fill="#FFFFFF" d="M148.129,99.729c-0.071-1.087,0.415-2.786-1-2.786c-1.414,0-0.928,1.699-1,2.786
	C146.798,99.729,147.463,99.729,148.129,99.729"/>
<path fill="#FFFFFF" d="M147.617,72.953c-1.484-3.401-5.162-1.685-6.488,1.776c0.273-0.97-0.231-1.696-1.025-1.903
	c-1.999-0.521-3.813,0.483-4.786,2.022c-0.49,0.774-0.64,2.59,0.825,2.705"/>
<path fill="#FFFFFF" d="M167.129,98.729c-0.336-0.336-0.665-0.888-0.999-0.888c-0.338,0.001-0.666,0.553-1.001,0.888
	C165.798,98.729,166.463,98.729,167.129,98.729"/>
<path fill="#FFFFFF" d="M162.129,102.729c-2.667,2.668-7.472,6.277-6.918,7.517c6.319,14.133,20.661,21.986,33.202,32.132
	c0.866,0.7,4.09,1.332,4.339-0.695c0.129-1.051-1.98-2.822-1.309-3.719c0.793-1.061,3.324,0.626,4.686-1.235
	c-11.079-4.286-23.081-7.043-30.769-17.175C161.563,114.551,164.299,108.192,162.129,102.729"/>
<path fill="#FFFFFF" d="M168.129,111.729c0.337,0.337,0.666,0.889,1,0.889c0.338-0.001,0.665-0.554,1-0.889
	C169.461,111.729,168.796,111.729,168.129,111.729"/>
<path fill="#FFFFFF" d="M170.129,111.729c-0.336-0.336-0.665-0.888-0.999-0.888c-0.338,0.001-0.666,0.553-1.001,0.888
	C168.798,111.729,169.463,111.729,170.129,111.729"/>
<path fill="#FFFFFF" d="M161.212,131.625c0.756,0.596,1.875-0.45,1.688-0.757c-1.727-2.832-4.07-5.069-6.897-6.949"/>
<path fill="#FFFFFF" d="M152.129,122.729c0.337,0.337,0.666,0.889,1,0.889c0.338-0.001,0.665-0.554,1-0.889
	C153.461,122.729,152.796,122.729,152.129,122.729"/>
<path fill="#FFFFFF" d="M175.153,97.793c-0.409,0.149-0.954,0.741-0.889,0.863c0.952,1.77,3.13,1.792,3.542-0.001
	C178.052,97.592,176.279,97.384,175.153,97.793"/>
<path fill="#FFFFFF" d="M177.129,100.729c0.337,0.337,0.666,0.889,1,0.889c0.338-0.001,0.665-0.554,1-0.889
	C178.461,100.729,177.796,100.729,177.129,100.729"/>
<path fill="#FFFFFF" d="M180.017,102.73c0-0.338-0.652-0.934-0.836-0.865c-1.59,0.602-1.477,1.863-0.052,2.864
	C179.466,104.061,180.019,103.396,180.017,102.73"/>
<path fill="#FFFFFF" d="M169.129,113.729c0.337,0.337,0.666,0.889,1,0.889c0.338-0.001,0.665-0.554,1-0.889
	C170.461,113.729,169.796,113.729,169.129,113.729"/>
<path fill="#FFFFFF" d="M171.129,117.729c0.337,0.337,0.666,0.889,1,0.889c0.338-0.001,0.665-0.554,1-0.889
	C172.461,117.729,171.796,117.729,171.129,117.729"/>
<path fill="#FFFFFF" d="M172.129,118.729c0.337,0.337,0.666,0.889,1,0.889c0.338-0.001,0.665-0.554,1-0.889
	C173.461,118.729,172.796,118.729,172.129,118.729"/>
<path fill="#FFFFFF" d="M192.129,144.729c-0.336-0.336-0.665-0.888-0.999-0.888c-0.338,0.001-0.666,0.553-1.001,0.888
	C190.798,144.729,191.463,144.729,192.129,144.729"/>
<path fill="#FFFFFF" d="M192.018,144.73c-0.001-0.338-0.554-0.666-0.889-1.001"/>
<path fill="#FFFFFF" d="M171.017,148.73c0-0.338,1.795-7.82,1.612-7.751c-1.59,0.602-3.925,8.749-2.5,9.75
	C170.466,150.061,171.019,149.396,171.017,148.73"/>
<path fill="#FFFFFF" d="M173.129,149.729c0.337,0.337,0.003,0.337,0.337,0.337c0.338-0.001,1.328-8.002,1.663-8.337
	C174.461,141.729,173.796,149.729,173.129,149.729"/>
<path fill="#FFFFFF" d="M205.13,148.841c-0.338,0.001-0.934,0.653-0.865,0.837c0.603,1.59,1.863,1.477,2.864,0.051
	C206.461,149.393,205.796,148.84,205.13,148.841"/>
<path fill="#FFFFFF" d="M198.129,111.729c0.337,0.337,0.666,0.889,1,0.889c0.338-0.001,0.665-0.554,1-0.889
	C199.461,111.729,198.796,111.729,198.129,111.729"/>
<path fill="#FFFFFF" d="M200.018,111.73c-0.001-0.338-0.554-0.666-0.889-1.001"/>
<path fill="#FFFFFF" d="M200.129,113.729c0.337,0.337,0.666,0.889,1,0.889c0.338-0.001,0.665-0.554,1-0.889
	C201.461,113.729,200.796,113.729,200.129,113.729"/>
<path fill="#FFFFFF" d="M203.129,108.729c0.337,0.337,0.666,0.889,1,0.889c0.338-0.001,0.665-0.554,1-0.889
	C204.461,108.729,203.796,108.729,203.129,108.729"/>
<path fill="#FFFFFF" d="M199.129,107.729c0.337,0.337,0.666,0.889,1,0.889c0.338-0.001,0.665-0.554,1-0.889
	C200.461,107.729,199.796,107.729,199.129,107.729"/>
<path fill="#FFFFFF" d="M196.129,106.729c0.337,0.337,0.666,0.889,1,0.889c0.338-0.001,0.665-0.554,1-0.889
	C197.461,106.729,196.796,106.729,196.129,106.729"/>
<path fill="#FFFFFF" d="M197.13,93.841c-0.338,0.001-0.934,0.654-0.865,0.837c0.603,1.59,1.863,1.477,2.864,0.051
	C198.461,94.393,197.796,93.84,197.13,93.841"/>
<path fill="#FFFFFF" d="M199.173,88.823c-1.569,0.731-1.469,1.905-0.044,2.906c0.4-1.568,2.974-0.453,2.812-1.98
	C201.801,88.431,200.239,88.325,199.173,88.823"/>
<path fill="#FFFFFF" d="M195.129,89.729c2.504-1.946-1.105-1.853-1-3c-1.087,0.072-2.845-0.388-2.755,0.984
	C191.485,89.423,194.167,88.318,195.129,89.729"/>
<path fill="#FFFFFF" d="M186.129,88.729c0.337,0.337,0.666,0.889,1,0.889c0.338-0.001,0.665-0.554,1-0.889
	C187.461,88.729,186.796,88.729,186.129,88.729"/>
<path fill="#FFFFFF" d="M188.129,89.729c0.337,0.337,0.666,0.889,1,0.889c0.338-0.001,0.665-0.554,1-0.889
	C189.461,89.729,188.796,89.729,188.129,89.729"/>
<path fill="#FFFFFF" d="M186.129,88.729c0.337,0.337,0.666,0.889,1,0.889c0.338-0.001,0.665-0.554,1-0.889
	C187.461,88.729,186.796,88.729,186.129,88.729"/>
<path fill="#FFFFFF" d="M181.078,98.594c1.59-0.602,1.477-1.863,0.051-2.865"/>
<path fill="#FFFFFF" d="M178.464,95.73c-0.003,1.422,2.332,1.425,2.331,0C180.794,94.021,178.466,95.021,178.464,95.73"/>
<path fill="#FFFFFF" d="M182.129,93.729c0.337,0.337,0.666,0.889,1,0.889c0.338-0.001,0.665-0.554,1-0.889
	C183.461,93.729,182.796,93.729,182.129,93.729"/>
<path fill="#FFFFFF" d="M186.129,85.729c0.337,0.337,0.666,0.889,1,0.889c0.338-0.001,0.665-0.554,1-0.889
	C187.461,85.729,186.796,85.729,186.129,85.729"/>
<path fill="#FFFFFF" d="M186.129,74.729c-0.071-1.087,0.415-2.786-1-2.786c-1.414,0-0.928,1.699-1,2.786
	C184.798,74.729,185.463,74.729,186.129,74.729"/>
<path fill="#FFFFFF" d="M190.017,72.73c0-0.338-0.652-0.934-0.836-0.865c-1.59,0.602-1.477,1.863-0.052,2.864
	C189.466,74.061,190.019,73.396,190.017,72.73"/>
<path fill="#FFFFFF" d="M185.003,66.575c0.66-0.537-0.124-1.45-0.896-1.799c-0.916-0.415-1.862,0.285-1.791,0.933
	C182.462,67.03,184.159,67.261,185.003,66.575"/>
<path fill="#FFFFFF" d="M182.914,78.669c0.149-0.533-0.848-1.309-1.763-0.893c-0.771,0.35-1.484,1.053-0.934,1.896
	C181.935,82.301,182.662,79.568,182.914,78.669"/>
<path fill="#FFFFFF" d="M180.795,64.729c0.003-1.422-2.332-1.425-2.332,0C178.465,66.438,180.793,65.438,180.795,64.729"/>
<path fill="#FFFFFF" d="M201.129,85.729c-0.666-0.666-1.333-1.333-2-2c0.106,1.147-3.719,1.248-0.927,2.876
	C199.197,87.186,200.198,86.269,201.129,85.729"/>
<path fill="#FFFFFF" d="M203.795,81.729c0.003-1.422-2.332-1.425-2.332,0C201.465,83.438,203.793,82.438,203.795,81.729"/>
<path fill="#FFFFFF" d="M203.968,81.73c-0.001-0.701-1.074-1.514-1.725-0.883"/>
<path fill="#FFFFFF" d="M208.018,79.73c-0.001-0.338-0.554-0.666-0.889-1.001"/>
<path fill="#FFFFFF" d="M211.018,81.73c-0.001-0.338-0.554-0.666-0.889-1.001"/>
<path fill="#FFFFFF" d="M215.012,88.616c0.63-0.651-0.182-1.726-0.882-1.725c-0.701,0.001-1.514,1.074-0.883,1.725
	C213.577,88.957,214.683,88.956,215.012,88.616"/>
<path fill="#FFFFFF" d="M231.088,88.803c-0.87-0.499-1.851,0.264-1.766,0.901c0.101,0.755,1.04,1.488,1.849,1.952
	c0.87,0.499,1.851-0.265,1.766-0.901C232.835,89.997,231.896,89.267,231.088,88.803"/>
<path fill="#FFFFFF" d="M234.129,86.729c0.337,0.337,0.666,0.889,1,0.889c0.338-0.001,0.665-0.554,1-0.889
	C235.461,86.729,234.796,86.729,234.129,86.729"/>
<path fill="#FFFFFF" d="M233.367,160.963c1.96,0.607-0.406-3.472-0.703-3.766"/>
<path fill="#FFFFFF" d="M220.195,153.513c0.513,0.156,1.36-0.871,0.86-1.742c-0.464-0.809-1.159-1.504-1.968-1.968
	c-0.87-0.499-1.899,0.346-1.742,0.86C217.716,151.88,218.976,153.141,220.195,153.513"/>
<path fill="#FFFFFF" d="M224.129,170.729c-0.336,0.337-0.888,0.666-0.888,1c0.001,0.338,0.553,0.665,0.888,1
	C224.129,172.061,224.129,171.396,224.129,170.729"/>
<path fill="#FFFFFF" d="M226.129,168.729c-0.336,0.337-0.888,0.666-0.888,1c0.001,0.338,0.553,0.665,0.888,1
	C226.129,170.061,226.129,169.396,226.129,168.729"/>
<path fill="#FFFFFF" d="M223.13,163.841c-0.338,0.001-0.934,0.653-0.865,0.837c0.603,1.59,1.863,1.477,2.864,0.051
	C224.461,164.393,223.796,163.84,223.13,163.841"/>
<path fill="#FFFFFF" d="M210.129,142.729c0.337,0.337,0.666,0.889,1,0.889c0.338-0.001,0.665-0.554,1-0.889
	C211.461,142.729,210.796,142.729,210.129,142.729"/>
<path fill="#FFFFFF" d="M251.129,136.729c0.337,0.337,0.666,0.889,1,0.889c0.338-0.001,0.665-0.554,1-0.889
	C252.461,136.729,251.796,136.729,251.129,136.729"/>
<path fill="#FFFFFF" d="M206.129,168.618c0.338-0.001,0.665-0.554,1-0.889"/>
<path fill="#FFFFFF" d="M210.129,170.729c-1.333-1.521-3.555-1.519-3.555,0C206.574,172.76,208.795,171.321,210.129,170.729"/>
<path fill="#FFFFFF" d="M187.153,168.793c-0.409,0.148-0.954,0.74-0.889,0.862c0.952,1.771,3.13,1.792,3.542-0.001
	C190.052,168.592,188.279,168.384,187.153,168.793"/>
<path fill="#FFFFFF" d="M185.129,156.729c0.337-0.336,0.889-0.665,0.889-0.999c-0.001-0.338-0.554-0.666-0.889-1.001
	C185.129,155.398,185.129,156.063,185.129,156.729"/>
<path fill="#FFFFFF" d="M232.129,189.731c0.993,0.273,8.516-0.551,9-1.252c-2.675-1.607-14.038-2.241-14.346,0.329
	C226.56,190.662,230.121,189.18,232.129,189.731"/>
<path fill="#FFFFFF" d="M187.125,191.807c14.094,0.78,28.04,0.973,42.004-1.078c-17.673-1.742-35.326-1.743-53,0
	C179.768,192.887,183.383,191.6,187.125,191.807"/>
<path fill="#FFFFFF" d="M175.129,191.617c0.338,0,0.934-0.652,0.865-0.836c-0.603-1.59-1.863-1.477-2.865-0.052
	C173.798,191.066,174.463,191.619,175.129,191.617"/>
<path fill="#FFFFFF" d="M168.088,133.803c-0.87-0.499-1.851,0.264-1.766,0.9c0.101,0.756,1.04,1.488,1.849,1.952
	c0.87,0.499,1.851-0.265,1.766-0.9C169.835,134.997,168.896,134.267,168.088,133.803"/>
<path fill="#FFFFFF" d="M175.129,138.729c-0.336-0.336-0.665-0.888-0.999-0.888c-0.338,0.001-0.666,0.553-1.001,0.888
	C173.798,138.729,174.463,138.729,175.129,138.729"/>
<path fill="#FFFFFF" d="M178.129,140.729c-0.336-0.336-0.665-0.888-0.999-0.888c-0.338,0.001-0.666,0.553-1.001,0.888
	C176.798,140.729,177.463,140.729,178.129,140.729"/>
<path fill="#FFFFFF" d="M175.129,139.729c0.337,0.337,0.666,0.889,1,0.889c0.338-0.001,0.665-0.554,1-0.889
	C176.461,139.729,175.796,139.729,175.129,139.729"/>
<path fill="#FFFFFF" d="M181.629,146.479c0.337,0.337,5.166,7.139,5.5,7.139c0.338-0.001,0.665-0.554,1-0.889
	C187.461,152.729,182.296,146.479,181.629,146.479"/>
<path fill="#FFFFFF" d="M183.129,154.729c0.337,0.337,0.666,0.889,1,0.889c0.338-0.001-3.585-5.804-3.25-6.139
	C180.211,149.479,183.796,154.729,183.129,154.729"/>
<path fill="#FFFFFF" d="M206.129,168.618c0.338-0.001,0.665-0.554,1-0.889"/>
<path fill="#FFFFFF" d="M204.231,165.807c-0.59,0.774,0.235,1.814,0.872,1.729c0.756-0.101,1.854-1.198,1.772-1.771
	C206.614,163.915,204.97,164.839,204.231,165.807"/>
<path fill="#FFFFFF" d="M212.965,178.769c0.212,0.881,0.474,1.815,1.159,1.791c3.327-0.114,6.868,1.473,10.005-0.831
	c-3.158-2.789-6.944-4.582-11.01-4.767c-0.637-0.029-1.769,1.101-1.768,1.767C211.353,177.398,212.771,177.964,212.965,178.769"/>
<path fill="#FFFFFF" d="M138.129,80.604l0.5-0.875l1.375-1.125l1-0.5l1.625-0.375l1.75-0.625l0.5,0.625c0,0,0,0.625-0.375,0.75
	s-1,0.375-1.75,0.75s-2.25,0.75-2.25,0.75L138.129,80.604"/>
<path fill="#FFFFFF" d="M201.129,195.983c-5.979,0-28.867-2.006-34.75,0.496c19.008,1.743,54.743,1.994,73.75,0.25
	C227.179,194.227,214.124,195.982,201.129,195.983"/>
<line fill="none" stroke="#000000" stroke-width="0.5" x1="170.379" y1="187.979" x2="241.129" y2="187.979"/>
<line fill="none" stroke="#000000" stroke-width="0.5" x1="172.879" y1="193.229" x2="226.629" y2="193.229"/>
<line fill="none" stroke="#000000" stroke-width="0.5" x1="172.879" y1="195.979" x2="235.129" y2="195.979"/>
</svg>
