<?xml version="1.0" encoding="utf-8"?>
<!-- Generator: Adobe Illustrator 19.2.0, SVG Export Plug-In . SVG Version: 6.00 Build 0)  -->
<svg version="1.1"
	 id="svg2" inkscape:export-filename="/home/sysop/Pictures/Logos/NASA/Seal/Seal-cl_gradient-disk.png" inkscape:export-xdpi="132.35294" inkscape:export-ydpi="132.35294" inkscape:version="0.48.2 r9819" sodipodi:docname="NASA_seal.svg" xmlns:cc="http://creativecommons.org/ns#" xmlns:dc="http://purl.org/dc/elements/1.1/" xmlns:inkscape="http://www.inkscape.org/namespaces/inkscape" xmlns:rdf="http://www.w3.org/1999/02/22-rdf-syntax-ns#" xmlns:sodipodi="http://sodipodi.sourceforge.net/DTD/sodipodi-0.dtd" xmlns:svg="http://www.w3.org/2000/svg"
	 xmlns="http://www.w3.org/2000/svg" xmlns:xlink="http://www.w3.org/1999/xlink" x="0px" y="0px" viewBox="0 0 272 272"
	 style="enable-background:new 0 0 272 272;" xml:space="preserve">
<style type="text/css">
	.st0{fill:#FDE3AC;}
	.st1{fill:#FFFFFF;}
	.st2{fill:#125A9E;}
	.st3{fill:url(#path3175_1_);}
	.st4{fill:#ED1C24;}
	.st5{fill:#FDDD04;}
	.st6{fill:none;stroke:#FDDD04;stroke-width:1.4062;stroke-miterlimit:3.8637;}
	.st7{fill:#F8D405;}
	.st8{fill:#F2CC07;}
	.st9{fill:#EDC408;}
	.st10{fill:#E8BC09;}
	.st11{fill:#E3B50B;}
	.st12{fill:#DDAD0C;}
	.st13{fill:#D9A60D;}
	.st14{fill:#D49F0E;}
	.st15{fill:#F7F9FA;}
	.st16{fill:#EFF4F6;}
	.st17{fill:#E7EEF1;}
	.st18{fill:#DFE8EC;}
	.st19{fill:#D8E3E8;}
	.st20{fill:#D0DDE3;}
	.st21{fill:#C9D8DE;}
	.st22{fill:#C1D3DA;}
	.st23{fill:#BACDD5;}
	.st24{fill:#B3C8D1;}
	.st25{fill:none;stroke:#FFFFFF;stroke-width:0.2344;stroke-miterlimit:3.8637;}
	.st26{fill:none;stroke:#FFFFFF;stroke-width:1.5;stroke-linecap:round;stroke-miterlimit:3.8637;}
	.st27{fill:none;stroke:#FFFFFF;stroke-width:1.6406;stroke-linecap:round;stroke-linejoin:round;stroke-miterlimit:3.8637;}
	.st28{fill:none;stroke:#FFFFFF;stroke-width:1.4062;stroke-linecap:round;stroke-linejoin:round;stroke-miterlimit:3.8637;}
</style>
<path id="path3411" inkscape:connector-curvature="0" class="st0" d="M5.7,131.4C8.2,59.5,68.6,3.2,140.5,5.7
	c72,2.5,128.3,62.9,125.8,134.9c-2.5,72-62.9,128.3-134.9,125.8C59.5,263.8,3.2,203.4,5.7,131.4L5.7,131.4z M1,138.3
	C-0.3,63.8,59.1,2.3,133.6,1c74.5-1.3,136,58.1,137.3,132.6c1.3,74.5-58.1,136-132.6,137.3C63.8,272.3,2.3,212.9,1,138.3L1,138.3"/>
<path id="path3144" sodipodi:cx="28.846155" sodipodi:cy="160.65384" sodipodi:rx="134" sodipodi:ry="134" sodipodi:type="arc" class="st1" d="
	M270,136c0,74-60,134-134,134S2,210,2,136S62,2,136,2S270,62,270,136z"/>
<path id="path3409" inkscape:connector-curvature="0" class="st0" d="M37.2,132.6c1.9-54.5,47.6-97.2,102.2-95.3
	c54.5,1.9,97.2,47.7,95.3,102.2c-1.9,54.5-47.6,97.2-102.2,95.3C78,232.9,35.3,187.1,37.2,132.6L37.2,132.6L37.2,132.6z M33.3,132.4
	c2-56.7,49.6-101.1,106.3-99.1c56.7,2,101.1,49.6,99.1,106.3c-2,56.7-49.6,101.1-106.3,99.1C75.7,236.7,31.3,189.2,33.3,132.4
	L33.3,132.4"/>
<title  id="title5020">NASA seal</title>
<sodipodi:namedview  bordercolor="#666666" borderopacity="1.0" fit-margin-bottom="0" fit-margin-left="0" fit-margin-right="0" fit-margin-top="0" id="base" inkscape:current-layer="layer1" inkscape:cx="136" inkscape:cy="136" inkscape:document-units="px" inkscape:guide-bbox="true" inkscape:pageopacity="0.0" inkscape:pageshadow="2" inkscape:window-height="689" inkscape:window-maximized="1" inkscape:window-width="1024" inkscape:window-x="0" inkscape:window-y="27" inkscape:zoom="1.7333334" pagecolor="#ffffff" showgrid="false" showguides="true" units="px">
	</sodipodi:namedview>
<path id="path3132" inkscape:connector-curvature="0" class="st2" d="M139.5,35.3c55.6,1.9,99.1,48.6,97.2,104.2
	c-1.9,55.6-48.6,99.1-104.2,97.2c-55.6-1.9-99.1-48.6-97.2-104.2C37.2,76.9,83.9,33.4,139.5,35.3L139.5,35.3L139.5,35.3z"/>
<linearGradient id="path3175_1_" gradientUnits="userSpaceOnUse" x1="209.2351" y1="198.7293" x2="461.9549" y2="198.7293" gradientTransform="matrix(0 0.7987 0.7987 0 -22.733 -131.8765)">
	<stop  offset="0" style="stop-color:#125A9E;stop-opacity:0.498"/>
	<stop  offset="1" style="stop-color:#0B3B6A"/>
</linearGradient>
<path id="path3175" inkscape:connector-curvature="0" class="st3" d="M139.5,35.3c55.6,1.9,99.1,48.6,97.2,104.2
	c-1.9,55.6-48.6,99.1-104.2,97.2c-55.6-1.9-99.1-48.6-97.2-104.2C37.2,76.9,83.9,33.4,139.5,35.3L139.5,35.3L139.5,35.3z"/>
<path id="path3189" inkscape:connector-curvature="0" class="st4" d="M119.5,244.3l-5-1.3l-0.1,0.4c1.5,0.5,1.9,1,1.3,3.3l-1.6,5.8
	c-0.5,1.7-0.9,2.4-1.3,2.8c-0.9,0.8-2.3,1.2-4,0.8c-3.7-1-2.9-4-2.6-5.4l1.8-6.9c0.4-1.5,0.7-1.7,2.5-1.4l0.1-0.4l-6.1-1.6l-0.1,0.4
	c1.6,0.5,1.8,0.9,1.4,2.5l-1.8,6.7c-0.3,1.3-1.5,5.5,3.9,6.9c5.6,1.5,6.6-2.5,7.1-4.3l1.5-5.6c0.6-2.3,1.1-2.5,2.8-2.2L119.5,244.3
	L119.5,244.3"/>
<path id="path3191" inkscape:connector-curvature="0" class="st4" d="M118.2,258.7c0.5,0.1,1.3-0.2,1.4-1c0.1-0.7-0.4-1.3-1-1.4
	c-0.7-0.1-1.3,0.4-1.4,1.1C117.1,258.2,117.8,258.6,118.2,258.7L118.2,258.7"/>
<path id="path3193" inkscape:connector-curvature="0" class="st4" d="M136.2,245l-0.5,0c-0.1,0.2-0.2,0.7-0.8,0.7
	c-0.6,0-1.7-0.8-3-0.9c-2-0.1-4.1,1-4.2,3.6c-0.1,2.2,1.3,3.3,3.2,4.5c3.2,2.1,3.5,2.9,3.4,4.1c-0.1,1.2-1,2.4-2.8,2.3
	c-3-0.2-4-3.1-4.3-4.2l-0.5,0l0.4,4.7l0.5,0c0-0.4,0.3-0.7,0.7-0.7c0.7,0,1.7,0.8,3.4,0.9c3.2,0.2,4.8-1.9,4.9-3.8
	c0.2-4.6-7.2-5.4-7-8.7c0.1-1.4,1.2-2,2.4-1.9c2.3,0.1,3.6,2.2,3.9,4l0.6,0L136.2,245L136.2,245"/>
<path id="path3195" inkscape:connector-curvature="0" class="st4" d="M140,260.3c0.5,0,1.2-0.4,1.2-1.2c0-0.7-0.6-1.2-1.3-1.2
	c-0.7,0-1.2,0.6-1.2,1.3C138.7,260,139.5,260.3,140,260.3L140,260.3"/>
<path id="path3197" inkscape:connector-curvature="0" class="st4" d="M161.5,257.5c-1,0.1-1.3-0.1-2.3-1.6l-7.2-11.7l-0.4,0.1
	l-3.1,11.5c-0.3,1-0.7,2.7-1.2,3.4c-0.3,0.5-0.7,0.6-1.1,0.6l0.1,0.4l4.4-0.6l-0.1-0.4c-0.5,0.1-1.5,0.2-1.6-0.7
	c0-0.2,0-0.6,0.1-0.9l0.7-2.7l5.8-0.8l1.2,2c0.2,0.3,0.6,1,0.6,1.3c0.1,0.8-0.6,0.9-1.4,1.1l0.1,0.4l5.6-0.8L161.5,257.5
	L161.5,257.5L161.5,257.5z M150,253.7l1.7-6.4l3.4,5.7L150,253.7L150,253.7"/>
<path id="path3199" inkscape:connector-curvature="0" class="st4" d="M164.1,257.4c0.5-0.1,1.1-0.7,0.9-1.5
	c-0.2-0.7-0.9-1.1-1.5-0.9c-0.6,0.2-1.1,0.8-0.9,1.5C162.8,257.4,163.6,257.6,164.1,257.4L164.1,257.4"/>
<path id="path3327" inkscape:connector-curvature="0" class="st4" d="M26.2,124c-0.1,1-0.4,1.3-2,1.9l-12.9,4.9l0,0.4l10.7,5.2
	c1,0.5,2.5,1.2,3.1,1.8c0.4,0.4,0.4,0.8,0.4,1.2l0.4,0l0.2-4.4l-0.4,0c0,0.5-0.1,1.5-1,1.5c-0.2,0-0.6-0.1-0.8-0.2l-2.5-1.2l0.3-5.8
	l2.2-0.8c0.3-0.1,1.1-0.4,1.4-0.3c0.8,0,0.8,0.8,0.8,1.6l0.4,0l0.3-5.7L26.2,124L26.2,124L26.2,124z M20.4,134.6l-6-2.9l6.2-2.3
	L20.4,134.6L20.4,134.6"/>
<path id="path3329" inkscape:connector-curvature="0" class="st4" d="M25.1,110.3l-0.1,0.6c2.1,1.3,2.6,2.5,2.1,5.3
	c-0.5,3.3-0.5,3.3-1.4,3.1l-5.4-0.9l0.6-3.4c0.3-1.8,0.7-2.1,2.5-2.1l0.1-0.5l-5.1-0.8l-0.1,0.5c1.5,0.5,2,0.8,1.7,2.7l-0.5,3.4
	l-4.9-0.8c-0.7-0.1-0.7-0.4-0.6-0.8l0.5-3c0.4-2.4,0.8-3,2.8-3l0.1-0.5l-3.2-0.4l-1.8,11.7l0.4,0.1c0.3-1.4,0.5-1.9,2.3-1.6l9.8,1.5
	c1.7,0.3,1.8,0.8,1.7,2.2l0.4,0.1l1.9-11.9L25.1,110.3L25.1,110.3"/>
<path id="path3331" inkscape:connector-curvature="0" class="st4" d="M33,96.7c-0.3,0.9-0.9,1.2-1.6,1.5l-6.8,2.6
	c0.1-1.1,0.5-4.1-2.3-5c-3.3-1.1-4.8,2.3-5.4,4.2l-1.9,5.8l0.4,0.1c0.6-1.4,0.9-1.7,2.5-1.2l9.2,3c1.6,0.5,2,0.7,1.6,2.5l0.4,0.1
	l1.9-5.9l-0.4-0.1c-0.6,1.7-1.1,1.7-2.5,1.3l-4.2-1.4l0.3-1.2l8.1-2.9l1.1-3.4L33,96.7L33,96.7L33,96.7z M17.8,102.4
	c-0.6-0.2-0.7-0.4-0.3-1.6c0.3-0.9,1.2-3.6,4.1-2.7c3,1,2,4.2,1.5,6L17.8,102.4L17.8,102.4"/>
<path id="path3333" inkscape:connector-curvature="0" class="st4" d="M36.5,90.5c1.6-3.7,0.3-7.8-4-9.8c-4.7-2.1-8.5,0.2-10,3.5
	c-1.5,3.3-0.6,7.7,4.1,9.8C30.9,96,34.9,94.2,36.5,90.5L36.5,90.5L36.5,90.5z M35.8,90.2c-1,2.3-3.7,3.5-8.2,1.5
	c-4.6-2.1-5.3-5-4.4-7.1c0.9-2.1,3.6-3.6,8.2-1.5C35.9,85.1,36.8,88,35.8,90.2L35.8,90.2"/>
<path id="path3335" inkscape:connector-curvature="0" class="st4" d="M35.4,62.2l-2.8,4.4l0.4,0.2c0.9-1.2,1.4-1.7,3.5-0.3l6.3,3.9
	l0,0l-13.6,1.6l-2,3.2l0.4,0.2c0.5-0.8,0.8-1,2.2-1.2l8.3,5.2c2,1.3,2.1,1.8,1.3,3.3l0.4,0.2l2.8-4.4l-0.4-0.2
	c-0.9,1.3-1.6,1.5-3.5,0.3l-7.4-4.6l0,0l15.5-1.8L47,72l-9.9-6.2c-2.2-1.4-1.9-2-1.3-3.3L35.4,62.2L35.4,62.2"/>
<path id="path3337" inkscape:connector-curvature="0" class="st4" d="M57.4,58.4c-0.7,0.7-1.1,0.8-2.8,0.3l-13.2-3.9l-0.3,0.3
	l5.4,10.6c0.5,1,1.3,2.5,1.4,3.3c0.1,0.6-0.1,0.9-0.4,1.2l0.3,0.3l2.8-3.4l-0.3-0.3c-0.3,0.4-1,1.2-1.7,0.6
	c-0.2-0.2-0.4-0.4-0.5-0.7l-1.3-2.5l3.7-4.5l2.2,0.7c0.3,0.1,1.1,0.3,1.3,0.6c0.6,0.5,0.2,1.1-0.4,1.7l0.3,0.3l3.6-4.3L57.4,58.4
	L57.4,58.4L57.4,58.4z M46.4,63.4l-3-5.9l6.3,2L46.4,63.4L46.4,63.4"/>
<path id="path3339" inkscape:connector-curvature="0" class="st4" d="M58.9,38.1l-3.8,3.5l0.3,0.3c1.2-1,1.9-1.1,3.5,0.7l4,4.5
	c1.2,1.3,1.5,2,1.6,2.6c0.2,1.2-0.2,2.6-1.5,3.7C60,56,58,53.7,57,52.6l-4.8-5.3c-1.1-1.2-1.1-1.6,0.2-2.8l-0.3-0.3l-4.7,4.2
	l0.3,0.3c1.3-1,1.7-1.1,2.8,0.1l4.6,5.2c0.9,1,3.8,4.2,7.9,0.5c4.3-3.9,1.5-7,0.3-8.3l-3.9-4.3c-1.6-1.7-1.5-2.2-0.4-3.5L58.9,38.1
	L58.9,38.1"/>
<path id="path3341" inkscape:connector-curvature="0" class="st4" d="M77.2,43.2c-1.6,1-2.1,0.8-2.9-0.5l-6.2-9.5l1-0.7
	c2.1-1.3,2.8-1.3,4.5,0.5l0.4-0.3l-2.2-3.1l-10.5,6.8l1.9,3.2l0.4-0.3c-0.9-2.3-0.6-3,1.4-4.3l1-0.7l6.1,9.3c0.9,1.4,1.1,1.8-0.5,3
	l0.2,0.4l5.4-3.5L77.2,43.2L77.2,43.2"/>
<path id="path3343" inkscape:connector-curvature="0" class="st4" d="M80.4,41.6l5.8-3.1L86,38.1c-1.5,0.7-2.1,0.8-2.9-0.7l-4.6-8.7
	c-0.8-1.6-0.4-2,1-2.8l-0.2-0.4l-5.8,3.1l0.2,0.4c1.7-0.8,2.1-0.7,2.8,0.8l4.6,8.7c0.7,1.4,0.7,1.9-1,2.8L80.4,41.6L80.4,41.6"/>
<path id="path3345" inkscape:connector-curvature="0" class="st4" d="M95.2,23.7l-2.1-4.6l-0.4,0.2c0.1,0.7-0.6,1-0.7,1.1
	c-0.5,0.2-2.1,0-3.9,0.8c-3.5,1.4-6,5.3-4.1,9.9c2.1,5.1,6.4,5.7,9.8,4.3c3.8-1.5,4.5-4.8,4.5-4.9l-0.5-0.2c-0.4,0.9-1.3,2.9-3.8,4
	c-2.6,1-5.8,0.2-7.5-4.1c-1.2-3-0.8-4.7-0.3-5.8c0.5-1.2,1.6-2.1,2.6-2.5c2.5-1,4.7,0,6.1,2L95.2,23.7L95.2,23.7"/>
<path id="path3347" inkscape:connector-curvature="0" class="st4" d="M104.8,15.4l-0.4,0.1c0,0.2,0.1,0.8-0.5,1
	c-0.5,0.2-1.9-0.2-3.2,0.2c-1.9,0.6-3.5,2.4-2.7,4.8c0.6,2.1,2.3,2.6,4.6,3.2c3.7,0.9,4.2,1.5,4.6,2.7c0.4,1.1-0.1,2.6-1.8,3.1
	c-2.9,0.9-4.8-1.6-5.5-2.4l-0.5,0.1l2,4.3l0.5-0.1c-0.1-0.3,0-0.8,0.4-0.9c0.6-0.2,1.9,0.2,3.5-0.3c3-0.9,3.9-3.4,3.3-5.2
	c-1.3-4.4-8.6-2.6-9.5-5.8c-0.4-1.3,0.5-2.3,1.5-2.6c2.2-0.7,4.2,0.8,5.1,2.4l0.5-0.2L104.8,15.4L104.8,15.4"/>
<path id="path3349" inkscape:connector-curvature="0" class="st4" d="M135.7,26.2c-1,0-1.3-0.2-2.1-1.8l-6.4-12.2l-0.4,0l-3.9,11.2
	c-0.4,1-0.9,2.7-1.4,3.3c-0.4,0.4-0.7,0.5-1.1,0.6l0,0.4l4.4-0.3l0-0.4c-0.5,0-1.5,0.1-1.6-0.8c0-0.2,0-0.6,0.1-0.9l0.8-2.7l5.8-0.4
	l1.1,2.1c0.2,0.3,0.5,1,0.5,1.4c0.1,0.8-0.7,0.9-1.5,1l0,0.4l5.7-0.4L135.7,26.2L135.7,26.2L135.7,26.2z M124.5,21.6l2.1-6.3l3,5.9
	L124.5,21.6L124.5,21.6"/>
<path id="path3351" inkscape:connector-curvature="0" class="st4" d="M153,13l-5.2-0.4l0,0.4c1.5,0.2,2.1,0.4,1.9,3l-0.5,7.4l0,0
	l-7.8-11.3l-3.8-0.3l0,0.4c0.9,0.1,1.2,0.2,2.1,1.4l-0.7,9.8c-0.2,2.4-0.7,2.7-2.4,2.7l0,0.4l5.2,0.4l0-0.4c-1.6-0.2-2-0.7-1.9-3
	l0.6-8.7l0,0l8.9,12.8l0.4,0l0.8-11.7c0.2-2.6,0.9-2.6,2.3-2.7L153,13L153,13"/>
<path id="path3353" inkscape:connector-curvature="0" class="st4" d="M152.9,28l6.2,1.4c6.6,1.5,9.3-2.3,10-5.2c1.1-4.9-1.8-8-7-9.2
	l-5.9-1.3l-0.1,0.4c1.6,0.5,1.8,0.8,1.5,2.4l-2.2,9.6c-0.4,1.5-0.7,1.8-2.4,1.5L152.9,28L152.9,28L152.9,28z M160,16.2
	c0.1-0.4,0.2-0.8,1.2-0.6c2.7,0.6,3.8,1.5,4.6,2.7c1.2,1.7,1.3,3.6,0.9,5.4c-1.5,6.3-6.8,5.1-8.2,4.8c-1-0.2-1.3-0.5-1.1-1.2
	L160,16.2L160,16.2"/>
<path id="path3355" inkscape:connector-curvature="0" class="st4" d="M193.5,26.1l-0.4-0.2c-0.1,0.2-0.5,0.6-1,0.3
	c-0.5-0.2-1.2-1.4-2.4-2c-1.8-0.9-4.2-0.6-5.3,1.6c-1,2-0.1,3.5,1.2,5.4c2.1,3.2,2.1,4,1.5,5.1c-0.5,1.1-1.9,1.8-3.5,1
	c-2.7-1.3-2.5-4.4-2.4-5.5l-0.5-0.2l-1.5,4.5l0.4,0.2c0.2-0.3,0.5-0.6,0.9-0.4c0.6,0.3,1.2,1.4,2.8,2.2c2.9,1.4,5.2,0.1,6-1.6
	c2-4.1-4.5-7.8-3-10.8c0.6-1.2,1.9-1.4,2.9-0.9c2.1,1,2.5,3.4,2,5.3l0.5,0.2L193.5,26.1L193.5,26.1"/>
<path id="path3357" inkscape:connector-curvature="0" class="st4" d="M196.7,28.7c1.3,1,1.4,1.3,0.5,2.7l-5.1,8.2
	c-0.8,1.4-1.1,1.8-2.8,0.9l-0.2,0.4l5.3,3.3l0.2-0.4c-1.4-0.9-1.6-1.4-0.7-2.8l2.1-3.4c0.4,0.3,0.8,0.6,1.2,0.8
	c2,1.2,3.4,1.7,4.7,1.4c0.5-0.1,1.8-0.4,2.7-1.8c1.5-2.4-0.2-4.9-2.8-6.5l-5-3.1L196.7,28.7L196.7,28.7L196.7,28.7z M199.6,31.9
	c0.4-0.6,0.6-0.5,1.2-0.2c0.8,0.5,3.6,2.3,1.9,5c-1.8,2.9-4.3,1.3-5,0.9c-0.4-0.2-0.8-0.5-1.1-0.8L199.6,31.9L199.6,31.9"/>
<path id="path3359" inkscape:connector-curvature="0" class="st4" d="M209.9,55.5c-0.7-0.7-0.8-1.1-0.3-2.8l3.9-13.2l-0.3-0.3
	l-10.6,5.4c-1,0.5-2.5,1.3-3.3,1.4c-0.6,0.1-0.9-0.1-1.2-0.4l-0.3,0.3l3.4,2.8l0.3-0.3c-0.4-0.3-1.2-1-0.6-1.7
	c0.2-0.2,0.4-0.4,0.7-0.5l2.5-1.3l4.5,3.7l-0.7,2.2c-0.1,0.3-0.3,1.1-0.6,1.3c-0.5,0.6-1.1,0.2-1.7-0.4l-0.3,0.3l4.3,3.6L209.9,55.5
	L209.9,55.5L209.9,55.5z M205,44.4l5.9-3l-2,6.3L205,44.4L205,44.4"/>
<path id="path3361" inkscape:connector-curvature="0" class="st4" d="M225.8,57.8l3.4-3.7l-0.3-0.3c-0.6,0.4-1.2-0.1-1.2-0.2
	c-0.3-0.3-0.8-1.9-2.2-3.3c-2.7-2.7-7.2-3.4-10.8,0.1c-3.9,3.9-2.7,8.1-0.2,10.7c2.9,2.9,6.2,2.3,6.3,2.3v-0.6c-1,0-3.2,0-5.1-2
	c-2-2-2.5-5.2,0.8-8.6c2.3-2.3,4-2.6,5.2-2.6c1.3,0,2.5,0.6,3.3,1.4c1.9,1.9,1.8,4.3,0.6,6.4L225.8,57.8L225.8,57.8"/>
<path id="path3363" inkscape:connector-curvature="0" class="st4" d="M230.1,74.2l-0.4-0.5c-2.4,0.5-3.6,0-5.2-2.2
	c-1.9-2.7-1.9-2.7-1.2-3.2l4.5-3.2l2,2.8c1.1,1.5,1,2-0.3,3.2l0.3,0.4l4.2-3l-0.3-0.4c-1.4,0.7-2,0.9-3.1-0.7l-2-2.8l4-2.9
	c0.6-0.4,0.8-0.2,1,0.1l1.8,2.4c1.5,2,1.5,2.7,0.1,4.1l0.3,0.4l2.5-1.9l-6.9-9.6l-0.3,0.2c0.7,1.2,0.9,1.7-0.5,2.7l-8,5.8
	c-1.4,1-1.8,0.7-2.8-0.4l-0.3,0.2l7.1,9.7L230.1,74.2L230.1,74.2"/>
<path id="path3365" inkscape:connector-curvature="0" class="st4" d="M239.4,100.1c-0.3-0.9-0.2-1.3,1-2.6l9.3-10.2l-0.2-0.4
	l-11.9,0.2c-1.1,0-2.8,0-3.5-0.2c-0.5-0.2-0.7-0.5-0.9-0.8l-0.4,0.2l1.8,4l0.4-0.2c-0.2-0.4-0.6-1.4,0.2-1.8
	c0.2-0.1,0.5-0.2,0.8-0.2l2.8-0.1l2.4,5.3l-1.6,1.7c-0.2,0.2-0.8,0.8-1.1,1c-0.8,0.3-1.1-0.3-1.4-1.1l-0.4,0.2l2.3,5.2L239.4,100.1
	L239.4,100.1L239.4,100.1z M239.8,88l6.6-0.2l-4.5,4.8L239.8,88L239.8,88"/>
<path id="path3367" inkscape:connector-curvature="0" class="st4" d="M238.8,100.4l1.7,6.1c1.9,6.5,6.5,7,9.4,6.2
	c4.8-1.4,6.1-5.4,4.7-10.6l-1.7-5.8l-0.4,0.1c0.3,1.7,0.2,2-1.4,2.4l-9.5,2.7c-1.5,0.4-1.9,0.3-2.5-1.3L238.8,100.4L238.8,100.4
	L238.8,100.4z M252.5,100.9c0.4-0.1,0.8-0.2,1.1,0.8c0.8,2.7,0.5,4.1-0.1,5.3c-0.9,1.9-2.5,2.9-4.3,3.4c-6.2,1.8-7.7-3.5-8.1-4.8
	c-0.3-1-0.2-1.3,0.5-1.5L252.5,100.9L252.5,100.9"/>
<path id="path3369" inkscape:connector-curvature="0" class="st4" d="M259.7,132.2l-0.5-4.4l-11.7-3.5l10.5-6.5l-0.5-4.4l-0.4,0.1
	c0.1,1.6,0,2.1-1.7,2.3l-9,1.1c-2.4,0.3-2.8-0.1-3.1-1.8l-0.4,0.1l0.6,5.2l0.4-0.1c-0.1-1.6,0.3-2.1,2.6-2.4l8.8-1.1l0,0l-11.4,7
	l0,0.3l13.2,4.1l0,0l-9.9,1.2c-1.8,0.2-2.2,0-2.5-1.7l-0.4,0.1l0.8,6.2l0.4-0.1c-0.1-1.4,0.1-2,1.8-2.2l9.8-1.2
	c1.7-0.2,1.9,0.3,2.2,1.7L259.7,132.2L259.7,132.2"/>
<path id="path3371" inkscape:connector-curvature="0" class="st4" d="M245.1,134.2l-0.1,6.6l0.4,0c0.1-1.6,0.3-2.2,2-2.1l9.9,0.2
	c1.8,0,1.9,0.6,2,2.2l0.4,0l0.1-6.6l-0.4,0c-0.1,1.8-0.4,2.2-2,2.1l-9.9-0.2c-1.6,0-2-0.3-2-2.2L245.1,134.2L245.1,134.2"/>
<path id="path3373" inkscape:connector-curvature="0" class="st4" d="M257.5,158l0.6-5.2l-0.4-0.1c-0.3,1.5-0.5,2.1-3.1,1.8
	l-7.4-0.9l0,0l11.7-7.2l0.5-3.8l-0.4-0.1c-0.1,0.9-0.3,1.2-1.5,2l-9.7-1.2c-2.4-0.3-2.7-0.8-2.6-2.5l-0.4-0.1l-0.6,5.2l0.4,0.1
	c0.3-1.6,0.8-2,3.1-1.7l8.6,1.1l0,0l-13.3,8.2l0,0.4l11.6,1.4c2.6,0.3,2.6,1,2.6,2.4L257.5,158L257.5,158"/>
<path id="path3375" inkscape:connector-curvature="0" class="st4" d="M242.8,156.2l-1.5,6.4l0.4,0.1c0.4-1.6,0.7-2.1,2.4-1.7
	l9.6,2.2c1.7,0.4,1.8,1,1.5,2.6l0.4,0.1l1.5-6.4l-0.4-0.1c-0.5,1.8-0.8,2-2.4,1.7l-9.6-2.2c-1.5-0.4-1.8-0.7-1.5-2.6L242.8,156.2
	L242.8,156.2"/>
<path id="path3377" inkscape:connector-curvature="0" class="st4" d="M253.2,175.9l0.1-0.4c-0.2-0.1-0.7-0.4-0.5-1
	c0.2-0.5,1.2-1.5,1.6-2.8c0.6-1.9-0.1-4.2-2.5-4.9c-2.1-0.6-3.4,0.5-5.1,2.1c-2.7,2.6-3.6,2.7-4.8,2.4c-1.2-0.3-2.1-1.5-1.6-3.2
	c0.8-2.9,3.9-3.2,5-3.3l0.1-0.5l-4.7-0.7l-0.1,0.5c0.3,0.1,0.6,0.4,0.5,0.9c-0.2,0.6-1.2,1.5-1.7,3.1c-0.9,3.1,0.8,5.1,2.6,5.6
	c4.4,1.3,6.9-5.8,10.1-4.8c1.3,0.4,1.7,1.7,1.4,2.7c-0.6,2.2-3,3.1-4.8,2.9l-0.2,0.5L253.2,175.9L253.2,175.9"/>
<path id="path3379" inkscape:connector-curvature="0" class="st4" d="M234.6,182.9c0.8-1.7,1.3-1.8,2.7-1.1l10.4,4.6l-0.5,1.1
	c-1,2.2-1.6,2.6-4,2.1l-0.2,0.5l3.5,1.4l5.1-11.5l-3.4-1.7l-0.2,0.5c2,1.4,2.2,2.2,1.2,4.4l-0.5,1.1l-10.2-4.5
	c-1.5-0.7-1.9-0.9-1.2-2.8l-0.4-0.2l-2.6,5.9L234.6,182.9L234.6,182.9"/>
<path id="path3381" inkscape:connector-curvature="0" class="st4" d="M226.1,198.1c0.5-0.8,1.1-1,1.9-1.2l7.2-1.2
	c-0.4,1.1-1.4,3.9,1.2,5.4c3,1.7,5.2-1.2,6.2-2.9l3.1-5.3l-0.4-0.2c-0.9,1.3-1.3,1.5-2.7,0.6l-8.3-4.8c-1.4-0.8-1.8-1.1-1-2.8
	l-0.4-0.2l-3.1,5.3l0.4,0.2c1-1.5,1.4-1.5,2.7-0.7l3.8,2.2l-0.6,1.1l-8.6,1.2l-1.8,3.1L226.1,198.1L226.1,198.1L226.1,198.1z
	 M242.1,195.7c0.6,0.3,0.6,0.6,0,1.6c-0.5,0.8-2,3.3-4.5,1.8c-2.8-1.6-1.1-4.5-0.2-6.1L242.1,195.7L242.1,195.7"/>
<path id="path3383" inkscape:connector-curvature="0" class="st4" d="M216.6,210.1c0.7-0.7,1-0.8,2.8-0.4l13.4,3.4l0.3-0.4
	l-5.8-10.4c-0.5-0.9-1.4-2.5-1.5-3.2c-0.1-0.6,0.1-0.9,0.3-1.2l-0.3-0.3l-2.7,3.5l0.3,0.3c0.3-0.4,0.9-1.2,1.7-0.6
	c0.2,0.2,0.4,0.4,0.6,0.7l1.4,2.4l-3.6,4.6l-2.2-0.6c-0.3-0.1-1.1-0.3-1.4-0.5c-0.6-0.5-0.2-1.1,0.3-1.7l-0.3-0.3l-3.5,4.5
	L216.6,210.1L216.6,210.1L216.6,210.1z M227.4,204.8l3.2,5.8l-6.4-1.7L227.4,204.8L227.4,204.8"/>
<path id="path3385" inkscape:connector-curvature="0" class="st4" d="M211.3,215.2c1.3-1.3,1.8-1.2,2.9-0.1l8.2,7.9l-0.8,0.9
	c-1.7,1.8-2.4,1.9-4.5,0.6l-0.4,0.4l2.8,2.5l8.7-9l-2.6-2.7l-0.4,0.4c1.4,2,1.3,2.8-0.4,4.5l-0.8,0.9l-8-7.7
	c-1.2-1.1-1.5-1.5-0.2-3.1l-0.3-0.3l-4.5,4.7L211.3,215.2L211.3,215.2"/>
<path id="path3387" inkscape:connector-curvature="0" class="st4" d="M208.7,217l-5.1,4.2l0.3,0.3c1.3-1,1.8-1.2,3,0.1l6.3,7.6
	c1.1,1.4,0.8,1.8-0.4,2.9l0.3,0.3l5.1-4.2l-0.3-0.3c-1.5,1.1-1.9,1.1-2.9-0.1l-6.3-7.6c-1-1.2-1.1-1.7,0.4-2.9L208.7,217L208.7,217"
	/>
<path id="path3389" inkscape:connector-curvature="0" class="st4" d="M197.2,225.5c-3.3,2.3-4.3,6.6-1.6,10.4
	c2.9,4.2,7.4,4.2,10.4,2.1c3-2.1,4.5-6.3,1.5-10.5C204.8,223.7,200.5,223.2,197.2,225.5L197.2,225.5z M197.7,226.2
	c2-1.4,5-1.1,7.8,2.9c2.9,4.2,1.9,7,0.1,8.3c-1.9,1.3-4.9,1.2-7.8-2.9C194.9,230.5,195.7,227.6,197.7,226.2L197.7,226.2"/>
<path id="path3391" inkscape:connector-curvature="0" class="st4" d="M184.1,250.2l4.7-2.4l-0.2-0.4c-1.4,0.6-2,0.7-3.2-1.6
	l-3.4-6.6l0,0l12.4,5.7l3.4-1.7l-0.2-0.4c-0.8,0.4-1.2,0.5-2.5-0.1l-4.5-8.7c-1.1-2.1-0.8-2.6,0.6-3.5l-0.2-0.4l-4.7,2.4l0.2,0.4
	c1.5-0.7,2.1-0.5,3.2,1.6l3.9,7.7l0,0l-14.3-6.4l-0.3,0.2l5.3,10.4c1.2,2.3,0.6,2.7-0.6,3.5L184.1,250.2L184.1,250.2"/>
<path id="path3393" inkscape:connector-curvature="0" class="st4" d="M57.9,213.6c1.3,1.3,1.3,1.8,0.2,2.9l-7.6,8.4l-0.9-0.8
	c-1.8-1.6-2-2.4-0.7-4.5l-0.4-0.4l-2.4,2.9l9.3,8.4l2.6-2.7l-0.4-0.4c-2,1.5-2.7,1.4-4.5-0.3l-0.9-0.8l7.4-8.3
	c1.1-1.2,1.5-1.6,3.1-0.3l0.3-0.3l-4.8-4.3L57.9,213.6L57.9,213.6"/>
<path id="path3395" inkscape:connector-curvature="0" class="st4" d="M69.4,241.2l4.6,2.5l0.2-0.4c-1.3-0.8-1.7-1.3-0.5-3.5l3.5-6.6
	l0,0l2.5,13.4l3.4,1.8l0.2-0.4c-0.8-0.4-1-0.7-1.3-2.1l4.6-8.7c1.1-2.1,1.7-2.2,3.2-1.5l0.2-0.4l-4.6-2.5l-0.2,0.4
	c1.4,0.8,1.6,1.5,0.5,3.5l-4.1,7.7l0,0l-2.9-15.4l-0.3-0.2l-5.5,10.3c-1.2,2.3-1.9,2-3.2,1.5L69.4,241.2L69.4,241.2"/>
<path id="path3397" inkscape:connector-curvature="0" class="st4" d="M63.7,219.1c0.7,0.6,0.8,1,0.4,2.7L61,235.2l0.4,0.3l10.3-5.9
	c0.9-0.5,2.5-1.4,3.2-1.5c0.6-0.1,0.9,0.1,1.2,0.3l0.3-0.3l-3.5-2.7l-0.3,0.3c0.4,0.3,1.2,0.9,0.6,1.7c-0.1,0.2-0.4,0.4-0.7,0.6
	l-2.4,1.5l-4.7-3.5l0.6-2.3c0.1-0.3,0.3-1.1,0.5-1.4c0.5-0.7,1.1-0.2,1.8,0.3l0.3-0.3l-4.5-3.4L63.7,219.1L63.7,219.1L63.7,219.1z
	 M69.3,229.9l-5.7,3.3l1.6-6.4L69.3,229.9L69.3,229.9"/>
<path id="path3399" inkscape:connector-curvature="0" class="st4" d="M55.4,210.2l-4.4-4.9l-0.3,0.3c1.1,1.3,1.3,1.8,0,3l-7.3,6.6
	c-1.3,1.2-1.8,0.9-2.9-0.3l-0.3,0.3l4.4,4.9l0.3-0.3c-1.2-1.4-1.2-1.8,0-2.9l7.3-6.6c1.2-1.1,1.6-1.1,2.9,0.3L55.4,210.2L55.4,210.2
	"/>
<path id="path3401" inkscape:connector-curvature="0" class="st4" d="M46.1,198.1c-2.3-3.3-6.5-4.4-10.4-1.7
	c-4.2,2.9-4.4,7.3-2.3,10.3c2,3,6.2,4.6,10.4,1.7C47.7,205.8,48.3,201.5,46.1,198.1L46.1,198.1L46.1,198.1z M45.4,198.6
	c1.4,2,1,5-3,7.8c-4.2,2.8-7.1,1.8-8.3-0.1c-1.3-1.9-1.2-4.9,3-7.8C41.1,195.8,44.1,196.5,45.4,198.6L45.4,198.6"/>
<path id="path3403" inkscape:connector-curvature="0" class="st4" d="M20.9,183.9l2.3,4.7l0.4-0.2c-0.6-1.4-0.7-2,1.6-3.2l6.7-3.3
	l0,0L26,194.4l1.7,3.4l0.4-0.2c-0.4-0.8-0.4-1.2,0.2-2.5l8.8-4.3c2.2-1.1,2.7-0.8,3.5,0.7l0.4-0.2l-2.3-4.7l-0.4,0.2
	c0.7,1.5,0.4,2.1-1.6,3.1l-7.8,3.8l0,0l6.7-14.1l-0.2-0.3l-10.5,5.1c-2.3,1.1-2.7,0.5-3.5-0.7L20.9,183.9L20.9,183.9"/>
<path id="path3405" inkscape:connector-curvature="0" class="st4" d="M28.8,162.9c0.2,1,0.1,1.3-1.2,2.5l-10.3,9.2l0.1,0.4l11.8,1
	c1.1,0.1,2.8,0.3,3.5,0.6c0.5,0.3,0.7,0.6,0.8,0.9l0.4-0.1l-1.4-4.2l-0.4,0.1c0.1,0.4,0.5,1.4-0.4,1.7c-0.2,0.1-0.5,0.1-0.9,0.1
	l-2.8-0.2l-1.8-5.5l1.7-1.5c0.3-0.2,0.9-0.7,1.2-0.8c0.8-0.3,1,0.4,1.3,1.2l0.4-0.1l-1.8-5.4L28.8,162.9L28.8,162.9L28.8,162.9z
	 M27.2,174.9l-6.6-0.5l5-4.3L27.2,174.9L27.2,174.9"/>
<path id="path3407" inkscape:connector-curvature="0" class="st4" d="M13.4,158l1,6.2l0.4-0.1c-0.1-1.4-0.1-1.9,1.7-2.2l9.8-1.5
	c1.7-0.3,2,0.2,2.3,1.6l0.4-0.1l-1.9-11.8l-4-0.5l0.1,0.6c3.1,0.8,3.4,2.2,3.9,5.5c0.3,1.8,0.3,2.2-0.5,2.4l-10.4,1.6
	c-1.7,0.3-2-0.2-2.3-1.7L13.4,158L13.4,158"/>
<path id="path3177" inkscape:connector-curvature="0" class="st4" d="M72.5,118.3c0,0-20.8,7.1-20.8,7c0-0.1,2,1.1,2,1.1
	s14.6-4.5,17.2-5.1C70.9,121.2,71.4,119.7,72.5,118.3L72.5,118.3"/>
<path id="path3181" inkscape:connector-curvature="0" class="st5" d="M66.2,140.2c0-25.2,20.4-45.5,45.5-45.5
	c25.2,0,45.5,20.4,45.5,45.5c0,25.2-20.4,45.5-45.5,45.5C86.6,185.7,66.2,165.3,66.2,140.2L66.2,140.2"/>
<path id="path3183" inkscape:connector-curvature="0" class="st6" d="M66.2,140.2c0-25.2,20.4-45.5,45.5-45.5
	c25.2,0,45.5,20.4,45.5,45.5c0,25.2-20.4,45.5-45.5,45.5C86.6,185.7,66.2,165.3,66.2,140.2L66.2,140.2z"/>
<path id="path3413" inkscape:connector-curvature="0" class="st5" d="M134.5,177.6c-19.3,11.5-39.3,6.2-44.1-0.7
	c-4.7-7-6.2-17.7-2.9-26.1c1.5-3.8,2.6-12.2,19.3-22.9c22.7-14.6,39.1-4.5,39.1-4.5s5.3,1.1,9,10.1
	C158.5,141.8,154.6,165.7,134.5,177.6L134.5,177.6"/>
<path id="path3415" inkscape:connector-curvature="0" class="st7" d="M134.4,177.3c-19.1,11.4-39,6.3-43.8-0.6
	c-4.8-6.9-6.2-17.6-2.9-26c1.5-3.8,2.6-12.1,19.2-22.8c22.5-14.5,38.9-4.4,38.9-4.4s5.2,1,8.9,9.9
	C158.1,141.5,154.5,165.3,134.4,177.3L134.4,177.3"/>
<path id="path3417" inkscape:connector-curvature="0" class="st8" d="M134.3,176.9c-18.9,11.3-38.7,6.4-43.6-0.4
	c-4.8-6.8-6.1-17.5-2.9-25.8c1.5-3.8,2.6-12,19.1-22.6c22.4-14.4,38.6-4.4,38.6-4.4s5,0.8,8.8,9.6
	C157.7,141.2,154.4,164.9,134.3,176.9L134.3,176.9"/>
<path id="path3419" inkscape:connector-curvature="0" class="st9" d="M134.2,176.5c-18.6,11.2-38.4,6.4-43.4-0.3
	c-4.9-6.7-6.1-17.4-2.8-25.7c1.5-3.7,2.6-12,19-22.5c22.3-14.3,38.4-4.4,38.4-4.4s4.9,0.7,8.6,9.4
	C157.4,140.9,154.3,164.5,134.2,176.5L134.2,176.5"/>
<path id="path3421" inkscape:connector-curvature="0" class="st10" d="M134.1,176.1C115.7,187.2,96,182.6,91,176
	c-5-6.5-6-17.3-2.8-25.5c1.5-3.7,2.6-11.9,18.9-22.4c22.1-14.2,38.2-4.4,38.2-4.4s4.8,0.6,8.5,9.2
	C157,140.6,154.2,164.1,134.1,176.1L134.1,176.1"/>
<path id="path3423" inkscape:connector-curvature="0" class="st11" d="M134,175.8c-18.2,11-37.8,6.5-42.9,0.1
	c-5-6.4-6-17.2-2.8-25.4c1.4-3.7,2.5-11.8,18.8-22.2c22-14.1,37.9-4.3,37.9-4.3s4.6,0.4,8.4,8.9C156.7,140.3,154.1,163.6,134,175.8
	L134,175.8"/>
<path id="path3425" inkscape:connector-curvature="0" class="st12" d="M134,175.4c-17.9,10.9-37.5,6.6-42.6,0.2
	c-5.1-6.3-6-17.1-2.8-25.2c1.4-3.7,2.5-11.8,18.6-22.1c21.9-14,37.7-4.3,37.7-4.3s4.5,0.3,8.2,8.7C156.3,139.9,154,163.2,134,175.4
	L134,175.4"/>
<path id="path3427" inkscape:connector-curvature="0" class="st13" d="M133.9,175c-17.7,10.8-37.2,6.7-42.4,0.4
	c-5.1-6.2-5.9-17-2.8-25c1.4-3.6,2.5-11.7,18.5-22c21.7-13.9,37.5-4.3,37.5-4.3s4.4,0.1,8.1,8.5C156,139.6,153.9,162.8,133.9,175
	L133.9,175"/>
<path id="path3429" inkscape:connector-curvature="0" class="st14" d="M133.8,174.7c-17.5,10.7-36.9,6.7-42.2,0.6
	c-5.2-6.1-5.9-16.9-2.8-24.9c1.4-3.6,2.5-11.6,18.4-21.8c21.6-13.9,37.2-4.3,37.2-4.3s4.2,0,8,8.2
	C155.6,139.3,153.7,162.4,133.8,174.7L133.8,174.7"/>
<path id="path3431" inkscape:connector-curvature="0" class="st14" d="M91.6,170.2c0,0-2.7-5.5-1.9-12.8c0.9-7.3,4.7-15.8,10.8-20.9
	c7.8-6.5,11-8.7,21.9-10.5c11.7-1.9,15.6,3.8,16.8,5.9c0.8,1.3,3.1,5.9,1,9.6C130.5,157.4,109,169,91.6,170.2L91.6,170.2"/>
<path id="path3433" inkscape:connector-curvature="0" class="st13" d="M91.7,169.8c0,0-2.6-5.5-1.8-12.7c0.8-7.2,4.8-15.6,10.9-20.7
	c7.7-6.4,11-8.6,21.7-10.3c11.5-1.9,15.4,3.8,16.6,5.8c0.8,1.3,3,5.7,0.9,9.4C130.7,156.7,108.8,168.7,91.7,169.8L91.7,169.8"/>
<path id="path3435" inkscape:connector-curvature="0" class="st12" d="M91.7,169.4c0,0-2.5-5.5-1.7-12.6c0.8-7.1,5-15.5,11-20.5
	c7.6-6.3,10.9-8.4,21.5-10.1c11.4-1.8,15.2,3.7,16.4,5.7c0.8,1.3,2.9,5.6,0.8,9.2C130.8,156,108.7,168.3,91.7,169.4L91.7,169.4"/>
<path id="path3437" inkscape:connector-curvature="0" class="st11" d="M91.8,169c0,0-2.4-5.5-1.6-12.5c0.8-7.1,5.1-15.3,11-20.2
	c7.5-6.2,10.8-8.2,21.3-9.9c11.2-1.8,15,3.7,16.2,5.6c0.8,1.2,2.8,5.4,0.8,8.9C130.9,155.2,108.5,167.9,91.8,169L91.8,169"/>
<path id="path3439" inkscape:connector-curvature="0" class="st10" d="M91.8,168.7c0,0-2.3-5.4-1.4-12.4c0.8-7,5.3-15.2,11.1-20
	c7.4-6.2,10.7-8,21-9.7c11.1-1.8,14.8,3.6,16,5.6c0.8,1.2,2.7,5.2,0.7,8.7C131,154.5,108.4,167.6,91.8,168.7L91.8,168.7"/>
<path id="path3441" inkscape:connector-curvature="0" class="st9" d="M91.9,168.3c0,0-2.1-5.4-1.3-12.3c0.8-6.9,5.4-15,11.2-19.8
	c7.3-6.1,10.7-7.9,20.8-9.5c10.9-1.8,14.6,3.6,15.8,5.5c0.7,1.2,2.6,5,0.6,8.5C131.2,153.8,108.2,167.2,91.9,168.3L91.9,168.3"/>
<path id="path3443" inkscape:connector-curvature="0" class="st8" d="M92,167.9c0,0-2-5.4-1.2-12.2c0.8-6.8,5.6-14.8,11.3-19.6
	c7.2-6,10.6-7.7,20.6-9.3c10.8-1.7,14.4,3.5,15.6,5.4c0.7,1.2,2.5,4.8,0.5,8.3C131.3,153,108.1,166.9,92,167.9L92,167.9"/>
<path id="path3445" inkscape:connector-curvature="0" class="st7" d="M92,167.5c0,0-1.9-5.4-1.1-12.1c0.8-6.7,5.7-14.7,11.3-19.4
	c7.1-5.9,10.5-7.5,20.4-9.1c10.7-1.7,14.2,3.5,15.4,5.4c0.7,1.2,2.4,4.7,0.4,8C131.4,152.3,107.9,166.5,92,167.5L92,167.5"/>
<path id="path3447" inkscape:connector-curvature="0" class="st5" d="M92.1,167.2c0,0-1.8-5.4-1-12c0.8-6.6,5.8-14.5,11.4-19.2
	c7-5.8,10.4-7.4,20.2-8.9c10.5-1.7,14,3.4,15.2,5.3c0.7,1.2,2.2,4.5,0.4,7.8C131.6,151.6,107.7,166.1,92.1,167.2L92.1,167.2"/>
<path id="path3451" inkscape:connector-curvature="0" class="st1" d="M204.2,136.8c0.5-1.1,2.3-1.2,4-0.4c1.7,0.8,2.6,2.3,2.1,3.4
	s-2.3,1.2-4,0.4C204.7,139.3,203.7,137.8,204.2,136.8L204.2,136.8"/>
<path id="path3242" inkscape:connector-curvature="0" class="st1" d="M181.9,109.7c0-5.7,4.6-10.3,10.3-10.3
	c5.7,0,10.3,4.6,10.3,10.3S198,120,192.3,120C186.6,120,181.9,115.4,181.9,109.7L181.9,109.7"/>
<path id="path3246" inkscape:connector-curvature="0" sodipodi:nodetypes="csscsscc" class="st15" d="M199.4,102.2c0,0.3,0,0.7,0,1
	c0,6.9-5.6,12.5-12.5,12.5c-1.3,0-2.3-0.2-3.4-0.5c1.9,2.3,4.5,3.7,7.7,3.7c5.7,0,10.3-4.6,10.3-10.3
	C201.5,106.2,200.7,103.9,199.4,102.2L199.4,102.2"/>
<path id="path3248" inkscape:connector-curvature="0" sodipodi:nodetypes="csscsscc" class="st16" d="M199.5,102.3c0,0.3,0,0.7,0,1
	c0,6.9-5.6,12.5-12.5,12.5c-1.3,0-2.3-0.2-3.5-0.5c1.9,2.3,4.6,3.7,7.8,3.7c5.7,0,10.3-4.6,10.3-10.3
	C201.6,106.3,200.9,104.1,199.5,102.3L199.5,102.3"/>
<path id="path3250" inkscape:connector-curvature="0" sodipodi:nodetypes="csscsscc" class="st17" d="M199.6,102.4c0,0.3,0,0.7,0,1
	c0,6.9-5.6,12.5-12.5,12.5c-1.3,0-2.4-0.2-3.6-0.5c1.9,2.3,4.7,3.7,7.9,3.7c5.7,0,10.3-4.6,10.3-10.3
	C201.7,106.4,201,104.2,199.6,102.4L199.6,102.4"/>
<path id="path3252" inkscape:connector-curvature="0" sodipodi:nodetypes="csscsscc" class="st18" d="M199.7,102.6c0,0.3,0,0.7,0,1
	c0,6.9-5.6,12.5-12.5,12.5c-1.3,0-2.4-0.2-3.6-0.5c1.9,2.3,4.7,3.7,7.9,3.7c5.7,0,10.3-4.6,10.3-10.3
	C201.9,106.6,201.1,104.3,199.7,102.6L199.7,102.6"/>
<path id="path3254" inkscape:connector-curvature="0" class="st19" d="M199.9,102.7c0,0.3,0,0.7,0,1c0,6.9-5.6,12.5-12.5,12.5
	c-1.3,0-2.5-0.2-3.6-0.5c1.9,2.3,4.7,3.7,7.9,3.7c5.7,0,10.3-4.6,10.3-10.3C202,106.7,201.2,104.4,199.9,102.7L199.9,102.7"/>
<path id="path3256" inkscape:connector-curvature="0" class="st20" d="M200,102.8c0,0.3,0,0.7,0,1c0,6.9-5.6,12.5-12.5,12.5
	c-1.3,0-2.5-0.2-3.6-0.5c1.9,2.3,4.7,3.7,7.9,3.7c5.7,0,10.3-4.6,10.3-10.3C202.1,106.8,201.3,104.6,200,102.8L200,102.8"/>
<path id="path3258" inkscape:connector-curvature="0" class="st21" d="M200.1,102.9c0,0.3,0,0.7,0,1c0,6.9-5.6,12.5-12.5,12.5
	c-1.3,0-2.5-0.2-3.6-0.5c1.9,2.3,4.7,3.7,7.9,3.7c5.7,0,10.3-4.6,10.3-10.3C202.2,106.9,201.5,104.7,200.1,102.9L200.1,102.9"/>
<path id="path3260" inkscape:connector-curvature="0" class="st22" d="M200.2,103.1c0,0.3,0,0.7,0,1c0,6.9-5.6,12.5-12.5,12.5
	c-1.3,0-2.5-0.2-3.6-0.5c1.9,2.3,4.7,3.7,7.9,3.7c5.7,0,10.3-4.6,10.3-10.3C202.3,107.1,201.6,104.8,200.2,103.1L200.2,103.1"/>
<path id="path3262" inkscape:connector-curvature="0" class="st23" d="M200.3,103.2c0,0.3,0,0.7,0,1c0,6.9-5.6,12.5-12.5,12.5
	c-1.3,0-2.5-0.2-3.6-0.5c1.9,2.3,4.7,3.7,7.9,3.7c5.7,0,10.3-4.6,10.3-10.3C202.5,107.2,201.7,105,200.3,103.2L200.3,103.2"/>
<path id="path3264" inkscape:connector-curvature="0" class="st24" d="M200.5,103.3c0,0.3,0,0.7,0,1c0,6.9-5.6,12.5-12.5,12.5
	c-1.3,0-2.5-0.2-3.6-0.5c1.9,2.3,4.7,3.7,7.9,3.7c5.7,0,10.3-4.6,10.3-10.3C202.6,107.3,201.8,105.1,200.5,103.3L200.5,103.3"/>
<path id="path3266" inkscape:connector-curvature="0" class="st25" d="M181.9,109.7c0-5.7,4.6-10.3,10.3-10.3
	c5.7,0,10.3,4.6,10.3,10.3S198,120,192.3,120C186.6,120,181.9,115.4,181.9,109.7L181.9,109.7z"/>
<path id="path3179" inkscape:connector-curvature="0" class="st26" d="M59.9,153c-6.9-3.4-10.8-7.1-10.6-10.9
	c0.2-4.7,5.5-9.8,19.1-12.2"/>
<path id="path3185" inkscape:connector-curvature="0" class="st27" d="M209.4,139.3c6.3,3.2,9.8,6.8,9.6,10.4
	c-0.5,11.7-38.9,19.4-85.8,17.4c-31.6-1.4-59-6.9-73.3-13.9"/>
<path id="path3187" inkscape:connector-curvature="0" class="st26" d="M209.2,139.1c6.3,3.2,9.8,6.8,9.6,10.4
	c-0.5,11.7-38.9,19.4-85.8,17.4c-31.6-1.4-59-6.9-73.3-13.9"/>
<path id="path3449" inkscape:connector-curvature="0" class="st28" d="M209.4,139.1c6.3,3.2,9.8,6.8,9.6,10.4
	c-0.5,11.7-38.9,19.4-85.8,17.4c-31.6-1.4-59-6.9-73.3-13.9"/>
<path id="path3453" inkscape:connector-curvature="0" class="st4" d="M142.8,106.1c6.5-1.9,18.9-6.9,19.3-7
	c-4.4,2.2-30.5,15.3-40.6,19.5c-9.9,4.1-27.3,12.8-34,16.3c-6.7,3.4-11.7,6.2-20.6,11.6c-8.9,5.4-15.3,12.8-15.3,12.8l0.3,1.8
	c0,0,5-5,11.8-9.7c7.3-5,13.6-8.3,22.3-12.8c8.7-4.5,22.6-11.4,25.3-12.5c2.7-1.1,18.8-7.9,26-11.7c5.8-3.1,47.4-19.3,60.1-46.2
	c-13,14.1-25.8,19.6-32.3,22.9c-5.2,2.6-20.7,8.2-27.8,10.7C139.4,103.3,140.4,104.1,142.8,106.1L142.8,106.1"/>
<path id="path3201" inkscape:connector-curvature="0" class="st1" d="M85.4,61.8c0-0.3,0.2-0.5,0.5-0.5c0.3,0,0.5,0.2,0.5,0.5
	s-0.2,0.5-0.5,0.5C85.6,62.3,85.4,62.1,85.4,61.8L85.4,61.8"/>
<path id="path3203" inkscape:connector-curvature="0" class="st1" d="M79.1,63.9c0-0.4,0.3-0.7,0.7-0.7c0.4,0,0.7,0.3,0.7,0.7
	c0,0.4-0.3,0.7-0.7,0.7C79.4,64.6,79.1,64.3,79.1,63.9L79.1,63.9"/>
<path id="path3205" inkscape:connector-curvature="0" class="st1" d="M86.3,77.8c0-0.3,0.2-0.5,0.5-0.5c0.3,0,0.5,0.2,0.5,0.5
	s-0.2,0.5-0.5,0.5C86.6,78.3,86.3,78.1,86.3,77.8L86.3,77.8"/>
<path id="path3207" inkscape:connector-curvature="0" class="st1" d="M83.6,79.9c0-0.4,0.3-0.6,0.6-0.6c0.4,0,0.6,0.3,0.6,0.6
	c0,0.4-0.3,0.6-0.6,0.6C83.9,80.6,83.6,80.3,83.6,79.9L83.6,79.9"/>
<path id="path3211" inkscape:connector-curvature="0" class="st1" d="M82.3,85c0-0.3,0.3-0.6,0.6-0.6c0.3,0,0.6,0.3,0.6,0.6
	c0,0.3-0.3,0.6-0.6,0.6C82.5,85.5,82.3,85.3,82.3,85L82.3,85"/>
<path id="path3213" inkscape:connector-curvature="0" class="st1" d="M80.1,87.5c0-0.5,0.4-0.9,0.9-0.9c0.5,0,0.9,0.4,0.9,0.9
	c0,0.5-0.4,0.9-0.9,0.9C80.5,88.4,80.1,88,80.1,87.5L80.1,87.5"/>
<path id="path3215" inkscape:connector-curvature="0" class="st1" d="M86.3,93.8c0-0.4,0.3-0.7,0.7-0.7c0.4,0,0.7,0.3,0.7,0.7
	c0,0.4-0.3,0.7-0.7,0.7C86.6,94.5,86.3,94.2,86.3,93.8L86.3,93.8"/>
<path id="path3217" inkscape:connector-curvature="0" class="st1" d="M83.6,96.5c0-0.4,0.4-0.8,0.8-0.8c0.4,0,0.8,0.4,0.8,0.8
	c0,0.4-0.4,0.8-0.8,0.8C83.9,97.3,83.6,97,83.6,96.5L83.6,96.5"/>
<path id="path3219" inkscape:connector-curvature="0" class="st1" d="M66.1,90.9c0-0.4,0.3-0.7,0.7-0.7c0.4,0,0.7,0.3,0.7,0.7
	c0,0.4-0.3,0.7-0.7,0.7C66.4,91.6,66.1,91.3,66.1,90.9L66.1,90.9"/>
<path id="path3221" inkscape:connector-curvature="0" class="st1" d="M77.6,91.2l-0.4-1.7l-1.7-0.4l1.7-0.4l0.4-1.7l0.4,1.7l1.7,0.4
	L78,89.5L77.6,91.2L77.6,91.2"/>
<path id="path3209" inkscape:connector-curvature="0" class="st1" d="M88.3,83.7c0-0.6,0.5-1,1-1c0.6,0,1,0.5,1,1s-0.5,1-1,1
	C88.8,84.8,88.3,84.3,88.3,83.7L88.3,83.7"/>
<path id="path3223" inkscape:connector-curvature="0" class="st1" d="M96,95.3l-0.4-1.7l-1.7-0.4l1.7-0.4l0.4-1.7l0.4,1.7l1.7,0.4
	l-1.7,0.4L96,95.3L96,95.3"/>
<path id="path3231" inkscape:connector-curvature="0" class="st1" d="M190.2,91.8c0-0.4,0.3-0.8,0.8-0.8s0.8,0.3,0.8,0.8
	c0,0.4-0.3,0.8-0.8,0.8S190.2,92.2,190.2,91.8L190.2,91.8"/>
<path id="path3233" inkscape:connector-curvature="0" class="st1" d="M204.1,108.5c0-0.3,0.3-0.6,0.6-0.6c0.3,0,0.6,0.3,0.6,0.6
	s-0.3,0.6-0.6,0.6C204.4,109.1,204.1,108.8,204.1,108.5L204.1,108.5"/>
<path id="path3225" inkscape:connector-curvature="0" class="st1" d="M214.4,108l-0.4-1.7l-1.7-0.4l1.7-0.4l0.4-1.7l0.4,1.7l1.7,0.4
	l-1.7,0.4L214.4,108L214.4,108"/>
<path id="path3227" inkscape:connector-curvature="0" class="st1" d="M216.1,124.4l-0.4-1.7l-1.7-0.4l1.7-0.4l0.4-1.7l0.4,1.7
	l1.7,0.4l-1.7,0.4L216.1,124.4L216.1,124.4"/>
<path id="path3229" inkscape:connector-curvature="0" class="st1" d="M207.9,113.2l-0.4-1.7l-1.7-0.4l1.7-0.4l0.4-1.7l0.4,1.7
	l1.7,0.4l-1.7,0.4L207.9,113.2L207.9,113.2"/>
<path id="path3235" inkscape:connector-curvature="0" class="st1" d="M210.7,109.2c0-0.3,0.3-0.6,0.6-0.6c0.3,0,0.6,0.3,0.6,0.6
	c0,0.3-0.3,0.6-0.6,0.6C211,109.8,210.7,109.6,210.7,109.2L210.7,109.2"/>
<path id="path3237" inkscape:connector-curvature="0" class="st1" d="M204.8,119.6c0-0.3,0.3-0.6,0.6-0.6c0.3,0,0.6,0.3,0.6,0.6
	s-0.3,0.6-0.6,0.6C205.1,120.3,204.8,120,204.8,119.6L204.8,119.6"/>
<path id="path3243" inkscape:connector-curvature="0" class="st1" d="M221.2,112.7c0-0.5,0.4-1,1-1s1,0.4,1,1c0,0.5-0.4,1-1,1
	S221.2,113.2,221.2,112.7L221.2,112.7"/>
<path id="path3245" inkscape:connector-curvature="0" class="st1" d="M207.9,116.7c0-0.3,0.2-0.5,0.5-0.5s0.5,0.2,0.5,0.5
	c0,0.3-0.2,0.5-0.5,0.5S207.9,117,207.9,116.7L207.9,116.7"/>
<path id="path3239" inkscape:connector-curvature="0" class="st1" d="M208.9,122.4c0-0.3,0.3-0.6,0.6-0.6c0.3,0,0.6,0.3,0.6,0.6
	c0,0.3-0.3,0.6-0.6,0.6C209.2,123,208.9,122.7,208.9,122.4L208.9,122.4"/>
<path id="path3241" inkscape:connector-curvature="0" class="st1" d="M210.7,115.7c0-0.2,0.2-0.4,0.4-0.4s0.4,0.2,0.4,0.4
	c0,0.2-0.2,0.4-0.4,0.4C210.8,116,210.7,115.9,210.7,115.7L210.7,115.7"/>
<path id="path3247" inkscape:connector-curvature="0" class="st1" d="M178.6,194.6l-0.5-1.9l-1.9-0.5l1.9-0.5l0.5-1.9l0.5,1.9
	l1.9,0.5l-1.9,0.5L178.6,194.6L178.6,194.6"/>
<path id="path3249" inkscape:connector-curvature="0" class="st1" d="M163,202.9l-0.5-1.9l-1.9-0.5l1.9-0.5l0.5-1.9l0.5,1.9l1.9,0.5
	l-1.9,0.5L163,202.9L163,202.9"/>
<path id="path3253" inkscape:connector-curvature="0" class="st1" d="M159.2,160.5c0-0.4,0.3-0.7,0.7-0.7s0.7,0.3,0.7,0.7
	c0,0.4-0.3,0.7-0.7,0.7S159.2,160.8,159.2,160.5L159.2,160.5"/>
<path id="path3255" inkscape:connector-curvature="0" class="st1" d="M162.1,174.2c0-0.4,0.3-0.7,0.7-0.7c0.4,0,0.6,0.3,0.6,0.7
	c0,0.4-0.3,0.7-0.6,0.7C162.4,174.8,162.1,174.6,162.1,174.2L162.1,174.2"/>
<path id="path3257" inkscape:connector-curvature="0" class="st1" d="M169.4,172.2c0-0.4,0.3-0.7,0.7-0.7s0.7,0.3,0.7,0.7
	c0,0.4-0.3,0.7-0.7,0.7S169.4,172.6,169.4,172.2L169.4,172.2"/>
<path id="path3275" inkscape:connector-curvature="0" class="st1" d="M183.9,199.6c0-0.3,0.2-0.5,0.5-0.5c0.3,0,0.5,0.2,0.5,0.5
	c0,0.3-0.2,0.5-0.5,0.5C184.1,200.1,183.9,199.9,183.9,199.6L183.9,199.6"/>
<path id="path3277" inkscape:connector-curvature="0" class="st1" d="M186.2,197.7c0-0.4,0.4-0.8,0.8-0.8c0.4,0,0.8,0.4,0.8,0.8
	c0,0.4-0.4,0.8-0.8,0.8C186.5,198.5,186.2,198.1,186.2,197.7L186.2,197.7"/>
<path id="path3251" inkscape:connector-curvature="0" class="st1" d="M175.1,205.8l-0.5-1.9l-1.9-0.5l1.9-0.5l0.5-1.9l0.5,1.9
	l1.9,0.5l-1.9,0.5L175.1,205.8L175.1,205.8"/>
<path id="path3259" inkscape:connector-curvature="0" class="st1" d="M153.8,203.9c0-0.4,0.4-0.8,0.8-0.8s0.8,0.3,0.8,0.8
	c0,0.4-0.4,0.8-0.8,0.8S153.8,204.3,153.8,203.9L153.8,203.9"/>
<path id="path3261" inkscape:connector-curvature="0" class="st1" d="M159.7,207.3c0-0.4,0.3-0.7,0.7-0.7c0.4,0,0.7,0.3,0.7,0.7
	c0,0.4-0.3,0.7-0.7,0.7C160,208,159.7,207.6,159.7,207.3L159.7,207.3"/>
<path id="path3263" inkscape:connector-curvature="0" class="st1" d="M156.3,208.4c0-0.4,0.3-0.6,0.6-0.6s0.6,0.3,0.6,0.6
	c0,0.4-0.3,0.6-0.6,0.6S156.3,208.8,156.3,208.4L156.3,208.4"/>
<path id="path3265" inkscape:connector-curvature="0" class="st1" d="M151,213.3c0-0.3,0.3-0.6,0.6-0.6c0.3,0,0.6,0.3,0.6,0.6
	c0,0.3-0.3,0.6-0.6,0.6C151.3,213.9,151,213.6,151,213.3L151,213.3"/>
<path id="path3267" inkscape:connector-curvature="0" class="st1" d="M147.5,212.3c0-0.3,0.2-0.5,0.5-0.5s0.5,0.2,0.5,0.5
	c0,0.3-0.2,0.5-0.5,0.5S147.5,212.6,147.5,212.3L147.5,212.3"/>
<path id="path3269" inkscape:connector-curvature="0" class="st1" d="M166.9,211.7c0-0.4,0.3-0.7,0.7-0.7c0.4,0,0.7,0.3,0.7,0.7
	c0,0.4-0.3,0.7-0.7,0.7C167.3,212.4,166.9,212.1,166.9,211.7L166.9,211.7"/>
<path id="path3273" inkscape:connector-curvature="0" class="st1" d="M181.5,206.7c0-0.4,0.3-0.7,0.7-0.7c0.4,0,0.7,0.3,0.7,0.7
	c0,0.4-0.3,0.7-0.7,0.7S181.5,207.1,181.5,206.7L181.5,206.7"/>
<path id="path3279" inkscape:connector-curvature="0" class="st1" d="M185.9,206c0-0.3,0.2-0.5,0.5-0.5c0.3,0,0.5,0.2,0.5,0.5
	c0,0.3-0.2,0.5-0.5,0.5C186.1,206.5,185.9,206.2,185.9,206L185.9,206"/>
<path id="path3271" inkscape:connector-curvature="0" class="st1" d="M167.9,207.8c0-0.3,0.3-0.6,0.6-0.6c0.3,0,0.6,0.3,0.6,0.6
	c0,0.3-0.3,0.6-0.6,0.6C168.1,208.4,167.9,208.1,167.9,207.8L167.9,207.8"/>
<path id="path3281" inkscape:connector-curvature="0" class="st1" d="M69,186.1l-0.5-1.9l-1.9-0.5l1.9-0.5l0.5-1.9l0.5,1.9l1.9,0.5
	l-1.9,0.5L69,186.1L69,186.1"/>
<path id="path3283" inkscape:connector-curvature="0" class="st1" d="M60.9,176.3c0-0.4,0.3-0.7,0.7-0.7c0.4,0,0.7,0.3,0.7,0.7
	c0,0.4-0.3,0.7-0.7,0.7C61.2,176.9,60.9,176.6,60.9,176.3L60.9,176.3"/>
<path id="path3285" inkscape:connector-curvature="0" class="st1" d="M57.7,178.6c0-0.4,0.3-0.7,0.7-0.7c0.4,0,0.7,0.3,0.7,0.7
	c0,0.4-0.3,0.7-0.7,0.7C58,179.2,57.7,178.9,57.7,178.6L57.7,178.6"/>
<path id="path3287" inkscape:connector-curvature="0" class="st1" d="M76.7,182.3c0-0.3,0.3-0.6,0.6-0.6c0.3,0,0.6,0.3,0.6,0.6
	c0,0.3-0.3,0.6-0.6,0.6C77,182.9,76.7,182.6,76.7,182.3L76.7,182.3"/>
<path id="path3289" inkscape:connector-curvature="0" class="st1" d="M79.8,185.9c0-0.4,0.3-0.7,0.7-0.7c0.4,0,0.7,0.3,0.7,0.7
	s-0.3,0.7-0.7,0.7C80.1,186.6,79.8,186.3,79.8,185.9L79.8,185.9"/>
<path id="path3291" inkscape:connector-curvature="0" class="st1" d="M74.6,189.5c0-0.3,0.3-0.6,0.6-0.6c0.3,0,0.6,0.3,0.6,0.6
	c0,0.3-0.3,0.6-0.6,0.6C74.9,190.1,74.6,189.8,74.6,189.5L74.6,189.5"/>
<path id="path3293" inkscape:connector-curvature="0" class="st1" d="M78,192.1c0-0.3,0.3-0.6,0.6-0.6s0.6,0.3,0.6,0.6
	c0,0.3-0.3,0.6-0.6,0.6S78,192.5,78,192.1L78,192.1"/>
<path id="path3295" inkscape:connector-curvature="0" class="st1" d="M79.2,196.4c0-0.4,0.3-0.7,0.7-0.7c0.4,0,0.7,0.3,0.7,0.7
	c0,0.4-0.3,0.7-0.7,0.7C79.5,197,79.2,196.7,79.2,196.4L79.2,196.4"/>
<path id="path3297" inkscape:connector-curvature="0" class="st1" d="M73.3,192.5c0-0.4,0.4-0.8,0.8-0.8c0.4,0,0.8,0.4,0.8,0.8
	c0,0.4-0.4,0.8-0.8,0.8C73.6,193.3,73.3,193,73.3,192.5L73.3,192.5"/>
</svg>
