<?xml version="1.0" encoding="UTF-8"?>
<svg width="414px" height="178px" viewBox="0 0 414 178" version="1.1" xmlns="http://www.w3.org/2000/svg" xmlns:xlink="http://www.w3.org/1999/xlink">
    <!-- Generator: Sketch 43.1 (39012) - http://www.bohemiancoding.com/sketch -->
    <title>Hero Image - Tues</title>
    <desc>Created with Sketch.</desc>
    <defs>
        <linearGradient x1="0%" y1="0%" x2="101.999998%" y2="100.999999%" id="linearGradient-1">
            <stop stop-color="#025B80" offset="0%"></stop>
            <stop stop-color="#0A8CC6" offset="100%"></stop>
        </linearGradient>
        <rect id="path-2" x="0" y="0" width="414" height="178"></rect>
        <linearGradient x1="100%" y1="-10.2309429%" x2="42.7576902%" y2="82.5960428%" id="linearGradient-4">
            <stop stop-color="#E3F2FD" offset="0%"></stop>
            <stop stop-color="#C5E3FC" offset="74.6649962%"></stop>
            <stop stop-color="#BBDEFB" offset="100%"></stop>
        </linearGradient>
        <linearGradient x1="100%" y1="-10.2309429%" x2="42.7576902%" y2="82.5960428%" id="linearGradient-5">
            <stop stop-color="#E3F2FD" offset="0%"></stop>
            <stop stop-color="#BBDEFB" offset="100%"></stop>
        </linearGradient>
    </defs>
    <g id="Page-1" stroke="none" stroke-width="1" fill="none" fill-rule="evenodd">
        <g id="Schedule-1-Copy" transform="translate(0.000000, -47.000000)">
            <g id="Hero-Image---Tues" transform="translate(0.000000, 47.000000)">
                <g id="Group-13-+-Group-12-Mask">
                    <mask id="mask-3" fill="white">
                        <use xlink:href="#path-2"></use>
                    </mask>
                    <use id="Mask" fill="url(#linearGradient-1)" xlink:href="#path-2"></use>
                    <g id="Group-13" opacity="0.55" mask="url(#mask-3)" stroke="url(#linearGradient-4)">
                        <g transform="translate(247.500000, 82.000000) rotate(11.000000) translate(-247.500000, -82.000000) translate(-81.000000, -259.000000)" id="Path-1172">
                            <path d="M546.073456,100 C546.073456,100 485.67395,538.957103 100,571.374853"></path>
                            <path d="M536.073456,90 C536.073456,90 475.67395,528.957103 90,561.374853"></path>
                            <path d="M526.073456,80 C526.073456,80 465.67395,518.957103 80,551.374853"></path>
                            <path d="M516.073456,70 C516.073456,70 455.67395,508.957103 70,541.374853"></path>
                            <path d="M506.073456,60 C506.073456,60 445.67395,498.957103 60,531.374853"></path>
                            <path d="M496.073456,50 C496.073456,50 435.67395,488.957103 50,521.374853"></path>
                            <path d="M486.073456,40 C486.073456,40 425.67395,478.957103 40,511.374853"></path>
                            <path d="M476.073456,30 C476.073456,30 415.67395,468.957103 30,501.374853"></path>
                            <path d="M466.073456,20 C466.073456,20 405.67395,458.957103 20,491.374853"></path>
                            <path d="M456.073456,10 C456.073456,10 395.67395,448.957103 10,481.374853"></path>
                            <path d="M446.073456,-4.54747351e-13 C446.073456,-4.54747351e-13 385.67395,438.957103 1.56319402e-13,471.374853"></path>
                            <path d="M656.073456,210 C656.073456,210 595.67395,648.957103 210,681.374853"></path>
                            <path d="M646.073456,200 C646.073456,200 585.67395,638.957103 200,671.374853"></path>
                            <path d="M636.073456,190 C636.073456,190 575.67395,628.957103 190,661.374853"></path>
                            <path d="M626.073456,180 C626.073456,180 565.67395,618.957103 180,651.374853"></path>
                            <path d="M616.073456,170 C616.073456,170 555.67395,608.957103 170,641.374853"></path>
                            <path d="M606.073456,160 C606.073456,160 545.67395,598.957103 160,631.374853"></path>
                            <path d="M596.073456,150 C596.073456,150 535.67395,588.957103 150,621.374853"></path>
                            <path d="M586.073456,140 C586.073456,140 525.67395,578.957103 140,611.374853"></path>
                            <path d="M576.073456,130 C576.073456,130 515.67395,568.957103 130,601.374853"></path>
                            <path d="M566.073456,120 C566.073456,120 505.67395,558.957103 120,591.374853"></path>
                            <path d="M556.073456,110 C556.073456,110 495.67395,548.957103 110,581.374853"></path>
                        </g>
                    </g>
                    <g id="Group-12" opacity="0.680620336" mask="url(#mask-3)" stroke="url(#linearGradient-5)">
                        <g transform="translate(318.000000, -307.000000)" id="Path-1183" opacity="0.4">
                            <path d="M0.206535572,291.940985 L147.258653,837.905536"></path>
                            <path d="M3.03164768,284.065045 L150.083765,830.029596"></path>
                            <path d="M5.85675979,276.189105 L152.908877,822.153656"></path>
                            <path d="M8.68187189,268.313165 L155.733989,814.277716"></path>
                            <path d="M11.506984,260.437225 L158.559101,806.401776"></path>
                            <path d="M14.3320961,252.561285 L161.384213,798.525837"></path>
                            <path d="M17.1572082,244.685346 L164.209325,790.649897"></path>
                            <path d="M19.9823203,236.809406 L167.034437,782.773957"></path>
                            <path d="M22.8074324,228.933466 L169.85955,774.898017"></path>
                            <path d="M25.6325445,221.057526 L172.684662,767.022077"></path>
                            <path d="M28.4576566,213.181586 L175.509774,759.146137"></path>
                            <path d="M31.2827688,205.305646 L178.334886,751.270197"></path>
                            <path d="M34.1078809,197.429706 L181.159998,743.394258"></path>
                            <path d="M36.932993,189.553767 L183.98511,735.518318"></path>
                            <path d="M39.7581051,181.677827 L186.810222,727.642378"></path>
                            <path d="M42.5832172,173.801887 L189.635334,719.766438"></path>
                            <path d="M45.4083293,165.925947 L192.460446,711.890498"></path>
                            <path d="M48.2334414,158.050007 L195.285558,704.014558"></path>
                            <path d="M51.0585535,150.174067 L198.110671,696.138619"></path>
                            <path d="M53.8836656,142.298127 L200.935783,688.262679"></path>
                            <path d="M56.7087777,134.422188 L203.760895,680.386739"></path>
                            <path d="M59.5338898,126.546248 L206.586007,672.510799"></path>
                            <path d="M62.3590019,118.670308 L209.411119,664.634859"></path>
                            <path d="M65.184114,110.794368 L212.236231,656.758919"></path>
                            <path d="M68.0092262,102.918428 L215.061343,648.882979"></path>
                            <path d="M70.8343383,95.0424884 L217.886455,641.00704"></path>
                            <path d="M73.6594504,87.1665485 L220.711567,633.1311"></path>
                            <path d="M76.4845625,79.2906087 L223.53668,625.25516"></path>
                            <path d="M79.3096746,71.4146689 L226.361792,617.37922"></path>
                            <path d="M82.1347867,63.538729 L229.186904,609.50328"></path>
                            <path d="M84.9598988,55.6627892 L232.012016,601.62734"></path>
                            <path d="M87.7850109,47.7868493 L234.837128,593.7514"></path>
                            <path d="M90.610123,39.9109095 L237.66224,585.875461"></path>
                            <path d="M93.4352351,32.0349696 L240.487352,577.999521"></path>
                        </g>
                    </g>
                </g>
            </g>
        </g>
    </g>
</svg>