<?xml version="1.0" encoding="UTF-8"?>
<svg width="1280px" height="195px" viewBox="0 0 1280 195" version="1.1" xmlns="http://www.w3.org/2000/svg" xmlns:xlink="http://www.w3.org/1999/xlink">
    <!-- Generator: Sketch 43.1 (39012) - http://www.bohemiancoding.com/sketch -->
    <title>Hero Image - Tues</title>
    <desc>Created with Sketch.</desc>
    <defs>
        <linearGradient x1="16.204696%" y1="37.7483974%" x2="89.1873295%" y2="100%" id="linearGradient-1">
            <stop stop-color="#025B80" offset="0%"></stop>
            <stop stop-color="#0A8CC6" offset="100%"></stop>
        </linearGradient>
        <rect id="path-2" x="0" y="0" width="1283" height="195"></rect>
        <linearGradient x1="100%" y1="-10.2309429%" x2="42.7576902%" y2="82.5960428%" id="linearGradient-4">
            <stop stop-color="#E3F2FD" offset="0%"></stop>
            <stop stop-color="#C5E3FC" offset="74.6649962%"></stop>
            <stop stop-color="#BBDEFB" offset="100%"></stop>
        </linearGradient>
        <linearGradient x1="100%" y1="-10.2309429%" x2="42.7576902%" y2="82.5960428%" id="linearGradient-5">
            <stop stop-color="#E3F2FD" offset="0%"></stop>
            <stop stop-color="#BBDEFB" offset="100%"></stop>
        </linearGradient>
    </defs>
    <g id="Page-1" stroke="none" stroke-width="1" fill="none" fill-rule="evenodd">
        <g id="Schedule---Menu-Alt" transform="translate(0.000000, -47.000000)">
            <g id="Hero-Image---Tues" transform="translate(0.000000, 47.000000)">
                <g id="Group-13-+-Group-12-Mask">
                    <mask id="mask-3" fill="white">
                        <use xlink:href="#path-2"></use>
                    </mask>
                    <use id="Mask" fill="url(#linearGradient-1)" xlink:href="#path-2"></use>
                    <g id="Group-13" opacity="0.55" mask="url(#mask-3)" stroke="url(#linearGradient-4)">
                        <g transform="translate(563.230971, 144.248000) rotate(11.000000) translate(-563.230971, -144.248000) translate(-38.769029, -185.752000)" id="Path-1172">
                            <path d="M1001.85779,96.8333251 C1001.85779,96.8333251 891.045379,521.890084 183.465755,553.281269"></path>
                            <path d="M983.511213,87.1499926 C983.511213,87.1499926 872.698804,512.206751 165.119179,543.597936"></path>
                            <path d="M965.164638,77.4666601 C965.164638,77.4666601 854.352228,502.523419 146.772604,533.914604"></path>
                            <path d="M946.818062,67.7833275 C946.818062,67.7833275 836.005653,492.840086 128.426028,524.231271"></path>
                            <path d="M928.471487,58.099995 C928.471487,58.099995 817.659077,483.156754 110.079453,514.547939"></path>
                            <path d="M910.124911,48.4166625 C910.124911,48.4166625 799.312502,473.473421 91.7328775,504.864606"></path>
                            <path d="M891.778336,38.73333 C891.778336,38.73333 780.965926,463.790089 73.386302,495.181274"></path>
                            <path d="M873.43176,29.0499975 C873.43176,29.0499975 762.619351,454.106756 55.0397265,485.497941"></path>
                            <path d="M855.085185,19.366665 C855.085185,19.366665 744.272775,444.423424 36.693151,475.814609"></path>
                            <path d="M836.738609,9.68333251 C836.738609,9.68333251 725.9262,434.740091 18.3465755,466.131276"></path>
                            <path d="M818.392034,-3.97903932e-13 C818.392034,-3.97903932e-13 707.579624,425.056759 1.42108547e-13,456.447944"></path>
                            <path d="M1203.67012,203.349983 C1203.67012,203.349983 1092.85771,628.406741 385.278085,659.797926"></path>
                            <path d="M1185.32354,193.66665 C1185.32354,193.66665 1074.51113,618.723409 366.93151,650.114594"></path>
                            <path d="M1166.97697,183.983318 C1166.97697,183.983318 1056.16456,609.040076 348.584934,640.431261"></path>
                            <path d="M1148.63039,174.299985 C1148.63039,174.299985 1037.81798,599.356744 330.238359,630.747929"></path>
                            <path d="M1130.28382,164.616653 C1130.28382,164.616653 1019.47141,589.673411 311.891783,621.064596"></path>
                            <path d="M1111.93724,154.93332 C1111.93724,154.93332 1001.12483,579.990079 293.545208,611.381264"></path>
                            <path d="M1093.59067,145.249988 C1093.59067,145.249988 982.778257,570.306746 275.198632,601.697931"></path>
                            <path d="M1075.24409,135.566655 C1075.24409,135.566655 964.431681,560.623414 256.852057,592.014599"></path>
                            <path d="M1056.89752,125.883323 C1056.89752,125.883323 946.085106,550.940081 238.505481,582.331266"></path>
                            <path d="M1038.55094,116.19999 C1038.55094,116.19999 927.73853,541.256749 220.158906,572.647934"></path>
                            <path d="M1020.20436,106.516658 C1020.20436,106.516658 909.391955,531.573416 201.81233,562.964601"></path>
                        </g>
                    </g>
                    <g id="Group-12" opacity="0.680620336" mask="url(#mask-3)" stroke="url(#linearGradient-5)">
                        <g transform="translate(748.187680, -241.485417)" id="Path-1183" opacity="0.4">
                            <path d="M0.378922046,316.039325 L270.169199,907.070655"></path>
                            <path d="M5.5620353,307.513264 L275.352312,898.544594"></path>
                            <path d="M10.7451486,298.987203 L280.535425,890.018533"></path>
                            <path d="M15.9282618,290.461141 L285.718539,881.492471"></path>
                            <path d="M21.1113751,281.93508 L290.901652,872.96641"></path>
                            <path d="M26.2944883,273.409019 L296.084765,864.440349"></path>
                            <path d="M31.4776016,264.882958 L301.267878,855.914288"></path>
                            <path d="M36.6607148,256.356897 L306.450992,847.388226"></path>
                            <path d="M41.8438281,247.830835 L311.634105,838.862165"></path>
                            <path d="M47.0269414,239.304774 L316.817218,830.336104"></path>
                            <path d="M52.2100546,230.778713 L322.000331,821.810043"></path>
                            <path d="M57.3931679,222.252652 L327.183445,813.283981"></path>
                            <path d="M62.5762811,213.72659 L332.366558,804.75792"></path>
                            <path d="M67.7593944,205.200529 L337.549671,796.231859"></path>
                            <path d="M72.9425076,196.674468 L342.732784,787.705798"></path>
                            <path d="M78.1256209,188.148407 L347.915898,779.179736"></path>
                            <path d="M83.3087342,179.622345 L353.099011,770.653675"></path>
                            <path d="M88.4918474,171.096284 L358.282124,762.127614"></path>
                            <path d="M93.6749607,162.570223 L363.465237,753.601553"></path>
                            <path d="M98.8580739,154.044162 L368.648351,745.075491"></path>
                            <path d="M104.041187,145.5181 L373.831464,736.54943"></path>
                            <path d="M109.2243,136.992039 L379.014577,728.023369"></path>
                            <path d="M114.407414,128.465978 L384.197691,719.497308"></path>
                            <path d="M119.590527,119.939917 L389.380804,710.971246"></path>
                            <path d="M124.77364,111.413855 L394.563917,702.445185"></path>
                            <path d="M129.956753,102.887794 L399.74703,693.919124"></path>
                            <path d="M135.139867,94.3617328 L404.930144,685.393063"></path>
                            <path d="M140.32298,85.8356716 L410.113257,676.867001"></path>
                            <path d="M145.506093,77.3096103 L415.29637,668.34094"></path>
                            <path d="M150.689207,68.7835491 L420.479483,659.814879"></path>
                            <path d="M155.87232,60.2574878 L425.662597,651.288818"></path>
                            <path d="M161.055433,51.7314266 L430.84571,642.762756"></path>
                            <path d="M166.238546,43.2053653 L436.028823,634.236695"></path>
                            <path d="M171.42166,34.6793041 L441.211936,625.710634"></path>
                            <path d="M176.604773,26.1532428 L446.39505,617.184573"></path>
                            <path d="M181.787886,17.6271816 L451.578163,608.658511"></path>
                            <path d="M186.970999,9.10112033 L456.761276,600.13245"></path>
                            <path d="M192.154113,0.575059081 L461.944389,591.606389"></path>
                        </g>
                    </g>
                </g>
            </g>
        </g>
    </g>
</svg>